<?xml version="1.0" encoding="UTF-8" standalone="yes"?><svg xmlns="http://www.w3.org/2000/svg" xmlns:xlink="http://www.w3.org/1999/xlink" width="297.000mm" height="210.000mm" viewBox="0.000000 0.000000 297.000000 210.000000" stroke-linejoin="round" stroke-linecap="round" fill="none" fill-rule="evenodd"><desc>Composer Export</desc><script type="text/ecmascript"><![CDATA[
if(typeof(top) != "undefined")
{
	top.ShowPaper = ShowPaper;
}
function ShowHotSpot(evt,hotspotid)
{
	var svgDocument = evt.target.ownerDocument;
	var strId = "hotspot."+hotspotid;
	var hotspot = svgDocument.getElementById(strId);
	if(hotspot)
		hotspot.setAttribute("opacity",".5");
}
function HideHotSpot(evt,hotspotid)
{
	var svgDocument = evt.target.ownerDocument;
	var strId = "hotspot."+hotspotid;
	var hotspot = svgDocument.getElementById(strId);
	if(hotspot)
		hotspot.setAttribute("opacity","0");

	var toolTip = svgDocument.getElementById('ToolTip');
	if(toolTip)
		toolTip.setAttribute("visibility","hidden");
}
function ShowToolTip(evt,hotspotid,strTooltip)
{
	if(strTooltip=="")
	return;

	// change text
	var svgDocument = evt.target.ownerDocument;
	var tiptext = svgDocument.getElementById('ToolTipText');
	if( !tiptext )
	return;
	tiptext.firstChild.nodeValue = " " + strTooltip + "  " ;

	// show tooltip before, else some refresh issue

	var toolTip = svgDocument.getElementById('ToolTip');
	if(!toolTip)
	return;

	toolTip.setAttribute("visibility","visible");
	toolTip.setAttribute("opacity",".95");

	// move tooltip
	// get viewbox

	var root = svgDocument.documentElement;
	var vbox = (root.getAttribute("viewBox")).split(' ');
	var x0 = parseFloat(vbox[0]);
	var y0 = parseFloat(vbox[1]);
	var vboxW = parseFloat(vbox[2]);
	var vboxH = parseFloat(vbox[3]);

	// get default width of svg

	var strW = root.getAttribute("width");
	var svgW = parseFloat(strW);
	if(strW.indexOf('mm') != -1)
	svgW *= 3.779;

	var strH = root.getAttribute("height");
	var svgH = parseFloat(strH);
	if(strH.indexOf('mm') != -1)
	svgH *= 3.779;  	// 96 dpi  -> 96/25.4 = 3.779

	// update the viewbox / width / height if svg is embedded in html with zoom fit all
	var realx0 = x0;
	var realy0 = y0;
	var realvboxW = vboxW;
	var realvboxH = vboxH;
	var realsvgW = svgW;
	var realsvgH = svgH;

	if ((typeof(top) == "undefined") || (typeof(top.svgctl1) != "undefined")) // embedded in html
	{
		// get window size in pxl

		svgW = window.innerWidth;
		svgH = window.innerHeight;

		// calculate real viewbox

		realsvgW = svgW;
		realsvgH = svgH;
		if((svgW / svgH) > (vboxW / vboxH))
		{
			realvboxW = (vboxH * svgW) / svgH;
			realvboxH = vboxH;
			realx0 = x0 - (realvboxW - vboxW)/2 ;
		}
		else
		{
			realvboxH = (vboxW * svgH) / svgW;
			realvboxW = vboxW;
			realy0 = y0 - (realvboxH - vboxH)/2 ;
		}
	}

	// get user zoom/pan

	var newScale = root.currentScale;
	var translation = root.currentTranslate;

	// transform pxl to user unit

	var xPos = (((evt.clientX+10- translation.x)/newScale) * realvboxW)/realsvgW  + realx0 ;
	var yPos = (((evt.clientY+5- translation.y)/newScale) * realvboxH)/ realsvgH  + realy0 ;
	var scaleForWidth = ( (1 / newScale) * realvboxH) / realsvgH;

	// move tooltip

	toolTip.setAttribute("transform", "translate(" + xPos + "," + yPos + ")" );

	// resize tooltip

	var fontsize = 12;
	tiptext.setAttribute("font-size",fontsize*scaleForWidth);
	tiptext.setAttribute("y", fontsize*scaleForWidth);
	var tipBG = svgDocument.getElementById('ToolTipBG');
	var outline = tiptext.getBBox();
	if(tipBG)
	{
		tipBG.setAttribute("stroke-width", 1*scaleForWidth);
		tipBG.setAttribute("width", Number(outline.width) );
		tipBG.setAttribute("height", Number(outline.height) + fontsize*.5*scaleForWidth );
	}
	var ToolTipShadow = svgDocument.getElementById('ToolTipShadow');
	if(ToolTipShadow)
	{
		ToolTipShadow.setAttribute("width", Number(outline.width) );
		ToolTipShadow.setAttribute("height", Number(outline.height) + fontsize*.5*scaleForWidth );
		ToolTipShadow.setAttribute("x", 3*scaleForWidth);
		ToolTipShadow.setAttribute("y", 3*scaleForWidth);
	}
}
function ShowPaper()
{
  var svgDocument = getDocument();
  var paper = svgDocument.getElementById("paperID");
  if(paper)
  {
    paper.setAttribute("transform","scale(1)");
    paper.setAttribute("opacity","1");
    paper.setAttribute("visibility","visible");
  }
  var svg = svgDocument.getRootElement();
  if(svg)
  {
    svg.setAttribute("width","307.000mm");
    svg.setAttribute("height","220.000mm");
    svg.setAttribute("viewBox","-5.000000 -5.000000 307.000000 220.000000");
  }
}
]]></script><defs><mask id="mask0" x="0" y="0" height="100%" width="100%"><image x="239.461044" y="168.790283" height="40.937347" width="55.346039" xlink:href="UNI-U1700-ALT-UNIDAN_files/b913ac4efa31ae5d_mask_0.jpg"/></mask><mask id="mask1" x="0" y="0" height="100%" width="100%"><image x="-25.743708" y="-23.242882" height="89.395683" width="87.698730" xlink:href="UNI-U1700-ALT-UNIDAN_files/b913ac4efa31ae5d_mask_1.jpg"/></mask><mask id="mask2" x="0" y="0" height="100%" width="100%"><image x="267.134094" y="50.813660" height="17.189310" width="19.431398" xlink:href="UNI-U1700-ALT-UNIDAN_files/b913ac4efa31ae5d_mask_2.jpg"/></mask><mask id="mask3" x="0" y="0" height="100%" width="100%"><image x="267.134064" y="29.147215" height="17.590467" width="18.953098" xlink:href="UNI-U1700-ALT-UNIDAN_files/b913ac4efa31ae5d_mask_3.jpg"/></mask><mask id="mask4" x="0" y="0" height="100%" width="100%"><image x="117.603294" y="184.838684" height="17.851601" width="19.118490" xlink:href="UNI-U1700-ALT-UNIDAN_files/b913ac4efa31ae5d_mask_4.jpg"/></mask></defs><g><path style="fill:#ffffff" d="M296.95,209.90L0.09,209.90L0.09,0.09L296.95,0.09z"/><path style="fill:#e4e9ed" d="M164.12,58.43L166.10,58.41L166.42,58.10L167.29,58.29L166.73,58.75L166.77,59.02L167.82,59.17L168.06,59.31L168.35,59.83L167.94,59.91L162.83,62.93L164.12,63.54L165.20,63.51L168.06,61.63L173.40,64.12L177.28,66.81L178.29,67.87L175.37,69.79L174.32,69.78L173.99,69.47L173.28,69.45L172.89,69.97L172.38,70.09L166.68,73.69L166.17,74.59L166.86,75.15L169.53,78.15L171.63,80.84L185.67,97.61L186.55,100.01L186.56,101.61L186.26,102.50L184.76,104.89L174.17,116.44L170.43,120.77L169.69,122.07L168.03,123.46L165.19,125.71L160.57,128.63L155.73,130.30L152.07,131.12L151.91,131.33L145.48,131.72L134.35,133.70L134.22,128.72L133.33,127.52L131.08,126.54L126.47,123.36L125.44,123.65L122.05,125.71L118.10,114.03L115.96,109.59L114.75,105.71L114.17,102.70L113.87,100.01L113.87,94.13L114.45,90.22L115.87,85.65L117.46,81.56L118.77,76.95L140.83,66.06L141.24,65.50L141.71,65.15L141.86,63.43L146.38,62.02L148.96,61.56L151.35,61.23L152.26,60.97L159.52,59.91L162.64,58.15z"/><path style="fill:#c0c0c0" d="M138.10,56.94L139.36,57.96L138.89,58.15L138.97,58.70L140.23,60.19L141.10,62.31L141.24,65.50L140.83,66.06L118.77,76.95L116.76,77.87L110.78,80.57L94.64,88.36L92.35,88.33L89.96,86.23L89.03,84.47L88.73,83.27L88.72,80.05L89.54,79.07L108.09,70.10L114.07,67.40L136.19,56.62L137.52,56.62z"/><path style="fill:#c0c0c0" d="M145.87,80.87L149.17,81.76L150.36,82.36L154.55,84.76L155.52,85.81L155.43,86.22L158.18,89.20L159.98,92.19L161.45,95.51L161.72,97.03L162.34,101.22L162.03,105.19L161.53,107.69L161.30,108.59L160.95,109.27L160.49,109.63L160.37,110.65L159.33,112.37L157.25,115.08L154.72,117.03L150.70,119.59L148.18,120.66L144.28,121.55L140.19,121.55L136.88,120.97L133.02,119.45L129.74,117.34L127.35,115.24L124.93,111.98L123.14,108.39L122.23,105.41L121.95,103.60L121.94,98.01L123.05,93.73L124.33,91.13L126.01,88.62L128.73,85.95L133.81,82.66L136.50,81.46L139.20,80.87L143.48,80.57z"/><path style="fill:#cdd1d5" d="M179.98,69.20L181.81,71.26L185.36,76.68L187.44,81.78L188.65,87.15L188.65,94.42L187.93,98.14L188.36,99.84L189.88,98.73L190.47,99.72L190.16,100.73L189.26,101.31L188.07,104.31L184.97,106.60L183.62,107.69L183.09,108.23L181.87,109.72L181.56,110.29L179.38,113.57L177.54,115.27L177.49,115.84L174.77,118.23L171.63,120.78L169.69,122.07L170.43,120.77L174.17,116.44L184.76,104.89L186.26,102.50L186.56,101.61L186.55,100.01L185.67,97.61L171.63,80.84L169.53,78.15L166.86,75.15L166.17,74.59L166.68,73.69L172.38,70.09L172.89,69.97L173.11,70.41L173.73,70.39L172.89,69.97L173.28,69.45L173.99,69.47L174.32,69.78L175.37,69.79L178.29,67.87z"/><path style="fill:#acacac" d="M116.63,69.66L116.54,71.92L117.23,72.96L116.26,72.79L115.94,72.21L115.94,70.17L116.47,69.50L116.67,69.46z"/><path style="fill:#acacac" d="M133.33,127.52L134.22,128.72L134.35,133.70L134.41,137.23L151.87,132.11L151.91,131.33L152.07,131.12L155.73,130.30L160.57,128.63L160.43,129.92L152.04,135.58L134.11,140.99L132.30,142.17L128.82,142.19L126.92,141.99L126.88,141.80L131.74,141.90L131.82,128.72L131.08,126.54z"/><path style="fill:#e4e9ed" d="M144.10,97.60L144.49,98.08L143.47,98.63L143.47,99.39L143.81,99.68L144.69,101.50L144.68,104.00L143.87,105.82L143.68,106.00L141.61,107.21L138.98,107.21L137.23,106.27L136.00,104.80L135.69,104.21L135.38,101.61L136.04,99.85L136.80,98.81L139.78,97.00L142.02,96.74z"/><path style="fill:#ffffff" d="M116.63,69.66L116.67,69.46L120.14,67.50L122.22,66.77L122.28,66.98L120.24,72.92L120.06,73.10L117.46,73.09L117.23,72.96L116.54,71.92z"/><path style="fill:#c0c0c0" d="M151.96,58.40L151.18,58.74L151.35,61.23L148.96,61.56L149.04,58.44L149.26,58.39L150.05,58.55L150.18,58.40L151.25,58.10z"/><path style="fill:#c0c0c0" d="M181.87,109.72L183.09,108.23L183.60,108.28L183.59,109.38L183.35,109.83L182.36,109.90z"/><path style="fill:#c0c0c0" d="M131.08,126.54L131.82,128.72L131.74,141.90L126.88,141.80L126.75,140.38L124.36,137.38L121.08,133.48L120.73,132.94L120.44,131.73L120.44,128.82L120.95,127.23L122.05,125.71L125.44,123.65L126.47,123.36z"/><path style="fill:#c0c0c0" d="M151.87,132.11L134.41,137.23L134.35,133.70L145.48,131.72L151.91,131.33z"/><path style="fill:#cdd1d5" d="M166.73,58.75L167.29,58.29L167.74,58.43L167.82,59.17L166.77,59.02z"/><path style="fill:#cdd1d5" d="M162.83,62.93L167.94,59.91L168.35,59.83L168.06,61.63L165.20,63.51L164.12,63.54z"/><path style="fill:#cdd1d5" d="M144.41,69.49L142.24,69.48L142.20,69.21L143.10,68.57L143.48,68.56z"/><path style="fill:#cdd1d5" d="M154.28,71.31L154.30,71.97L152.65,71.37L152.75,70.51L153.67,70.12z"/><path style="fill:#cdd1d5" d="M162.02,75.59L162.96,75.19L162.92,77.11L162.35,77.00L162.02,76.67z"/><path style="fill:#cdd1d5" d="M165.35,79.64L168.34,83.55L168.90,83.93L170.14,82.97L169.79,84.24L169.78,85.98L171.01,88.34L172.78,93.18L173.12,93.50L173.71,93.43L173.74,93.79L173.28,94.32L173.99,102.51L174.88,102.39L175.21,102.97L175.11,103.29L173.69,103.99L173.40,106.09L171.80,112.05L172.56,112.57L172.51,113.24L171.77,113.77L170.99,113.79L170.97,112.97L172.21,109.39L173.10,104.30L173.09,97.92L171.89,92.54L169.81,87.14L166.25,81.73L163.55,78.74L162.91,78.15L162.82,77.56L163.20,77.52z"/><path style="fill:#cdd1d5" d="M183.59,99.39L183.58,101.62L181.07,101.49L180.18,102.15L179.69,102.12L179.05,100.92L179.05,99.80L179.69,98.63L180.46,98.20L182.09,98.20z"/><path style="fill:#cdd1d5" d="M145.03,98.47L146.19,100.59L146.18,102.81L145.31,104.63L143.87,105.82L144.68,104.00L144.69,101.50L143.81,99.68L143.47,99.39L143.47,98.63L144.49,98.08z"/><path style="fill:#cdd1d5" d="M165.30,121.37L166.54,120.35L166.54,121.36L166.11,121.87L165.30,121.86z"/><path style="fill:#acacac" d="M139.95,58.39L141.39,60.83L141.86,63.43L141.71,65.15L141.24,65.50L141.10,62.31L140.23,60.19L138.97,58.70L138.89,58.15L139.36,57.96z"/><path style="fill:#acacac" d="M150.05,58.55L149.26,58.39L150.18,58.40z"/><path style="fill:#acacac" d="M151.18,58.74L151.96,58.40L152.17,58.46L152.26,60.97L151.35,61.23z"/><path style="fill:#acacac" d="M131.83,65.60L131.98,67.31L131.82,68.73L131.53,65.89L130.77,64.03L130.94,64.09z"/><path style="fill:#acacac" d="M130.62,69.60L129.11,70.50L129.12,69.94L129.74,69.02L130.00,66.29L130.50,65.26L130.63,65.30z"/><path style="fill:#acacac" d="M97.15,80.56L97.15,80.96L96.83,80.89L96.83,80.24z"/><path style="fill:#acacac" d="M97.12,82.69L96.85,85.18L96.11,85.69L95.51,85.67L95.94,84.87L96.20,82.45L96.70,81.41z"/><path style="fill:#acacac" d="M156.37,86.52L159.04,89.54L161.74,94.92L162.63,99.12L162.63,103.70L162.33,105.49L161.53,107.69L162.03,105.19L162.34,101.22L161.72,97.03L161.45,95.51L159.98,92.19L158.18,89.20L155.43,86.22L155.52,85.81z"/><path style="fill:#acacac" d="M156.38,89.53L156.38,89.94L156.06,89.86L156.06,89.21z"/><path style="fill:#acacac" d="M143.20,94.01L144.68,94.63L146.50,96.12L145.59,96.12L144.38,95.23L142.59,94.62L139.79,94.62L136.80,96.11L135.40,98.01L134.80,99.80L134.82,103.67L133.92,104.00L133.59,103.66L133.59,99.19L134.97,96.38L137.10,94.63L139.80,93.73L141.69,93.73z"/><path style="fill:#acacac" d="M160.34,98.41L160.15,98.28L160.24,97.29z"/><path style="fill:#acacac" d="M160.54,99.53L160.34,98.41L160.52,98.55z"/><path style="fill:#acacac" d="M183.60,108.28L183.09,108.23L183.62,107.69z"/><path style="fill:#acacac" d="M183.35,109.83L183.17,110.50L182.38,110.51L181.56,110.29L181.87,109.72L182.36,109.90z"/><path style="fill:#acacac" d="M160.85,109.99L160.37,110.65L160.49,109.63L160.95,109.27z"/><path style="fill:#acacac" d="M129.12,133.01L128.09,133.41L128.55,132.13L128.75,129.30L129.14,129.20z"/><path style="fill:#acacac" d="M124.83,134.70L125.93,134.67L125.35,135.14L124.87,134.98z"/><path style="fill:#e4e9ed" d="M138.15,62.21L138.12,63.93L137.54,64.55L131.98,67.31L131.83,65.60L130.94,64.09L130.77,64.03L129.90,62.88L133.41,61.25z"/><path style="fill:#e4e9ed" d="M122.84,69.80L124.32,71.10L120.24,72.92L122.28,66.98z"/><path style="fill:#e4e9ed" d="M173.73,70.39L173.11,70.41L172.89,69.97z"/><path style="fill:#e4e9ed" d="M176.13,72.78L176.13,73.19L175.80,73.11L175.80,72.46z"/><path style="fill:#e4e9ed" d="M183.07,85.25L182.85,84.46L182.96,84.44z"/><path style="fill:#e4e9ed" d="M183.29,86.05L183.07,85.25L183.26,85.41z"/><path style="fill:#e4e9ed" d="M189.88,98.73L188.36,99.84L187.93,98.14L188.95,98.21z"/><path style="fill:#ffffff" d="M138.14,61.70L138.15,62.21L133.41,61.25L134.70,60.51L136.92,60.51z"/><path style="fill:#ffffff" d="M127.93,126.33L129.45,127.50L130.64,129.31L130.64,132.43L129.90,133.79L128.15,135.03L125.82,135.35L125.35,135.14L125.93,134.67L127.94,133.63L128.09,133.41L129.12,133.01L129.14,129.20L128.87,128.71L125.87,126.93L122.25,128.83L121.64,131.24L121.63,129.41L122.86,127.04L124.52,126.02L127.35,126.02z"/><g><g/><g><image x="239.461044" y="168.790283" height="40.937347" width="55.346039" xlink:href="UNI-U1700-ALT-UNIDAN_files/b913ac4efa31ae5d_image_0.jpg" mask="url(#mask0)"/></g></g><g><g/><g><image x="-25.743708" y="-23.242882" height="89.395683" width="87.698730" xlink:href="UNI-U1700-ALT-UNIDAN_files/b913ac4efa31ae5d_image_1.jpg" mask="url(#mask1)"/></g></g><g id="Actor_.0"><g style="stroke:#000000;stroke-width:0.353"><path d="M182.84,110.62L182.75,110.45L182.71,110.12L182.72,109.68L182.79,109.16L182.89,108.63L183.03,108.14L183.10,107.96"/><path d="M183.04,110.11L183.14,109.99L183.25,109.76L183.35,109.46L183.44,109.10L183.50,108.73L183.52,108.40L183.51,108.13L183.47,107.96L183.40,107.90L183.35,107.92L183.30,107.96L183.19,108.14L183.12,108.31L183.08,108.41L182.99,108.75L182.91,109.12L182.87,109.47L182.86,109.78L182.88,109.93L182.89,110.00L182.95,110.12L183.04,110.11"/></g><g style="stroke:#000000;stroke-width:0.353"><path d="M183.62,107.58L183.66,107.73L183.67,108.12L183.64,108.61L183.55,109.14L183.42,109.66L183.27,110.10L183.11,110.43L182.96,110.61L182.84,110.62L181.45,110.35"/></g></g><g id="Actor_.1"><g style="stroke:#000000;stroke-width:0.353"><path d="M91.69,80.00L92.58,79.70"/><path d="M96.01,80.86L95.15,80.11L94.30,79.78"/><path d="M95.63,85.96L95.15,86.33"/><path d="M96.78,83.40L96.95,83.41L96.78,84.24"/><path d="M96.95,83.41L97.18,83.26"/><path d="M96.95,83.21L96.78,82.36"/></g><g style="stroke:#000000;stroke-width:0.353"><path d="M92.93,79.51L91.92,79.85L91.69,80.00L91.04,80.53"/><path d="M95.75,85.89L95.38,86.18L95.15,86.33L94.70,86.47"/><path d="M96.57,81.22L96.31,80.77L95.38,79.96L94.24,79.51L93.87,79.50"/><path d="M96.78,83.24L97.18,83.26L96.94,84.45L96.78,84.70"/><path d="M96.78,81.58L96.94,81.85L97.18,83.06L96.95,83.21L96.78,83.20"/></g></g><g id="Actor_.2"><g style="stroke:#000000;stroke-width:0.353"><path d="M152.10,58.35L152.05,58.44L151.82,58.53L151.45,58.62L150.97,58.69L150.43,58.73L149.90,58.74L149.43,58.73L149.07,58.69L148.86,58.62L148.82,58.53"/><path d="M149.62,58.39L149.43,58.45L149.36,58.48L149.33,58.51L149.36,58.57L149.50,58.62L149.75,58.65L150.08,58.66L150.44,58.65L150.66,58.63L150.81,58.62L151.14,58.57L151.40,58.51L151.55,58.45L151.59,58.39L151.50,58.33L151.30,58.30L151.01,58.28L150.66,58.28L150.29,58.30L149.93,58.33L149.64,58.39L149.62,58.39"/></g><g style="stroke:#000000;stroke-width:0.353"><path d="M152.26,60.98L152.10,58.35L151.98,58.28L151.69,58.22L151.26,58.19L150.75,58.19L150.21,58.22L149.69,58.28L149.26,58.35L148.96,58.44L148.87,58.49L148.82,58.53L149.00,61.64"/></g></g><g id="Actor_.3"><g style="stroke:#000000;stroke-width:0.353"><path d="M96.39,86.11L97.20,85.09L97.62,83.85L97.68,83.18L97.62,82.51L97.20,81.23L96.39,80.13L95.29,79.35L94.02,78.96L92.71,79.01L91.51,79.49"/></g><g style="stroke:#000000;stroke-width:0.353"><path d="M93.69,87.01L94.02,87.06L95.29,86.79L96.62,85.96L97.43,84.94L97.86,83.69L97.91,83.03L97.86,82.36L97.43,81.07L96.62,79.98L95.72,79.34L95.53,79.20L94.26,78.81L92.95,78.86L91.75,79.34L91.51,79.49L90.55,80.35L90.20,80.99"/></g></g><g id="Actor_.4"><g style="stroke:#000000;stroke-width:0.353"><path d="M129.78,71.22L130.84,70.19L131.52,68.87L131.71,67.64L131.75,67.37L131.52,65.85L130.84,64.46L129.78,63.34L128.45,62.58L126.97,62.27L125.50,62.44L124.16,63.07"/></g><g style="stroke:#000000;stroke-width:0.353"><path d="M126.42,71.90L126.97,72.02L128.45,71.85L129.78,71.22L130.07,71.03L131.13,70.00L131.81,68.68L132.04,67.18L131.81,65.67L131.13,64.28L130.07,63.15L128.74,62.39L127.26,62.09L125.78,62.26L124.45,62.88L124.16,63.07L123.11,64.10L122.43,65.43L122.19,66.92L122.43,68.44L122.50,68.59"/><path d="M123.62,70.38L124.16,70.96L125.50,71.71L125.99,71.81"/></g></g><g id="Actor_.5"><g style="stroke:#000000;stroke-width:0.353"><path d="M146.86,129.95L146.73,130.08L146.94,129.94L144.17,130.03L140.41,129.64L136.71,128.78L133.13,127.44L129.72,125.65L126.54,123.44L123.65,120.85L121.09,117.92L118.90,114.69L117.12,111.23L115.78,107.58L114.91,103.80L114.51,99.97L114.59,96.14L115.15,92.37L116.18,88.73L117.63,85.37L117.52,85.39L117.65,85.30L117.63,85.37"/><path d="M123.97,77.15L125.01,76.25L124.86,76.22L123.55,77.07L123.94,77.14L121.90,79.14L119.58,82.06L117.65,85.30"/><path d="M117.52,85.39L117.56,85.53"/><path d="M125.86,123.52L125.01,122.83L122.25,120.01L119.82,116.89L118.35,114.50"/><path d="M123.52,77.09L123.49,77.61"/><path d="M125.01,76.25L128.10,74.03L131.36,72.26L132.53,71.76L132.04,71.52L131.81,72.07"/><path d="M124.66,62.22L125.98,61.51L126.34,61.44"/><path d="M125.32,61.86L126.82,60.89"/><path d="M127.57,74.38L130.83,72.61L134.30,71.30L137.94,70.45L141.66,70.10L145.43,70.23L149.17,70.86L152.82,71.96L156.32,73.53L159.62,75.53L162.66,77.94L165.40,80.70L167.76,83.78L169.75,87.13L171.32,90.71L172.43,94.43L173.06,98.20L173.23,102.08L172.91,105.89L172.11,109.60L170.83,113.20L169.14,116.50L167.02,119.57L164.52,122.32L161.68,124.71L158.55,126.69L156.96,127.42L156.74,127.91L156.36,127.72L156.96,127.42"/><path d="M131.53,62.04L138.12,63.75"/><path d="M132.04,71.52L133.38,70.65L134.25,71.16L132.53,71.76"/><path d="M146.85,131.53L146.13,131.55L142.32,131.19L138.55,130.37L134.89,129.10L133.91,128.63"/><path d="M134.25,71.16L134.84,70.95L138.45,70.11L142.44,69.74L142.06,69.35L143.39,68.48L144.55,69.83L142.44,69.74"/><path d="M136.10,105.00L136.87,106.01L138.13,106.90L139.55,107.35L141.06,107.35L142.46,106.87L143.62,105.96L144.44,104.72L144.82,103.27L144.75,101.74L144.21,100.29L143.27,99.06L142.01,98.17L140.57,97.71L139.08,97.72L137.68,98.20L136.52,99.11L135.70,100.35L135.32,101.80L135.39,103.33L135.93,104.78L136.10,105.00"/><path d="M137.68,98.20L139.12,97.26"/><path d="M141.64,69.77L142.06,69.35"/><path d="M142.03,63.40L151.98,65.97L151.26,66.49L152.37,66.70L155.81,67.74L159.13,69.16L162.29,70.94L161.76,71.29L158.60,69.51L155.28,68.09L151.85,67.05L148.33,66.39L141.74,64.68"/><path d="M143.90,105.93L142.46,106.87"/><path d="M184.68,93.70L184.64,92.35L184.04,88.43L182.99,84.60L181.48,80.90L180.57,79.12L179.55,77.40L177.22,74.15L174.54,71.20L171.53,68.59L168.25,66.37L164.74,64.56L161.06,63.19L157.27,62.29L153.41,61.87L149.62,61.93L145.76,62.48L142.25,63.45"/><path d="M142.37,63.48L145.55,62.60L149.32,62.06L153.20,61.99L157.05,62.42L160.85,63.32L164.53,64.68L168.04,66.49L171.32,68.72L174.33,71.33L177.02,74.28L179.35,77.53L180.40,79.31L181.28,81.03L182.79,84.73L183.84,88.57L184.44,92.49L184.47,93.45"/><path d="M144.55,69.83L145.96,69.88L149.70,70.51L152.58,71.34L152.35,70.84L151.81,71.09"/><path d="M146.94,129.94L147.93,129.91L151.61,129.31L155.17,128.23L156.33,127.70"/><path d="M146.73,130.08L146.60,129.95"/><path d="M148.86,66.04L151.26,66.49"/><path d="M152.58,71.34L154.55,72.15L153.68,69.97L152.61,70.46L151.70,71.06"/><path d="M159.00,60.19L156.62,61.58L154.27,61.38L150.76,61.43"/><path d="M152.35,70.84L153.68,69.97"/><path d="M154.55,72.15L156.86,73.18L160.16,75.18L161.74,76.36L163.13,77.53L163.02,74.95L161.83,75.03L160.84,75.67"/><path d="M156.74,127.91L158.08,127.04L158.15,126.87"/><path d="M161.68,124.71L162.22,124.36L165.30,121.73L165.26,122.34L164.74,122.28"/><path d="M161.74,76.36L161.68,75.82L161.09,75.86"/><path d="M161.68,75.82L163.02,74.95"/><path d="M161.76,71.29L164.73,73.40L167.46,75.83L169.93,78.54L172.11,81.49L185.27,97.16L186.11,98.49L186.54,99.99L186.54,101.53L186.10,102.99L185.27,104.24L172.11,118.67L169.75,121.62L167.06,124.25L164.06,126.53"/><path d="M162.29,70.94L165.25,73.05L168.00,75.48L170.47,78.19L172.64,81.15"/><path d="M168.49,59.54L162.73,62.96L165.57,64.06L169.07,65.87L172.35,68.09L175.35,70.69L178.03,73.63L180.35,76.88L181.22,78.44L182.28,80.37L183.78,84.06L184.84,87.88L185.42,91.77L185.52,94.69"/><path d="M168.35,83.50L168.93,83.67L168.80,84.19L165.93,80.35L163.13,77.53"/><path d="M164.51,126.22L164.59,126.18"/><path d="M167.89,61.66L164.72,63.73"/><path d="M165.26,122.34L166.60,121.47L166.67,120.26L165.30,121.73"/><path d="M165.45,58.75L167.82,59.33"/><path d="M166.56,120.33L166.67,120.26"/><path d="M166.63,120.25L167.56,119.22L169.66,116.17L170.76,114.16L171.27,114.04L172.60,113.17L172.26,111.99L171.64,112.10L171.50,112.49L172.26,111.99"/><path d="M172.64,118.32L170.29,121.27L168.32,123.20"/><path d="M168.07,83.14L169.10,82.46L170.27,82.80L169.47,85.35L168.80,84.19"/><path d="M169.47,85.35L170.29,86.79L171.85,90.36L172.92,93.90L173.22,93.47L172.72,93.11"/><path d="M168.93,83.67L170.27,82.80"/><path d="M170.76,114.16L171.10,113.45L171.27,114.04"/><path d="M171.53,119.71L172.10,119.34L186.77,103.26L187.58,102.04L188.03,100.56L188.03,99.01L187.60,97.51L186.77,96.18L172.10,78.73L171.27,79.28"/><path d="M171.10,113.45L171.50,112.49"/><path d="M171.64,112.10L172.65,109.25L173.44,105.54L173.68,103.51L174.03,104.01L173.60,104.32L174.18,103.93L174.03,104.01"/><path d="M181.43,109.12L180.37,111.23L178.23,114.42L175.72,117.29L172.94,119.74"/><path d="M172.54,92.54L173.56,91.88L174.55,92.60L173.06,94.50L172.92,93.90"/><path d="M173.04,94.53L173.60,97.89L173.77,101.73L173.72,102.69L174.66,102.13L173.72,102.69"/><path d="M173.07,119.66L175.91,117.15L178.44,114.27L180.57,111.09L181.71,108.81"/><path d="M174.18,103.93L175.30,103.19L174.18,103.93"/><path d="M173.68,103.51L173.71,102.74"/><path d="M173.22,93.47L174.55,92.60"/><path d="M174.66,102.13L175.37,103.14L175.30,103.19"/><path d="M179.76,102.29L179.27,101.66L178.99,100.88L178.97,100.06L179.21,99.30L179.68,98.66L180.34,98.23L181.11,98.04L181.91,98.12L182.65,98.46L183.25,99.03L183.65,99.75L183.80,100.53L183.70,101.36L183.33,102.07L182.76,102.62L182.04,102.93L181.24,102.98L180.46,102.77L179.76,102.29"/><path d="M183.46,101.84L182.95,101.87L182.17,101.65L181.49,101.19L180.98,100.54L180.70,99.76L180.68,98.95L181.00,98.07"/><path d="M181.94,109.43L182.47,108.43L183.09,107.97"/><path d="M181.22,78.44L184.98,75.99"/><path d="M186.54,100.76L188.03,99.78"/><path d="M190.05,98.63L188.03,100.09"/><path d="M187.77,98.08L187.93,97.98"/><path d="M189.92,99.12L189.15,101.40"/></g><g style="stroke:#000000;stroke-width:0.353"><path d="M121.99,125.91L118.35,114.50L117.75,113.52L116.09,109.94L114.84,106.20L114.04,102.36L113.68,98.47L113.77,94.58L114.32,90.75L115.32,87.04L116.75,83.49L118.94,76.82"/><path d="M122.19,66.93L120.16,73.10"/><path d="M124.61,62.28L126.17,61.24L127.47,60.53L128.68,60.30"/><path d="M133.35,61.16L138.26,62.42"/><path d="M181.94,109.43L181.37,110.50L179.24,113.67L176.73,116.54L173.89,119.05L168.32,123.20L167.59,123.91L164.59,126.18L160.80,128.40L157.33,129.86L153.69,130.88L149.94,131.45L146.85,131.53L134.40,133.58"/><path d="M150.76,61.43L146.63,61.98L142.96,63.00L142.03,63.40"/><path d="M141.84,63.35L142.03,63.40"/><path d="M150.76,61.43L152.10,61.01L155.45,60.39L159.00,60.19"/><path d="M159.00,60.19L162.46,58.17L163.93,58.39L165.45,58.75L166.43,58.11L167.08,58.07L167.38,58.21L167.79,58.74L167.82,59.33L168.49,59.54L167.89,61.66L171.38,63.08L174.68,64.93L177.73,67.18L180.50,69.81L182.93,72.76L184.95,75.96L186.61,79.44L187.81,83.06L188.55,86.79L188.82,90.56L188.64,93.83L187.93,97.98L190.05,98.63L189.92,99.12L190.21,99.37L190.44,100.00L190.24,100.62L189.15,101.40L188.57,103.05L187.96,104.39L183.09,107.97"/><path d="M183.09,107.97L181.94,109.43"/></g></g><g id="Actor_.6"><g style="stroke:#000000;stroke-width:0.353"><path d="M89.55,81.41L91.13,80.56L90.45,81.05L89.92,81.73L89.58,82.54L89.47,83.42L89.58,84.30L89.91,85.14L90.45,85.88L91.13,86.44L91.93,86.81L92.80,86.97L93.67,86.90L94.46,86.60L95.15,86.10L95.68,85.41L96.02,84.60L96.13,83.73L96.15,84.62L96.21,85.64"/><path d="M92.88,79.60L93.72,80.22L94.46,80.71L95.15,81.28L95.68,82.01L96.02,82.86L96.13,83.73L96.15,82.82L96.21,81.72L95.25,81.19L94.46,80.71L93.67,80.34L92.80,80.18L91.93,80.26L91.13,80.56L92.88,79.60L93.45,79.23"/><path d="M96.21,81.72L96.78,81.35L94.60,79.97"/><path d="M96.78,83.44L96.78,81.35"/></g><g style="stroke:#000000;stroke-width:0.353"><path d="M96.78,83.44L96.78,85.27L96.21,85.64L94.46,86.60L92.88,87.45L91.91,86.91L91.13,86.44L90.39,85.94L89.55,85.33L89.48,84.31L89.47,83.42L89.48,82.49L89.55,81.41L90.11,81.04L93.45,79.23L94.60,79.97"/></g></g><g id="Actor_.7"><g style="stroke:#000000;stroke-width:0.353"><path d="M128.89,134.62L129.93,133.61L130.59,132.31L130.82,130.85L130.59,129.36L129.93,128.00L128.89,126.90L127.59,126.16L126.17,125.87L126.14,125.86L124.69,126.03L123.39,126.64"/></g><g style="stroke:#000000;stroke-width:0.353"><path d="M123.58,126.52L123.39,126.64L122.35,127.65L121.69,128.95L121.46,130.41L121.69,131.90L121.90,132.33"/><path d="M122.49,133.40L123.39,134.36L124.69,135.10L126.14,135.40L127.59,135.24L128.89,134.62L129.03,134.53"/></g></g><g id="Actor_.8"><g style="stroke:#000000;stroke-width:0.353"><path d="M125.27,127.27L123.53,128.23L122.85,128.72L122.31,129.41L121.98,130.21L121.86,131.09L121.97,131.97L122.31,132.81L122.85,133.55L123.53,134.11L124.32,134.49L125.19,134.64L126.07,134.57L126.86,134.27L127.54,133.77L128.08,133.08L128.42,132.27L128.53,131.40L128.55,130.49L128.61,129.39L127.64,128.86L126.86,128.38L126.12,127.89L125.27,127.27L125.84,126.90"/><path d="M128.61,133.31L128.55,132.29L128.53,131.40L128.42,130.53L128.08,129.68L127.54,128.95L126.86,128.38L126.07,128.01L125.19,127.85L124.32,127.93L123.53,128.23L121.94,129.08"/><path d="M128.61,129.39L129.18,129.02L126.77,127.49"/><path d="M129.18,129.02L129.18,131.39"/></g><g style="stroke:#000000;stroke-width:0.353"><path d="M129.18,131.39L129.18,132.94L128.61,133.31L126.86,134.27L125.27,135.12L124.31,134.59L123.53,134.11L122.78,133.61L121.94,133.00L121.88,131.98L121.86,131.09L121.88,130.16L121.94,129.08L122.51,128.71L125.84,126.90L126.77,127.49"/></g></g><g id="Actor_.9"><g style="stroke:#000000;stroke-width:0.353"><path d="M129.72,85.17L132.34,83.66L135.17,82.60L138.15,82.01L141.20,81.91L144.25,82.30L147.23,83.17L150.06,84.50L152.67,86.25L155.00,88.39L156.99,90.86L158.59,93.59L159.76,96.53L160.47,99.60L160.71,102.73L160.47,105.83L159.75,108.83L158.58,111.66L156.98,114.25L154.99,116.53L152.66,118.44"/><path d="M131.33,84.12L133.94,82.61L136.77,81.55L139.75,80.96L142.80,80.86L145.85,81.25L148.83,82.12L151.66,83.45L154.27,85.21L156.60,87.34L158.59,89.81L160.19,92.55L161.36,95.49L162.07,98.56L162.31,101.68L162.07,104.78L161.35,107.79L160.18,110.62L158.58,113.20L156.59,115.48L154.26,117.40"/><path d="M130.90,84.47L132.55,83.52L135.38,82.46L138.36,81.87L141.41,81.77L144.47,82.16L147.44,83.03L150.27,84.36L152.88,86.11L155.16,88.20L157.20,90.72L158.80,93.45L159.97,96.40L160.69,99.46L160.92,102.59L160.68,105.69L159.97,108.69L158.79,111.52L157.19,114.11L155.20,116.39L153.29,117.96"/><path d="M133.73,104.33L133.27,102.41L133.27,101.65L133.28,100.45L133.74,98.57L134.63,96.88L135.91,95.47L137.49,94.43L139.26,93.83L141.19,93.68L143.10,94.00L144.90,94.78L146.48,95.97L147.76,97.50L148.65,99.28L149.11,101.20L149.11,103.16L148.65,105.04L147.75,106.73L146.48,108.14L144.89,109.18L143.10,109.79L141.19,109.93L139.28,109.61L137.48,108.83L135.90,107.64L134.63,106.12L133.73,104.33"/><path d="M135.10,104.03L134.99,103.81L134.59,102.13L134.59,100.41L134.99,98.77L135.78,97.29L136.89,96.06L138.27,95.15L139.85,94.62L141.51,94.49L143.18,94.78L144.75,95.46L146.14,96.50L147.25,97.83L148.03,99.38L148.43,101.07L148.43,102.77L148.03,104.42L147.25,105.90L146.13,107.13L144.75,108.04L143.18,108.57L141.80,108.68L141.51,108.70L139.84,108.42L138.27,107.74L136.89,106.70L135.77,105.36L135.10,104.03"/></g><g style="stroke:#000000;stroke-width:0.353"><path d="M153.29,117.96L152.66,118.44L150.04,119.95L147.21,121.01L144.24,121.60L141.18,121.70L138.13,121.31L135.15,120.44L132.32,119.11L129.71,117.36L127.38,115.22L125.39,112.75L123.79,110.02L122.62,107.08L121.91,104.01L121.67,100.88L121.91,97.78L122.63,94.78L123.80,91.95L125.40,89.36L127.39,87.08L129.72,85.17L130.90,84.47"/><path d="M130.90,84.47L131.75,83.84L134.36,82.33L137.20,81.27L140.17,80.69L143.23,80.59L146.27,80.97L149.26,81.84L152.09,83.17L154.70,84.93L157.03,87.07L159.02,89.53L160.62,92.27L161.79,95.21L162.50,98.28L162.74,101.41L162.50,104.51L161.78,107.51L160.61,110.34L159.01,112.92L157.02,115.20L154.69,117.12L153.29,117.96"/></g></g><g id="Actor_.10"><g style="stroke:#000000;stroke-width:0.353"><path d="M126.80,141.42L126.79,140.31L126.72,140.06L126.59,139.82L121.91,134.50L121.23,133.58L120.73,132.55L120.42,131.45L120.31,130.32L120.41,129.19L120.72,128.12L120.93,127.70L121.23,127.14L121.91,126.28L122.74,125.57L123.69,125.04L124.13,124.88L124.73,124.70L125.83,124.58L126.94,124.66L128.02,124.96L128.46,125.15L129.04,125.45L129.87,126.05"/><path d="M124.76,125.99L123.37,126.62L122.33,127.63L121.66,128.94L121.43,130.41L121.66,131.90L121.91,132.41"/><path d="M129.77,133.81L128.91,134.65L127.60,135.27L126.14,135.43L124.69,135.13L123.37,134.39L122.36,133.30"/><path d="M127.36,142.01L131.54,142.21"/><path d="M132.36,142.01L134.39,140.69"/><path d="M132.10,141.67L132.10,130.98"/><path d="M131.86,128.11L133.00,127.37"/><path d="M160.05,130.27L151.90,135.59L134.29,140.81"/><path d="M134.09,140.96L134.22,140.87"/><path d="M134.47,140.07L134.39,139.98"/><path d="M134.40,133.43L134.39,140.28L134.39,140.23"/><path d="M151.36,132.18L134.40,137.20"/><path d="M134.33,128.84L134.38,129.34"/><path d="M149.35,131.46L151.27,131.56"/><path d="M151.24,131.67L151.07,131.80"/><path d="M160.52,129.23L160.52,129.25"/></g><g style="stroke:#000000;stroke-width:0.353"><path d="M160.52,129.23L160.52,128.52L160.52,129.48L160.48,129.73L160.37,129.96L159.96,130.35L151.81,135.67L151.60,135.77L134.09,140.96L132.16,142.22L131.95,142.32L131.63,142.36L127.44,142.16L127.21,142.11L127.00,141.99L126.83,141.82L126.72,141.60L126.69,141.35L126.66,140.19L126.58,139.98L126.46,139.80L121.85,134.58L121.14,133.62L120.62,132.56L120.30,131.42L120.19,130.25L120.30,129.09L120.62,127.98L121.17,126.90L121.88,126.00L122.74,125.27L124.59,124.07L125.57,123.50L125.77,123.44"/><path d="M124.76,125.99L126.14,125.83L127.60,126.13L128.91,126.88L129.95,127.99L130.62,129.36L130.85,130.85L130.62,132.32L129.95,133.63L129.77,133.81"/><path d="M134.38,129.34L134.40,133.43"/><path d="M160.52,129.39L160.52,128.52"/></g></g><g id="Actor_.11"><g style="stroke:#000000;stroke-width:0.353"><path d="M128.07,63.49L130.68,65.14L130.00,65.58L129.93,66.81L129.91,67.83L129.79,68.79L129.41,69.70L128.81,70.47L128.05,71.03L127.17,71.36L126.19,71.45L125.22,71.27L124.33,70.85L123.57,70.22L122.97,69.40L122.60,68.46L122.47,67.48L122.60,66.50L122.98,65.60L123.58,64.84L124.33,64.29L122.56,65.24"/><path d="M125.05,64.01L124.33,64.29L126.28,63.22L127.22,63.91L128.05,64.46L127.17,64.04L126.19,63.87L125.22,63.95L125.05,64.01"/><path d="M126.28,63.22L126.96,62.78"/><path d="M130.00,69.96L129.93,68.82L129.91,67.83L129.79,66.85L129.41,65.91L128.81,65.09L128.05,64.46L128.92,64.99L130.00,65.58"/><path d="M130.68,67.68L130.68,65.14"/></g><g style="stroke:#000000;stroke-width:0.353"><path d="M130.68,67.68L130.68,69.52L130.00,69.96L128.05,71.03L126.28,71.98L125.21,71.38L124.33,70.85L123.50,70.30L122.56,69.61L122.49,68.47L122.47,67.48L122.49,66.45L122.56,65.24L123.24,64.79L126.96,62.78L128.07,63.49"/></g></g><g id="Actor_.12"><g style="stroke:#000000;stroke-width:0.353"><path d="M141.06,60.12L140.42,60.54L139.57,59.20L138.43,58.05L137.09,57.19L136.51,57.00L135.92,56.99L135.35,57.16L109.60,69.67L103.86,72.17L89.65,79.08"/><path d="M108.74,81.49L104.04,72.09"/><path d="M109.21,69.85L113.92,79.25"/><path d="M117.16,69.03L116.38,69.55L115.93,70.16L115.71,70.90L115.71,71.68L115.96,72.43L116.42,73.08L117.04,73.56L117.77,73.83L118.54,73.86L119.26,73.64L124.45,71.12"/><path d="M137.46,64.69L136.99,65.03L132.00,67.45"/><path d="M136.22,56.99L136.86,56.57"/><path d="M140.42,60.54L140.98,62.04L141.21,63.61L141.09,65.18L140.90,65.75L140.54,66.22L140.06,66.56"/><path d="M140.72,65.98L141.36,65.57"/><path d="M140.70,66.14L140.68,66.15"/></g><g style="stroke:#000000;stroke-width:0.353"><path d="M89.21,84.89L89.28,85.10L90.15,86.45L91.28,87.59L92.62,88.45L93.19,88.64L93.79,88.65L94.35,88.48L108.57,81.57L114.31,79.07L140.06,66.56L141.18,65.80L141.54,65.33L141.73,64.79L141.85,63.19L141.62,61.62L141.06,60.12L140.20,58.77L139.07,57.63L137.73,56.77L137.15,56.58L136.56,56.57L135.99,56.74L110.73,69.02L104.99,71.52L90.29,78.66L89.17,79.42L88.81,79.89L88.62,80.43L88.50,82.02L88.72,83.60L89.21,84.89"/><path d="M122.25,66.55L117.02,69.13L116.58,69.75L116.35,70.48L116.35,71.26L116.60,72.01L117.06,72.66L117.68,73.14L118.41,73.41L119.18,73.44L119.91,73.22L124.35,71.06"/><path d="M132.02,67.34L137.60,64.59L138.05,63.97L138.27,63.24L138.27,62.46L138.02,61.70L137.57,61.06L136.94,60.57L136.21,60.31L135.44,60.28L134.72,60.49L129.70,62.93"/></g></g><g/><g><g/><g><text xml:space="preserve" fill="#000000" stroke-width="0" x="69.62" y="26.26" font-size="3.54" opacity="1.00" font-family="Verdana">STEP 7.1 -  PLACE THE BELT ONTO THE NEW ALTERNATOR PULLEY</text></g></g><g><g/><g><text xml:space="preserve" fill="#000000" stroke-width="0" x="70.40" y="32.58" font-size="3.54" opacity="1.00" font-family="Verdana">STEP 7.2 - MOUNT THE ALTERNATOR TENSIONER TO ENSURE PROPER BELT TENSION</text></g></g><g><g><path style="stroke:#000000;stroke-width:0.500;fill:#000000" d="M48.81,112.09L52.12,112.19L55.42,112.13L58.72,111.91L62.00,111.52L65.26,110.97L68.49,110.26L71.67,109.39L74.81,108.35L77.90,107.17L80.92,105.82L83.87,104.34L86.74,102.70L89.53,100.92L92.22,99.01L94.82,96.96L97.31,94.79L99.69,92.49L101.95,90.08L104.09,87.56L106.09,84.94L107.97,82.22L109.71,79.40L111.30,76.51L112.58,73.91L112.58,73.91L110.91,76.72L109.11,79.44L107.18,82.08L105.11,84.61L102.92,87.03L100.62,89.35L98.20,91.54L95.67,93.61L93.05,95.56L90.33,97.36L87.52,99.03L84.63,100.56L81.67,101.94L78.65,103.18L75.56,104.26L72.43,105.18L69.25,105.95L66.04,106.55L62.81,107.00L59.55,107.28L56.29,107.40L53.02,107.36L49.76,107.15L49.19,107.10z"/></g><g><path style="fill:#ffffff" d="M83.96,109.67L83.79,113.09L83.29,116.49L82.46,119.82L81.30,123.05L79.83,126.15L78.07,129.09L76.03,131.85L73.72,134.39L71.18,136.69L68.43,138.74L65.48,140.50L62.38,141.97L59.15,143.12L55.82,143.96L52.43,144.46L49.00,144.63L45.58,144.46L42.18,143.96L38.86,143.12L35.63,141.97L32.52,140.50L29.58,138.74L26.83,136.69L24.28,134.39L21.98,131.85L19.94,129.09L18.17,126.15L16.71,123.05L15.55,119.82L14.72,116.49L14.21,113.09L14.04,109.67L14.21,106.24L14.72,102.85L15.55,99.52L16.71,96.29L18.17,93.19L19.94,90.25L21.98,87.49L24.28,84.95L26.83,82.65L29.58,80.60L32.52,78.84L35.63,77.37L38.86,76.22L42.18,75.38L45.58,74.88L49.00,74.71L52.43,74.88L55.82,75.38L59.15,76.22L62.38,77.37L65.48,78.84L68.43,80.60L71.18,82.65L73.72,84.95L76.03,87.49L78.07,90.25L79.83,93.19L81.30,96.29L82.46,99.52L83.29,102.85L83.79,106.24L83.96,109.67z"/><path style="stroke:#ff0000;stroke-width:0.519;stroke-opacity:0.00" d="M82.09,109.83L81.46,116.29L79.57,122.50L76.51,128.23L72.39,133.25L67.37,137.37L61.65,140.43L55.43,142.31L48.97,142.95L42.51,142.31L36.30,140.43L30.57,137.37L25.55,133.25L21.43,128.23L18.37,122.50L16.49,116.29L15.85,109.83L16.49,103.37L18.37,97.15L21.43,91.43L25.55,86.41L30.57,82.29L36.30,79.23L42.51,77.34L48.97,76.71L55.43,77.34L61.65,79.23L67.37,82.29L72.39,86.41L76.51,91.43L79.57,97.15L81.46,103.37L82.09,109.83"/><path style="fill:#ffffff" d="M55.10,76.91L58.39,77.70L62.33,79.15L65.88,80.99L69.17,83.22L71.54,85.20L72.73,86.36L74.57,88.47L76.02,90.31L77.86,93.20L79.69,96.90L80.87,100.18L81.66,103.47L82.18,107.68L82.18,111.66L81.66,115.87L80.87,119.15L79.69,122.44L78.63,124.68L77.32,127.04L75.35,129.93L74.39,131.08L73.46,132.13L72.53,133.17L71.08,134.48L70.16,135.27L68.79,136.39L65.96,138.29L63.38,139.66L60.45,140.94L57.03,141.99L53.61,142.65L50.98,142.91L46.95,142.91L44.32,142.65L40.90,141.99L37.48,140.94L34.72,139.75L31.98,138.29L29.21,136.45L26.98,134.62L25.14,132.90L22.64,130.01L20.66,127.13L19.21,124.50L18.28,122.53L17.10,119.25L16.32,115.96L15.92,113.33L15.79,111.75L15.79,107.58L16.06,104.96L16.71,101.53L17.76,98.12L19.04,95.18L20.41,92.61L22.31,89.78L23.43,88.41L24.22,87.48L25.53,86.04L26.57,85.10L27.62,84.18L28.76,83.22L31.66,81.25L34.02,79.93L36.26,78.88L39.55,77.70L42.83,76.91L47.04,76.39L50.89,76.39z"/><path style="fill:#000000;fill-opacity:0.094" d="M62.20,90.05L62.20,90.89L61.94,91.28L54.44,98.26L54.44,97.15L54.14,96.22L61.24,89.53L61.81,89.14z"/><path style="fill:#000000;fill-opacity:0.094" d="M74.96,92.70L75.30,92.68L75.48,92.56L75.88,93.47L75.84,94.54L74.29,96.15L74.30,95.05L73.76,93.61L73.77,93.13L74.71,92.28z"/><path style="fill:#000000;fill-opacity:0.094" d="M72.71,93.87L71.87,94.80L71.64,94.84L71.52,94.68L71.54,93.79L72.06,93.60z"/><path style="fill:#000000;fill-opacity:0.094" d="M53.01,95.98L53.02,96.14L52.15,97.03L51.96,97.03L51.69,96.76L51.67,96.00L52.03,95.70L52.48,95.70z"/><path style="fill:#000000;fill-opacity:0.094" d="M73.20,96.63L73.90,96.49L73.80,96.70L73.50,96.78z"/><path style="fill:#000000;fill-opacity:0.094" d="M70.09,98.34L70.48,99.39L70.49,100.23L70.09,100.89L70.09,99.66L69.83,98.86L69.51,98.33L69.79,98.05L69.95,98.07z"/><path style="fill:#000000;fill-opacity:0.094" d="M66.93,98.74L67.08,99.17L66.81,99.44L66.53,99.00L66.54,97.99L66.81,97.81z"/><path style="fill:#000000;fill-opacity:0.094" d="M45.62,102.42L45.78,102.99L45.19,103.61L44.99,103.61L44.85,103.47L44.85,102.46L45.37,102.27z"/><path style="fill:#000000;fill-opacity:0.094" d="M68.38,103.32L69.04,104.65L69.16,105.31L69.17,106.41L68.38,107.20L68.25,105.70L67.72,104.39L67.41,103.85L68.27,103.20z"/><path style="fill:#000000;fill-opacity:0.094" d="M56.55,104.77L55.84,105.46L55.63,105.44L55.49,105.18L55.49,104.29L55.70,103.98L56.15,103.99z"/><path style="fill:#000000;fill-opacity:0.094" d="M43.97,106.03L44.44,107.40L44.32,107.98L44.06,108.38L44.06,107.28L43.62,106.21L43.93,105.97z"/><path style="fill:#000000;fill-opacity:0.094" d="M41.42,106.50L41.58,106.75L41.52,107.03L41.26,107.07L41.15,106.90L41.18,105.85L41.30,105.83z"/><path style="fill:#000000;fill-opacity:0.094" d="M41.04,109.78L40.96,110.39L40.76,110.18L40.33,109.10L40.64,108.86z"/><path style="fill:#000000;fill-opacity:0.094" d="M38.40,109.39L38.54,109.63L38.28,109.96L37.99,109.38L37.99,109.03L38.28,108.72z"/><path style="fill:#000000;fill-opacity:0.094" d="M41.07,110.52L40.77,111.01L40.76,110.75L40.96,110.39z"/><path style="fill:#000000;fill-opacity:0.094" d="M56.02,112.01L56.29,112.95L56.16,113.77L55.90,114.18L55.89,113.20L55.49,112.02L55.37,111.87L55.36,111.53L55.64,111.35z"/><path style="fill:#000000;fill-opacity:0.094" d="M52.59,111.76L52.87,112.39L52.68,112.68L52.48,112.68L52.16,111.75L52.44,111.20L52.59,111.20z"/><path style="fill:#000000;fill-opacity:0.094" d="M36.73,112.49L36.84,113.38L35.85,114.37L27.23,122.44L27.11,124.16L26.92,124.36L26.13,124.91L25.87,124.90L26.18,124.42L26.30,123.35L26.58,122.84L26.98,122.44L26.98,122.27L26.70,121.99L26.70,121.67L36.53,112.38z"/><path style="fill:#000000;fill-opacity:0.094" d="M51.95,115.03L51.95,115.74L51.42,116.39L50.45,117.26L47.88,119.69L47.21,120.21L47.09,122.05L46.25,122.79L45.71,122.79L46.04,122.45L46.25,120.81L47.09,119.89L46.68,119.50L46.68,119.16L47.68,118.31L50.18,115.95L51.29,114.95L51.68,114.51z"/><path style="stroke:#000000;stroke-width:0.091" d="M51.50,110.26L52.03,110.01L52.71,110.00L53.47,110.23L54.21,110.68L54.89,111.30L55.43,112.04L55.78,112.83L55.90,113.57L55.78,114.21L55.43,114.68"/><path style="stroke:#000000;stroke-width:0.091" d="M54.69,113.42L54.62,113.57L54.35,113.77L54.00,113.83L53.58,113.73L53.14,113.51L52.75,113.16L52.42,112.75L52.22,112.30L52.15,111.88L52.22,111.51L52.42,111.25L52.60,111.19"/><path style="stroke:#000000;stroke-width:0.275" d="M51.41,112.69L51.15,112.12L51.03,111.37L51.15,110.73L51.50,110.26L51.88,109.90L52.41,109.65L53.09,109.64L53.85,109.87L54.60,110.32L55.27,110.95L55.81,111.68L56.16,112.47L56.28,113.22L56.16,113.86L55.81,114.33L55.43,114.68L54.89,114.94L54.21,114.95L53.47,114.72L52.71,114.27L52.03,113.64L51.50,112.90L51.41,112.69"/><path style="stroke:#000000;stroke-width:0.275" d="M52.60,111.94L52.53,111.52L52.60,111.19L52.75,111.13L53.14,111.14L53.58,111.31L54.00,111.60L54.35,111.98L54.62,112.42L54.77,112.86L54.78,113.07L54.77,113.26L54.69,113.42L54.38,113.47L53.96,113.38L53.52,113.15L53.12,112.80L52.81,112.39L52.60,111.94"/><path style="stroke:#000000;stroke-width:0.091" d="M65.63,97.00L66.13,96.69L66.78,96.62L67.51,96.79L68.27,97.19L68.98,97.78L69.55,98.49L69.95,99.27L70.13,100.04L70.07,100.71L69.78,101.23"/><path style="stroke:#000000;stroke-width:0.091" d="M66.84,97.82L66.62,97.94L66.44,98.22L66.39,98.60L66.49,99.03L66.72,99.48L67.06,99.88L67.46,100.20L67.90,100.41L68.31,100.47L68.66,100.39L68.90,100.17L68.94,100.06"/><path style="stroke:#000000;stroke-width:0.275" d="M65.33,98.42L65.28,98.20L65.34,97.52L65.63,97.00L66.01,96.65L66.51,96.34L67.16,96.27L67.90,96.43L68.66,96.83L69.36,97.42L69.94,98.14L70.33,98.92L70.51,99.68L70.45,100.36L70.16,100.88L69.78,101.23L69.29,101.54L68.64,101.61L67.90,101.44L67.14,101.05L66.44,100.46L65.86,99.74L65.46,98.96L65.33,98.42"/><path style="stroke:#000000;stroke-width:0.275" d="M67.07,99.05L66.87,98.68L66.77,98.24L66.82,97.87L66.84,97.82L66.92,97.79L67.31,97.78L67.73,97.91L68.16,98.18L68.54,98.55L68.83,98.98L68.93,99.21L68.99,99.42L69.02,99.84L68.94,100.06L68.69,100.12L68.28,100.05L67.85,99.85L67.44,99.53L67.10,99.12L67.07,99.05"/><path style="stroke:#000000;stroke-width:0.091" d="M47.14,120.42L47.14,120.03L46.25,120.86L46.15,121.49L46.13,121.98L46.07,122.40L45.87,122.74L45.57,122.97L45.18,123.07L44.73,123.04L44.24,122.87L43.74,122.58L43.29,122.21L42.90,121.76L42.60,121.26L42.41,120.74L42.34,120.27L42.41,119.84L42.60,119.51L42.90,119.28L43.29,119.18L42.88,119.19L42.46,119.15"/><path style="stroke:#000000;stroke-width:0.091" d="M46.25,122.88L46.15,122.42L46.13,121.98L46.07,121.50L45.87,120.99L45.57,120.49L45.18,120.04L44.73,119.66L44.24,119.38L43.74,119.22L43.29,119.18L43.75,119.12L44.35,119.00L44.77,119.59L45.18,120.04L45.64,120.44L46.25,120.86"/><path style="stroke:#000000;stroke-width:0.091" d="M44.35,119.00L45.25,118.16"/><path style="stroke:#000000;stroke-width:0.091" d="M47.14,120.03L45.25,118.16"/><path style="stroke:#000000;stroke-width:0.091" d="M51.89,115.05L51.67,114.64L51.35,114.27L50.98,113.98L50.58,113.80"/><path style="stroke:#000000;stroke-width:0.275" d="M47.14,120.42L47.14,122.04L46.25,122.88L45.64,123.00L45.18,123.07L44.77,123.08L44.35,123.03L43.75,122.61L43.29,122.21L42.88,121.76L42.46,121.17L42.37,120.71L42.34,120.27L42.37,119.77L42.46,119.15L43.36,118.31L45.25,118.16L45.25,118.16"/><path style="stroke:#000000;stroke-width:0.275" d="M45.25,118.16L49.88,113.83L50.20,113.74L50.58,113.80L50.73,113.86L51.07,114.01L51.39,114.26L51.66,114.58L51.85,114.92L51.89,115.05L51.99,115.45L51.95,115.81L51.79,116.07L47.14,120.42"/><path style="stroke:#000000;stroke-width:0.091" d="M68.18,107.46L68.29,107.25L68.34,106.54L68.23,105.77L67.94,104.96L67.50,104.16L66.93,103.40L66.25,102.72L65.96,102.51L65.65,102.38L65.36,102.35L52.72,102.72L52.29,102.70L51.98,102.58L51.80,102.40L51.03,100.77L50.94,100.68L50.80,100.63L50.61,100.62L43.58,100.83L43.34,100.88L43.16,101.03"/><path style="stroke:#000000;stroke-width:0.091" d="M45.57,102.41L45.27,102.36L44.99,102.43L44.79,102.61L44.70,102.88L44.73,103.22L44.86,103.58L45.09,103.92L45.40,104.22L45.74,104.43L46.09,104.54L46.40,104.53L46.64,104.41L46.79,104.18L46.82,103.87L46.78,103.70"/><path style="stroke:#000000;stroke-width:0.091" d="M56.22,104.02L56.03,104.02L55.71,104.09L55.49,104.29L55.37,104.58L55.37,104.94L55.50,105.34L55.73,105.73L56.05,106.08L56.42,106.36L56.81,106.53L57.18,106.59L66.20,106.31L66.51,106.24L66.73,106.05L66.85,105.76L66.85,105.53"/><path style="stroke:#000000;stroke-width:0.275" d="M43.39,103.51L43.11,102.72L43.00,101.95L43.06,101.25L43.16,101.03L44.00,100.23L44.19,100.09L44.43,100.04L51.45,99.82L51.88,99.85L52.20,99.96L52.37,100.16L53.15,101.78L53.23,101.87L53.37,101.92L53.57,101.94L66.21,101.55L66.50,101.59L66.80,101.72L67.09,101.93L67.77,102.61L68.35,103.36L68.79,104.17L69.08,104.98L69.19,105.75L69.13,106.45L69.03,106.67L68.18,107.46L68.01,107.60L67.76,107.66L55.12,108.04L54.69,108.01L54.37,107.90L54.19,107.71L53.42,106.08L53.34,105.99L53.20,105.94L53.00,105.93L45.98,106.15L45.69,106.10L45.39,105.97L45.09,105.77L44.41,105.09L43.84,104.33L43.40,103.53L43.39,103.51"/><path style="stroke:#000000;stroke-width:0.275" d="M45.60,102.41L45.57,102.41L45.57,102.42L45.71,102.78L45.94,103.13L46.25,103.43L46.59,103.64L46.78,103.70L46.74,103.52L46.55,103.16L46.28,102.83L45.95,102.57L45.60,102.41"/><path style="stroke:#000000;stroke-width:0.275" d="M56.58,104.94L56.89,105.29L57.27,105.57L57.66,105.74L58.02,105.79L66.85,105.53L66.85,105.40L66.72,105.00L66.49,104.60L66.17,104.25L65.80,103.98L65.41,103.80L65.04,103.75L56.22,104.02L56.22,104.15L56.34,104.55L56.58,104.94"/><path style="stroke:#000000;stroke-width:0.091" d="M80.39,120.04L80.18,120.09L78.82,120.72L77.65,121.58L76.67,122.66L76.34,123.23"/><path style="stroke:#000000;stroke-width:0.091" d="M77.17,122.11L77.03,122.08L78.79,120.43L78.97,120.47"/><path style="stroke:#000000;stroke-width:0.091" d="M77.03,122.08L77.07,122.23"/><path style="stroke:#000000;stroke-width:0.091" d="M77.65,121.58L78.35,120.92L79.53,120.06L80.06,119.78L80.35,119.65L80.08,119.51L80.06,119.78"/><path style="stroke:#000000;stroke-width:0.091" d="M80.08,119.51L80.83,118.81"/><path style="stroke:#000000;stroke-width:0.091" d="M80.35,119.65L80.59,119.55"/><path style="stroke:#000000;stroke-width:0.091" d="M81.22,111.64L81.75,111.36L82.21,111.32"/><path style="stroke:#000000;stroke-width:0.275" d="M75.19,129.94L75.06,128.78L75.10,127.03L75.39,125.41L75.91,123.95L76.34,123.23"/><path style="stroke:#000000;stroke-width:0.275" d="M82.19,110.73L81.22,111.64L80.87,112.11L77.72,119.51L76.99,120.85L76.48,122.36L76.34,123.23"/><path style="stroke:#000000;stroke-width:0.091" d="M71.41,92.32L71.92,92.68L72.40,92.93L72.95,93.14L73.64,93.32L73.85,94.04L74.07,94.58L74.36,95.08L74.75,95.61L74.36,96.04L74.07,96.36L73.77,96.58L73.37,96.69L72.90,96.66L72.40,96.49L71.91,96.21L71.44,95.82L71.04,95.35L70.74,94.85L70.54,94.34L70.48,93.84L70.54,93.41L70.74,93.07L71.04,92.84L71.44,92.74L71.91,92.77L72.40,92.93L72.91,93.23L73.37,93.61L73.77,94.08L74.07,94.58L74.26,95.09L74.33,95.59L74.26,96.02L74.07,96.36L73.85,96.63L73.63,96.88"/><path style="stroke:#000000;stroke-width:0.091" d="M71.69,95.02L71.67,95.01L71.49,94.67L71.41,94.34L71.44,94.05L71.57,93.83L71.79,93.71L72.08,93.69L72.40,93.79L72.73,93.99L73.02,94.26L73.24,94.59L73.37,94.93L73.40,95.24L73.32,95.50L73.14,95.67L72.88,95.74L72.57,95.70L72.24,95.55L71.93,95.31L71.69,95.02"/><path style="stroke:#000000;stroke-width:0.091" d="M72.60,91.40L73.14,91.54L73.68,91.75L74.16,92.00L74.67,92.36L73.64,93.32"/><path style="stroke:#000000;stroke-width:0.091" d="M74.75,95.61L75.78,94.64L75.57,93.94L75.34,93.39L75.06,92.89L74.67,92.36"/><path style="stroke:#000000;stroke-width:0.091" d="M75.34,95.17L75.57,94.90L75.78,94.64"/><path style="stroke:#000000;stroke-width:0.275" d="M70.53,94.35L70.51,94.30L70.30,93.59L70.51,93.33L70.74,93.07L71.02,92.75L71.41,92.32L72.44,91.36L72.60,91.40L72.64,91.37L72.69,91.34L73.07,91.25L73.13,91.24L73.57,91.28L74.04,91.44L74.07,91.46L74.53,91.71L74.96,92.06L75.33,92.48L75.62,92.95L75.82,93.42L75.83,93.46L75.92,93.93L75.89,94.35L75.88,94.40L75.73,94.76L75.69,94.81L75.34,95.17L75.06,95.48L74.67,95.92L73.63,96.88L72.94,96.70L72.40,96.49L71.92,96.24L71.41,95.88L71.02,95.35L70.74,94.85L70.53,94.35"/><path style="stroke:#000000;stroke-width:0.091" d="M51.89,95.93L52.12,95.82L52.10,95.82"/><path style="stroke:#000000;stroke-width:0.091" d="M52.12,95.82L52.40,95.82L52.73,95.92L52.72,95.91"/><path style="stroke:#000000;stroke-width:0.091" d="M52.73,95.92L53.06,96.12L53.37,96.41L53.61,96.74L53.77,97.10"/><path style="stroke:#000000;stroke-width:0.091" d="M53.76,97.70L53.77,97.67L53.63,97.85L53.63,97.85"/><path style="stroke:#000000;stroke-width:0.091" d="M53.77,97.67L53.82,97.41L53.76,97.09"/><path style="stroke:#000000;stroke-width:0.275" d="M51.21,97.12L51.27,97.24L51.57,97.68L51.95,98.07L52.38,98.40L52.82,98.63L52.84,98.63L53.28,98.76L53.69,98.77L53.72,98.76L54.07,98.65L54.10,98.64L54.37,98.42L61.98,91.29L61.99,91.27L62.16,90.95L62.22,90.54L62.17,90.10L62.16,90.08L62.00,89.62L61.74,89.17L61.40,88.75L60.99,88.39L60.56,88.11L60.09,87.93L59.66,87.86L59.24,87.91L58.93,88.07L58.91,88.09L51.30,95.22L51.08,95.49L51.06,95.51L50.95,95.87L50.94,95.89L50.94,96.31L51.05,96.79L51.21,97.12"/><path style="stroke:#000000;stroke-width:0.091" d="M43.87,108.60L44.09,108.11L44.11,107.82L44.09,107.49L43.87,106.81L43.46,106.15L43.39,106.07L42.90,105.55L42.26,105.11L41.59,104.86L40.98,104.83L40.49,105.02"/><path style="stroke:#000000;stroke-width:0.091" d="M41.39,105.86L41.25,105.92L41.08,106.12L41.03,106.42L41.08,106.76L41.15,106.92L41.25,107.12L41.51,107.46L41.83,107.73L42.18,107.92L42.51,107.99L42.81,107.95L43.02,107.79L43.08,107.67"/><path style="stroke:#000000;stroke-width:0.275" d="M40.30,106.92L40.49,107.32L40.98,107.97L41.59,108.49L42.26,108.84L42.90,108.98L43.46,108.90L43.87,108.60L44.18,108.31L44.40,107.82L44.43,107.53L44.40,107.20L44.18,106.52L43.77,105.85L43.21,105.26L43.11,105.20L42.57,104.82L41.90,104.57L41.29,104.54L40.80,104.73L40.49,105.02L40.17,105.42L40.06,105.98L40.17,106.64L40.30,106.92"/><path style="stroke:#000000;stroke-width:0.275" d="M41.63,106.92L41.81,107.17L42.14,107.44L42.48,107.63L42.83,107.70L43.08,107.67L43.14,107.54L43.15,107.38L43.14,107.21L43.02,106.86L42.81,106.50L42.51,106.19L42.18,105.96L41.83,105.83L41.51,105.81L41.39,105.86L41.34,106.13L41.39,106.47L41.56,106.83L41.63,106.92"/><path style="stroke:#000000;stroke-width:0.091" d="M40.02,110.53L40.00,110.59L39.81,110.79L39.52,110.87L39.18,110.82L38.81,110.65L38.48,110.37L38.20,110.03L38.20,110.02L38.02,109.65L37.96,109.30L38.02,108.99L38.20,108.78L38.32,108.74"/><path style="stroke:#000000;stroke-width:0.091" d="M37.66,108.11L38.12,107.96L38.69,108.01L39.30,108.28L39.88,108.73L40.36,109.30L40.67,109.92L40.79,110.53L41.03,110.31"/><path style="stroke:#000000;stroke-width:0.091" d="M40.36,111.46L40.67,111.12L40.79,110.62L40.09,110.30"/><path style="stroke:#000000;stroke-width:0.091" d="M40.15,110.24L40.79,110.53"/><path style="stroke:#000000;stroke-width:0.091" d="M40.79,110.62L41.10,110.34"/><path style="stroke:#000000;stroke-width:0.275" d="M37.62,110.13L37.36,109.58L37.25,108.97L37.36,108.47L37.66,108.11L37.96,107.83L38.42,107.67L39.00,107.73L39.35,107.89L39.60,108.00L40.18,108.44L40.66,109.02L40.97,109.64L41.10,110.25L41.03,110.31L41.10,110.34L40.97,110.84L40.66,111.18L40.36,111.46L39.88,111.60L39.30,111.52L38.69,111.24L38.12,110.78L37.66,110.20L37.62,110.13"/><path style="stroke:#000000;stroke-width:0.275" d="M38.55,109.81L38.78,110.08L39.11,110.36L39.48,110.54L39.83,110.58L40.02,110.53L40.09,110.30L40.15,110.24L40.09,110.21L40.00,109.85L39.81,109.47L39.52,109.14L39.18,108.88L38.81,108.72L38.48,108.68L38.32,108.74L38.26,109.01L38.32,109.37L38.50,109.74L38.55,109.81"/><path style="stroke:#000000;stroke-width:0.091" d="M22.94,121.59L23.32,121.63L23.68,121.62L23.34,121.71L23.07,121.91L22.89,122.21L22.84,122.59L22.89,123.02L23.07,123.48L23.33,123.93L23.68,124.33L24.09,124.67L24.53,124.93L24.98,125.07L25.38,125.10L25.73,125.01L26.00,124.81L26.17,124.50L26.23,124.13L26.25,124.52L26.33,124.94"/><path style="stroke:#000000;stroke-width:0.091" d="M24.64,121.45L25.02,121.98L25.38,122.39L25.79,122.75L26.33,123.12L26.25,123.69L26.23,124.13L26.17,123.70L26.00,123.24L25.73,122.79L25.38,122.39L24.98,122.05L24.53,121.80L24.09,121.65L23.68,121.62L24.10,121.57L24.64,121.45L25.39,120.75"/><path style="stroke:#000000;stroke-width:0.091" d="M26.33,123.12L27.08,122.42L25.45,120.81"/><path style="stroke:#000000;stroke-width:0.091" d="M27.08,122.42L27.08,122.66"/><path style="stroke:#000000;stroke-width:0.091" d="M35.78,111.76L36.11,111.94L36.42,112.20L36.66,112.52L36.83,112.86"/><path style="stroke:#000000;stroke-width:0.275" d="M23.18,123.74L22.94,123.40L22.86,122.98L22.84,122.59L22.86,122.15L22.94,121.59L23.69,120.89L25.39,120.75L25.45,120.81L34.98,111.89L35.18,111.74L35.46,111.69L35.78,111.76L35.90,111.81L36.18,111.96L36.44,112.18L36.65,112.45L36.79,112.74L36.83,112.86L36.88,113.19L36.83,113.47L36.66,113.67L27.08,122.66L27.08,124.23L26.33,124.94L25.79,125.04L25.38,125.10L25.02,125.11L24.64,125.07L24.10,124.69L23.68,124.33L23.32,123.93L23.18,123.74"/><path style="stroke:#000000;stroke-width:0.065;stroke-dasharray:1.2 1.2" d="M56.41,93.16L30.25,118.00"/><path style="stroke:#000000;stroke-width:0.065;stroke-dasharray:1.2 1.2" d="M74.23,93.02L47.57,118.00"/><path style="stroke:#000000;stroke-width:0.500" d="M83.96,109.67L83.79,113.09L83.29,116.49L82.46,119.82L81.30,123.05L79.83,126.15L78.07,129.09L76.03,131.85L73.72,134.39L71.18,136.69L68.43,138.74L65.48,140.50L62.38,141.97L59.15,143.12L55.82,143.96L52.43,144.46L49.00,144.63L45.58,144.46L42.18,143.96L38.86,143.12L35.63,141.97L32.52,140.50L29.58,138.74L26.83,136.69L24.28,134.39L21.98,131.85L19.94,129.09L18.17,126.15L16.71,123.05L15.55,119.82L14.72,116.49L14.21,113.09L14.04,109.67L14.21,106.24L14.72,102.85L15.55,99.52L16.71,96.29L18.17,93.19L19.94,90.25L21.98,87.49L24.28,84.95L26.83,82.65L29.58,80.60L32.52,78.84L35.63,77.37L38.86,76.22L42.18,75.38L45.58,74.88L49.00,74.71L52.43,74.88L55.82,75.38L59.15,76.22L62.38,77.37L65.48,78.84L68.43,80.60L71.18,82.65L73.72,84.95L76.03,87.49L78.07,90.25L79.83,93.19L81.30,96.29L82.46,99.52L83.29,102.85L83.79,106.24L83.96,109.67z"/></g></g><g><g/><g><image x="267.134094" y="50.813660" height="17.189310" width="19.431398" xlink:href="UNI-U1700-ALT-UNIDAN_files/b913ac4efa31ae5d_image_2.jpg" mask="url(#mask2)"/></g></g><g><g/><g><image x="267.134064" y="29.147215" height="17.590467" width="18.953098" xlink:href="UNI-U1700-ALT-UNIDAN_files/b913ac4efa31ae5d_image_3.jpg" mask="url(#mask3)"/></g></g><g><g/><g><path style="fill:#ffffff" d="M108.66,3.33L191.01,3.33L191.01,13.49L108.66,13.49z"/><text xml:space="preserve" fill="#000000" stroke-width="0" x="109.93" y="10.31" font-size="5.78" opacity="1.00" font-family="Verdana" font-weight="bold">FITTING INSTRUCTIONS</text></g></g><g><g/><g><path style="fill:#ffffff" d="M67.88,14.30L177.98,14.30L177.98,22.20L67.88,22.20z"/><text xml:space="preserve" fill="#000000" stroke-width="0" x="68.87" y="19.73" font-size="4.50" opacity="1.00" font-family="Verdana" font-weight="bold">STEP 7 - PLACE THE BELT AND TENSIONER</text></g></g><g><g/><g><image x="117.603294" y="184.838684" height="17.851601" width="19.118490" xlink:href="UNI-U1700-ALT-UNIDAN_files/b913ac4efa31ae5d_image_4.jpg" mask="url(#mask4)"/></g></g><g id="paperID" visibility="hidden" opacity="0.00" transform="scale(0.000100)"><path style="stroke:#000000;stroke-width:0.500;fill:#e6e6e6;fill-rule:evenodd" d="M-2000.00,-2000.00L2297.00,-2000.00L2297.00,2210.00L-2000.00,2210.00zM0.00,0.00L297.00,0.00L297.00,210.00L0.00,210.00z"/><path style="fill:#000000;fill-opacity:0.118" d="M3.00,210.00L297.00,210.00L297.00,3.00L300.00,3.00L300.00,213.00L3.00,213.00z"/></g><g id="hotspot.0" ident="" onmouseover="ShowHotSpot(evt,&apos;0&apos;)" onmouseout="HideHotSpot(evt,&apos;0&apos;)" onmousemove="ShowToolTip(evt,&apos;0&apos;,&quot;HOME BUTTON&quot;)" opacity="0"><a xlink:href="UNI-U1700-ALT-UNIDAN (HOME).SVG"><path style="fill:#00ff00;fill-rule:evenodd" d="M285.97,46.84L267.26,46.84L267.26,29.59L285.97,29.59z"/></a></g><g id="hotspot.1" ident="" onmouseover="ShowHotSpot(evt,&apos;1&apos;)" onmouseout="HideHotSpot(evt,&apos;1&apos;)" onmousemove="ShowToolTip(evt,&apos;1&apos;,&quot;BOM&quot;)" opacity="0"><a xlink:href="UNI-U1700-ALT-UNIDAN (BOM).SVG"><path style="fill:#00ff00;fill-rule:evenodd" d="M286.34,67.95L267.26,67.95L267.26,51.06L286.34,51.06z"/></a></g><g id="hotspot.2" ident="" onmouseover="ShowHotSpot(evt,&apos;2&apos;)" onmouseout="HideHotSpot(evt,&apos;2&apos;)" onmousemove="ShowToolTip(evt,&apos;2&apos;,&quot;BUTTON - PREVIOUS&quot;)" opacity="0"><a xlink:href="UNI-U1700-ALT-UNIDAN (FITTING - STEP 6).SVG"><path style="fill:#00ff00;fill-rule:evenodd" d="M136.75,202.62L117.67,202.62L117.67,185.00L136.75,185.00z"/></a></g><g id="hotspot.3" ident="" onmouseover="ShowHotSpot(evt,&apos;3&apos;)" onmouseout="HideHotSpot(evt,&apos;3&apos;)" onmousemove="ShowToolTip(evt,&apos;3&apos;,&quot;Fillet26&quot;)" opacity="0"><path style="fill:#00ff00;fill-rule:evenodd" d="M127.32,124.19L133.46,127.87L134.20,128.95L134.41,133.47L138.91,133.09L145.71,131.88L152.74,131.27L157.83,129.81L159.93,128.90L160.39,128.94L160.43,130.21L151.88,135.86L134.42,140.97L132.22,142.41L130.54,142.44L126.88,142.09L126.55,140.24L121.08,133.70L120.34,131.53L120.33,129.06L121.82,126.19L125.31,123.85L126.92,123.86zM129.06,127.18L130.56,129.31L130.45,133.00L128.73,134.92L126.41,135.54L124.33,135.18L122.19,133.32L121.78,132.27L121.83,128.74L123.50,126.78L125.33,126.04L126.54,126.04z"/></g><g id="hotspot.4" ident="" onmouseover="ShowHotSpot(evt,&apos;4&apos;)" onmouseout="HideHotSpot(evt,&apos;4&apos;)" onmousemove="ShowToolTip(evt,&apos;4&apos;,&quot;Cut-Revolve1&quot;)" opacity="0"><path style="fill:#00ff00;fill-rule:evenodd" d="M129.11,129.31L129.12,133.13L126.16,134.92L125.08,135.19L122.17,133.34L122.17,129.09L125.85,127.15z"/></g><g id="hotspot.5" ident="" onmouseover="ShowHotSpot(evt,&apos;5&apos;)" onmouseout="HideHotSpot(evt,&apos;5&apos;)" onmousemove="ShowToolTip(evt,&apos;5&apos;,&quot;Cut-Revolve1&quot;)" opacity="0"><path style="fill:#00ff00;fill-rule:evenodd" d="M96.72,81.63L96.73,85.45L93.77,87.24L92.69,87.51L89.78,85.66L89.78,81.41L93.46,79.47z"/></g><g id="hotspot.6" ident="" onmouseover="ShowHotSpot(evt,&apos;6&apos;)" onmouseout="HideHotSpot(evt,&apos;6&apos;)" onmousemove="ShowToolTip(evt,&apos;6&apos;,&quot;Boss-Extrude1&quot;)" opacity="0"><path style="fill:#00ff00;fill-rule:evenodd" d="M96.65,80.24L97.79,82.37L97.80,84.34L96.84,85.55L97.07,82.36L95.98,80.54L93.45,79.48L91.82,80.24L91.10,80.21L91.85,79.46L92.93,79.10L94.52,79.10zM96.80,85.88L95.83,86.73L94.38,86.77L96.84,85.55z"/></g><g id="hotspot.7" ident="" onmouseover="ShowHotSpot(evt,&apos;7&apos;)" onmouseout="HideHotSpot(evt,&apos;7&apos;)" onmousemove="ShowToolTip(evt,&apos;7&apos;,&quot;Cut-Revolve1&quot;)" opacity="0"><path style="fill:#00ff00;fill-rule:evenodd" d="M130.53,65.29L130.58,69.80L126.78,71.86L125.81,71.86L122.90,70.01L122.78,65.27L126.79,63.04L127.26,63.06z"/></g><g id="hotspot.8" ident="" onmouseover="ShowHotSpot(evt,&apos;8&apos;)" onmouseout="HideHotSpot(evt,&apos;8&apos;)" onmousemove="ShowToolTip(evt,&apos;8&apos;,&quot;Boss-Extrude1&quot;)" opacity="0"><path style="fill:#00ff00;fill-rule:evenodd" d="M130.60,63.76L132.02,66.73L132.02,67.94L130.77,70.71L128.99,71.84L126.77,71.84L130.58,69.80L130.53,65.29L127.26,63.06L126.79,63.04L123.50,64.96L122.76,64.93L123.86,63.45L126.04,62.35L128.00,62.36z"/></g><g id="hotspot.9" ident="" onmouseover="ShowHotSpot(evt,&apos;9&apos;)" onmouseout="HideHotSpot(evt,&apos;9&apos;)" onmousemove="ShowToolTip(evt,&apos;9&apos;,&quot;Cut-Extrude2&quot;)" opacity="0"><path style="fill:#00ff00;fill-rule:evenodd" d="M138.19,57.26L140.05,58.68L141.48,61.25L141.83,64.29L141.34,66.00L131.13,71.14L130.41,71.12L131.87,68.18L132.71,67.19L137.69,64.53L138.21,63.96L138.20,62.34L137.10,60.90L136.38,60.51L135.15,60.51L130.43,62.75L129.07,62.76L128.01,62.36L126.04,62.35L123.87,63.45L122.90,64.66L122.16,66.84L118.41,68.55L116.67,69.72L116.72,72.54L117.45,73.27L120.25,73.30L123.87,71.42L124.72,71.42L125.43,71.85L128.73,72.17L119.14,76.92L110.41,80.93L94.42,88.59L92.34,88.54L90.13,86.70L90.12,86.00L91.96,87.12L93.31,87.52L96.03,86.56L97.69,84.59L97.79,82.37L96.65,80.24L94.52,79.10L92.93,79.10L91.84,79.47L89.79,81.41L89.42,85.43L88.67,83.12L88.66,80.29L89.29,79.46L92.69,77.77L107.86,70.37L115.14,67.09L135.86,56.88L137.48,56.88z"/></g><g id="hotspot.10" ident="" onmouseover="ShowHotSpot(evt,&apos;10&apos;)" onmouseout="HideHotSpot(evt,&apos;10&apos;)" onmousemove="ShowToolTip(evt,&apos;10&apos;,&quot;Revolve1&quot;)" opacity="0"><path style="fill:#00ff00;fill-rule:evenodd" d="M146.93,81.28L150.92,82.75L153.88,84.52L156.78,87.08L159.34,90.35L161.47,94.76L162.57,98.76L162.57,104.33L161.85,107.62L160.39,110.89L157.84,114.53L155.32,116.74L152.73,118.52L147.91,120.98L144.62,121.69L140.01,121.69L137.44,121.35L132.72,119.51L129.12,116.92L125.84,113.65L123.25,108.96L122.16,105.32L121.69,100.22L122.51,95.58L124.60,90.75L127.50,87.10L130.43,84.93L135.27,82.13L139.89,80.93L144.73,80.93zM143.29,97.30L144.80,98.33L146.20,100.93L146.20,102.89L145.15,105.11L142.09,107.15L138.16,107.16L136.39,105.65L135.62,104.24L135.61,100.67L137.07,98.85L139.53,97.30L140.62,96.92z"/></g><g id="hotspot.11" ident="" onmouseover="ShowHotSpot(evt,&apos;11&apos;)" onmouseout="HideHotSpot(evt,&apos;11&apos;)" onmousemove="ShowToolTip(evt,&apos;11&apos;,&quot;Fillet1&quot;)" opacity="0"><path style="fill:#00ff00;fill-rule:evenodd" d="M152.06,58.68L151.92,61.29L148.99,61.79L148.99,58.73L150.07,58.35L151.70,58.31z"/></g><g id="hotspot.12" ident="" onmouseover="ShowHotSpot(evt,&apos;12&apos;)" onmouseout="HideHotSpot(evt,&apos;12&apos;)" onmousemove="ShowToolTip(evt,&apos;12&apos;,&quot;Fillet1&quot;)" opacity="0"><path style="fill:#00ff00;fill-rule:evenodd" d="M183.22,110.42L181.72,110.53L182.11,109.30L183.57,107.83L183.73,107.87z"/></g><g id="hotspot.13" ident="" onmouseover="ShowHotSpot(evt,&apos;13&apos;)" onmouseout="HideHotSpot(evt,&apos;13&apos;)" onmousemove="ShowToolTip(evt,&apos;13&apos;,&quot;Boss-Extrude7&quot;)" opacity="0"><path style="fill:#00ff00;fill-rule:evenodd" d="M168.38,59.86L167.91,61.62L172.40,63.81L176.39,66.38L178.98,68.52L182.95,72.92L186.59,79.47L188.41,86.02L188.78,92.32L187.93,98.04L189.84,98.78L190.27,99.46L190.27,100.71L189.34,101.62L188.06,104.35L182.80,108.55L180.03,112.70L177.13,116.35L174.80,118.38L171.56,120.97L166.25,125.12L162.98,127.31L157.83,129.81L152.74,131.27L145.71,131.88L138.91,133.09L134.41,133.47L134.20,128.95L133.46,127.87L127.32,124.19L126.92,123.86L125.31,123.85L122.20,125.83L121.43,124.25L118.17,114.41L115.97,109.69L114.87,106.43L114.15,103.14L113.80,99.49L113.80,95.96L114.50,90.12L118.91,77.05L141.34,66.00L142.22,63.60L145.70,62.35L155.54,60.54L159.52,60.16L162.59,58.38L165.72,58.77L166.46,58.32L167.33,58.29zM146.93,81.28L150.92,82.75L153.88,84.52L156.78,87.08L159.34,90.35L161.47,94.76L162.57,98.76L162.57,104.33L161.85,107.62L160.39,110.89L157.84,114.53L155.32,116.74L152.73,118.52L147.91,120.98L144.62,121.69L140.01,121.69L137.44,121.35L132.72,119.51L129.12,116.92L125.84,113.65L123.25,108.96L122.16,105.32L121.69,100.22L122.51,95.58L124.60,90.75L127.50,87.10L130.43,84.93L135.27,82.13L139.89,80.93L144.73,80.93zM138.19,62.73L138.22,63.95L137.69,64.53L133.46,66.85L132.26,67.23L130.60,63.76L129.70,63.09L132.59,61.62L134.55,61.64zM122.92,69.99L124.02,71.26L120.94,72.95L120.23,72.95L122.17,67.45zM143.29,97.30L144.80,98.33L146.20,100.93L146.20,102.89L145.15,105.11L142.09,107.15L138.16,107.16L136.39,105.65L135.62,104.24L135.61,100.67L137.07,98.85L139.53,97.30L140.62,96.92z"/></g><g id="hotspot.14" ident="" onmouseover="ShowHotSpot(evt,&apos;14&apos;)" onmouseout="HideHotSpot(evt,&apos;14&apos;)" onmousemove="ShowToolTip(evt,&apos;14&apos;,&quot;Boss-Extrude1&quot;)" opacity="0"><path style="fill:#00ff00;fill-rule:evenodd" d="M129.06,127.18L130.56,129.31L130.56,132.75L130.19,133.46L128.27,135.19L125.77,135.52L125.71,135.18L129.12,133.13L129.11,129.31L125.85,127.15L122.17,129.09L121.81,132.03L121.83,128.74L123.50,126.78L125.33,126.04L126.54,126.04z"/></g><g id="ToolTip" visibility="hidden" opacity="0" transform="translate(0,0)"><rect id="ToolTipShadow" opacity="0.20" fill="black" stroke="none" x="0" y="0" width="30" height="8"/><rect id="ToolTipBG" fill="#ffffe1" stroke="black" x="0" y="0" width="30" height="8"/><text xml:space="preserve" id="ToolTipText" fill="black" x="0" y="0" width="30" height="8">tooltip</text></g></g></svg>