<?xml version="1.0" encoding="UTF-8" standalone="yes"?><svg xmlns="http://www.w3.org/2000/svg" xmlns:xlink="http://www.w3.org/1999/xlink" width="297.000mm" height="210.000mm" viewBox="0.000000 0.000000 297.000000 210.000000" stroke-linejoin="round" stroke-linecap="round" fill="none" fill-rule="evenodd"><desc>Composer Export</desc><script type="text/ecmascript"><![CDATA[
if(typeof(top) != "undefined")
{
	top.ShowPaper = ShowPaper;
}
function ShowHotSpot(evt,hotspotid)
{
	var svgDocument = evt.target.ownerDocument;
	var strId = "hotspot."+hotspotid;
	var hotspot = svgDocument.getElementById(strId);
	if(hotspot)
		hotspot.setAttribute("opacity",".5");
}
function HideHotSpot(evt,hotspotid)
{
	var svgDocument = evt.target.ownerDocument;
	var strId = "hotspot."+hotspotid;
	var hotspot = svgDocument.getElementById(strId);
	if(hotspot)
		hotspot.setAttribute("opacity","0");

	var toolTip = svgDocument.getElementById('ToolTip');
	if(toolTip)
		toolTip.setAttribute("visibility","hidden");
}
function ShowToolTip(evt,hotspotid,strTooltip)
{
	if(strTooltip=="")
	return;

	// change text
	var svgDocument = evt.target.ownerDocument;
	var tiptext = svgDocument.getElementById('ToolTipText');
	if( !tiptext )
	return;
	tiptext.firstChild.nodeValue = " " + strTooltip + "  " ;

	// show tooltip before, else some refresh issue

	var toolTip = svgDocument.getElementById('ToolTip');
	if(!toolTip)
	return;

	toolTip.setAttribute("visibility","visible");
	toolTip.setAttribute("opacity",".95");

	// move tooltip
	// get viewbox

	var root = svgDocument.documentElement;
	var vbox = (root.getAttribute("viewBox")).split(' ');
	var x0 = parseFloat(vbox[0]);
	var y0 = parseFloat(vbox[1]);
	var vboxW = parseFloat(vbox[2]);
	var vboxH = parseFloat(vbox[3]);

	// get default width of svg

	var strW = root.getAttribute("width");
	var svgW = parseFloat(strW);
	if(strW.indexOf('mm') != -1)
	svgW *= 3.779;

	var strH = root.getAttribute("height");
	var svgH = parseFloat(strH);
	if(strH.indexOf('mm') != -1)
	svgH *= 3.779;  	// 96 dpi  -> 96/25.4 = 3.779

	// update the viewbox / width / height if svg is embedded in html with zoom fit all
	var realx0 = x0;
	var realy0 = y0;
	var realvboxW = vboxW;
	var realvboxH = vboxH;
	var realsvgW = svgW;
	var realsvgH = svgH;

	if ((typeof(top) == "undefined") || (typeof(top.svgctl1) != "undefined")) // embedded in html
	{
		// get window size in pxl

		svgW = window.innerWidth;
		svgH = window.innerHeight;

		// calculate real viewbox

		realsvgW = svgW;
		realsvgH = svgH;
		if((svgW / svgH) > (vboxW / vboxH))
		{
			realvboxW = (vboxH * svgW) / svgH;
			realvboxH = vboxH;
			realx0 = x0 - (realvboxW - vboxW)/2 ;
		}
		else
		{
			realvboxH = (vboxW * svgH) / svgW;
			realvboxW = vboxW;
			realy0 = y0 - (realvboxH - vboxH)/2 ;
		}
	}

	// get user zoom/pan

	var newScale = root.currentScale;
	var translation = root.currentTranslate;

	// transform pxl to user unit

	var xPos = (((evt.clientX+10- translation.x)/newScale) * realvboxW)/realsvgW  + realx0 ;
	var yPos = (((evt.clientY+5- translation.y)/newScale) * realvboxH)/ realsvgH  + realy0 ;
	var scaleForWidth = ( (1 / newScale) * realvboxH) / realsvgH;

	// move tooltip

	toolTip.setAttribute("transform", "translate(" + xPos + "," + yPos + ")" );

	// resize tooltip

	var fontsize = 12;
	tiptext.setAttribute("font-size",fontsize*scaleForWidth);
	tiptext.setAttribute("y", fontsize*scaleForWidth);
	var tipBG = svgDocument.getElementById('ToolTipBG');
	var outline = tiptext.getBBox();
	if(tipBG)
	{
		tipBG.setAttribute("stroke-width", 1*scaleForWidth);
		tipBG.setAttribute("width", Number(outline.width) );
		tipBG.setAttribute("height", Number(outline.height) + fontsize*.5*scaleForWidth );
	}
	var ToolTipShadow = svgDocument.getElementById('ToolTipShadow');
	if(ToolTipShadow)
	{
		ToolTipShadow.setAttribute("width", Number(outline.width) );
		ToolTipShadow.setAttribute("height", Number(outline.height) + fontsize*.5*scaleForWidth );
		ToolTipShadow.setAttribute("x", 3*scaleForWidth);
		ToolTipShadow.setAttribute("y", 3*scaleForWidth);
	}
}
function ShowPaper()
{
  var svgDocument = getDocument();
  var paper = svgDocument.getElementById("paperID");
  if(paper)
  {
    paper.setAttribute("transform","scale(1)");
    paper.setAttribute("opacity","1");
    paper.setAttribute("visibility","visible");
  }
  var svg = svgDocument.getRootElement();
  if(svg)
  {
    svg.setAttribute("width","307.000mm");
    svg.setAttribute("height","220.000mm");
    svg.setAttribute("viewBox","-5.000000 -5.000000 307.000000 220.000000");
  }
}
]]></script><defs><mask id="mask0" x="0" y="0" height="100%" width="100%"><image x="239.460968" y="168.790283" height="40.937347" width="55.346039" xlink:href="UNI-U1700-ALT-UNIDAN_files/935d13934e4e4e84_mask_0.jpg"/></mask><mask id="mask1" x="0" y="0" height="100%" width="100%"><image x="-25.743708" y="-23.242882" height="89.395683" width="87.698730" xlink:href="UNI-U1700-ALT-UNIDAN_files/935d13934e4e4e84_mask_1.jpg"/></mask><mask id="mask2" x="0" y="0" height="100%" width="100%"><image x="267.134003" y="50.813660" height="17.189310" width="19.431398" xlink:href="UNI-U1700-ALT-UNIDAN_files/935d13934e4e4e84_mask_2.jpg"/></mask><mask id="mask3" x="0" y="0" height="100%" width="100%"><image x="267.134003" y="29.147215" height="17.590467" width="18.953098" xlink:href="UNI-U1700-ALT-UNIDAN_files/935d13934e4e4e84_mask_3.jpg"/></mask><mask id="mask4" x="0" y="0" height="100%" width="100%"><image x="151.190826" y="184.838699" height="17.560188" width="18.806389" xlink:href="UNI-U1700-ALT-UNIDAN_files/935d13934e4e4e84_mask_4.jpg"/></mask><mask id="mask5" x="0" y="0" height="100%" width="100%"><image x="117.603294" y="184.838699" height="17.851601" width="19.118490" xlink:href="UNI-U1700-ALT-UNIDAN_files/935d13934e4e4e84_mask_5.jpg"/></mask></defs><g><path style="fill:#ffffff" d="M296.95,209.90L0.09,209.90L0.09,0.09L296.95,0.09z"/><path style="fill:#cdd1d5" d="M150.77,72.40L151.65,72.65L155.44,73.99L159.04,76.38L160.46,77.95L163.82,79.07L167.71,81.47L170.46,84.06L170.38,85.12L170.03,85.38L169.89,86.13L169.51,86.36L169.21,89.04L169.22,90.76L169.56,90.92L170.08,91.38L171.83,91.36L172.81,90.55L173.26,88.85L174.40,87.89L174.60,88.03L175.33,89.95L173.99,89.91L173.90,91.12L175.48,91.66L176.36,91.75L176.85,90.60L177.58,90.75L177.89,91.29L177.47,92.25L176.29,92.20L174.77,93.10L175.19,100.11L174.60,104.90L173.40,108.78L171.31,113.27L168.81,116.76L166.62,119.29L165.72,119.41L165.40,119.44L163.82,118.84L162.82,118.83L162.07,119.65L161.92,119.75L162.07,120.86L162.33,121.28L163.63,121.52L162.47,122.39L161.44,124.68L161.34,126.65L160.47,126.75L160.28,126.52L160.49,125.44L160.82,125.13L158.47,124.25L157.75,124.54L157.74,125.53L160.01,126.47L159.25,126.65L156.16,126.76L156.05,125.12L151.74,125.44L154.66,126.47L142.98,125.11L146.08,124.85L147.09,124.55L145.87,124.24L140.59,124.44L139.69,124.20L136.29,123.36L124.63,120.06L120.15,118.56L116.88,116.74L113.29,113.45L110.31,109.56L102.20,100.29L102.00,99.68L103.41,100.05L103.99,100.04L103.98,96.21L107.62,90.87L113.16,82.92L113.30,83.64L112.37,85.44L110.87,90.52L110.19,94.92L110.58,95.50L110.57,102.41L110.88,103.60L111.77,106.90L113.88,111.07L122.84,113.79L124.09,113.77L124.65,114.37L125.55,114.48L125.59,114.10L124.90,113.19L124.82,112.27L126.12,112.59L127.91,113.49L135.99,116.19L136.92,116.17L135.98,114.35L135.63,114.32L135.29,114.65L134.43,114.78L133.30,111.70L133.21,110.49L134.52,109.96L134.21,107.79L134.21,100.41L135.09,96.20L137.19,90.83L140.07,86.53L142.46,83.83L144.71,81.90L147.27,80.27L148.90,79.18L148.76,77.58L152.08,76.35L152.75,76.35L152.79,77.66L151.56,77.26L150.34,77.37L150.35,78.47L152.74,79.18L153.35,77.97L157.84,77.58L159.65,77.59L150.06,74.59L147.65,74.30L143.65,72.84L143.63,72.52L146.08,72.19z"/><path style="fill:#800000" d="M169.71,86.85L169.56,90.92L169.22,90.76L169.21,89.04L169.51,86.36L169.89,86.13z"/><path style="fill:#2add21" d="M153.10,119.45L152.99,120.05L147.27,121.85L147.16,122.91L146.38,122.86L146.12,122.48L146.03,121.78L146.79,121.64L146.84,121.23L146.53,120.94L145.99,121.10L146.06,120.67L150.85,119.08L151.08,118.98L151.93,118.42z"/><path style="fill:#730000" d="M172.20,86.07L172.72,79.99L173.27,79.54L173.43,79.67L173.08,86.06L173.25,87.35L173.26,88.85L172.81,90.55L171.83,91.36L170.08,91.38L169.56,90.92L169.71,86.85L169.89,86.13L170.98,85.93z"/><path style="fill:#26c61d" d="M157.06,117.60L157.11,118.74L156.96,120.17L156.71,120.51L153.55,121.57L152.06,121.53L149.08,122.46L147.16,122.91L147.27,121.85L152.99,120.05L153.10,119.45L151.93,118.42L152.75,117.73L152.77,117.53L153.75,117.19L154.63,117.00L155.07,116.74L156.06,116.74z"/><path style="fill:#e4e9ed" d="M146.58,62.74L145.47,62.92L132.91,67.40L132.21,67.91L131.40,68.01L132.06,68.09L132.21,67.91L138.39,68.01L141.97,68.93L142.86,69.01L142.98,68.82L143.51,69.47L145.86,70.41L150.77,72.40L146.08,72.19L143.63,72.52L143.65,72.84L147.65,74.30L150.06,74.59L159.65,77.59L157.84,77.58L153.35,77.97L152.74,79.18L150.35,78.47L150.34,77.37L151.56,77.26L152.79,77.66L152.75,76.35L152.08,76.35L148.76,77.58L148.90,79.18L147.27,80.27L144.71,81.90L142.46,83.83L140.07,86.53L137.19,90.83L135.09,96.20L134.21,100.41L134.21,107.79L134.52,109.96L133.21,110.49L133.30,111.70L134.43,114.78L135.29,114.65L135.63,114.32L135.98,114.35L136.92,116.17L135.99,116.19L127.91,113.49L126.12,112.59L124.82,112.27L124.90,113.19L125.59,114.10L125.55,114.48L124.65,114.37L124.09,113.77L122.84,113.79L113.88,111.07L111.77,106.90L110.88,103.60L110.57,102.41L110.58,95.50L110.19,94.92L110.87,90.52L112.37,85.44L113.30,83.64L113.16,82.92L107.62,90.87L103.98,96.21L103.99,100.04L103.41,100.05L102.00,99.68L101.60,99.40L101.30,98.22L101.29,96.20L102.67,93.40L107.59,86.35L110.18,80.57L113.44,76.05L116.46,73.09L120.95,70.10L126.03,68.00L134.12,65.32L143.40,62.01L144.37,62.01z"/><path style="fill:#cdd1d5" d="M148.28,63.51L149.17,64.71L150.95,70.41L151.38,72.33L150.77,72.40L145.86,70.41L143.51,69.47L142.98,68.82L143.17,66.29L144.21,64.34L144.98,63.92L145.08,63.70L145.88,63.50L145.22,63.51L145.08,63.70L144.54,63.78L144.21,64.34L143.79,64.52L142.87,65.99L142.98,68.82L142.86,69.01L141.97,68.93L138.39,68.01L132.21,67.91L132.91,67.40L145.47,62.92L146.58,62.74z"/><path style="fill:#cdd1d5" d="M171.78,88.84L171.43,90.34L170.59,90.26L170.70,88.72L171.59,88.62z"/><path style="fill:#cdd1d5" d="M155.88,118.51L155.56,119.88L155.20,120.28L154.36,120.32L153.93,120.05L153.95,118.35L154.44,117.93L155.42,117.96z"/><path style="fill:#e5e5e5" d="M165.40,119.44L165.61,120.03L165.22,120.63L163.63,121.52L162.33,121.28L162.07,120.86L162.07,119.65L162.82,118.83L163.82,118.84z"/><path style="fill:#ed0000" d="M169.32,97.13L168.74,98.67L168.03,99.24L165.52,100.90L164.40,102.18L164.42,104.79L165.17,105.33L165.29,105.66L164.90,106.61L164.47,106.59L163.69,106.18L163.24,105.36L163.21,104.29L163.83,100.71L165.53,99.42L167.61,97.91L167.68,96.42L167.52,96.26L168.47,95.10z"/><path style="fill:#2add21" d="M152.75,117.73L151.93,118.42L152.35,117.62L152.77,117.53z"/><path style="fill:#2add21" d="M156.10,119.25L155.56,119.88L155.88,118.51L156.05,118.60z"/><path style="fill:#2add21" d="M155.11,120.46L154.36,120.32L155.20,120.28z"/><path style="fill:#800000" d="M173.27,79.54L172.72,79.99L172.20,86.07L170.98,85.93L169.89,86.13L170.03,85.38L170.38,85.12L170.46,84.06L170.89,79.36L173.13,79.37z"/><path style="fill:#800000" d="M172.20,89.18L171.88,90.24L171.43,90.34L171.78,88.84z"/><path style="fill:#26c61d" d="M146.84,121.23L146.79,121.64L146.03,121.78L145.99,121.10L146.53,120.94z"/><path style="fill:#393939" d="M168.62,92.19L167.88,93.74L168.47,95.10L167.52,96.26L166.82,96.13L166.11,97.64L165.32,97.65L163.22,96.72L158.23,93.99L161.25,88.17z"/><path style="fill:#e4e9ed" d="M145.08,63.70L145.22,63.51L145.88,63.50z"/><path style="fill:#e4e9ed" d="M144.98,63.92L144.21,64.34L144.54,63.78L145.08,63.70z"/><path style="fill:#e4e9ed" d="M147.38,65.90L148.00,66.81L148.00,67.50L147.36,68.68L146.37,69.23L145.57,69.24L144.65,68.33L144.52,67.60L145.01,66.92L145.03,66.12L145.46,65.56z"/><path style="fill:#e4e9ed" d="M143.17,66.29L142.98,68.82L142.87,65.99L143.79,64.52L144.21,64.34z"/><path style="fill:#e4e9ed" d="M151.65,72.65L150.77,72.40L151.38,72.33z"/><path style="fill:#e4e9ed" d="M166.51,86.85L165.79,87.44L165.60,88.36L165.04,88.38L161.03,86.94L161.14,85.74L161.74,85.36z"/><path style="fill:#e4e9ed" d="M174.40,87.89L173.26,88.85L173.25,87.35z"/><path style="fill:#e4e9ed" d="M175.33,89.95L176.85,90.60L176.36,91.75L175.48,91.66L173.90,91.12L173.99,89.91z"/><path style="fill:#e4e9ed" d="M157.84,94.64L155.35,95.53L153.56,96.72L152.05,98.51L150.95,101.59L150.95,104.51L151.61,106.96L149.44,106.32L148.84,105.72L148.26,103.61L148.26,101.00L149.17,98.32L150.59,96.15L152.67,94.63L155.13,94.02z"/><path style="fill:#e4e9ed" d="M106.41,94.41L104.99,95.71L105.50,94.74L106.03,94.29z"/><path style="fill:#e4e9ed" d="M109.06,96.44L109.41,97.00L109.40,98.33L108.69,99.41L106.69,99.41L105.96,98.10L106.41,97.76L106.43,96.62L106.87,96.08L108.19,96.12z"/><path style="fill:#e4e9ed" d="M173.38,98.51L173.06,98.82L172.79,99.83L168.74,98.67L169.32,97.13z"/><path style="fill:#e4e9ed" d="M104.58,97.10L104.39,99.03L104.22,98.89L104.28,96.80L104.78,95.81L104.99,95.71z"/><path style="fill:#e4e9ed" d="M104.62,99.81L104.39,99.03L104.58,99.17z"/><path style="fill:#e4e9ed" d="M136.91,112.29L136.58,113.58L135.69,113.50L134.11,112.96L134.21,111.75L135.10,111.65z"/><path style="fill:#e4e9ed" d="M152.15,116.76L151.25,117.46L151.08,118.98L150.85,119.08L146.48,117.36L146.47,115.96L146.95,115.55L148.58,115.56z"/><path style="fill:#e4e9ed" d="M160.52,118.55L159.91,119.55L157.11,118.74L157.06,117.60L157.85,117.64z"/><path style="fill:#e4e9ed" d="M160.82,125.13L160.49,125.44L160.28,126.52L160.01,126.47L157.74,125.53L157.75,124.54L158.47,124.25z"/><path style="fill:#e4e9ed" d="M147.09,124.55L146.08,124.85L142.98,125.11L141.36,124.87L140.59,124.44L145.87,124.24z"/><path style="fill:#e4e9ed" d="M151.74,125.44L156.05,125.12L156.16,126.76L154.66,126.47z"/><path style="fill:#0000e5" d="M165.72,119.41L166.62,119.29L169.22,119.44L169.22,120.76L166.12,120.76z"/><path style="fill:#404040" d="M161.25,88.17L158.23,93.99L156.93,93.41L156.91,92.63L159.25,87.74L160.23,87.74z"/><path style="fill:#cdd1d5" d="M132.06,68.09L131.40,68.01L132.21,67.91z"/><path style="fill:#cdd1d5" d="M138.78,74.47L139.00,76.17L135.62,78.18L132.62,80.57L130.65,82.79L128.52,85.74L126.14,90.54L125.22,93.21L124.34,98.01L124.34,103.90L124.64,106.68L124.05,107.00L123.07,107.30L122.54,104.80L122.54,97.42L123.13,94.12L124.33,89.93L126.72,85.14L128.99,81.73L132.02,78.48L135.62,75.79L138.32,74.23z"/><path style="fill:#cdd1d5" d="M134.46,75.16L133.71,75.38L134.14,74.83L134.50,74.85z"/><path style="fill:#cdd1d5" d="M133.51,75.78L132.81,75.98L133.19,75.46L133.71,75.38z"/><path style="fill:#cdd1d5" d="M132.29,76.70L131.70,76.69L132.31,76.07L132.81,75.98z"/><path style="fill:#cdd1d5" d="M112.77,78.94L112.17,79.57L112.40,78.82z"/><path style="fill:#cdd1d5" d="M112.15,79.86L111.78,80.40L111.76,79.80L112.17,79.57z"/><path style="fill:#cdd1d5" d="M130.94,77.66L127.73,80.77L128.08,79.92L130.56,77.54z"/><path style="fill:#cdd1d5" d="M127.64,81.28L126.83,81.96L127.18,81.11L127.73,80.77z"/><path style="fill:#cdd1d5" d="M126.75,82.47L125.93,83.15L126.28,82.31L126.83,81.96z"/><path style="fill:#cdd1d5" d="M125.76,83.88L125.04,84.66L125.56,83.38L125.93,83.15z"/><path style="fill:#cdd1d5" d="M123.64,87.75L121.92,92.31L121.05,97.12L121.05,104.20L121.74,108.59L121.32,107.82L120.75,104.80L120.75,96.52L121.55,92.24L123.34,87.45L124.83,84.75L125.04,84.66z"/><path style="fill:#cdd1d5" d="M122.05,109.49L121.74,108.59L121.92,108.71z"/><path style="fill:#cdd1d5" d="M122.27,110.28L122.05,109.49L122.24,109.64z"/><path style="fill:#cdd1d5" d="M122.94,111.20L123.18,112.37L122.82,112.04L122.82,111.07z"/><path style="fill:#cdd1d5" d="M163.56,119.72L163.43,120.69L162.83,120.78L162.93,119.51L163.26,119.42z"/><path style="fill:#e5e5e5" d="M169.82,107.44L169.09,109.00L168.31,109.02L165.59,107.81L165.18,107.38L166.11,105.58z"/><path style="fill:#ffffff" d="M145.01,66.92L144.52,67.60L144.65,66.56L145.03,66.12z"/><path style="fill:#ffffff" d="M106.41,97.76L105.96,98.10L106.43,96.62z"/><path style="fill:#ffffff" d="M165.17,105.33L166.11,105.58L165.18,107.38L163.71,106.68L163.69,106.18L164.47,106.59L164.90,106.61L165.29,105.66z"/><path style="fill:#ffffff" d="M162.07,120.86L161.92,119.75L162.07,119.65z"/><g><g/><g/></g><g><g/><g><image x="239.460968" y="168.790283" height="40.937347" width="55.346039" xlink:href="UNI-U1700-ALT-UNIDAN_files/935d13934e4e4e84_image_0.jpg" mask="url(#mask0)"/></g></g><g><g/><g><image x="-25.743708" y="-23.242882" height="89.395683" width="87.698730" xlink:href="UNI-U1700-ALT-UNIDAN_files/935d13934e4e4e84_image_1.jpg" mask="url(#mask1)"/></g></g><g id="Actor_.0"><g style="stroke:#000000;stroke-width:0.353"><path d="M163.68,118.83L163.28,118.77L162.87,118.87L162.50,119.13L162.21,119.50L162.04,119.96L162.01,120.44L162.11,120.88L162.35,121.24L162.68,121.48"/><path d="M163.34,119.47L163.35,119.47L163.54,119.54L163.68,119.68L163.78,119.86L163.81,120.09L163.78,120.32L163.68,120.53L163.53,120.70L163.35,120.82L163.16,120.86L162.96,120.83L162.92,120.80"/><path d="M165.31,119.42L165.34,119.43L165.24,120.76L165.22,120.77"/><path d="M165.50,120.51L165.56,120.51L165.61,120.47L165.66,120.41L165.69,120.31L165.70,120.21L165.70,120.10L165.67,119.99L165.63,119.91L165.58,119.86L165.55,119.84L165.52,119.84L165.46,119.86L165.41,119.91L165.37,119.99L165.35,120.09L165.34,120.20L165.36,120.31L165.39,120.40L165.44,120.47L165.50,120.51"/><path d="M165.54,121.02L165.68,120.98L165.81,120.85L165.91,120.64L165.93,120.52L165.96,120.39L165.97,120.11L165.93,119.85L165.84,119.61L165.72,119.44L165.58,119.35L165.44,119.34"/></g><g style="stroke:#000000;stroke-width:0.353"><path d="M162.68,120.56L162.61,120.35L162.61,120.12L162.68,119.90L162.80,119.70L162.96,119.56L163.16,119.48L163.26,119.46L163.34,119.47L163.41,119.50L163.56,119.63L163.65,119.82L163.68,120.04L163.65,120.27L163.56,120.49L163.41,120.66L163.23,120.77L163.03,120.82L162.92,120.80L162.80,120.72L162.68,120.56"/><path d="M161.99,120.84L162.22,121.20L162.56,121.44L162.68,121.48L163.08,121.56L163.49,121.47L165.22,120.77L165.26,120.84L165.39,120.97L165.54,121.02L168.97,120.92L169.11,120.87L169.24,120.74L169.33,120.54L169.35,120.49L169.39,120.29L169.40,120.01L169.36,119.74L169.27,119.51L169.15,119.34L169.01,119.24L168.86,119.24L165.44,119.34L165.31,119.42L163.56,118.79L163.16,118.73L162.75,118.83L162.38,119.09L162.09,119.46L161.92,119.92L161.88,120.39L161.99,120.84"/></g></g><g id="Actor_.1"><g style="stroke:#000000;stroke-width:0.353"><path d="M169.18,90.68L169.52,90.79"/><path d="M170.44,91.43L169.79,91.14L169.58,90.93L169.45,90.65L169.42,90.31L169.58,87.16L169.64,86.84L169.79,86.55L170.11,86.07L170.25,85.78L170.31,85.46L170.69,85.59L170.52,85.51L170.49,85.43L170.50,85.32"/><path d="M171.38,88.50L171.65,88.57L171.89,88.74L172.06,89.00L172.14,89.32L172.12,89.67L172.01,90.00L171.81,90.28L171.55,90.48L171.26,90.58L170.97,90.57L170.74,90.46"/><path d="M172.83,86.06L172.62,86.08L172.22,86.10L171.78,86.09L171.35,86.05L170.96,85.99L170.67,85.92L170.30,85.80L170.31,85.46L169.98,85.35"/><path d="M172.97,79.77L172.55,79.79L172.11,79.78L171.68,79.75L171.29,79.69L171.00,79.62L170.83,79.54L170.80,79.46"/><path d="M172.11,79.39L171.72,79.38L171.47,79.40L171.30,79.44L171.22,79.49L171.24,79.54L171.35,79.59L171.56,79.64L171.82,79.68L172.12,79.71L172.42,79.72L172.79,79.69"/></g><g style="stroke:#000000;stroke-width:0.353"><path d="M172.83,86.06L173.02,86.37L173.13,86.64L173.16,86.95L173.00,90.11L172.93,90.44L172.77,90.75L172.53,90.98L171.86,91.35L171.14,91.50L170.44,91.43L170.10,91.32L169.46,91.03L169.24,90.82L169.11,90.53L169.08,90.20L169.25,87.05L169.31,86.73L169.45,86.44L169.77,85.96L169.91,85.67L169.98,85.35L170.50,85.32L170.80,79.46L170.92,79.39L171.17,79.34L171.53,79.31L171.93,79.31"/><path d="M170.36,89.51L170.34,89.60L170.37,89.93L170.50,90.23L170.70,90.45L170.73,90.46L170.93,90.47L171.22,90.37L171.48,90.17L171.67,89.88L171.79,89.55L171.80,89.21L171.72,88.89L171.56,88.63L171.38,88.50L171.07,88.54L170.79,88.70L170.56,88.94L170.41,89.26L170.36,89.51"/><path d="M173.47,80.00L173.16,85.91L173.11,85.98L172.93,86.04L172.83,86.06"/></g></g><g id="Actor_.2"><g style="stroke:#000000;stroke-width:0.353"><path d="M146.29,120.48L146.39,120.49"/><path d="M147.18,122.86L147.26,122.68L147.30,122.33L147.27,121.91L147.16,121.48L146.98,121.09L146.77,120.76L146.53,120.55L146.44,120.51"/><path d="M147.04,122.41L147.07,122.16L147.05,121.87L146.97,121.58L146.85,121.30L146.71,121.08L146.59,120.98"/><path d="M156.30,116.83L156.03,116.74L155.73,116.77L153.04,117.56L152.77,117.69L152.55,117.91L152.20,118.36L151.97,118.57L151.71,118.70L152.08,118.83L151.97,118.81L151.42,118.97"/><path d="M152.64,121.41L152.92,121.32L153.10,121.19L153.22,120.93L153.26,120.57L153.23,120.16L153.12,119.73L152.94,119.33L152.73,119.01L152.49,118.80L152.37,118.74L151.99,118.62L151.71,118.70L151.37,118.59"/><path d="M153.01,121.54L152.71,121.38"/><path d="M155.11,117.76L155.26,117.77L155.61,117.95L155.86,118.26L156.01,118.66L156.04,119.10L155.93,119.55L155.71,119.95L155.40,120.26L155.02,120.45L154.63,120.49L154.27,120.38L154.24,120.36"/><path d="M156.17,116.78L155.83,116.67"/><path d="M155.97,116.72L155.96,116.72"/></g><g style="stroke:#000000;stroke-width:0.353"><path d="M151.42,118.97L146.29,120.48L146.09,120.54L146.04,120.61"/><path d="M152.64,121.41L147.22,123.00"/><path d="M151.42,118.97L151.37,118.59L151.64,118.46L151.86,118.25L152.21,117.79L152.44,117.58L152.70,117.45L155.40,116.66L155.69,116.63L156.30,116.83L156.52,117.02L156.90,117.68L157.10,118.45L157.10,119.28L156.92,120.10L156.76,120.41L156.53,120.65L156.25,120.79L153.55,121.58L153.27,121.61L153.01,121.54L152.64,121.41"/><path d="M153.67,119.35L153.71,118.89L153.87,118.46L154.14,118.10L154.49,117.85L154.88,117.74L155.11,117.76L155.27,117.84L155.53,118.15L155.68,118.55L155.70,118.99L155.60,119.44L155.37,119.84L155.06,120.15L154.69,120.34L154.30,120.38L154.24,120.36L153.96,120.13L153.75,119.78L153.67,119.35"/></g></g><g id="Actor_.3"><g style="stroke:#000000;stroke-width:0.353"><path d="M103.65,98.12L101.16,97.29"/><path d="M110.19,94.98L110.53,92.09L111.22,88.94L112.23,85.87L113.53,82.95L115.12,80.15L104.56,95.12L103.96,96.25L103.65,97.49L103.65,98.75L103.96,99.91L104.56,100.88L115.12,113.17L113.53,112.64L112.44,111.38L114.13,113.65L116.08,115.65L118.23,117.34L120.58,118.69L123.08,119.69"/><path d="M104.12,98.69L104.11,97.43L104.43,96.28L105.03,95.26L105.85,94.46L106.82,93.97L107.79,93.83L109.16,94.16L108.19,93.94L107.17,94.09L106.21,94.58L105.39,95.38L104.79,96.40L104.47,97.55L104.46,98.69L104.75,99.80L105.33,100.69L106.14,101.30L105.78,101.18L104.98,100.57L104.40,99.68L104.12,98.69"/><path d="M106.14,101.30L107.10,101.57L108.11,101.48L109.09,101.04L109.94,100.29L110.56,99.32L110.56,95.48L110.00,94.72L109.16,94.16"/><path d="M106.42,97.54L106.59,96.99L106.64,96.34L107.34,95.85L107.91,95.74L108.47,95.85L108.94,96.16L109.28,96.65L109.45,97.27L109.44,97.93L109.23,98.58L108.87,99.13L108.38,99.55L107.82,99.76L107.24,99.76L106.72,99.55L106.31,99.14L106.05,98.58L106.01,98.21"/><path d="M106.61,96.39L106.35,96.69"/><path d="M107.66,86.36L109.95,83.12L110.74,81.50L110.85,81.85L111.23,81.30L110.65,81.08L111.10,80.86L112.81,78.22L114.78,75.83L115.82,74.76L115.82,75.00L114.92,75.97L113.11,78.34L111.25,81.28"/><path d="M109.95,83.12L110.85,81.85"/><path d="M115.12,113.17L113.53,110.79L112.23,108.18L111.18,105.18L110.53,102.40L110.22,99.86"/><path d="M110.74,81.50L110.65,81.08"/><path d="M111.07,80.91L111.49,80.74L111.59,80.78"/><path d="M113.53,112.64L114.96,114.33L117.04,116.26L119.35,117.84L121.84,119.06L126.00,120.35"/><path d="M112.95,80.33L112.44,81.15L114.00,78.88L115.97,76.29L118.17,73.97L120.57,71.95L123.14,70.27L125.83,68.94L129.55,67.59L127.02,68.31L124.55,69.35L122.16,70.68L119.88,72.30L117.75,74.17L115.78,76.29L114.00,78.63L112.95,80.33"/><path d="M113.53,79.62L115.12,80.15"/><path d="M116.46,74.31L116.30,74.31L117.60,73.22L116.86,73.88L115.82,75.00"/><path d="M115.83,74.75L115.87,74.31L116.32,74.46"/><path d="M115.87,74.31L116.30,74.31"/><path d="M119.88,72.30L119.00,72.00L117.60,73.22"/><path d="M123.75,69.01L121.27,70.38L119.00,72.00"/><path d="M151.14,72.39L151.37,72.49L148.84,71.89L146.11,71.65L143.34,71.80L140.57,72.35L137.83,73.29L135.20,74.59L132.66,76.26L130.30,78.24L128.13,80.53L126.20,83.07L124.52,85.84L123.79,87.29L123.13,88.78L122.05,91.87L121.29,95.04L120.86,98.26L120.78,101.47L121.04,104.62L121.63,107.67L122.55,110.57L123.79,113.28L125.33,115.75L127.13,117.95L129.15,119.81L131.46,121.41L134.17,122.70L133.55,122.50L131.10,121.30L128.83,119.74L126.77,117.84L124.99,115.68L123.43,113.17L122.19,110.47L121.26,107.56L120.67,104.51L120.41,101.35L120.50,98.14L120.92,94.92L121.69,91.75L122.77,88.66L123.41,87.21L124.16,85.71L125.83,82.94L127.77,80.40L129.94,78.12L132.30,76.13L134.64,74.59L137.48,73.16L140.21,72.22L142.98,71.67L145.76,71.52L148.48,71.75L151.14,72.39L140.40,68.42L137.75,67.92L135.04,67.80L132.29,68.06L129.58,68.70L127.97,68.17"/><path d="M122.70,106.17L122.50,105.08L122.24,101.93L122.33,98.73L122.76,95.52L123.51,92.35L124.60,89.27L125.98,86.33L127.65,83.57L129.58,81.04L131.75,78.75L134.10,76.77L136.62,75.11L138.67,74.07L139.18,76.09L136.67,77.42L134.29,79.11L132.09,81.11L130.10,83.39L128.43,85.81L126.88,88.66L136.66,91.90L135.48,94.79L134.62,97.80L134.09,100.87L133.89,103.95L134.04,106.99L134.53,109.93L133.02,110.57L122.93,107.46L122.70,106.17"/><path d="M122.93,107.46L124.75,106.69L134.53,109.93"/><path d="M136.47,123.39L135.35,123.03L132.90,121.83L130.64,120.27L128.59,118.38L126.78,116.19L125.25,113.72L124.46,112.10L127.18,112.92L128.81,115.39L130.49,117.27L132.38,118.87L134.44,120.17L136.65,121.16L139.50,122.11"/><path d="M124.75,106.69L124.27,103.74L124.12,100.71L124.31,97.63L124.84,94.56L125.63,91.80L126.88,88.66"/><path d="M127.18,112.92L134.51,115.15L134.07,114.09L133.01,110.58"/><path d="M147.24,62.95L146.18,62.80L145.09,63.01L129.58,68.70"/><path d="M134.17,122.70L135.31,123.06L134.17,122.70"/><path d="M134.02,112.97L134.40,113.23L137.07,114.11L136.69,113.85L136.58,113.62L136.59,113.09L136.89,112.63L137.34,112.46L137.57,112.51L134.68,111.58L134.22,111.75L134.05,111.95L133.89,112.46L134.02,112.97"/><path d="M136.20,123.34L135.31,123.06L136.14,123.33"/><path d="M134.44,120.17L139.94,121.99"/><path d="M141.60,121.63L140.27,120.51L138.59,118.64L137.14,116.52L135.93,114.19L134.51,115.15"/><path d="M137.07,114.11L137.54,114.02L137.89,113.62L137.97,113.36L137.91,112.84L137.57,112.51"/><path d="M136.66,91.90L138.13,89.16L139.88,86.63L141.87,84.35L144.07,82.35L146.45,80.67L148.96,79.33L148.53,77.64L138.67,74.07"/><path d="M139.18,76.09L148.96,79.33"/><path d="M140.16,122.07L140.10,122.05"/><path d="M140.22,122.35L140.17,122.33"/><path d="M141.05,68.65L141.36,68.76"/><path d="M142.19,125.11L144.99,125.05L147.33,124.66"/><path d="M145.42,124.07L143.37,124.33L142.00,124.31"/><path d="M152.90,73.04L150.26,72.41L147.53,72.17L144.76,72.33L143.07,72.61L152.87,76.20L151.81,76.46L148.53,77.64"/><path d="M143.35,69.50L143.01,68.56L142.92,67.40L143.16,66.23L143.68,65.15L144.45,64.28L145.39,63.70L146.40,63.45L147.40,63.57L146.05,63.33L145.03,63.58L144.09,64.16L143.34,65.02L142.80,66.11L142.57,67.28L142.65,68.45L142.94,69.29L142.19,69.04"/><path d="M144.58,123.79L146.43,124.40L144.90,123.72"/><path d="M144.66,123.61L144.62,123.59"/><path d="M144.50,67.71L144.54,68.08L144.80,68.64L145.22,69.05L145.74,69.26L146.31,69.26L146.87,69.05L147.36,68.64L147.73,68.08L147.93,67.44L147.94,66.77L147.77,66.16L147.43,65.67L146.96,65.35L146.40,65.24L145.83,65.35L145.30,65.67L145.10,65.89"/><path d="M146.43,124.40L148.75,125.07L151.16,125.39L153.62,125.38L156.09,125.02L156.21,126.81"/><path d="M150.75,119.16L146.78,117.82L146.48,117.54L146.31,117.18L146.26,116.76L146.33,116.32L146.52,115.92L146.78,115.62L147.16,115.39L147.53,115.31L152.61,116.95L152.24,116.88L151.87,116.95L151.52,117.16L151.23,117.48L151.04,117.88L150.97,118.31L151.02,118.74L151.16,119.04"/><path d="M147.90,74.38L150.55,74.71L152.88,75.37L160.69,77.96"/><path d="M147.40,63.57L148.29,64.05L148.97,64.83L149.39,65.85L149.51,67.00L149.31,68.18L148.81,69.27L148.07,70.17L146.97,70.84"/><path d="M148.81,105.57L148.95,105.93L149.85,107.20L151.00,108.17L152.33,108.77L155.00,109.65L153.66,109.05L152.51,108.09L151.62,106.82L151.03,105.31L150.77,103.65L150.85,101.91L151.28,100.20L152.03,98.62L153.06,97.23L154.31,96.12L155.72,95.35L157.21,94.96L158.69,94.97L160.10,95.38L156.06,94.10L154.54,94.08L153.05,94.47L151.63,95.25L150.39,96.34L149.36,97.73L148.62,99.32L148.20,100.98L148.10,102.76L148.36,104.43L148.81,105.57"/><path d="M153.33,79.62L153.79,79.53L154.14,79.13L154.23,78.59L154.16,78.34L153.86,78.03L153.36,78.01L152.97,78.34L152.85,78.59L152.80,78.87L152.94,79.36L153.33,79.62L150.45,78.64L150.17,78.25L150.18,77.71L150.30,77.46L150.70,77.13L150.93,77.08L152.97,77.73L152.87,76.20"/><path d="M155.49,126.60L151.42,125.39"/><path d="M151.57,72.55L151.37,72.49"/><path d="M152.61,116.95L153.05,117.35"/><path d="M162.65,78.61L160.33,77.95L157.92,77.62L155.46,77.64L153.54,77.92L152.97,77.73"/><path d="M153.54,77.92L153.83,78.01"/><path d="M155.24,117.83L155.35,118.16L155.60,118.34"/><path d="M155.00,109.65L156.46,109.87L157.96,109.68L159.39,109.10L160.75,108.15L161.90,106.89L162.79,105.39L163.39,103.73L163.65,102.00L163.56,100.33L163.44,99.84L163.13,98.69L162.38,97.30L161.39,96.21L160.10,95.38"/><path d="M162.29,122.53L160.12,123.68L160.44,124.95L158.30,124.27L157.85,124.45L157.55,124.90L157.54,125.43L157.82,125.83L158.61,126.11L156.55,126.72"/><path d="M156.67,117.29L160.76,118.64L160.39,118.64L160.08,118.91L159.98,119.11L159.97,119.54L160.06,119.72L160.36,119.93L157.10,118.84"/><path d="M157.10,93.42L156.68,93.28L159.39,87.53L161.19,88.09L158.46,93.87L157.10,93.42"/><path d="M158.46,93.87L165.91,97.87L164.13,97.28L156.68,93.28"/><path d="M159.63,126.45L158.66,126.13"/><path d="M161.20,125.20L160.97,125.15L160.54,125.32L160.22,125.78L160.21,126.32L160.31,126.55L160.70,126.80"/><path d="M160.44,124.95L161.13,125.18"/><path d="M160.36,119.93L160.73,119.85L160.90,119.72L161.08,119.34L161.03,118.91L160.76,118.64"/><path d="M161.18,87.25L166.15,88.92L165.89,88.81L165.58,88.36L165.58,87.69L165.72,87.39L166.20,86.99L166.75,86.99L161.77,85.37L161.22,85.59L160.87,86.13L160.85,86.77L161.18,87.25"/><path d="M161.19,88.09L168.64,92.09L167.64,94.21L168.24,94.59L168.31,94.80L168.23,95.34L167.84,95.99L167.48,96.25L167.24,96.28L166.78,96.04L167.64,94.21"/><path d="M163.51,106.69L167.23,108.69L169.01,109.28L165.29,107.28L163.51,106.69L163.79,106.09L164.57,106.68L164.85,106.60L165.24,106.03L165.27,105.66L165.10,105.46"/><path d="M163.79,106.09L163.21,105.31L163.01,104.79"/><path d="M163.60,101.02L164.38,100.14L167.38,98.14L167.77,97.43L167.82,96.71"/><path d="M165.00,105.39L165.11,105.46"/><path d="M165.04,105.42L164.68,105.10L164.23,104.27"/><path d="M165.29,107.28L166.15,105.45L164.56,104.92"/><path d="M164.22,104.22L164.17,103.14L164.30,102.57L164.53,102.03L164.85,101.55L165.25,101.16"/><path d="M166.15,105.45L169.87,107.45L169.01,109.28"/><path d="M165.22,101.18L167.87,99.47L168.38,99.03L168.77,98.50L169.07,97.76L169.18,97.10L169.13,96.40L168.91,95.78L168.30,95.03"/><path d="M165.91,97.87L166.78,96.04"/><path d="M166.15,88.92L166.71,88.81L166.95,88.61L167.16,88.22L167.24,87.69L167.15,87.39L166.75,86.99"/><path d="M167.81,96.67L167.58,96.19"/><path d="M168.58,98.76L173.15,100.27L172.86,100.04L172.76,99.84L172.76,99.28L173.06,98.83L173.28,98.70L173.70,98.69L174.07,99.03L174.14,99.55L174.05,99.82L173.70,100.21L173.47,100.30L173.15,100.27"/><path d="M169.16,97.18L173.74,98.70"/><path d="M174.57,87.86L173.15,88.83L173.07,88.68"/><path d="M175.38,90.02L174.56,89.78L174.32,89.82L173.93,90.15L173.81,90.41L173.80,90.94L174.07,91.34L175.95,91.98"/><path d="M176.95,92.31L176.74,92.22L176.46,91.83L176.48,91.29L176.59,91.04L176.99,90.71L177.45,90.71"/></g><g style="stroke:#000000;stroke-width:0.353"><path d="M136.49,123.43L126.00,120.35L123.08,119.69L122.19,119.39L119.69,118.39L117.36,117.05L115.18,115.35L113.24,113.36L111.55,111.08L102.07,100.06L101.47,99.08L101.16,97.92L101.16,96.67L101.47,95.42L102.06,94.32L107.66,86.36L108.78,83.40L110.21,80.57L111.92,77.93L113.89,75.53L116.05,73.44L118.45,71.61L120.98,70.15L126.14,68.02L128.66,67.29L142.60,62.18L143.69,61.97L144.75,62.13L147.24,62.95L148.19,63.46L148.92,64.26L149.42,65.34L151.57,72.55"/><path d="M106.35,96.69L106.42,97.54L106.02,98.19L105.97,97.93L106.08,97.26L106.35,96.69"/><path d="M137.98,123.86L137.96,123.86"/><path d="M155.49,126.60L142.19,125.12L140.65,124.60"/><path d="M144.49,67.30L144.50,67.71L144.88,67.14L145.08,66.49L145.10,65.89L144.86,66.16L144.57,66.77L144.49,67.30"/><path d="M151.57,72.55L155.42,74.05L157.78,75.43L159.94,77.16L160.69,77.96"/><path d="M156.55,126.72L156.21,126.81L155.49,126.60"/><path d="M156.55,126.72L157.72,126.85L158.81,126.78L159.63,126.45"/><path d="M159.63,126.45L160.70,126.80L160.93,126.80L161.36,126.55L161.59,126.05L161.60,125.78L161.39,125.33L161.13,125.18"/><path d="M161.13,125.18L161.56,124.60L162.05,123.42L162.29,122.53"/><path d="M170.54,84.45L168.81,82.51L166.93,80.91L164.86,79.60L162.65,78.61L160.69,77.96"/><path d="M162.29,122.53L164.37,121.12"/><path d="M173.14,87.35L174.57,87.86L175.38,90.02L177.45,90.71L177.79,91.04L177.85,91.56L177.62,92.06L177.42,92.22L176.95,92.31L175.95,91.98L176.07,92.44L174.55,93.08L175.04,96.03L175.19,99.07L174.99,102.13L174.46,105.21L173.60,108.22L172.42,111.11L170.95,113.85L169.20,116.38L167.21,118.67L166.50,119.31"/></g></g><g><g><path style="stroke:#000000;stroke-width:1.000" d="M169.63,119.93L170.61,119.36L171.61,118.69L174.64,116.49L175.63,115.85L176.60,115.33L177.54,114.98L178.43,114.86L179.28,115.00L180.48,115.69L181.61,116.82L182.70,118.27L183.76,119.91L185.82,123.30L186.86,124.81L187.92,126.03L189.02,126.83L190.16,127.11L191.63,126.84L193.13,126.15L194.65,125.11L196.19,123.80L197.75,122.30L202.46,117.32L204.02,115.77L205.57,114.38"/></g></g><g><g><path style="stroke:#000000;stroke-width:0.250;stroke-dasharray:2.9 2.9" d="M150.74,117.67L159.57,121.16"/></g></g><g><g><path style="stroke:#000000;stroke-width:0.250;stroke-dasharray:2.9 2.9" d="M165.51,87.56L173.92,89.60"/></g></g><g><g><path style="stroke:#800000;stroke-width:2.000" d="M172.30,79.47L172.86,78.23L173.39,76.83L174.94,72.37L175.48,71.02L176.05,69.83L176.66,68.89L177.33,68.25L178.05,67.97L179.36,68.18L180.75,68.92L182.20,70.07L183.70,71.48L186.74,74.53L188.26,75.90L189.75,76.97L191.20,77.61L192.59,77.68L193.66,77.23L194.69,76.37L195.69,75.16L196.68,73.68L197.64,72.01L200.50,66.53L201.47,64.81L202.44,63.25"/></g></g><g><g><path style="stroke:#2bdd21;stroke-width:2.000" d="M146.84,121.77L145.65,122.14L144.38,122.45L140.42,123.27L139.17,123.59L138.02,123.99L137.01,124.49L136.17,125.11L135.54,125.88L135.06,127.19L134.87,128.83L134.91,130.70L135.09,132.69L135.61,136.63L135.79,138.38L135.82,139.84L135.63,140.91L135.13,141.49L134.31,141.56L133.27,141.21L132.05,140.51L130.70,139.53L129.24,138.34L124.66,134.33L123.18,133.10L121.79,132.04"/></g></g><g/><g><g><path style="stroke:#000000;stroke-width:0.500;fill:#000000" d="M126.98,45.91L130.34,46.35L133.68,46.95L136.98,47.72L140.24,48.65L143.45,49.75L146.60,51.00L149.69,52.41L152.70,53.98L155.62,55.69L158.46,57.54L161.20,59.54L163.84,61.67L166.37,63.92L168.79,66.31L171.08,68.81L173.24,71.42L174.17,72.62L174.17,72.62L171.83,70.20L169.36,67.90L166.79,65.72L164.10,63.68L161.32,61.77L158.45,60.00L155.50,58.38L152.46,56.91L149.36,55.59L146.19,54.43L142.97,53.43L139.71,52.59L136.40,51.92L133.07,51.41L129.72,51.07L126.64,50.90z"/></g><g><path style="stroke:#000000;stroke-width:0.250;fill:#ffffff" d="M43.52,44.36L143.05,44.36L143.05,50.57L43.52,50.57z"/><text xml:space="preserve" fill="#000000" stroke-width="0" x="44.29" y="48.63" font-size="3.53" opacity="1.00" font-family="Verdana">STEP 5.1 - Attach the cable lug 16-6 to the brown wire</text></g></g><g><g><path style="stroke:#000000;stroke-width:0.500;fill:#000000" d="M128.10,158.42L129.47,156.79L130.77,155.10L131.97,153.35L133.09,151.54L134.12,149.67L135.05,147.76L135.89,145.80L136.63,143.80L137.26,141.77L137.79,139.71L138.22,137.62L138.55,135.52L138.77,133.40L138.88,131.27L138.89,129.14L138.79,127.02L138.58,124.90L138.58,124.84L138.58,124.85L138.46,126.95L138.23,129.05L137.90,131.13L137.46,133.19L136.92,135.23L136.28,137.24L135.55,139.22L134.71,141.15L133.78,143.05L132.75,144.89L131.63,146.68L130.43,148.41L129.14,150.08L127.77,151.68L126.32,153.21L124.79,154.67L124.55,154.89z"/></g><g><path style="stroke:#000000;stroke-width:0.250;fill:#ffffff" d="M42.31,153.52L141.01,153.52L141.01,159.73L42.31,159.73z"/><text xml:space="preserve" fill="#000000" stroke-width="0" x="43.09" y="157.79" font-size="3.53" opacity="1.00" font-family="Verdana">STEP 5.2 - Attach the cable lug 16-8 to the green wire</text></g></g><g><g><path style="stroke:#000000;stroke-width:0.500;fill:#000000" d="M150.30,170.40L151.84,170.03L153.36,169.59L154.86,169.07L156.32,168.48L157.76,167.82L159.16,167.08L160.53,166.28L161.85,165.41L163.12,164.47L164.35,163.47L165.53,162.41L166.65,161.30L167.71,160.12L168.72,158.90L169.66,157.63L170.54,156.31L171.35,154.95L172.09,153.56L172.76,152.12L173.36,150.66L173.88,149.16L174.33,147.65L174.70,146.11L175.00,144.55L175.22,142.98L175.35,141.41L175.41,139.83L175.39,138.24L175.30,136.66L175.12,135.09L174.86,133.53L174.53,131.98L174.12,130.45L173.63,128.95L173.07,127.47L172.44,126.02L171.73,124.60L170.95,123.22L170.11,121.88L169.37,120.82L169.37,120.82L170.10,122.13L170.77,123.47L171.37,124.84L171.90,126.24L172.35,127.67L172.74,129.11L173.05,130.58L173.29,132.05L173.46,133.54L173.55,135.04L173.56,136.53L173.50,138.03L173.37,139.52L173.16,141.00L172.88,142.47L172.53,143.93L172.10,145.36L171.60,146.77L171.03,148.16L170.40,149.51L169.69,150.83L168.92,152.12L168.09,153.36L167.20,154.56L166.25,155.72L165.24,156.82L164.17,157.88L163.06,158.88L161.90,159.82L160.69,160.70L159.44,161.53L158.15,162.29L156.82,162.98L155.46,163.60L154.07,164.16L152.66,164.65L151.22,165.06L149.76,165.41L149.31,165.50z"/></g><g><path style="stroke:#000000;stroke-width:0.250;fill:#ffffff" d="M42.19,164.92L156.79,164.92L156.79,171.12L42.19,171.12z"/><text xml:space="preserve" fill="#000000" stroke-width="0" x="42.97" y="169.18" font-size="3.53" opacity="1.00" font-family="Verdana">STEP 5.3 - Attach the terminal ring blue to the small black wire</text></g></g><g><g/><g><image x="267.134003" y="50.813660" height="17.189310" width="19.431398" xlink:href="UNI-U1700-ALT-UNIDAN_files/935d13934e4e4e84_image_2.jpg" mask="url(#mask2)"/></g></g><g><g/><g><image x="267.134003" y="29.147215" height="17.590467" width="18.953098" xlink:href="UNI-U1700-ALT-UNIDAN_files/935d13934e4e4e84_image_3.jpg" mask="url(#mask3)"/></g></g><g><g/><g><path style="fill:#ffffff" d="M108.66,3.33L191.01,3.33L191.01,13.49L108.66,13.49z"/><text xml:space="preserve" fill="#000000" stroke-width="0" x="109.93" y="10.31" font-size="5.78" opacity="1.00" font-family="Verdana" font-weight="bold">FITTING INSTRUCTIONS</text></g></g><g><g/><g><path style="fill:#ffffff" d="M68.50,14.30L145.79,14.30L145.79,22.20L68.50,22.20z"/><text xml:space="preserve" fill="#000000" stroke-width="0" x="69.49" y="19.73" font-size="4.50" opacity="1.00" font-family="Verdana" font-weight="bold">STEP 5 - ATTACH CABLE LUGS</text></g></g><g><g/><g><image x="151.190826" y="184.838699" height="17.560188" width="18.806389" xlink:href="UNI-U1700-ALT-UNIDAN_files/935d13934e4e4e84_image_4.jpg" mask="url(#mask4)"/></g></g><g><g/><g><image x="117.603294" y="184.838699" height="17.851601" width="19.118490" xlink:href="UNI-U1700-ALT-UNIDAN_files/935d13934e4e4e84_image_5.jpg" mask="url(#mask5)"/></g></g><g id="paperID" visibility="hidden" opacity="0.00" transform="scale(0.000100)"><path style="stroke:#000000;stroke-width:0.500;fill:#e6e6e6;fill-rule:evenodd" d="M-2000.00,-2000.00L2297.00,-2000.00L2297.00,2210.00L-2000.00,2210.00zM0.00,0.00L297.00,0.00L297.00,210.00L0.00,210.00z"/><path style="fill:#000000;fill-opacity:0.118" d="M3.00,210.00L297.00,210.00L297.00,3.00L300.00,3.00L300.00,213.00L3.00,213.00z"/></g><g id="hotspot.0" ident="" onmouseover="ShowHotSpot(evt,&apos;0&apos;)" onmouseout="HideHotSpot(evt,&apos;0&apos;)" onmousemove="ShowToolTip(evt,&apos;0&apos;,&quot;HOME BUTTON&quot;)" opacity="0"><a xlink:href="UNI-U1700-ALT-UNIDAN (HOME).SVG"><path style="fill:#00ff00;fill-rule:evenodd" d="M285.97,46.84L267.26,46.84L267.26,29.59L285.97,29.59z"/></a></g><g id="hotspot.1" ident="" onmouseover="ShowHotSpot(evt,&apos;1&apos;)" onmouseout="HideHotSpot(evt,&apos;1&apos;)" onmousemove="ShowToolTip(evt,&apos;1&apos;,&quot;BOM&quot;)" opacity="0"><a xlink:href="UNI-U1700-ALT-UNIDAN (BOM).SVG"><path style="fill:#00ff00;fill-rule:evenodd" d="M286.34,67.95L267.26,67.95L267.26,51.06L286.34,51.06z"/></a></g><g id="hotspot.2" ident="" onmouseover="ShowHotSpot(evt,&apos;2&apos;)" onmouseout="HideHotSpot(evt,&apos;2&apos;)" onmousemove="ShowToolTip(evt,&apos;2&apos;,&quot;BUTTON - PREVIOUS&quot;)" opacity="0"><a xlink:href="UNI-U1700-ALT-UNIDAN (FITTING - STEP 4).SVG"><path style="fill:#00ff00;fill-rule:evenodd" d="M136.75,202.62L117.67,202.62L117.67,185.00L136.75,185.00z"/></a></g><g id="hotspot.3" ident="" onmouseover="ShowHotSpot(evt,&apos;3&apos;)" onmouseout="HideHotSpot(evt,&apos;3&apos;)" onmousemove="ShowToolTip(evt,&apos;3&apos;,&quot;NEXT&quot;)" opacity="0"><a xlink:href="UNI-U1700-ALT-UNIDAN (FITTING - STEP 6).SVG"><path style="fill:#00ff00;fill-rule:evenodd" d="M169.87,202.62L151.16,202.62L151.16,185.00L169.87,185.00z"/></a></g><g id="hotspot.4" ident="" onmouseover="ShowHotSpot(evt,&apos;4&apos;)" onmouseout="HideHotSpot(evt,&apos;4&apos;)" onmousemove="ShowToolTip(evt,&apos;4&apos;,&quot;Fillet1&quot;)" opacity="0"><path style="fill:#00ff00;fill-rule:evenodd" d="M173.51,79.86L172.80,90.91L171.94,91.50L170.18,91.51L169.38,91.23L169.51,86.52L170.59,85.06L170.93,79.57L172.40,79.46zM170.56,89.03L171.67,88.90L171.55,90.43L170.57,90.42z"/></g><g id="hotspot.5" ident="" onmouseover="ShowHotSpot(evt,&apos;5&apos;)" onmouseout="HideHotSpot(evt,&apos;5&apos;)" onmousemove="ShowToolTip(evt,&apos;5&apos;,&quot;Fillet1&quot;)" opacity="0"><path style="fill:#00ff00;fill-rule:evenodd" d="M156.46,117.25L157.14,118.79L156.72,120.69L153.73,121.73L152.28,121.66L151.19,122.08L146.57,123.16L146.21,122.79L146.19,120.71L151.27,119.24L152.63,117.68L154.81,116.94L156.03,116.92zM155.45,118.24L155.70,119.63L155.17,120.24L153.82,120.25L153.80,118.88L154.44,117.99z"/></g><g id="hotspot.6" ident="" onmouseover="ShowHotSpot(evt,&apos;6&apos;)" onmouseout="HideHotSpot(evt,&apos;6&apos;)" onmousemove="ShowToolTip(evt,&apos;6&apos;,&quot;Boss-Extrude3&quot;)" opacity="0"><path style="fill:#00ff00;fill-rule:evenodd" d="M169.14,119.49L169.14,121.10L162.19,121.34L162.16,119.58L162.46,119.14zM163.57,120.62L162.79,120.73L162.80,119.85L163.68,119.84z"/></g><g id="hotspot.7" ident="" onmouseover="ShowHotSpot(evt,&apos;7&apos;)" onmouseout="HideHotSpot(evt,&apos;7&apos;)" onmousemove="ShowToolTip(evt,&apos;7&apos;,&quot;Boss-Extrude7&quot;)" opacity="0"><path style="fill:#00ff00;fill-rule:evenodd" d="M146.18,62.74L148.39,63.81L149.11,64.91L151.56,72.65L154.93,74.01L157.88,75.79L160.41,78.00L164.76,79.83L167.67,81.65L170.28,84.15L170.62,85.04L169.51,86.52L169.38,91.23L170.18,91.51L171.94,91.50L172.80,90.91L173.40,87.83L173.84,87.76L174.57,88.22L175.32,90.01L177.13,90.75L177.91,91.48L177.78,92.20L174.94,93.04L174.94,102.88L173.85,107.61L171.55,112.95L169.53,116.03L166.81,119.13L162.46,119.14L162.16,119.58L162.18,121.34L163.67,121.68L162.97,122.19L161.44,124.72L161.38,126.80L155.66,126.79L142.92,125.33L139.99,124.61L121.07,119.15L117.48,117.28L114.92,115.11L112.34,112.23L101.83,99.81L101.40,99.15L101.40,95.94L103.45,92.53L107.87,86.03L110.04,80.93L113.11,76.71L114.40,75.09L116.74,73.06L120.96,70.37L126.05,68.18L134.80,65.28L142.42,62.34L145.11,62.35zM156.46,117.25L157.14,118.79L156.72,120.69L153.73,121.73L152.28,121.66L151.19,122.08L146.57,123.16L146.21,122.79L146.19,120.71L151.27,119.24L152.63,117.68L154.81,116.94L156.03,116.92zM170.56,89.03L171.67,88.90L171.55,90.43L170.57,90.42zM155.45,118.24L155.70,119.63L155.17,120.24L153.82,120.25L153.80,118.88L154.44,117.99zM163.57,120.62L162.79,120.73L162.80,119.85L163.68,119.84zM144.71,67.59L144.77,66.43L145.14,66.36z"/></g><g id="ToolTip" visibility="hidden" opacity="0" transform="translate(0,0)"><rect id="ToolTipShadow" opacity="0.20" fill="black" stroke="none" x="0" y="0" width="30" height="8"/><rect id="ToolTipBG" fill="#ffffe1" stroke="black" x="0" y="0" width="30" height="8"/><text xml:space="preserve" id="ToolTipText" fill="black" x="0" y="0" width="30" height="8">tooltip</text></g></g></svg>