<?xml version="1.0" encoding="UTF-8" standalone="yes"?><svg xmlns="http://www.w3.org/2000/svg" xmlns:xlink="http://www.w3.org/1999/xlink" width="297.000mm" height="210.000mm" viewBox="0.000000 0.000000 297.000000 210.000000" stroke-linejoin="round" stroke-linecap="round" fill="none" fill-rule="evenodd"><desc>Composer Export</desc><script type="text/ecmascript"><![CDATA[
if(typeof(top) != "undefined")
{
	top.ShowPaper = ShowPaper;
}
function ShowHotSpot(evt,hotspotid)
{
	var svgDocument = evt.target.ownerDocument;
	var strId = "hotspot."+hotspotid;
	var hotspot = svgDocument.getElementById(strId);
	if(hotspot)
		hotspot.setAttribute("opacity",".5");
}
function HideHotSpot(evt,hotspotid)
{
	var svgDocument = evt.target.ownerDocument;
	var strId = "hotspot."+hotspotid;
	var hotspot = svgDocument.getElementById(strId);
	if(hotspot)
		hotspot.setAttribute("opacity","0");

	var toolTip = svgDocument.getElementById('ToolTip');
	if(toolTip)
		toolTip.setAttribute("visibility","hidden");
}
function ShowToolTip(evt,hotspotid,strTooltip)
{
	if(strTooltip=="")
	return;

	// change text
	var svgDocument = evt.target.ownerDocument;
	var tiptext = svgDocument.getElementById('ToolTipText');
	if( !tiptext )
	return;
	tiptext.firstChild.nodeValue = " " + strTooltip + "  " ;

	// show tooltip before, else some refresh issue

	var toolTip = svgDocument.getElementById('ToolTip');
	if(!toolTip)
	return;

	toolTip.setAttribute("visibility","visible");
	toolTip.setAttribute("opacity",".95");

	// move tooltip
	// get viewbox

	var root = svgDocument.documentElement;
	var vbox = (root.getAttribute("viewBox")).split(' ');
	var x0 = parseFloat(vbox[0]);
	var y0 = parseFloat(vbox[1]);
	var vboxW = parseFloat(vbox[2]);
	var vboxH = parseFloat(vbox[3]);

	// get default width of svg

	var strW = root.getAttribute("width");
	var svgW = parseFloat(strW);
	if(strW.indexOf('mm') != -1)
	svgW *= 3.779;

	var strH = root.getAttribute("height");
	var svgH = parseFloat(strH);
	if(strH.indexOf('mm') != -1)
	svgH *= 3.779;  	// 96 dpi  -> 96/25.4 = 3.779

	// update the viewbox / width / height if svg is embedded in html with zoom fit all
	var realx0 = x0;
	var realy0 = y0;
	var realvboxW = vboxW;
	var realvboxH = vboxH;
	var realsvgW = svgW;
	var realsvgH = svgH;

	if ((typeof(top) == "undefined") || (typeof(top.svgctl1) != "undefined")) // embedded in html
	{
		// get window size in pxl

		svgW = window.innerWidth;
		svgH = window.innerHeight;

		// calculate real viewbox

		realsvgW = svgW;
		realsvgH = svgH;
		if((svgW / svgH) > (vboxW / vboxH))
		{
			realvboxW = (vboxH * svgW) / svgH;
			realvboxH = vboxH;
			realx0 = x0 - (realvboxW - vboxW)/2 ;
		}
		else
		{
			realvboxH = (vboxW * svgH) / svgW;
			realvboxW = vboxW;
			realy0 = y0 - (realvboxH - vboxH)/2 ;
		}
	}

	// get user zoom/pan

	var newScale = root.currentScale;
	var translation = root.currentTranslate;

	// transform pxl to user unit

	var xPos = (((evt.clientX+10- translation.x)/newScale) * realvboxW)/realsvgW  + realx0 ;
	var yPos = (((evt.clientY+5- translation.y)/newScale) * realvboxH)/ realsvgH  + realy0 ;
	var scaleForWidth = ( (1 / newScale) * realvboxH) / realsvgH;

	// move tooltip

	toolTip.setAttribute("transform", "translate(" + xPos + "," + yPos + ")" );

	// resize tooltip

	var fontsize = 12;
	tiptext.setAttribute("font-size",fontsize*scaleForWidth);
	tiptext.setAttribute("y", fontsize*scaleForWidth);
	var tipBG = svgDocument.getElementById('ToolTipBG');
	var outline = tiptext.getBBox();
	if(tipBG)
	{
		tipBG.setAttribute("stroke-width", 1*scaleForWidth);
		tipBG.setAttribute("width", Number(outline.width) );
		tipBG.setAttribute("height", Number(outline.height) + fontsize*.5*scaleForWidth );
	}
	var ToolTipShadow = svgDocument.getElementById('ToolTipShadow');
	if(ToolTipShadow)
	{
		ToolTipShadow.setAttribute("width", Number(outline.width) );
		ToolTipShadow.setAttribute("height", Number(outline.height) + fontsize*.5*scaleForWidth );
		ToolTipShadow.setAttribute("x", 3*scaleForWidth);
		ToolTipShadow.setAttribute("y", 3*scaleForWidth);
	}
}
function ShowPaper()
{
  var svgDocument = getDocument();
  var paper = svgDocument.getElementById("paperID");
  if(paper)
  {
    paper.setAttribute("transform","scale(1)");
    paper.setAttribute("opacity","1");
    paper.setAttribute("visibility","visible");
  }
  var svg = svgDocument.getRootElement();
  if(svg)
  {
    svg.setAttribute("width","307.000mm");
    svg.setAttribute("height","220.000mm");
    svg.setAttribute("viewBox","-5.000000 -5.000000 307.000000 220.000000");
  }
}
]]></script><defs><mask id="mask0" x="0" y="0" height="100%" width="100%"><image x="104.877396" y="34.973206" height="122.510796" width="94.275246" xlink:href="UNI-U1700-ALT-UNIDAN_files/9d30a1707f4fe321_mask_0.jpg"/></mask><mask id="mask1" x="0" y="0" height="100%" width="100%"><image x="239.460968" y="168.790283" height="40.937347" width="55.346039" xlink:href="UNI-U1700-ALT-UNIDAN_files/9d30a1707f4fe321_mask_1.jpg"/></mask><mask id="mask2" x="0" y="0" height="100%" width="100%"><image x="-25.743708" y="-23.242882" height="89.395683" width="87.698730" xlink:href="UNI-U1700-ALT-UNIDAN_files/9d30a1707f4fe321_mask_2.jpg"/></mask><mask id="mask3" x="0" y="0" height="100%" width="100%"><image x="267.134003" y="50.813660" height="17.189310" width="19.431398" xlink:href="UNI-U1700-ALT-UNIDAN_files/9d30a1707f4fe321_mask_3.jpg"/></mask><mask id="mask4" x="0" y="0" height="100%" width="100%"><image x="267.134003" y="29.147215" height="17.590467" width="18.953098" xlink:href="UNI-U1700-ALT-UNIDAN_files/9d30a1707f4fe321_mask_4.jpg"/></mask><mask id="mask5" x="0" y="0" height="100%" width="100%"><image x="151.190826" y="184.838699" height="17.560188" width="18.806389" xlink:href="UNI-U1700-ALT-UNIDAN_files/9d30a1707f4fe321_mask_5.jpg"/></mask><mask id="mask6" x="0" y="0" height="100%" width="100%"><image x="117.603302" y="184.838699" height="17.851601" width="19.118490" xlink:href="UNI-U1700-ALT-UNIDAN_files/9d30a1707f4fe321_mask_6.jpg"/></mask></defs><g><g><g/><g><image x="104.877396" y="34.973206" height="122.510796" width="94.275246" xlink:href="UNI-U1700-ALT-UNIDAN_files/9d30a1707f4fe321_image_0.jpg" mask="url(#mask0)"/></g></g><g><g/><g/></g><g><g/><g><image x="239.460968" y="168.790283" height="40.937347" width="55.346039" xlink:href="UNI-U1700-ALT-UNIDAN_files/9d30a1707f4fe321_image_1.jpg" mask="url(#mask1)"/></g></g><g><g/><g><image x="-25.743708" y="-23.242882" height="89.395683" width="87.698730" xlink:href="UNI-U1700-ALT-UNIDAN_files/9d30a1707f4fe321_image_2.jpg" mask="url(#mask2)"/></g></g><g><g><path style="fill:#ffff00;fill-opacity:0.706;fill-rule:evenodd" d="M194.67,97.95L194.53,100.95L194.09,103.92L193.36,106.83L192.34,109.66L191.06,112.38L189.52,114.95L187.73,117.36L185.71,119.59L183.49,121.61L181.07,123.40L178.50,124.94L175.78,126.22L172.95,127.24L170.04,127.97L167.07,128.41L164.07,128.55L161.07,128.41L158.10,127.97L155.19,127.24L152.36,126.22L149.64,124.94L147.07,123.40L144.65,121.61L142.43,119.59L140.41,117.36L138.62,114.95L137.08,112.38L135.79,109.66L134.78,106.83L134.05,103.92L133.61,100.95L133.46,97.95L133.61,94.95L134.05,91.98L134.78,89.07L135.79,86.24L137.08,83.52L138.62,80.95L140.41,78.53L142.43,76.31L144.65,74.29L147.07,72.50L149.64,70.96L152.36,69.67L155.19,68.66L158.10,67.93L161.07,67.49L164.07,67.34L167.07,67.49L170.04,67.93L172.95,68.66L175.78,69.67L178.50,70.96L181.07,72.50L183.49,74.29L185.71,76.31L187.73,78.53L189.52,80.95L191.06,83.52L192.34,86.24L193.36,89.07L194.09,91.98L194.53,94.95zM191.34,97.95L191.21,100.62L190.82,103.27L190.17,105.87L189.27,108.39L188.12,110.81L186.75,113.10L185.15,115.25L183.35,117.23L181.37,119.03L179.22,120.63L176.93,122.00L174.51,123.15L171.99,124.05L169.39,124.70L166.74,125.09L164.07,125.22L161.40,125.09L158.75,124.70L156.15,124.05L153.63,123.15L151.21,122.00L148.92,120.63L146.77,119.03L144.79,117.23L142.99,115.25L141.39,113.10L140.02,110.81L138.87,108.39L137.97,105.87L137.32,103.27L136.93,100.62L136.80,97.95L136.93,95.28L137.32,92.63L137.97,90.03L138.87,87.51L140.02,85.09L141.39,82.80L142.99,80.65L144.79,78.67L146.77,76.87L148.92,75.27L151.21,73.90L153.63,72.75L156.15,71.85L158.75,71.20L161.40,70.81L164.07,70.68L166.74,70.81L169.39,71.20L171.99,71.85L174.51,72.75L176.93,73.90L179.22,75.27L181.37,76.87L183.35,78.67L185.15,80.65L186.75,82.80L188.12,85.09L189.27,87.51L190.17,90.03L190.82,92.63L191.21,95.28z"/><ellipse style="stroke:#000000;stroke-width:0.500" rx="30.60" ry="30.60" transform="translate(164.070 97.949) rotate(0.000)"/></g></g><g/><g><g><path style="stroke:#000000;stroke-width:0.500;fill:#000000" d="M45.82,143.65L51.25,145.29L56.76,146.66L62.33,147.75L67.94,148.56L73.59,149.09L79.26,149.34L84.93,149.30L90.60,148.98L96.24,148.38L101.85,147.50L107.40,146.33L112.89,144.89L118.30,143.18L123.61,141.20L128.83,138.96L133.92,136.46L138.88,133.71L143.70,130.71L148.36,127.48L152.86,124.01L157.17,120.33L161.30,116.44L165.23,112.34L168.04,109.14L168.04,109.14L164.10,113.16L159.96,116.98L155.64,120.58L151.14,123.97L146.48,127.13L141.66,130.05L136.71,132.72L131.63,135.15L126.43,137.32L121.13,139.22L115.74,140.86L110.28,142.23L104.76,143.32L99.19,144.13L93.58,144.67L87.96,144.92L82.33,144.90L76.70,144.59L71.10,144.00L65.54,143.13L60.03,141.99L54.58,140.57L49.21,138.88L47.65,138.33z"/></g><g><path style="fill:#ffffff" d="M86.00,141.15L85.82,145.00L85.25,148.81L84.31,152.55L83.02,156.18L81.37,159.66L79.39,162.97L77.09,166.07L74.50,168.92L71.65,171.51L68.55,173.81L65.25,175.79L61.76,177.43L58.13,178.73L54.40,179.67L50.58,180.23L46.73,180.42L42.89,180.23L39.07,179.67L35.34,178.73L31.71,177.43L28.22,175.79L24.92,173.81L21.82,171.51L18.97,168.92L16.38,166.07L14.08,162.97L12.10,159.66L10.45,156.18L9.16,152.55L8.22,148.81L7.65,145.00L7.46,141.15L7.65,137.30L8.22,133.49L9.16,129.75L10.45,126.13L12.10,122.64L14.08,119.34L16.38,116.24L18.97,113.39L21.82,110.80L24.92,108.50L28.22,106.52L31.71,104.87L35.34,103.57L39.07,102.64L42.89,102.07L46.73,101.88L50.58,102.07L54.40,102.64L58.13,103.57L61.76,104.87L65.25,106.52L68.55,108.50L71.65,110.80L74.50,113.39L77.09,116.24L79.39,119.34L81.37,122.64L83.02,126.13L84.31,129.75L85.25,133.49L85.82,137.30L86.00,141.15z"/><path style="stroke:#ff0000;stroke-width:0.805;stroke-opacity:0.00" d="M83.93,141.36L83.22,148.63L81.10,155.62L77.65,162.06L73.02,167.70L67.38,172.34L60.94,175.78L53.95,177.90L46.68,178.62L39.41,177.90L32.42,175.78L25.98,172.34L20.34,167.70L15.71,162.06L12.26,155.62L10.14,148.63L9.43,141.36L10.14,134.10L12.26,127.11L15.71,120.67L20.34,115.02L25.98,110.39L32.42,106.95L39.41,104.83L46.68,104.11L53.95,104.83L60.94,106.95L67.38,110.39L73.02,115.02L77.65,120.67L81.10,127.11L83.22,134.10L83.93,141.36"/><path style="fill:#ffffff" d="M52.83,104.09L57.93,105.32L62.62,107.15L66.70,109.40L70.80,112.44L72.23,113.65L75.08,116.72L77.33,119.57L79.76,123.47L82.00,128.57L83.43,133.88L84.04,138.37L84.04,143.74L83.63,147.20L82.41,152.31L80.58,157.00L78.33,161.08L75.29,165.18L74.07,166.61L71.11,169.36L68.15,171.70L64.25,174.14L59.15,176.37L53.85,177.80L49.50,178.35L44.06,178.35L40.59,177.95L36.91,177.14L33.24,175.91L29.19,174.05L25.51,171.81L22.46,169.36L19.59,166.71L17.35,164.05L15.09,160.81L13.05,157.14L11.21,152.45L10.19,148.36L9.79,145.91L9.59,143.87L9.59,138.23L10.13,133.88L11.56,128.57L13.80,123.47L16.23,119.57L18.57,116.63L21.32,113.65L22.76,112.44L26.85,109.40L30.94,107.15L35.63,105.32L40.73,104.09L44.20,103.69L49.36,103.69z"/><path style="fill:#000000;fill-opacity:0.094" d="M61.01,113.65L61.00,114.98L60.50,116.12L59.30,116.55L58.06,116.61L58.08,115.31L58.52,115.13L58.24,114.72L60.01,114.19L60.81,113.45z"/><path style="fill:#000000;fill-opacity:0.094" d="M57.77,113.64L57.62,113.07L58.28,112.64L58.74,112.64L58.75,113.77z"/><path style="fill:#000000;fill-opacity:0.094" d="M58.98,119.45L57.85,119.58L57.31,120.08L57.31,119.69L57.85,119.18L58.98,119.21z"/><path style="fill:#000000;fill-opacity:0.094" d="M61.05,120.94L60.13,121.65L58.23,121.68L58.23,121.45L59.92,121.24L60.75,120.79z"/><path style="fill:#000000;fill-opacity:0.094" d="M58.96,126.09L58.96,127.43L57.74,127.35L57.24,126.72L57.70,126.17L58.79,125.91z"/><path style="fill:#000000;fill-opacity:0.094" d="M46.54,128.18L46.52,128.42L45.08,129.25L44.41,129.47L44.24,129.22L44.24,127.60L44.40,127.36L45.50,127.34z"/><path style="fill:#000000;fill-opacity:0.094" d="M54.20,132.26L61.42,128.06L62.22,126.94L62.22,129.05L62.01,129.66L61.42,130.30L51.14,136.33L36.91,141.08L34.82,142.24L34.00,142.53L33.78,136.54L35.84,135.28L36.29,135.30L36.53,135.70L36.71,139.87L50.64,135.20L50.78,134.89L50.73,133.89L53.46,132.27z"/><path style="fill:#000000;fill-opacity:0.094" d="M32.67,136.13L32.65,136.38L30.60,137.63L30.37,137.17L30.39,135.58L30.72,135.30L31.63,135.30z"/><path style="fill:#000000;fill-opacity:0.094" d="M58.98,136.79L57.85,136.92L57.32,137.42L57.28,137.00L57.85,136.52L58.98,136.55z"/><path style="fill:#000000;fill-opacity:0.094" d="M61.01,138.40L59.92,138.99L58.23,139.03L58.23,138.79L59.92,138.58L60.75,138.13L61.01,138.16z"/><path style="fill:#000000;fill-opacity:0.094" d="M50.07,139.32L48.54,139.87L48.54,139.48L49.09,139.17L50.01,139.20z"/><path style="fill:#000000;fill-opacity:0.094" d="M52.20,141.07L51.15,141.64L49.46,141.68L49.46,141.44L51.14,141.23L52.44,140.41z"/><path style="fill:#000000;fill-opacity:0.094" d="M51.00,143.71L51.20,143.67L51.22,165.79L50.74,166.12L49.70,166.19L49.71,144.70L50.99,144.18z"/><path style="fill:#000000;fill-opacity:0.094" d="M59.99,157.02L59.52,157.35L58.47,157.41L58.47,142.03L59.52,141.87L59.97,141.21z"/><path style="fill:#000000;fill-opacity:0.094" d="M59.72,157.96L60.33,157.36L61.01,157.14L60.92,158.36L59.71,159.19L57.71,159.19L57.26,159.03L57.24,157.94z"/><path style="fill:#000000;fill-opacity:0.094" d="M52.23,167.01L50.79,168.04L50.79,166.79L52.24,165.91z"/><path style="fill:#ffffff" d="M60.41,114.95L59.49,114.92L60.41,114.71z"/><path style="stroke:#000000;stroke-width:0.142" d="M57.16,159.16L57.16,157.99L56.25,156.71"/><path style="stroke:#000000;stroke-width:0.142" d="M59.97,156.05L60.03,156.08L60.40,156.38L60.58,156.75L60.54,157.12L60.30,157.46L59.88,157.74L59.31,157.93L58.68,158.00L58.04,157.95L57.46,157.78L57.01,157.52L56.74,157.18L56.66,156.81L56.80,156.44L57.14,156.13L57.28,156.05"/><path style="stroke:#000000;stroke-width:0.142" d="M56.80,156.44L56.79,156.46L56.65,156.83L56.72,157.20L56.99,157.54L57.45,157.82L58.03,157.99L58.68,158.03L59.32,157.96L59.89,157.78L60.31,157.49L60.55,157.14L60.59,156.77L60.42,156.41L60.40,156.38"/><path style="stroke:#000000;stroke-width:0.142" d="M57.16,157.99L59.53,158.18L59.53,159.35"/><path style="stroke:#000000;stroke-width:0.142" d="M59.97,156.68L59.98,156.73L60.00,156.79L59.98,156.95L59.97,157.00L59.89,157.16L59.85,157.20L59.69,157.34L59.63,157.38L59.43,157.49L59.34,157.52L59.10,157.59L58.99,157.61L58.73,157.63L58.62,157.64L58.36,157.62L58.25,157.61L58.01,157.55L57.91,157.52L57.70,157.43L57.61,157.38L57.46,157.26L57.41,157.20L57.31,157.07L57.28,157.00L57.25,156.85L57.25,156.79L57.28,156.68"/><path style="stroke:#000000;stroke-width:0.142" d="M57.28,156.75L57.28,156.72L57.28,155.93"/><path style="stroke:#000000;stroke-width:0.142" d="M59.96,141.30L59.93,141.55L59.77,141.78L59.56,141.93L59.48,141.97L59.10,142.10L58.66,142.15L58.23,142.12L57.83,142.01L57.53,141.82L57.33,141.59L57.28,141.34"/><path style="stroke:#000000;stroke-width:0.142" d="M59.45,140.76L59.67,140.93L59.77,141.15L59.75,141.37L59.60,141.57L59.35,141.73L59.03,141.85L58.65,141.89L58.28,141.85L57.94,141.76L57.68,141.60L57.52,141.40L57.48,141.18L57.56,140.98L57.76,140.79"/><path style="stroke:#000000;stroke-width:0.142" d="M59.53,158.18L61.00,157.08"/><path style="stroke:#000000;stroke-width:0.142" d="M59.97,156.75L59.97,156.72L59.97,155.79"/><path style="stroke:#000000;stroke-width:0.426" d="M57.28,155.93L56.25,156.71L56.25,157.88L56.50,158.34L56.70,158.67L56.91,158.93L57.16,159.16L57.80,159.33L58.34,159.40L58.90,159.41L59.53,159.35L59.93,159.17L60.26,158.95L60.60,158.67L61.00,158.26L61.00,157.08L60.10,155.80L59.97,155.79"/><path style="stroke:#000000;stroke-width:0.426" d="M59.97,155.79L59.96,141.30L59.84,141.05L59.59,140.84L59.45,140.76L59.15,140.63L58.78,140.56L58.40,140.57L58.05,140.64L57.76,140.79L57.61,140.87L57.38,141.09L57.28,141.34L57.28,155.93"/><path style="stroke:#000000;stroke-width:0.142" d="M47.14,140.11L47.31,140.54L47.67,140.93L48.21,141.23L48.88,141.44L49.62,141.54L50.39,141.51L51.10,141.35L51.71,141.09L52.17,140.73L52.44,140.32L52.49,139.89"/><path style="stroke:#000000;stroke-width:0.142" d="M48.44,140.21L48.41,140.16L48.39,139.90L48.53,139.63L48.80,139.40L49.18,139.25L49.64,139.17L50.11,139.18L50.55,139.28L50.91,139.46L51.16,139.69L51.25,139.96L51.20,140.23"/><path style="stroke:#000000;stroke-width:0.426" d="M47.14,140.52L47.14,140.11L47.19,139.66L47.46,139.25L47.92,138.90L48.53,138.64L49.25,138.48L50.01,138.45L50.75,138.54L51.42,138.75L51.97,139.07L52.33,139.45L52.49,139.89L52.49,140.31L52.44,140.75L52.17,141.16L51.71,141.51L51.10,141.78L50.39,141.93L49.62,141.97L48.88,141.87L48.21,141.66L47.67,141.35L47.31,140.96L47.14,140.52"/><path style="stroke:#000000;stroke-width:0.426" d="M51.20,140.23L51.20,140.23L50.99,140.48L50.83,140.58L50.66,140.67L50.23,140.79L49.75,140.82L49.29,140.77L48.89,140.63L48.59,140.42L48.44,140.21"/><path style="stroke:#000000;stroke-width:0.426" d="M48.44,140.21L48.53,140.06L48.80,139.83L49.18,139.67L49.64,139.60L50.11,139.61L50.55,139.70L50.91,139.88L51.16,140.11L51.20,140.23"/><path style="stroke:#000000;stroke-width:0.142" d="M48.06,166.12L47.91,165.91L47.86,165.53L48.03,165.18L48.01,165.19L47.84,165.56L47.89,165.94L48.14,166.28L48.58,166.56L49.15,166.75L49.79,166.81L50.43,166.76L51.01,166.58L51.46,166.31L51.73,165.97L51.79,165.59L51.65,165.23L51.63,165.20L51.78,165.57L51.71,165.94L51.44,166.28L51.00,166.55L50.43,166.73L49.79,166.78L49.15,166.72L48.59,166.53L48.16,166.25L48.06,166.12"/><path style="stroke:#000000;stroke-width:0.142" d="M47.46,165.42L48.26,166.73L48.26,167.90"/><path style="stroke:#000000;stroke-width:0.142" d="M48.03,165.18L48.39,164.86L48.48,164.82"/><path style="stroke:#000000;stroke-width:0.142" d="M48.26,166.73L50.62,166.97L50.62,168.15"/><path style="stroke:#000000;stroke-width:0.142" d="M51.16,165.47L51.18,165.54L51.20,165.60L51.17,165.76L51.15,165.82L51.06,165.96L51.01,166.02L50.85,166.15L50.78,166.19L50.57,166.28L50.48,166.31L50.23,166.38L50.13,166.39L49.87,166.41L49.75,166.41L49.50,166.39L49.39,166.37L49.15,166.31L49.05,166.27L48.85,166.19L48.77,166.14L48.63,166.01L48.57,165.95L48.49,165.81L48.46,165.74L48.45,165.60L48.45,165.53L48.48,165.44"/><path style="stroke:#000000;stroke-width:0.142" d="M48.48,165.49L48.48,165.47L48.48,164.73"/><path style="stroke:#000000;stroke-width:0.142" d="M48.48,143.82L48.51,144.08L48.68,144.31L48.97,144.49L49.36,144.62L49.79,144.67L50.24,144.63L50.62,144.51L50.93,144.33L51.11,144.10L51.16,143.84"/><path style="stroke:#000000;stroke-width:0.142" d="M50.67,143.29L50.87,143.48L50.96,143.70L50.93,143.92L50.77,144.11L50.51,144.27L50.17,144.37L49.80,144.41L49.42,144.37L49.09,144.26L48.84,144.09L48.70,143.89L48.67,143.67L48.77,143.46L48.98,143.29"/><path style="stroke:#000000;stroke-width:0.142" d="M50.62,166.97L52.18,165.92"/><path style="stroke:#000000;stroke-width:0.142" d="M51.63,165.20L51.28,164.89L51.16,164.83L51.16,165.53L51.16,165.57"/><path style="stroke:#000000;stroke-width:0.142" d="M51.16,164.59L51.16,164.83"/><path style="stroke:#000000;stroke-width:0.426" d="M51.16,164.59L51.16,143.84L51.05,143.59L50.82,143.38L50.67,143.29L50.38,143.16L50.02,143.09L49.64,143.09L49.29,143.15L48.98,143.29L48.84,143.37L48.59,143.58L48.48,143.82L48.48,164.73L47.46,165.42L47.46,166.60L47.68,167.06L47.86,167.40L48.05,167.67L48.26,167.90L48.91,168.09L49.45,168.18L50.00,168.20L50.62,168.15L51.05,167.98L51.40,167.77L51.76,167.50L52.18,167.10L52.18,165.92L51.37,164.61L51.16,164.59"/><path style="stroke:#000000;stroke-width:0.142" d="M61.30,137.23L61.25,137.67L60.98,138.08L60.52,138.44L59.91,138.70L59.19,138.86L58.44,138.89L57.69,138.79L57.02,138.58L56.48,138.27L56.48,138.27L56.11,137.88L55.95,137.45"/><path style="stroke:#000000;stroke-width:0.142" d="M60.01,137.57L60.06,137.30L59.97,137.04L59.72,136.80L59.36,136.63L58.92,136.53L58.44,136.52L57.99,136.59L57.61,136.75L57.33,136.97L57.20,137.24L57.22,137.51L57.25,137.56"/><path style="stroke:#000000;stroke-width:0.426" d="M56.11,138.30L55.95,137.87L55.95,137.45L56.00,137.01L56.27,136.60L56.73,136.25L57.34,135.98L58.06,135.83L58.81,135.80L59.56,135.89L60.23,136.10L60.77,136.41L61.14,136.80L61.30,137.23L61.30,137.65L61.25,138.09L60.98,138.50L60.52,138.86L59.91,139.12L59.19,139.28L58.44,139.31L57.69,139.21L57.02,139.00L56.48,138.69L56.11,138.30"/><path style="stroke:#000000;stroke-width:0.426" d="M60.01,137.57L60.00,137.58L59.80,137.83L59.64,137.93L59.46,138.02L59.03,138.13L58.57,138.17L58.11,138.12L57.70,137.97L57.39,137.76L57.25,137.56"/><path style="stroke:#000000;stroke-width:0.426" d="M60.01,137.57L59.97,137.46L59.72,137.23L59.36,137.05L58.92,136.95L58.44,136.94L57.99,137.02L57.61,137.17L57.33,137.40L57.25,137.56"/><path style="stroke:#000000;stroke-width:0.142" d="M56.28,114.48L56.74,114.62L57.13,114.81L57.57,115.01L58.08,115.13L58.63,115.18L59.17,115.13L58.63,115.25L57.99,115.47L57.99,116.72"/><path style="stroke:#000000;stroke-width:0.142" d="M57.99,115.47L57.53,115.08L57.13,114.81L56.80,114.56L56.59,114.27L56.52,113.95L56.52,113.80"/><path style="stroke:#000000;stroke-width:0.142" d="M60.22,112.66L60.32,112.76L60.47,112.90L60.53,113.00L60.61,113.16L60.64,113.26L60.65,113.43L60.64,113.53L60.59,113.69L60.53,113.80L60.41,113.95L60.31,114.04L60.14,114.17L60.01,114.25L59.79,114.36L59.64,114.41L59.38,114.48L59.20,114.52L58.92,114.56L58.74,114.56L58.44,114.56L58.28,114.55L57.99,114.51L57.82,114.47L57.56,114.39L57.41,114.34L57.19,114.22L57.08,114.15L56.90,114.01L56.82,113.92L56.70,113.76L56.66,113.67L56.60,113.49L56.60,113.40L56.62,113.22L56.66,113.13L56.74,112.96L56.82,112.87L56.96,112.72L57.28,112.52"/><path style="stroke:#000000;stroke-width:0.142" d="M57.11,113.61L57.04,113.39L57.08,113.16L57.22,112.95L57.44,112.76L57.74,112.61L58.09,112.50L58.11,112.50L58.48,112.45L58.87,112.46L59.25,112.53L59.60,112.64L59.88,112.80L60.08,113.00L60.18,113.22L60.20,113.45L60.19,113.45L60.11,113.67L59.93,113.87L59.67,114.05L59.65,114.05L59.35,114.18L58.97,114.25L58.57,114.27L58.53,114.27L58.19,114.23L57.82,114.15L57.51,114.01L57.26,113.82L57.11,113.61"/><path style="stroke:#000000;stroke-width:0.142" d="M57.63,113.64L57.84,113.82L58.14,113.94L58.48,113.99L58.86,113.98L59.19,113.91L59.47,113.78L59.65,113.59L59.73,113.39L59.68,113.18L59.63,113.11L59.52,112.99L59.27,112.84L58.94,112.75L58.89,112.74L58.58,112.72L58.22,112.77L57.91,112.87L57.67,113.03L57.54,113.23L57.53,113.44L57.63,113.64"/><path style="stroke:#000000;stroke-width:0.142" d="M57.54,113.23L57.53,113.44"/><path style="stroke:#000000;stroke-width:0.142" d="M60.35,116.36L60.35,115.10L59.71,115.08L59.17,115.13L59.68,115.02L60.11,114.81L60.45,114.56L60.66,114.27L60.73,113.96L60.73,113.57L60.72,113.53"/><path style="stroke:#000000;stroke-width:0.142" d="M60.35,115.10L60.51,114.61L60.66,114.27L60.80,113.99L60.97,113.74"/><path style="stroke:#000000;stroke-width:0.426" d="M60.72,113.53L60.97,113.74L60.97,115.00L60.80,115.49L60.66,115.84L60.51,116.11L60.35,116.36L59.71,116.58L59.17,116.70L58.64,116.75L57.99,116.72L57.53,116.58L57.13,116.39L56.74,116.12L56.28,115.73L56.28,114.48L56.45,113.98L56.52,113.80L56.53,113.65L56.54,113.36L56.55,113.30L56.68,113.03L56.71,112.98L56.94,112.74L57.25,112.53L57.29,112.50L57.67,112.35L58.11,112.25L58.57,112.21L59.02,112.24L59.03,112.24L59.48,112.33L59.87,112.46L60.19,112.66L60.24,112.68L60.49,112.91L60.52,112.96L60.68,113.23L60.69,113.29L60.72,113.53"/><path style="stroke:#000000;stroke-width:0.142" d="M61.30,119.90L61.25,120.34L60.98,120.76L60.52,121.10L59.91,121.37L59.19,121.52L58.44,121.56L57.69,121.47L57.02,121.25L56.48,120.94L56.11,120.56L55.95,120.12"/><path style="stroke:#000000;stroke-width:0.142" d="M60.01,120.24L60.06,119.98L59.97,119.71L59.72,119.48L59.36,119.30L59.02,119.22L58.92,119.20L58.44,119.19L57.99,119.27L57.61,119.43L57.33,119.65L57.20,119.91L57.22,120.19L57.25,120.24"/><path style="stroke:#000000;stroke-width:0.426" d="M56.11,120.98L55.95,120.55L55.95,120.12L56.00,119.69L56.27,119.27L56.73,118.91L57.19,118.72L57.34,118.66L58.06,118.50L58.81,118.47L59.56,118.56L60.23,118.77L60.77,119.08L61.14,119.47L61.30,119.90L61.30,120.32L61.25,120.77L60.98,121.18L60.52,121.53L59.91,121.80L59.19,121.95L58.44,121.98L57.69,121.89L57.02,121.68L56.48,121.36L56.11,120.98"/><path style="stroke:#000000;stroke-width:0.426" d="M60.01,120.24L60.00,120.25L59.80,120.49L59.64,120.60L59.46,120.69L59.03,120.81L58.57,120.84L58.11,120.78L57.70,120.65L57.39,120.44L57.25,120.24"/><path style="stroke:#000000;stroke-width:0.426" d="M57.25,120.24L57.33,120.07L57.61,119.85L57.99,119.69L58.44,119.61L58.92,119.62L59.36,119.72L59.72,119.90L59.97,120.13L60.01,120.24"/><path style="stroke:#000000;stroke-width:0.142" d="M30.71,138.04L30.51,137.68L30.29,137.04L30.21,136.42L30.29,135.89L30.51,135.51L30.87,135.30L31.31,135.30L31.81,135.50L32.30,135.87L32.75,136.39L33.11,137.00L33.33,137.66L33.41,138.27L33.33,138.80L33.11,139.18L32.75,139.39L32.30,139.39L31.81,139.20L31.31,138.82L30.87,138.30L30.71,138.04"/><path style="stroke:#000000;stroke-width:0.142" d="M29.88,136.16L29.92,135.73L29.96,135.57L30.03,135.37L30.20,135.08L30.29,134.98L30.42,134.87L30.54,134.81L30.71,134.74L30.85,134.72L31.04,134.71L31.19,134.72L31.39,134.77L31.55,134.82L31.76,134.91L31.92,135.01L32.14,135.14L32.30,135.26L32.51,135.45L32.66,135.60L32.86,135.82L33.04,136.06L33.14,136.21"/><path style="stroke:#000000;stroke-width:0.142" d="M33.70,142.72L32.28,141.90"/><path style="stroke:#000000;stroke-width:0.142" d="M32.09,141.58L32.09,141.24"/><path style="stroke:#000000;stroke-width:0.142" d="M33.89,142.62L33.89,138.50"/><path style="stroke:#000000;stroke-width:0.142" d="M34.12,142.70L36.71,141.21"/><path style="stroke:#000000;stroke-width:0.142" d="M33.95,137.25L36.36,135.86"/><path style="stroke:#000000;stroke-width:0.142" d="M34.44,133.30L34.83,133.52L35.20,133.83L35.55,134.20L35.87,134.62"/><path style="stroke:#000000;stroke-width:0.142" d="M36.10,135.10L35.84,134.64L35.51,134.20"/><path style="stroke:#000000;stroke-width:0.142" d="M61.05,130.68L50.70,136.66L36.67,141.23"/><path style="stroke:#000000;stroke-width:0.142" d="M36.61,141.06L36.63,140.98L36.70,141.00"/><path style="stroke:#000000;stroke-width:0.142" d="M36.63,140.98L36.64,139.18L36.64,139.91L36.64,138.27L36.64,139.18"/><path style="stroke:#000000;stroke-width:0.142" d="M50.27,135.42L36.64,139.87"/><path style="stroke:#000000;stroke-width:0.142" d="M36.64,139.91L36.64,140.04L36.64,139.76"/><path style="stroke:#000000;stroke-width:0.142" d="M36.64,139.97L36.64,139.98"/><path style="stroke:#000000;stroke-width:0.142" d="M36.64,139.69L36.64,139.52"/><path style="stroke:#000000;stroke-width:0.142" d="M36.64,138.27L36.64,137.35L36.64,138.27L36.64,137.79"/><path style="stroke:#000000;stroke-width:0.142" d="M36.64,137.35L36.64,136.96"/><path style="stroke:#000000;stroke-width:0.142" d="M36.64,136.93L36.64,136.98"/><path style="stroke:#000000;stroke-width:0.142" d="M44.33,129.71L44.11,129.05L44.03,128.44L44.11,127.91L44.33,127.52L44.69,127.32L45.13,127.32L45.63,127.52L46.12,127.89L46.57,128.41L46.93,129.02L47.15,129.67L47.23,130.30L47.15,130.82L46.93,131.20L46.57,131.41L46.12,131.41L45.63,131.21L45.13,130.83L44.69,130.32L44.33,129.71"/><path style="stroke:#000000;stroke-width:0.142" d="M50.70,133.81L46.96,128.23L46.78,127.98L46.64,127.81L46.45,127.59L46.30,127.44L46.09,127.27L45.94,127.15L45.72,127.01L45.56,126.92L45.35,126.83L45.19,126.78L44.99,126.74L44.84,126.73L44.66,126.74L44.52,126.77L44.36,126.83L44.24,126.90L44.11,127.02L44.01,127.11L43.91,127.27L43.84,127.40L43.74,127.76L43.70,128.18"/><path style="stroke:#000000;stroke-width:0.142" d="M45.77,132.37L50.41,135.04"/><path style="stroke:#000000;stroke-width:0.142" d="M45.59,132.47L45.59,132.53"/><path style="stroke:#000000;stroke-width:0.142" d="M45.59,132.62L45.53,132.66"/><path style="stroke:#000000;stroke-width:0.142" d="M45.59,132.59L45.57,132.63"/><path style="stroke:#000000;stroke-width:0.142" d="M45.57,132.61L45.60,132.49"/><path style="stroke:#000000;stroke-width:0.142" d="M45.44,132.20L45.52,132.44"/><path style="stroke:#000000;stroke-width:0.142" d="M46.57,131.41L46.57,131.41"/><path style="stroke:#000000;stroke-width:0.142" d="M53.23,132.05L49.64,126.68L49.33,126.26L48.98,125.90L48.62,125.60L48.24,125.37"/><path style="stroke:#000000;stroke-width:0.142" d="M50.77,134.83L50.77,134.03"/><path style="stroke:#000000;stroke-width:0.142" d="M50.38,135.10L50.27,135.15"/><path style="stroke:#000000;stroke-width:0.142" d="M51.01,133.81L53.32,132.48"/><path style="stroke:#000000;stroke-width:0.142" d="M50.94,128.60L53.24,132.05L53.39,132.26L53.43,132.34L53.50,132.48"/><path style="stroke:#000000;stroke-width:0.142" d="M50.94,128.60L54.96,126.28"/><path style="stroke:#000000;stroke-width:0.142" d="M53.80,132.55L61.05,128.36L61.28,128.22L61.43,128.10L61.61,127.94L61.73,127.80L61.86,127.62L61.94,127.48L62.00,127.28L62.04,127.14L62.04,126.94L62.04,126.79L61.99,126.60L61.94,126.45L61.73,126.12L61.43,125.82L61.04,125.56"/><path style="stroke:#000000;stroke-width:0.142" d="M57.57,127.39L57.33,127.16L57.24,126.90L57.29,126.64L57.49,126.40L57.82,126.22L58.23,126.10L58.69,126.07L59.13,126.12L59.52,126.26L59.60,126.30L59.82,126.46L59.98,126.70L60.01,126.97L59.87,127.22L59.60,127.44L59.23,127.59L58.80,127.66L58.34,127.65L57.91,127.56L57.57,127.39"/><path style="stroke:#000000;stroke-width:0.426" d="M62.16,127.01L62.16,127.00L62.16,129.24L62.14,129.34L62.03,129.68L61.82,130.01L61.77,130.09L61.47,130.39L61.08,130.66L50.67,136.67L36.65,141.25L34.06,142.74L33.96,142.78L33.81,142.77L33.73,142.75L32.25,141.89L32.20,141.85L32.15,141.80L32.12,141.74L32.10,141.68L32.09,141.61L32.09,141.24L32.08,141.13L32.04,141.01L31.99,140.88L30.42,138.04L30.19,137.58L30.02,137.09L29.92,136.63L29.88,136.17L29.88,136.11L29.92,135.68L30.03,135.32L30.07,135.24L30.25,134.94L30.56,134.66L32.95,133.28L33.24,133.15L33.30,133.13L33.63,133.09L33.68,133.09L34.05,133.14L34.43,133.28L34.47,133.31L34.84,133.53L35.22,133.83L35.56,134.20L35.87,134.61L36.14,135.07L36.35,135.55L36.51,136.02L36.61,136.49L36.64,136.93L36.64,137.79"/><path style="stroke:#000000;stroke-width:0.426" d="M50.94,128.60L49.66,126.68L49.34,126.27L49.00,125.91L48.64,125.61L48.21,125.35L47.83,125.21L47.47,125.16L47.39,125.16L47.06,125.20L46.96,125.23L46.67,125.36L44.37,126.69L44.06,126.98L43.88,127.27L43.84,127.36L43.74,127.72L43.70,128.14L43.70,128.21L43.74,128.65L43.85,129.13L44.02,129.59L44.24,130.06L45.43,132.21L45.52,132.44L45.56,132.53L45.57,132.61L45.57,132.63L45.53,132.66L36.64,137.79"/><path style="stroke:#000000;stroke-width:0.426" d="M36.64,136.93L36.64,136.93"/><path style="stroke:#000000;stroke-width:0.426" d="M62.16,127.00L62.14,126.90L62.03,126.56L61.77,126.15L61.47,125.85L61.08,125.58L61.02,125.54L60.57,125.33L60.06,125.16L59.50,125.04L58.92,124.98L58.33,124.98L57.75,125.04L57.20,125.16L56.68,125.33L56.23,125.54L50.94,128.60"/><path style="stroke:#000000;stroke-width:0.101;stroke-dasharray:1.9 1.9" d="M58.62,109.57L58.62,149.72"/><path style="stroke:#000000;stroke-width:0.101;stroke-dasharray:1.9 1.9" d="M49.82,119.51L49.82,155.37"/><path style="stroke:#000000;stroke-width:0.500" d="M86.00,141.15L85.82,145.00L85.25,148.81L84.31,152.55L83.02,156.18L81.37,159.66L79.39,162.97L77.09,166.07L74.50,168.92L71.65,171.51L68.55,173.81L65.25,175.79L61.76,177.43L58.13,178.73L54.40,179.67L50.58,180.23L46.73,180.42L42.89,180.23L39.07,179.67L35.34,178.73L31.71,177.43L28.22,175.79L24.92,173.81L21.82,171.51L18.97,168.92L16.38,166.07L14.08,162.97L12.10,159.66L10.45,156.18L9.16,152.55L8.22,148.81L7.65,145.00L7.46,141.15L7.65,137.30L8.22,133.49L9.16,129.75L10.45,126.13L12.10,122.64L14.08,119.34L16.38,116.24L18.97,113.39L21.82,110.80L24.92,108.50L28.22,106.52L31.71,104.87L35.34,103.57L39.07,102.64L42.89,102.07L46.73,101.88L50.58,102.07L54.40,102.64L58.13,103.57L61.76,104.87L65.25,106.52L68.55,108.50L71.65,110.80L74.50,113.39L77.09,116.24L79.39,119.34L81.37,122.64L83.02,126.13L84.31,129.75L85.25,133.49L85.82,137.30L86.00,141.15z"/></g></g><g><g><path style="stroke:#000000;stroke-width:0.500" d="M81.87,172.44L49.94,159.29"/></g><g><path style="fill:#ffffff" d="M79.53,169.17L155.73,169.17L155.73,175.38L79.53,175.38z"/><text xml:space="preserve" fill="#000000" stroke-width="0" x="80.30" y="173.44" font-size="3.53" opacity="1.00" font-family="Verdana">M14 x 140 HEX HEAD BOLT FINE THREAD</text></g><g><path style="fill:#000000" d="M50.94,159.29L50.93,159.19L50.92,159.09L50.90,159.00L50.86,158.90L50.82,158.82L50.77,158.73L50.71,158.65L50.65,158.58L50.57,158.51L50.49,158.46L50.41,158.41L50.32,158.36L50.23,158.33L50.13,158.31L50.04,158.29L49.94,158.29L49.84,158.29L49.74,158.31L49.65,158.33L49.56,158.36L49.47,158.41L49.38,158.46L49.30,158.51L49.23,158.58L49.17,158.65L49.11,158.73L49.06,158.82L49.02,158.90L48.98,159.00L48.96,159.09L48.94,159.19L48.94,159.29L48.94,159.39L48.96,159.48L48.98,159.58L49.02,159.67L49.06,159.76L49.11,159.84L49.17,159.92L49.23,159.99L49.30,160.06L49.38,160.12L49.47,160.17L49.56,160.21L49.65,160.24L49.74,160.27L49.84,160.28L49.94,160.29L50.04,160.28L50.13,160.27L50.23,160.24L50.32,160.21L50.41,160.17L50.49,160.12L50.57,160.06L50.65,159.99L50.71,159.92L50.77,159.84L50.82,159.76L50.86,159.67L50.90,159.58L50.92,159.48L50.93,159.39z"/></g></g><g><g><path style="stroke:#000000;stroke-width:0.500" d="M81.43,164.03L59.43,152.70"/></g><g><path style="fill:#ffffff" d="M81.63,160.73L132.21,160.73L132.21,166.94L81.63,166.94z"/><text xml:space="preserve" fill="#000000" stroke-width="0" x="82.41" y="165.00" font-size="3.52" opacity="1.00" font-family="Verdana">M14 x 100 HEX HEAD BOLT</text></g><g/></g><g><g/><g><path style="stroke:#000000;stroke-width:0.250" d="M0.95,73.12L104.79,73.12L104.79,87.09L0.95,87.09z"/><text xml:space="preserve" fill="#ff0000" stroke-width="0" x="1.73" y="77.39" font-size="3.53" opacity="1.00" font-family="Verdana">NOTE: ONCE THE BRACKET IF MOUNTED, PRE-FIT THE </text><text xml:space="preserve" fill="#ff0000" stroke-width="0" x="1.73" y="81.27" font-size="3.56" opacity="1.00" font-family="Verdana">           NEW ALTERNATOR TO CHECK IF PULLEY OFFSET </text><text xml:space="preserve" fill="#ff0000" stroke-width="0" x="1.73" y="85.15" font-size="3.56" opacity="1.00" font-family="Verdana">           IS CORRECT. IF NOT, PLEASE CONTACT UNIDAN</text></g></g><g><g/><g><image x="267.134003" y="50.813660" height="17.189310" width="19.431398" xlink:href="UNI-U1700-ALT-UNIDAN_files/9d30a1707f4fe321_image_3.jpg" mask="url(#mask3)"/></g></g><g><g/><g><image x="267.134003" y="29.147215" height="17.590467" width="18.953098" xlink:href="UNI-U1700-ALT-UNIDAN_files/9d30a1707f4fe321_image_4.jpg" mask="url(#mask4)"/></g></g><g><g/><g><path style="fill:#ffffff" d="M108.66,3.33L191.01,3.33L191.01,13.49L108.66,13.49z"/><text xml:space="preserve" fill="#000000" stroke-width="0" x="109.93" y="10.31" font-size="5.78" opacity="1.00" font-family="Verdana" font-weight="bold">FITTING INSTRUCTIONS</text></g></g><g><g/><g><path style="fill:#ffffff" d="M70.00,14.30L186.95,14.30L186.95,22.20L70.00,22.20z"/><text xml:space="preserve" fill="#000000" stroke-width="0" x="70.99" y="19.73" font-size="4.50" opacity="1.00" font-family="Verdana" font-weight="bold">STEP 3 - MOUNT NEW ALTERNATOR BRACKET</text></g></g><g><g/><g><image x="151.190826" y="184.838699" height="17.560188" width="18.806389" xlink:href="UNI-U1700-ALT-UNIDAN_files/9d30a1707f4fe321_image_5.jpg" mask="url(#mask5)"/></g></g><g><g/><g><image x="117.603302" y="184.838699" height="17.851601" width="19.118490" xlink:href="UNI-U1700-ALT-UNIDAN_files/9d30a1707f4fe321_image_6.jpg" mask="url(#mask6)"/></g></g><g/><g id="paperID" visibility="hidden" opacity="0.00" transform="scale(0.000100)"><path style="stroke:#000000;stroke-width:0.500;fill:#e6e6e6;fill-rule:evenodd" d="M-2000.00,-2000.00L2297.00,-2000.00L2297.00,2210.00L-2000.00,2210.00zM0.00,0.00L297.00,0.00L297.00,210.00L0.00,210.00z"/><path style="fill:#000000;fill-opacity:0.118" d="M3.00,210.00L297.00,210.00L297.00,3.00L300.00,3.00L300.00,213.00L3.00,213.00z"/></g><g id="hotspot.0" ident="" onmouseover="ShowHotSpot(evt,&apos;0&apos;)" onmouseout="HideHotSpot(evt,&apos;0&apos;)" onmousemove="ShowToolTip(evt,&apos;0&apos;,&quot;HOME BUTTON&quot;)" opacity="0"><a xlink:href="UNI-U1700-ALT-UNIDAN (HOME).SVG"><path style="fill:#00ff00;fill-rule:evenodd" d="M285.97,46.84L267.26,46.84L267.26,29.59L285.97,29.59z"/></a></g><g id="hotspot.1" ident="" onmouseover="ShowHotSpot(evt,&apos;1&apos;)" onmouseout="HideHotSpot(evt,&apos;1&apos;)" onmousemove="ShowToolTip(evt,&apos;1&apos;,&quot;BOM&quot;)" opacity="0"><a xlink:href="UNI-U1700-ALT-UNIDAN (BOM).SVG"><path style="fill:#00ff00;fill-rule:evenodd" d="M286.34,67.95L267.26,67.95L267.26,51.06L286.34,51.06z"/></a></g><g id="hotspot.2" ident="" onmouseover="ShowHotSpot(evt,&apos;2&apos;)" onmouseout="HideHotSpot(evt,&apos;2&apos;)" onmousemove="ShowToolTip(evt,&apos;2&apos;,&quot;BUTTON - PREVIOUS&quot;)" opacity="0"><a xlink:href="UNI-U1700-ALT-UNIDAN (FITTING - STEP 2).SVG"><path style="fill:#00ff00;fill-rule:evenodd" d="M136.75,202.62L117.67,202.62L117.67,185.00L136.75,185.00z"/></a></g><g id="hotspot.3" ident="" onmouseover="ShowHotSpot(evt,&apos;3&apos;)" onmouseout="HideHotSpot(evt,&apos;3&apos;)" onmousemove="ShowToolTip(evt,&apos;3&apos;,&quot;NEXT&quot;)" opacity="0"><a xlink:href="UNI-U1700-ALT-UNIDAN (FITTING - STEP 4).SVG"><path style="fill:#00ff00;fill-rule:evenodd" d="M169.87,202.62L151.16,202.62L151.16,185.00L169.87,185.00z"/></a></g><g id="ToolTip" visibility="hidden" opacity="0" transform="translate(0,0)"><rect id="ToolTipShadow" opacity="0.20" fill="black" stroke="none" x="0" y="0" width="30" height="8"/><rect id="ToolTipBG" fill="#ffffe1" stroke="black" x="0" y="0" width="30" height="8"/><text xml:space="preserve" id="ToolTipText" fill="black" x="0" y="0" width="30" height="8">tooltip</text></g></g></svg>