<?xml version="1.0" encoding="UTF-8" standalone="yes"?><svg xmlns="http://www.w3.org/2000/svg" xmlns:xlink="http://www.w3.org/1999/xlink" width="297.000mm" height="210.000mm" viewBox="0.000000 0.000000 297.000000 210.000000" stroke-linejoin="round" stroke-linecap="round" fill="none" fill-rule="evenodd"><desc>Composer Export</desc><script type="text/ecmascript"><![CDATA[
if(typeof(top) != "undefined")
{
	top.ShowPaper = ShowPaper;
}
function ShowHotSpot(evt,hotspotid)
{
	var svgDocument = evt.target.ownerDocument;
	var strId = "hotspot."+hotspotid;
	var hotspot = svgDocument.getElementById(strId);
	if(hotspot)
		hotspot.setAttribute("opacity",".5");
}
function HideHotSpot(evt,hotspotid)
{
	var svgDocument = evt.target.ownerDocument;
	var strId = "hotspot."+hotspotid;
	var hotspot = svgDocument.getElementById(strId);
	if(hotspot)
		hotspot.setAttribute("opacity","0");

	var toolTip = svgDocument.getElementById('ToolTip');
	if(toolTip)
		toolTip.setAttribute("visibility","hidden");
}
function ShowToolTip(evt,hotspotid,strTooltip)
{
	if(strTooltip=="")
	return;

	// change text
	var svgDocument = evt.target.ownerDocument;
	var tiptext = svgDocument.getElementById('ToolTipText');
	if( !tiptext )
	return;
	tiptext.firstChild.nodeValue = " " + strTooltip + "  " ;

	// show tooltip before, else some refresh issue

	var toolTip = svgDocument.getElementById('ToolTip');
	if(!toolTip)
	return;

	toolTip.setAttribute("visibility","visible");
	toolTip.setAttribute("opacity",".95");

	// move tooltip
	// get viewbox

	var root = svgDocument.documentElement;
	var vbox = (root.getAttribute("viewBox")).split(' ');
	var x0 = parseFloat(vbox[0]);
	var y0 = parseFloat(vbox[1]);
	var vboxW = parseFloat(vbox[2]);
	var vboxH = parseFloat(vbox[3]);

	// get default width of svg

	var strW = root.getAttribute("width");
	var svgW = parseFloat(strW);
	if(strW.indexOf('mm') != -1)
	svgW *= 3.779;

	var strH = root.getAttribute("height");
	var svgH = parseFloat(strH);
	if(strH.indexOf('mm') != -1)
	svgH *= 3.779;  	// 96 dpi  -> 96/25.4 = 3.779

	// update the viewbox / width / height if svg is embedded in html with zoom fit all
	var realx0 = x0;
	var realy0 = y0;
	var realvboxW = vboxW;
	var realvboxH = vboxH;
	var realsvgW = svgW;
	var realsvgH = svgH;

	if ((typeof(top) == "undefined") || (typeof(top.svgctl1) != "undefined")) // embedded in html
	{
		// get window size in pxl

		svgW = window.innerWidth;
		svgH = window.innerHeight;

		// calculate real viewbox

		realsvgW = svgW;
		realsvgH = svgH;
		if((svgW / svgH) > (vboxW / vboxH))
		{
			realvboxW = (vboxH * svgW) / svgH;
			realvboxH = vboxH;
			realx0 = x0 - (realvboxW - vboxW)/2 ;
		}
		else
		{
			realvboxH = (vboxW * svgH) / svgW;
			realvboxW = vboxW;
			realy0 = y0 - (realvboxH - vboxH)/2 ;
		}
	}

	// get user zoom/pan

	var newScale = root.currentScale;
	var translation = root.currentTranslate;

	// transform pxl to user unit

	var xPos = (((evt.clientX+10- translation.x)/newScale) * realvboxW)/realsvgW  + realx0 ;
	var yPos = (((evt.clientY+5- translation.y)/newScale) * realvboxH)/ realsvgH  + realy0 ;
	var scaleForWidth = ( (1 / newScale) * realvboxH) / realsvgH;

	// move tooltip

	toolTip.setAttribute("transform", "translate(" + xPos + "," + yPos + ")" );

	// resize tooltip

	var fontsize = 12;
	tiptext.setAttribute("font-size",fontsize*scaleForWidth);
	tiptext.setAttribute("y", fontsize*scaleForWidth);
	var tipBG = svgDocument.getElementById('ToolTipBG');
	var outline = tiptext.getBBox();
	if(tipBG)
	{
		tipBG.setAttribute("stroke-width", 1*scaleForWidth);
		tipBG.setAttribute("width", Number(outline.width) );
		tipBG.setAttribute("height", Number(outline.height) + fontsize*.5*scaleForWidth );
	}
	var ToolTipShadow = svgDocument.getElementById('ToolTipShadow');
	if(ToolTipShadow)
	{
		ToolTipShadow.setAttribute("width", Number(outline.width) );
		ToolTipShadow.setAttribute("height", Number(outline.height) + fontsize*.5*scaleForWidth );
		ToolTipShadow.setAttribute("x", 3*scaleForWidth);
		ToolTipShadow.setAttribute("y", 3*scaleForWidth);
	}
}
function ShowPaper()
{
  var svgDocument = getDocument();
  var paper = svgDocument.getElementById("paperID");
  if(paper)
  {
    paper.setAttribute("transform","scale(1)");
    paper.setAttribute("opacity","1");
    paper.setAttribute("visibility","visible");
  }
  var svg = svgDocument.getRootElement();
  if(svg)
  {
    svg.setAttribute("width","307.000mm");
    svg.setAttribute("height","220.000mm");
    svg.setAttribute("viewBox","-5.000000 -5.000000 307.000000 220.000000");
  }
}
]]></script><defs><mask id="mask0" x="0" y="0" height="100%" width="100%"><image x="239.460968" y="168.790283" height="40.937347" width="55.346039" xlink:href="UNI-U1700-ALT-UNIDAN_files/b182edca5eac0b2c_mask_0.jpg"/></mask><mask id="mask1" x="0" y="0" height="100%" width="100%"><image x="-25.743708" y="-23.242882" height="89.395683" width="87.698730" xlink:href="UNI-U1700-ALT-UNIDAN_files/b182edca5eac0b2c_mask_1.jpg"/></mask><mask id="mask2" x="0" y="0" height="100%" width="100%"><image x="267.134003" y="50.813660" height="17.189310" width="19.431398" xlink:href="UNI-U1700-ALT-UNIDAN_files/b182edca5eac0b2c_mask_2.jpg"/></mask><mask id="mask3" x="0" y="0" height="100%" width="100%"><image x="267.134003" y="29.147215" height="17.590467" width="18.953098" xlink:href="UNI-U1700-ALT-UNIDAN_files/b182edca5eac0b2c_mask_3.jpg"/></mask><mask id="mask4" x="0" y="0" height="100%" width="100%"><image x="151.190826" y="184.838699" height="17.560188" width="18.806389" xlink:href="UNI-U1700-ALT-UNIDAN_files/b182edca5eac0b2c_mask_4.jpg"/></mask><mask id="mask5" x="0" y="0" height="100%" width="100%"><image x="117.603325" y="184.838699" height="17.851601" width="19.118490" xlink:href="UNI-U1700-ALT-UNIDAN_files/b182edca5eac0b2c_mask_5.jpg"/></mask></defs><g><path style="fill:#ffffff" d="M296.95,209.90L0.09,209.90L0.09,0.09L296.95,0.09z"/><path style="fill:#c0c0c0" d="M106.49,110.62L103.30,110.77L101.90,111.48L101.90,112.57L103.38,113.19L106.91,113.19L108.08,112.56L108.58,111.92L109.22,112.22L109.09,112.66L108.09,113.48L105.37,114.39L105.36,115.05L107.30,115.25L106.70,115.67L106.59,118.68L107.81,118.57L109.97,117.45L110.12,116.08L114.17,117.70L115.37,117.58L117.76,125.95L117.17,128.80L113.26,127.20L112.60,127.19L113.00,128.11L114.80,129.59L115.98,131.10L121.98,133.60L122.25,131.83L122.71,131.30L141.10,138.94L141.70,139.01L141.41,137.92L141.41,136.11L142.27,133.00L144.09,130.62L145.74,130.53L147.77,129.45L150.68,130.57L151.10,130.46L153.46,131.54L151.55,132.10L149.49,133.93L147.95,136.59L147.07,141.12L143.48,139.81L142.87,139.46L142.21,139.45L142.61,140.37L146.20,143.66L151.86,146.08L151.86,147.07L151.36,147.28L115.07,132.31L99.25,125.70L98.03,124.82L97.69,124.26L97.69,118.03L99.11,116.46L99.84,115.99L100.04,113.20L100.69,112.06L101.50,111.07L102.69,110.46L105.57,110.03z"/><path style="fill:#e4e9ed" d="M123.13,54.86L127.05,54.83L141.67,60.54L146.48,61.11L169.90,69.95L165.82,69.80L162.54,70.41L148.47,72.79L146.67,73.39L145.00,74.70L143.69,76.98L140.19,92.03L137.70,101.81L136.90,107.59L136.90,114.67L137.20,117.06L138.45,122.22L137.43,122.09L141.41,136.11L141.41,137.92L139.90,137.40L118.72,128.72L117.76,125.95L115.37,117.58L114.72,115.31L114.39,115.03L114.28,114.34L114.47,114.06L113.72,111.11L115.38,111.49L115.08,109.87L114.75,109.30L102.51,104.17L101.71,104.15L100.99,102.72L100.39,100.63L99.81,96.42L99.81,90.83L100.16,87.73L97.70,86.53L97.68,85.74L98.61,84.45L95.63,83.25L95.30,82.95L95.28,82.16L95.80,81.43L96.83,81.44L99.83,82.75L100.33,81.15L101.59,81.28L104.00,75.58L106.43,71.08L106.44,70.69L104.58,69.48L104.56,68.70L105.39,67.67L106.09,67.67L107.59,68.34L108.37,68.32L108.91,67.30L109.89,66.24L110.12,65.79L111.93,64.01L115.10,61.26L118.56,59.03L121.64,57.63L121.64,56.34L119.26,55.44L118.95,55.14L118.95,54.05L119.44,53.62L120.46,53.62z"/><path style="fill:#0000ff" d="M107.10,111.27L104.99,111.02L103.30,111.38L102.69,111.95L103.09,112.57L105.00,113.03L106.92,112.61L107.30,112.36L107.33,111.68L107.10,111.27L108.58,111.92L108.08,112.56L106.91,113.19L103.38,113.19L101.90,112.57L101.90,111.48L103.30,110.77L106.49,110.62z"/><path style="fill:#cdd1d5" d="M169.90,69.95L173.40,71.29L176.39,73.39L179.11,76.35L180.60,78.15L188.09,85.62L188.96,87.44L188.96,89.95L188.35,91.73L185.82,96.32L184.77,93.13L183.01,90.10L180.27,88.05L178.00,87.27L176.79,86.98L175.79,86.25L173.81,85.48L172.50,85.06L169.41,85.06L167.11,85.74L164.33,87.15L161.16,89.67L159.38,91.77L157.58,94.16L155.05,98.81L153.63,102.78L152.76,107.59L152.76,112.57L153.04,114.38L154.06,117.34L154.55,118.56L156.08,120.62L158.13,122.15L165.30,125.16L167.43,125.46L170.33,125.16L174.12,123.62L174.01,124.03L170.89,126.91L166.98,129.59L162.84,131.44L161.13,131.81L156.23,132.30L155.24,132.87L153.99,131.71L153.46,131.54L151.10,130.46L148.00,128.11L147.38,127.50L147.30,129.12L147.77,129.45L145.74,130.53L144.09,130.62L142.27,133.00L141.41,136.11L137.43,122.09L138.45,122.22L137.20,117.06L136.90,114.67L136.90,107.59L137.70,101.81L140.19,92.03L143.69,76.98L145.00,74.70L146.67,73.39L148.47,72.79L162.54,70.41L165.82,69.80z"/><path style="fill:#c0c0c0" d="M173.81,85.48L170.00,85.65L166.22,87.25L164.42,88.44L162.20,90.41L159.82,93.11L158.61,94.89L156.34,98.90L154.77,103.62L153.95,107.59L153.95,113.47L154.87,117.06L154.06,117.34L153.04,114.38L152.76,112.57L152.76,107.59L153.63,102.78L155.05,98.81L157.58,94.16L159.38,91.77L161.16,89.67L164.33,87.15L167.11,85.74L169.41,85.06L172.50,85.06z"/><path style="fill:#c0c0c0" d="M74.69,100.90L76.30,101.62L74.02,101.79L74.05,102.22L73.21,103.12L72.26,104.87L71.60,105.12L72.10,109.12L70.17,108.42L69.64,107.69L69.64,107.16L69.08,106.87L68.68,106.02L68.69,104.29L69.29,102.50L70.69,100.90L71.28,100.60z"/><path style="fill:#acacac" d="M175.79,86.25L176.79,86.98L174.20,87.15L171.89,87.84L168.30,89.93L165.05,92.96L162.66,95.96L160.13,100.61L158.66,104.82L157.84,108.78L157.84,115.57L158.12,117.08L158.77,118.90L159.07,118.95L158.44,115.87L158.44,108.78L159.32,104.58L161.17,99.84L164.45,94.45L166.42,92.23L170.10,89.34L172.49,88.13L174.49,87.44L178.00,87.27L180.27,88.05L183.01,90.10L184.77,93.13L185.82,96.32L185.96,103.70L185.35,106.68L183.57,112.07L180.87,116.85L177.91,120.48L174.12,123.62L170.33,125.16L167.43,125.46L165.30,125.16L158.13,122.15L156.08,120.62L154.55,118.56L154.06,117.34L154.87,117.06L153.95,113.47L153.95,107.59L154.77,103.62L156.34,98.90L158.61,94.89L159.82,93.11L162.20,90.41L164.42,88.44L166.22,87.25L170.00,85.65L173.81,85.48z"/><path style="fill:#acacac" d="M74.02,101.79L76.30,101.62L76.78,101.82L77.08,102.70L77.39,105.51L76.97,106.29L75.18,108.98L72.10,109.12L71.60,105.12L72.26,104.87L73.21,103.12L74.05,102.22z"/><path style="fill:#acacac" d="M88.19,106.25L88.75,107.48L88.74,109.68L88.45,110.88L87.12,113.15L85.37,114.38L83.04,114.39L81.86,113.45L81.74,113.11L82.16,112.97L82.15,110.27L82.76,108.49L83.83,106.86L85.05,105.69L86.46,105.21L87.27,105.39z"/><path style="fill:#acacac" d="M102.69,111.95L103.30,111.38L104.99,111.02L105.00,113.03L103.09,112.57z"/><path style="fill:#acacac" d="M109.56,113.39L108.98,114.39L110.01,114.27L110.12,116.08L109.97,117.45L107.81,118.57L106.59,118.68L106.70,115.67L107.30,115.25L105.36,115.05L105.37,114.39L108.09,113.48L109.09,112.66L109.22,112.22L109.47,112.26z"/><path style="fill:#acacac" d="M118.72,128.72L119.58,129.90L122.71,131.30L122.25,131.83L121.98,133.60L115.98,131.10L114.80,129.59L113.00,128.11L112.60,127.19L113.26,127.20L117.17,128.80L117.76,125.95z"/><path style="fill:#acacac" d="M155.24,132.87L155.75,134.71L155.78,145.90L152.98,147.29L151.36,147.28L151.86,147.07L151.86,146.08L146.20,143.66L142.61,140.37L142.21,139.45L142.87,139.46L143.48,139.81L147.07,141.12L147.95,136.59L149.49,133.93L151.55,132.10L153.46,131.54L153.99,131.71z"/><path style="fill:#acacac" d="M164.14,137.39L164.04,140.71L162.51,143.67L160.46,144.90L159.02,144.90L157.82,144.30L157.21,143.70L157.12,143.32L157.55,143.17L157.53,141.40L158.13,138.99L159.57,136.83L161.01,135.89L162.45,135.72L162.96,135.90z"/><path style="fill:#ffffff" d="M161.90,138.49L161.75,140.51L161.05,141.61L159.73,142.65L159.32,142.49L159.32,139.57L160.73,137.97L161.43,137.95z"/><path style="fill:#e4e9ed" d="M168.92,73.67L171.52,73.70L172.50,73.36L175.53,74.88L174.60,74.89L172.80,74.59L170.31,74.59L168.21,74.88L166.11,75.48L161.33,77.88L157.15,81.17L154.43,84.13L151.59,87.88L149.46,91.43L147.27,95.82L145.26,101.58L144.08,107.89L144.08,117.06L144.66,120.07L145.31,121.86L145.30,122.55L144.30,122.40L145.62,125.15L145.59,125.84L144.99,125.78L142.17,124.61L142.86,121.03L143.21,120.14L142.91,118.28L141.68,118.28L139.19,117.14L139.50,116.16L140.66,113.74L142.30,111.19L142.28,109.29L138.58,107.86L138.68,107.32L143.48,102.20L144.05,99.99L141.06,98.85L140.43,97.91L140.43,97.60L143.68,95.52L146.16,94.41L147.88,91.00L147.99,90.46L144.97,89.25L144.88,88.05L146.68,87.45L150.26,87.15L151.74,85.03L153.70,82.75L153.67,82.39L150.56,80.86L150.89,79.95L151.53,79.94L154.24,80.89L155.33,80.86L159.84,77.29L160.56,76.81L157.83,75.46L157.82,74.68L158.74,74.55L160.23,75.19L161.76,76.18L165.32,74.59L165.31,73.66L165.89,73.99L167.43,74.00L164.90,72.77L165.23,72.18L165.91,72.15z"/><path style="fill:#e4e9ed" d="M148.60,76.65L148.57,77.98L147.98,79.48L146.99,80.30L145.88,80.28L145.25,79.38L145.26,78.27L145.74,76.94L146.37,76.06L147.11,75.79z"/><path style="fill:#e4e9ed" d="M186.89,88.61L186.87,90.55L185.98,92.08L185.53,88.06z"/><path style="fill:#e4e9ed" d="M176.20,102.85L174.49,103.59L172.83,105.53L171.89,108.17L171.92,110.59L171.31,110.52L168.20,109.16L167.98,108.70L168.00,106.38L168.94,103.73L170.01,102.41L171.49,101.49L173.12,101.49z"/><path style="fill:#e4e9ed" d="M148.00,128.11L151.10,130.46L150.68,130.57L147.77,129.45L147.30,129.12L147.38,127.50z"/><path style="fill:#e5e5e5" d="M154.27,133.49L154.85,134.71L154.86,137.81L154.55,138.70L153.24,140.67L151.48,141.90L150.05,141.90L149.45,141.60L148.85,141.01L148.55,140.41L148.55,137.48L149.46,135.40L151.11,133.47L152.37,132.89L153.05,132.88z"/><path style="fill:#cdd1d5" d="M177.96,103.77L178.50,104.78L178.49,107.59L177.76,109.56L175.79,111.78L174.08,112.25L172.32,111.81L168.62,109.87L168.20,109.16L171.31,110.52L171.92,110.59L171.89,108.17L172.83,105.53L174.49,103.59L176.20,102.85L176.80,102.95z"/><path style="fill:#cdd1d5" d="M116.26,99.81L117.06,93.43L119.16,86.25L121.98,80.10L125.71,74.26L128.85,70.52L131.72,67.71L136.50,64.41L141.28,62.30L144.41,62.03L139.88,63.31L136.51,65.02L132.62,67.71L129.15,71.12L127.37,73.23L124.80,76.64L121.55,82.36L119.46,87.45L117.66,93.73L116.86,99.51L116.86,104.80L117.16,107.79L117.46,109.29L118.31,112.74L117.73,112.31L116.86,108.99L116.56,107.49L116.26,104.20z"/><path style="fill:#cdd1d5" d="M114.75,109.30L115.08,109.87L115.38,111.49L113.72,111.11L114.47,114.06L114.28,114.34L109.47,112.26L109.22,112.22L108.58,111.92L107.10,111.27L106.49,110.62L105.57,110.03L103.43,107.45L101.88,104.80L101.71,104.15L102.51,104.17z"/><path style="fill:#cdd1d5" d="M139.90,137.40L141.41,137.92L141.70,139.01L141.10,138.94L122.71,131.30L119.58,129.90L118.72,128.72z"/><path style="fill:#c0c0c0" d="M111.52,59.59L111.55,60.13L110.08,60.43L109.99,59.32L109.48,59.19L110.58,59.01z"/><path style="fill:#c0c0c0" d="M108.97,59.68L109.12,60.14L110.08,60.43L110.12,65.79L109.89,66.24L108.91,67.30L108.79,67.14L108.35,59.59L108.65,59.29L109.48,59.19z"/><path style="fill:#c0c0c0" d="M176.80,102.95L177.90,102.99L177.96,103.77z"/><path style="fill:#c0c0c0" d="M75.87,104.20L75.89,105.81L74.88,107.18L73.47,107.20L73.46,104.87L74.28,103.86z"/><path style="fill:#c0c0c0" d="M87.28,108.68L87.26,109.68L86.57,111.39L85.46,112.39L84.33,112.23L85.76,111.18L86.36,110.00L86.45,108.04z"/><path style="fill:#c0c0c0" d="M107.10,111.27L107.33,111.68L107.30,112.36L106.92,112.61L105.00,113.03L104.99,111.02z"/><path style="fill:#c0c0c0" d="M81.25,111.19L81.77,108.39L82.78,106.71L84.45,105.39L85.04,105.08L86.46,105.21L85.05,105.69L83.83,106.86L82.76,108.49L82.15,110.27L82.16,112.97L81.74,113.11L81.55,112.91z"/><path style="fill:#c0c0c0" d="M174.08,112.25L173.59,112.86L171.22,114.09L170.12,114.08L169.76,113.47L169.69,112.88L171.95,112.11L172.32,111.81z"/><path style="fill:#c0c0c0" d="M110.01,114.27L108.98,114.39L109.56,113.39z"/><path style="fill:#c0c0c0" d="M157.84,108.78L158.66,104.82L160.13,100.61L162.66,95.96L165.05,92.96L168.30,89.93L171.89,87.84L174.20,87.15L176.79,86.98L178.00,87.27L174.49,87.44L172.49,88.13L170.10,89.34L166.42,92.23L164.45,94.45L161.17,99.84L159.32,104.58L158.44,108.78L158.44,115.87L159.07,118.95L158.77,118.90L158.12,117.08L157.84,115.57z"/><path style="fill:#c0c0c0" d="M162.66,138.86L162.64,140.51L162.03,141.69L160.74,142.83L159.91,142.81L159.73,142.65L161.05,141.61L161.75,140.51L161.90,138.49z"/><path style="fill:#c0c0c0" d="M210.19,159.28L210.67,159.25L211.40,158.64L212.69,159.15L212.29,160.24L210.43,162.52L210.50,164.72L210.21,165.43L208.90,165.02L208.78,163.58L208.70,163.15L207.22,162.51L206.40,162.43L205.10,161.63L203.63,161.02L202.81,160.93L201.51,160.14L200.04,159.52L199.22,159.44L198.55,158.91L197.73,158.84L196.43,158.05L194.95,157.43L194.14,157.34L192.84,156.55L191.36,155.93L190.55,155.85L189.25,155.05L187.77,154.44L186.96,154.35L186.29,153.83L185.46,153.75L184.18,152.94L183.37,152.86L182.70,152.33L181.87,152.26L180.59,151.45L179.78,151.36L179.11,150.84L178.28,150.76L176.98,149.97L175.51,149.35L174.69,149.27L173.39,148.47L171.92,147.85L171.10,147.77L169.80,146.98L168.33,146.36L167.51,146.28L166.83,145.75L166.03,145.72L165.59,145.48L165.60,143.16L166.70,141.87L168.33,141.88z"/><path style="fill:#c0c0c0" d="M162.45,135.72L161.01,135.89L159.57,136.83L158.13,138.99L157.53,141.40L157.55,143.17L157.12,143.32L156.94,143.12L156.94,139.88L157.54,138.10L159.53,135.90L160.12,135.59z"/><path style="fill:#acacac" d="M109.12,60.14L108.97,59.68L109.48,59.19L109.99,59.32L110.08,60.43z"/><path style="fill:#acacac" d="M111.93,64.01L110.12,65.79L110.08,60.43L111.55,60.13z"/><path style="fill:#acacac" d="M69.64,107.16L69.64,107.69L69.31,107.49L69.08,106.87z"/><path style="fill:#acacac" d="M110.61,118.64L110.17,119.15L108.41,120.07L105.68,120.45L105.77,119.54L108.78,118.95L110.62,117.97z"/><path style="fill:#acacac" d="M167.51,146.28L166.47,146.10L166.03,145.72L166.83,145.75z"/><path style="fill:#acacac" d="M169.80,146.98L171.10,147.77L170.09,147.59L167.51,146.28L168.33,146.36z"/><path style="fill:#acacac" d="M173.39,148.47L174.69,149.27L173.68,149.08L171.59,148.19L171.10,147.77L171.92,147.85z"/><path style="fill:#acacac" d="M176.98,149.97L178.28,150.76L177.27,150.58L175.18,149.68L174.69,149.27L175.51,149.35z"/><path style="fill:#acacac" d="M179.78,151.36L178.75,151.20L178.28,150.76L179.11,150.84z"/><path style="fill:#acacac" d="M181.87,152.26L180.86,152.07L179.78,151.36L180.59,151.45z"/><path style="fill:#acacac" d="M183.37,152.86L182.34,152.69L181.87,152.26L182.70,152.33z"/><path style="fill:#acacac" d="M185.46,153.75L184.45,153.57L183.37,152.86L184.18,152.94z"/><path style="fill:#acacac" d="M186.96,154.35L185.93,154.19L185.46,153.75L186.29,153.83z"/><path style="fill:#acacac" d="M189.25,155.05L190.55,155.85L189.53,155.66L187.44,154.77L186.96,154.35L187.77,154.44z"/><path style="fill:#acacac" d="M192.84,156.55L194.14,157.34L193.12,157.16L191.03,156.26L190.55,155.85L191.36,155.93z"/><path style="fill:#acacac" d="M196.43,158.05L197.73,158.84L196.71,158.66L194.62,157.76L194.14,157.34L194.95,157.43z"/><path style="fill:#acacac" d="M199.22,159.44L198.19,159.27L197.73,158.84L198.55,158.91z"/><path style="fill:#acacac" d="M214.69,159.82L215.29,160.72L215.28,162.93L214.89,164.04L213.07,166.12L211.97,166.15L210.21,165.43L210.50,164.72L210.43,162.52L212.29,160.24L212.69,159.15L213.50,159.22z"/><path style="fill:#acacac" d="M201.51,160.14L202.81,160.93L201.80,160.75L199.71,159.85L199.22,159.44L200.04,159.52z"/><path style="fill:#acacac" d="M205.10,161.63L206.40,162.43L205.39,162.25L203.30,161.35L202.81,160.93L203.63,161.02z"/><path style="fill:#acacac" d="M208.70,163.15L208.78,163.58L206.88,162.84L206.40,162.43L207.22,162.51z"/><path style="fill:#ffffff" d="M86.45,108.04L86.36,110.00L85.76,111.18L84.33,112.23L83.63,111.39L83.64,110.28L84.28,108.51L85.67,107.44L86.02,107.48z"/><path style="fill:#ffffff" d="M114.28,114.34L114.39,115.03L114.72,115.31L115.37,117.58L114.17,117.70L110.12,116.08L110.01,114.27L109.56,113.39L109.47,112.26z"/><path style="fill:#ffffff" d="M153.05,136.21L153.07,137.82L152.05,139.19L150.66,139.21L150.34,137.80L150.82,136.46L151.45,135.88L152.47,135.88z"/><g><g/><g/></g><g><g/><g><image x="239.460968" y="168.790283" height="40.937347" width="55.346039" xlink:href="UNI-U1700-ALT-UNIDAN_files/b182edca5eac0b2c_image_0.jpg" mask="url(#mask0)"/></g></g><g><g/><g><image x="-25.743708" y="-23.242882" height="89.395683" width="87.698730" xlink:href="UNI-U1700-ALT-UNIDAN_files/b182edca5eac0b2c_image_1.jpg" mask="url(#mask1)"/></g></g><g id="Actor_.0"><g style="stroke:#000000;stroke-width:0.353"><path d="M159.06,144.94L158.24,144.39L157.68,143.45L157.58,142.98L157.43,142.21L157.51,140.78L157.92,139.32L158.62,137.96L159.54,136.83L160.58,136.06L161.65,135.70L162.65,135.80"/><path d="M161.41,137.85L161.49,137.83L162.03,138.00L162.43,138.41L162.57,138.71L162.67,139.05L162.70,139.82L162.54,140.66L162.20,141.46L161.70,142.15L161.12,142.64L160.51,142.89L159.93,142.87L159.46,142.57L159.45,142.55"/></g><g style="stroke:#000000;stroke-width:0.353"><path d="M156.86,142.98L156.89,143.12L157.45,144.07L158.27,144.62L159.06,144.94L160.05,145.05L161.12,144.69L162.17,143.91L163.08,142.79L163.78,141.43L164.19,139.97L164.28,138.54L164.03,137.30L163.46,136.35L162.65,135.80L161.86,135.48L160.86,135.37L159.79,135.73L158.75,136.51L157.83,137.63L157.13,138.99L156.72,140.46L156.64,141.88L156.86,142.98"/><path d="M159.45,142.55L159.13,142.04L158.99,141.33L159.06,140.51L159.32,139.68L159.74,138.92L160.28,138.33L160.89,137.95L161.41,137.85L161.64,138.09L161.78,138.38L161.88,138.72L161.91,139.49L161.75,140.33L161.41,141.13L160.92,141.82L160.33,142.31L159.72,142.56L159.45,142.55"/></g></g><g id="Actor_.1"><g style="stroke:#000000;stroke-width:0.353"><path d="M159.49,122.82L157.82,121.69L156.39,120.14L155.24,118.21L154.40,115.94L153.88,113.39L153.71,110.62L153.88,107.71L154.40,104.71L155.24,101.71L156.39,98.79L157.82,96.00L159.50,93.43L161.38,91.13L163.41,89.16L165.55,87.57L167.75,86.39L169.94,85.67L172.08,85.41L174.12,85.62L175.99,86.30"/><path d="M162.07,123.57L161.62,123.27L160.19,121.72L159.04,119.79L158.20,117.52L157.68,114.97L157.51,112.20L157.69,109.28L158.20,106.29L159.04,103.29L160.20,100.36L161.63,97.58L163.30,95.00L165.17,92.71L167.21,90.73L169.35,89.14L171.55,87.97L173.74,87.25L175.88,86.99L177.22,87.13"/><path d="M163.87,124.64L162.20,123.51L160.78,121.97L159.62,120.03L158.78,117.76L158.27,115.21L158.10,112.44L158.27,109.53L158.79,106.53L159.63,103.53L160.78,100.61L162.21,97.82L163.88,95.25L165.76,92.95L167.80,90.98L169.94,89.39L172.13,88.21L174.33,87.49L176.47,87.23L178.50,87.44L180.38,88.12"/><path d="M174.27,112.28L173.50,112.99L172.12,113.80L170.75,114.18L169.46,114.10L168.32,113.58L167.41,112.63L166.77,111.33L166.44,109.73L166.56,110.34L167.12,111.48L167.92,112.31L168.92,112.77L170.05,112.83L171.25,112.50L172.47,111.78"/><path d="M166.44,109.73L166.44,107.94L166.77,106.06L167.41,104.20L168.33,102.47L169.47,100.96L170.60,99.91L171.25,99.53L172.45,99.20L173.58,99.27L174.57,99.72L175.36,100.53L175.94,101.69L176.16,102.80"/><path d="M177.82,103.73L177.82,103.03L177.49,101.43L176.84,100.13L175.93,99.18L174.79,98.66L173.50,98.58L172.13,98.96L170.76,99.77L170.60,99.91"/></g><g style="stroke:#000000;stroke-width:0.353"><path d="M152.97,114.16L152.71,112.90L152.54,110.14L152.71,107.23L153.23,104.23L154.07,101.23L155.22,98.30L156.65,95.52L158.33,92.94L160.21,90.64L162.24,88.67L164.38,87.08L166.58,85.91L168.77,85.18L170.91,84.93L172.95,85.14L174.82,85.82L175.99,86.30L177.22,87.13L177.92,87.20L180.38,88.12L182.05,89.25L183.48,90.80L184.62,92.71L185.04,93.83L185.47,95.00L185.98,97.55L186.16,100.32L185.98,103.24L185.47,106.23L184.62,109.23L183.47,112.15L182.04,114.94L180.37,117.51L178.49,119.81L176.46,121.78L174.31,123.37L172.12,124.55L169.93,125.27L167.79,125.53L165.75,125.32L163.29,124.40L162.07,123.57L161.37,123.50L159.49,122.82L158.32,122.34L156.65,121.21L155.22,119.66L154.07,117.72L153.23,115.45L152.97,114.16"/></g></g><g id="Actor_.2"><g style="stroke:#000000;stroke-width:0.353"><path d="M149.74,141.88L148.99,141.23L148.51,140.23L148.35,138.95L148.51,137.53L148.99,136.11L149.74,134.83L150.67,133.80L151.71,133.14L152.75,132.90L153.69,133.12"/><path d="M150.58,139.12L150.93,139.39L151.36,139.45L151.83,139.29L152.29,138.95L152.68,138.44L152.97,137.83L153.13,137.19L153.14,136.88L153.13,136.58L152.97,136.07L152.68,135.71L152.29,135.55L151.84,135.60L151.36,135.85L150.93,136.28L150.72,136.63L150.59,136.84L150.36,137.48L150.28,138.11L150.36,138.68L150.58,139.12"/><path d="M152.68,135.71L152.68,135.71"/></g><g style="stroke:#000000;stroke-width:0.353"><path d="M153.53,133.05L153.69,133.12L154.43,133.76L154.91,134.77L155.08,136.04L154.91,137.46L154.43,138.88L153.69,140.17L152.75,141.19L151.71,141.85L150.67,142.09L149.74,141.88L149.65,141.84"/></g></g><g id="Actor_.3"><g style="stroke:#000000;stroke-width:0.353"><path d="M166.27,142.19L165.83,142.75L165.51,143.43L165.34,144.14L165.34,144.82"/><path d="M210.29,165.62L210.46,164.72L210.51,163.92L210.46,163.09L210.29,162.04L208.73,161.39L208.73,163.61"/><path d="M208.73,161.39L210.43,159.39"/><path d="M210.29,162.04L211.11,161.34L211.71,160.71L211.22,161.41L210.83,162.22L210.59,163.07L210.51,163.92L210.59,164.68L210.83,165.32L211.22,165.81L211.71,166.09L212.28,166.15L212.90,165.98L213.53,165.60L214.10,165.05L214.59,164.35L214.98,163.53L215.22,162.67L215.30,161.85L215.22,161.09L214.98,160.43L214.59,159.95L214.10,159.68L215.08,159.96"/><path d="M212.68,159.21L212.21,160.05L211.71,160.71L212.28,160.16L212.90,159.78L213.53,159.62L214.10,159.68L212.68,159.21L211.13,158.57"/></g><g style="stroke:#000000;stroke-width:0.353"><path d="M191.73,156.54L165.83,145.78L165.51,145.39L165.34,144.82L165.33,143.90L165.46,143.36L165.70,142.84L166.04,142.41L166.78,141.80L167.30,141.64L167.78,141.70L210.43,159.39L211.13,158.57L213.52,159.32L215.08,159.96L215.25,161.01L215.30,161.85L215.25,162.65L215.08,163.55L214.60,164.38L214.10,165.05L213.50,165.68L212.68,166.37L212.21,166.24L210.29,165.62L208.73,164.97L208.73,163.61L192.85,157.01"/></g></g><g id="Actor_20.0"><g style="stroke:#000000;stroke-width:0.353"><path d="M100.58,112.84L100.58,113.43L100.74,113.92L100.42,113.51L100.04,113.22"/><path d="M101.44,115.34L102.81,115.21L103.96,115.25L102.88,115.07L101.93,114.77L101.20,114.37L100.74,113.92L101.06,114.49L101.44,115.34L101.44,118.32"/><path d="M109.40,112.21L109.34,112.38L109.21,112.63L109.06,112.79L108.79,113.02L108.57,113.16L108.18,113.36L107.89,113.48L107.39,113.63L107.06,113.71L106.12,113.86L105.12,113.92L104.12,113.87L103.18,113.73L102.63,113.59L102.33,113.50L101.87,113.31L101.64,113.19L101.28,112.96L101.13,112.83L100.90,112.57L100.83,112.42L100.75,112.14L100.76,112.00L100.82,111.72L101.13,111.31"/><path d="M108.39,111.76L108.45,112.03L108.33,112.38L108.00,112.71L107.49,113.00L106.83,113.22L106.14,113.35L106.05,113.37L105.22,113.43L104.38,113.40L103.96,113.33L103.58,113.28L102.87,113.08L102.31,112.81L101.91,112.50L101.72,112.15L101.74,111.79L101.97,111.44L102.39,111.13L102.98,110.88L103.71,110.69L104.52,110.59L105.36,110.57L106.19,110.65L106.67,110.75"/><path d="M102.72,112.05L102.89,112.37L103.29,112.65L103.89,112.86L104.62,112.98L105.40,112.99L106.14,112.89L106.77,112.70L106.98,112.57L107.21,112.43L107.43,112.11L107.39,111.78L107.10,111.48L106.59,111.23L105.91,111.06L105.15,111.00L104.38,111.04L103.69,111.19L103.59,111.23L103.14,111.42L102.81,111.72L102.72,112.05"/><path d="M102.81,118.75L103.96,118.96L105.11,119.00L106.48,118.87L106.48,115.89L105.11,115.46L103.96,115.25L105.11,115.31L106.29,115.24L107.38,115.04L109.13,114.46L110.11,114.32"/><path d="M106.48,118.87L107.46,118.73"/><path d="M106.48,115.89L107.46,115.18L108.29,114.74L108.99,114.35L109.44,113.88L109.58,113.38L109.58,113.18"/></g><g style="stroke:#000000;stroke-width:0.353"><path d="M109.54,112.27L109.57,112.56L109.58,113.18L109.73,113.46L110.11,114.32L110.11,117.30L109.14,118.00L108.29,118.45L107.38,118.75L106.29,118.95L105.11,119.02L103.96,118.96L102.88,118.78L101.44,118.32L101.06,118.03L100.74,117.63L100.42,117.06L100.04,116.20L100.04,113.22L100.58,112.84L100.58,112.49L100.69,111.90L100.76,111.77L101.07,111.36L101.18,111.27L101.70,110.91L102.39,110.61L103.23,110.38L104.20,110.24L105.16,110.20L105.97,110.25"/></g></g><g id="Actor_.4"><g style="stroke:#000000;stroke-width:0.353"><path d="M109.30,67.00L109.12,66.92L109.31,66.99"/><path d="M111.57,59.65L111.55,59.90L111.37,60.14L111.06,60.32L111.02,60.34L110.56,60.49L110.04,60.56L109.50,60.55L109.02,60.47L108.81,60.39L108.63,60.31L108.39,60.09L108.32,59.85"/><path d="M109.36,59.39L109.08,59.51L108.90,59.67L108.83,59.84L108.88,60.00L109.04,60.15L109.16,60.21L109.31,60.26L109.64,60.32L109.70,60.32L110.01,60.33L110.37,60.28L110.69,60.18L110.77,60.13L110.92,60.04L111.05,59.87L111.06,59.70L110.95,59.54L110.74,59.41L110.43,59.32L110.08,59.29L109.71,59.31L109.36,59.39"/></g><g style="stroke:#000000;stroke-width:0.353"><path d="M111.79,64.18L111.57,59.65L111.41,59.42L111.09,59.23L110.65,59.10L110.13,59.05L109.60,59.08L109.10,59.20L108.69,59.38L108.42,59.60L108.32,59.85L108.64,66.74L108.72,66.98L108.96,67.20L109.09,67.26"/></g></g><g id="Actor_.5"><g style="stroke:#000000;stroke-width:0.353"><path d="M110.80,117.26L110.47,117.94L109.70,118.55L108.56,119.04L107.14,119.38L105.55,119.53L105.15,119.52L103.92,119.49L102.39,119.25L101.07,118.85L100.08,118.30L99.49,117.65L99.36,116.96"/></g><g style="stroke:#000000;stroke-width:0.353"><path d="M100.04,116.01L99.69,116.29L99.36,116.96L99.36,117.97L99.49,118.65L100.08,119.30L101.07,119.85L102.39,120.26L103.92,120.49L105.55,120.53L107.14,120.38L108.56,120.04L109.70,119.55L110.47,118.94L110.80,118.26L110.80,117.26L110.66,116.57L110.11,115.97"/></g></g><g id="Actor_.6"><g style="stroke:#000000;stroke-width:0.353"><path d="M98.73,87.03L99.16,85.00"/><path d="M99.76,82.74L99.22,84.72"/><path d="M100.15,87.66L114.52,93.75L113.91,98.52L113.83,102.14L114.08,105.60L114.68,108.85L115.44,111.34L102.38,105.92"/><path d="M100.23,81.05L116.04,87.67L116.15,87.33L101.65,81.32"/><path d="M106.70,70.62L108.09,68.55"/><path d="M109.92,66.20L124.30,72.16L125.67,70.47L128.18,67.88L130.82,65.65L133.55,63.82L135.02,63.06L121.78,57.57"/><path d="M114.78,115.35L113.51,110.93L117.86,112.73L116.97,109.85L116.38,106.60L116.12,103.14L116.21,99.51L116.63,95.77L117.39,91.99L118.47,88.24L119.86,84.50L121.53,80.91L123.47,77.50L125.63,74.31L127.99,71.40L130.51,68.81L133.15,66.57L135.88,64.73L138.65,63.31L141.42,62.34L144.15,61.82L146.79,61.76L149.31,62.17L150.73,62.71L149.90,62.40L147.38,61.99L144.73,62.05L142.07,62.55L139.23,63.54L136.46,64.97L133.73,66.80L131.09,69.04L128.57,71.63L126.21,74.54L124.04,77.73L122.11,81.15L120.44,84.74L119.05,88.45L117.97,92.23L117.21,96.02L116.78,99.75L116.70,103.38L116.95,106.85L117.55,110.10L118.43,112.97L136.74,120.56L137.41,122.40L138.13,123.91L139.62,126.26L141.36,128.24L143.35,129.84L144.30,130.35"/><path d="M114.39,114.29L114.49,114.33"/><path d="M115.58,111.79L115.44,111.34"/><path d="M116.15,87.33L117.56,83.55L119.23,79.96L121.16,76.56L123.31,73.38L124.30,72.16"/><path d="M118.43,112.97L117.86,112.73"/><path d="M119.43,87.43L119.31,87.77"/><path d="M120.89,83.78L120.73,84.12"/><path d="M135.02,63.06L136.31,62.40L138.00,61.75L121.90,55.48L121.84,56.48"/><path d="M121.90,55.48L123.65,55.03"/><path d="M160.11,70.07L161.48,69.72L159.12,68.74L158.83,68.75L143.56,71.26L142.47,71.64L141.31,72.55L140.47,73.54L139.75,74.84L139.23,76.36L134.27,97.98L136.81,99.04L137.41,96.85"/><path d="M136.74,120.56L136.04,118.26L135.46,115.05L135.20,111.61L135.27,108.02L135.67,104.34L136.38,100.59L136.81,99.04"/><path d="M145.43,130.77L144.81,130.44L142.82,128.85L141.08,126.86L139.59,124.51L138.40,121.83L137.50,118.86L136.92,115.64L136.67,112.21L136.73,108.63L137.12,105.00L137.85,101.20L138.87,97.46L143.33,78.06L143.81,76.59L144.56,75.24L145.51,74.12L146.56,73.34L147.65,72.95L161.57,70.67L164.09,70.03L166.56,69.77L168.95,69.89L171.22,70.40L169.76,69.79"/><path d="M141.41,136.37L137.41,122.40"/><path d="M144.40,98.88L146.13,94.42L144.77,94.90L142.61,96.06L140.38,97.65L144.04,99.17L144.38,98.90L143.41,102.44L142.30,103.36L140.27,105.43L138.40,107.79L142.05,109.30L142.31,109.64L142.36,108.88L142.05,109.30"/><path d="M138.40,107.79L138.91,108.46L142.30,109.87L142.31,109.64"/><path d="M139.37,117.29L138.98,117.13L140.34,114.26L142.29,111.04L142.26,113.04L142.55,116.39L142.85,118.14L142.64,118.64L139.37,117.29"/><path d="M138.93,77.70L139.04,76.33L139.46,74.95L140.12,73.72L141.03,72.63L142.14,71.89"/><path d="M139.57,117.38L140.68,117.84"/><path d="M140.38,97.65L140.63,98.61L144.05,100.04"/><path d="M140.94,72.98L145.03,74.68"/><path d="M145.81,125.55L144.14,122.39L143.27,119.81L142.73,121.51L142.06,124.55L145.72,126.06L145.81,125.55L146.14,126.01L145.72,126.06"/><path d="M142.64,118.64L142.92,118.77L141.80,118.30"/><path d="M143.27,119.81L142.92,118.77L142.99,118.80L142.85,118.14"/><path d="M142.29,111.04L142.30,109.87"/><path d="M143.41,102.44L142.72,105.87L142.36,108.88"/><path d="M160.75,76.77L159.42,77.61L158.85,76.79L157.43,75.40L160.75,76.77L162.11,76.00L164.48,74.95L165.33,74.72L164.65,72.88L167.66,74.13L169.79,73.92L171.28,74.03L171.27,73.79L172.13,73.29L175.78,74.81L175.36,75.05L176.15,75.38L173.77,74.72L171.26,74.53L168.63,74.81L165.94,75.56L163.24,76.77L160.56,78.41L157.43,80.97L155.45,82.90L153.11,85.66L150.96,88.72L149.03,92.01L147.38,95.47L145.99,99.11L144.93,102.77L144.18,106.48L143.78,110.11L143.73,112.82L144.01,117.00L144.64,120.13L145.60,122.99L146.88,125.53L148.45,127.70L150.29,129.47L152.37,130.82L152.97,131.05L150.91,130.21L148.83,128.87L147.24,127.34L147.27,129.16L150.93,130.67L150.89,130.20"/><path d="M144.16,99.65L144.04,99.17"/><path d="M148.33,90.03L148.01,90.48L144.65,89.09L144.70,87.95L146.90,87.38L149.05,87.22L150.04,87.34L148.33,90.03L148.35,89.47L148.73,89.34"/><path d="M148.35,89.47L144.70,87.95"/><path d="M146.14,126.01L147.21,127.31"/><path d="M146.13,94.42L148.07,90.51"/><path d="M146.23,80.42L145.74,80.24L145.38,79.82L145.17,79.21L145.16,78.48L145.33,77.69L145.67,76.94L146.14,76.32L146.70,75.88L147.27,75.67L147.80,75.72L148.24,76.02L148.50,76.49L148.63,77.22L148.56,77.99L148.30,78.77L147.88,79.47L147.38,79.99L146.79,80.34L146.23,80.42"/><path d="M150.04,87.34L151.65,85.05L153.84,82.47L150.48,81.02L150.82,79.85L152.80,80.33L155.01,81.25L154.31,81.95L154.48,81.37L150.82,79.85"/><path d="M151.71,63.07L150.73,62.71L151.67,63.04"/><path d="M151.35,130.43L150.93,130.67"/><path d="M153.86,131.40L152.97,131.05L154.08,131.49L153.86,131.40"/><path d="M154.65,131.71L154.08,131.49L154.65,131.71L156.73,132.07"/><path d="M153.87,82.43L154.31,81.95"/><path d="M156.43,132.13L154.81,132.48"/><path d="M154.48,81.37L154.83,81.42"/><path d="M159.42,77.61L156.49,79.86L155.01,81.25"/><path d="M157.43,75.40L158.02,74.33L161.68,75.85L161.38,76.38"/><path d="M161.95,76.07L161.68,75.85"/><path d="M168.31,69.47L167.49,69.29L165.10,69.16L162.63,69.43L161.48,69.72"/><path d="M168.69,73.98L169.07,73.57L165.42,72.05L164.65,72.88"/><path d="M165.33,74.72L167.66,74.13"/><path d="M173.55,101.72L177.50,103.35L176.59,102.98L175.56,103.07L174.48,103.61L173.48,104.55L172.64,105.78L172.06,107.20L171.78,108.67L171.84,110.03L172.22,111.16L172.90,111.95L168.95,110.32"/><path d="M169.24,73.94L169.07,73.57"/><path d="M171.28,74.03L171.95,74.08L171.27,73.79"/><path d="M173.36,71.28L171.22,70.40"/><path d="M172.90,111.95L173.80,112.32L174.84,112.23L175.90,111.70L176.41,111.23L176.91,110.76L177.75,109.53L178.32,108.15L178.61,106.64L178.56,105.28L178.17,104.14L177.50,103.35"/><path d="M171.99,74.09L174.69,74.77L175.36,75.05"/><path d="M175.78,74.81L175.82,75.24"/><path d="M176.15,75.38L178.34,76.50L180.30,78.06L182.01,80.03L183.43,82.39L184.55,85.09L185.29,87.86L185.70,87.77L186.24,87.82L186.67,88.12L186.96,88.64L187.07,89.32L186.99,90.10L186.73,90.87L186.32,91.57L185.84,92.07L185.93,94.80L185.82,96.50"/><path d="M185.84,92.07L185.30,87.89"/></g><g style="stroke:#000000;stroke-width:0.353"><path d="M114.78,115.35L114.23,115.10L114.39,114.29L107.58,111.40L105.59,109.98L103.85,108.14L102.38,105.92L101.20,103.35L100.36,100.53L99.81,97.33L99.62,93.98L99.76,90.49L100.15,87.66L97.85,86.67L97.62,86.24L97.68,85.62L98.02,85.06L98.48,84.79L99.16,85.00L99.22,84.72L95.46,83.16L95.23,82.74L95.23,82.44L95.63,81.56L96.09,81.29L99.76,82.74L100.23,81.05L101.61,81.31L102.85,78.01L104.30,74.79L105.98,71.73L106.70,70.62L104.80,69.83L104.62,69.62L104.51,68.96L104.59,68.58L104.95,67.95L105.26,67.68L105.81,67.60L108.09,68.55L109.92,66.20L112.13,63.81L114.45,61.73L116.86,59.98L119.31,58.58L121.78,57.57L121.84,56.48L119.05,55.33L118.90,55.16L118.81,54.61L118.88,54.28L119.22,53.72L119.68,53.45L123.65,55.03L125.64,54.65L126.17,54.60L126.58,54.73L142.39,60.85L144.44,60.85L146.95,61.26L168.31,69.47L169.71,69.78L173.36,71.28L175.30,72.51L177.10,74.13L178.65,76.04L188.12,85.70L188.70,86.58L189.03,87.83L189.03,89.24L188.72,90.73L188.12,92.16L185.81,96.67"/><path d="M141.86,139.19L119.71,130.00L118.96,129.30L118.48,128.25L114.78,115.35"/><path d="M155.17,133.01L156.43,132.13L159.67,132.09L162.34,131.57L165.04,130.59L167.74,129.16L170.34,127.34L172.95,125.06L174.98,122.88"/></g></g><g id="Actor_.7"><g style="stroke:#000000;stroke-width:0.353"><path d="M87.21,105.42L86.21,105.32L85.14,105.67L84.10,106.45L83.18,107.58L82.48,108.94L82.07,110.40L81.99,111.82L82.19,112.82L82.24,113.07L82.80,114.01L83.62,114.56"/><path d="M85.35,112.39L85.07,112.51L84.49,112.48L84.02,112.19L84.01,112.17"/><path d="M85.97,107.47L86.05,107.45L86.59,107.61L86.99,108.03L87.13,108.33L87.23,108.66L87.26,109.44L87.10,110.27L86.76,111.08L86.27,111.77L85.75,112.20"/></g><g style="stroke:#000000;stroke-width:0.353"><path d="M83.73,114.57L83.62,114.56L82.83,114.23L82.01,113.68L81.45,112.74L81.20,111.50L81.28,110.07L81.69,108.61L82.39,107.25L82.62,106.96L83.31,106.12L84.35,105.35L85.42,104.99L86.42,105.09L87.21,105.42L88.03,105.97L88.59,106.92L88.84,108.16L88.75,109.58L88.47,110.59L88.34,111.05L87.65,112.41L86.73,113.53L85.68,114.31L85.34,114.42"/><path d="M83.72,111.70L83.69,111.66L83.56,110.95L83.62,110.13L83.88,109.30L84.30,108.54L84.85,107.94L85.45,107.57L85.97,107.47L86.20,107.71L86.34,108.00L86.44,108.34L86.48,109.11L86.31,109.95L85.97,110.75L85.48,111.44L84.89,111.93L84.28,112.18L84.01,112.17L83.72,111.70"/></g></g><g id="Actor_.8"><g style="stroke:#000000;stroke-width:0.353"><path d="M70.12,101.45L69.55,102.14L69.09,102.95L68.76,103.83L68.59,104.73L68.59,104.78"/><path d="M69.27,105.81L69.31,106.24L69.50,107.12L69.67,107.63"/><path d="M70.16,104.85L71.40,105.37L71.75,106.46L71.94,107.34L72.16,108.10L72.56,108.71L73.10,109.09L73.73,109.22L74.41,109.11L75.13,108.75L75.81,108.16L76.40,107.40L76.86,106.52L77.19,105.55L77.33,104.58L77.28,103.69L77.07,102.93L76.67,102.32L76.14,101.94L75.50,101.80L74.82,101.91L74.10,102.28L73.42,102.87L72.83,103.62L72.37,104.50L72.04,105.47L71.90,106.45L71.94,107.34L72.03,108.17L71.99,109.10"/><path d="M71.40,105.37L72.23,104.45L72.83,103.62L73.32,102.75L73.77,101.67L71.63,100.79L70.80,101.71L70.20,102.53L69.71,103.40L69.60,103.68"/><path d="M71.63,100.79L72.25,100.72L72.87,100.71L73.22,100.72"/><path d="M73.64,107.23L73.58,107.20L73.32,106.80L73.21,106.27L73.25,105.65L73.44,105.02L73.75,104.44L74.16,103.98L74.31,103.88L74.62,103.69L75.07,103.59L75.48,103.70L75.80,104.00L75.98,104.48L76.02,105.06L75.90,105.69L75.65,106.30L75.28,106.83L74.84,107.21L74.38,107.41L73.94,107.41L73.64,107.23"/><path d="M73.77,101.67L74.77,101.77L75.50,101.80L76.14,101.79L76.74,101.72"/></g><g style="stroke:#000000;stroke-width:0.353"><path d="M68.59,104.78L68.59,104.71L68.76,103.82L69.09,102.95L69.54,102.15L70.10,101.47L70.78,100.90L71.44,100.57L72.19,100.45L72.90,100.59L73.22,100.72L73.61,100.74L74.60,100.83L76.74,101.72L77.09,102.81L77.28,103.69L77.37,104.52L77.33,105.45L76.89,106.53L76.40,107.40L75.80,108.22L74.96,109.14L74.35,109.21L73.73,109.22L72.99,109.19L71.99,109.10L69.86,108.21L69.67,107.63L69.54,107.56L69.09,107.11L69.04,107.03L68.73,106.40"/></g></g><g id="Actor_.9"><g style="stroke:#000000;stroke-width:0.353"><path d="M111.76,125.45L99.95,120.55L99.12,120.14L98.27,119.48L98.02,119.17L97.79,118.64L97.78,118.10L97.85,117.89L97.98,117.57L98.41,117.06"/><path d="M98.46,125.14L99.12,125.63L99.95,126.04L151.56,147.45"/><path d="M115.81,130.75L112.96,128.01L112.46,127.39L112.00,126.47L111.78,125.59L111.69,124.56L111.73,123.99L111.69,124.54"/><path d="M111.73,123.99L111.76,123.46L111.73,123.99"/><path d="M111.76,123.46L111.97,122.35L112.32,121.30L112.79,120.29L113.37,119.36L114.11,118.48L113.40,119.34L112.81,120.28L112.33,121.30L111.98,122.38L111.76,123.46"/><path d="M114.11,118.48L114.69,117.95"/><path d="M115.80,131.14L122.29,133.83"/><path d="M115.70,130.64L115.75,130.74"/><path d="M115.73,130.69L115.71,130.65"/><path d="M115.72,130.69L115.70,130.63"/><path d="M117.64,125.33L117.49,126.47L117.50,127.48L117.67,128.42L117.97,129.23L118.14,129.54L118.63,130.14L121.11,132.49"/><path d="M122.15,132.35L122.15,133.09"/><path d="M123.12,131.41L122.55,131.66"/><path d="M122.91,132.30L142.90,140.60"/><path d="M141.38,136.90L141.42,136.28L141.38,136.85L141.46,137.93L141.69,138.84L142.12,139.71L142.62,140.33L146.03,143.59"/><path d="M141.78,134.36L141.45,135.79L141.42,136.28L141.45,135.82L141.67,134.72L142.03,133.63L142.52,132.59L143.12,131.64L143.83,130.78"/><path d="M146.15,143.73L151.34,145.88"/><path d="M145.99,143.53L146.08,143.73"/><path d="M151.97,147.10L151.96,146.09L151.82,145.71L148.45,142.51L147.96,141.91L147.79,141.60L147.60,141.15L147.38,140.25L147.30,139.26L147.38,138.20L147.73,136.65L148.15,135.60L148.68,134.60L149.04,134.07L150.03,132.95L150.48,132.57L151.27,132.07L152.06,131.75L152.84,131.64L153.14,131.66L153.57,131.73L154.18,131.99"/><path d="M148.48,140.16L148.97,141.26L149.72,141.90L150.67,142.12L151.71,141.88L152.76,141.21L153.70,140.18L154.45,138.89L154.93,137.46L155.10,136.03L154.93,134.75L154.45,133.74L153.70,133.09L152.76,132.88L151.71,133.11L150.67,133.78L149.72,134.81L148.97,136.11L148.50,137.52L148.33,138.96L148.48,140.16"/><path d="M152.37,147.44L155.37,146.14"/><path d="M153.21,131.32L153.25,131.33"/><path d="M155.77,135.70L155.77,135.73"/></g><g style="stroke:#000000;stroke-width:0.353"><path d="M153.25,131.33L153.88,131.60L154.60,132.18L155.16,132.98L155.50,133.76L155.70,134.65L155.77,135.75L155.77,145.51L155.64,145.92L155.31,146.20L152.30,147.50L151.97,147.57L151.62,147.50L100.02,126.09L99.20,125.69L98.41,125.11L97.94,124.58L97.58,123.84L97.53,123.06L97.53,118.61L97.78,117.83L98.33,117.12L99.11,116.52L99.92,116.11"/><path d="M110.24,116.11L114.69,117.95"/><path d="M115.38,117.45L114.69,117.95"/><path d="M144.32,130.32L143.78,130.82L143.10,131.65L142.51,132.60L142.03,133.63L141.78,134.36"/><path d="M153.21,131.32L151.23,130.50"/></g></g><g><g><path style="stroke:#000000;stroke-width:0.250;stroke-dasharray:2.9 2.9" d="M113.21,121.52L72.86,104.78"/></g></g><g><g/></g><g><g><path style="stroke:#000000;stroke-width:0.250;stroke-dasharray:2.9 2.9" d="M130.34,128.63L189.71,153.26"/></g></g><g><g><path style="stroke:#000000;stroke-width:0.500" d="M29.85,115.07L59.96,115.07L70.66,103.41"/></g><g><path style="fill:#000000" d="M71.66,103.41L71.66,103.31L71.64,103.21L71.62,103.12L71.59,103.02L71.55,102.93L71.50,102.85L71.44,102.77L71.37,102.70L71.30,102.63L71.22,102.57L71.14,102.52L71.05,102.48L70.95,102.45L70.86,102.43L70.76,102.41L70.66,102.41L70.57,102.41L70.47,102.43L70.37,102.45L70.28,102.48L70.19,102.52L70.11,102.57L70.03,102.63L69.96,102.70L69.89,102.77L69.83,102.85L69.78,102.93L69.74,103.02L69.71,103.12L69.68,103.21L69.67,103.31L69.66,103.41L69.67,103.50L69.68,103.60L69.71,103.70L69.74,103.79L69.78,103.88L69.83,103.96L69.89,104.04L69.96,104.11L70.03,104.18L70.11,104.24L70.19,104.29L70.28,104.33L70.37,104.36L70.47,104.39L70.57,104.40L70.66,104.41L70.76,104.40L70.86,104.39L70.95,104.36L71.05,104.33L71.14,104.29L71.22,104.24L71.30,104.18L71.37,104.11L71.44,104.04L71.50,103.96L71.55,103.88L71.59,103.79L71.62,103.70L71.64,103.60L71.66,103.50z"/></g><g><text xml:space="preserve" fill="#000000" stroke-width="0" x="29.85" y="114.10" font-size="3.51" opacity="1.00" font-family="Verdana">7/16 NYLOC NUT</text></g></g><g><g><path style="stroke:#000000;stroke-width:0.500" d="M6.19,125.26L76.50,125.26L86.07,112.44"/></g><g><path style="fill:#000000" d="M87.07,112.44L87.07,112.34L87.05,112.24L87.03,112.15L87.00,112.06L86.95,111.97L86.90,111.88L86.84,111.80L86.78,111.73L86.71,111.67L86.63,111.61L86.54,111.56L86.45,111.51L86.36,111.48L86.27,111.46L86.17,111.44L86.07,111.44L85.97,111.44L85.88,111.46L85.78,111.48L85.69,111.51L85.60,111.56L85.52,111.61L85.44,111.67L85.36,111.73L85.30,111.80L85.24,111.88L85.19,111.97L85.15,112.06L85.11,112.15L85.09,112.24L85.08,112.34L85.07,112.44L85.08,112.54L85.09,112.63L85.11,112.73L85.15,112.82L85.19,112.91L85.24,112.99L85.30,113.07L85.36,113.15L85.44,113.21L85.52,113.27L85.60,113.32L85.69,113.36L85.78,113.40L85.88,113.42L85.97,113.43L86.07,113.44L86.17,113.43L86.27,113.42L86.36,113.40L86.45,113.36L86.54,113.32L86.63,113.27L86.71,113.21L86.78,113.15L86.84,113.07L86.90,112.99L86.95,112.91L87.00,112.82L87.03,112.73L87.05,112.63L87.07,112.54z"/></g><g><text xml:space="preserve" fill="#000000" stroke-width="0" x="6.19" y="124.29" font-size="3.53" opacity="1.00" font-family="Verdana">M12 GRADE 8 HARDENED WASHER Z/P</text></g></g><g><g><path style="stroke:#000000;stroke-width:0.500" d="M108.83,168.57L185.43,168.57L193.66,154.41"/></g><g><path style="fill:#000000" d="M194.66,154.41L194.66,154.31L194.64,154.22L194.62,154.12L194.58,154.03L194.54,153.94L194.49,153.86L194.43,153.78L194.37,153.70L194.30,153.64L194.22,153.58L194.13,153.53L194.04,153.49L193.95,153.45L193.86,153.43L193.76,153.42L193.66,153.41L193.56,153.42L193.47,153.43L193.37,153.45L193.28,153.49L193.19,153.53L193.11,153.58L193.03,153.64L192.95,153.70L192.89,153.78L192.83,153.86L192.78,153.94L192.74,154.03L192.70,154.12L192.68,154.22L192.67,154.31L192.66,154.41L192.67,154.51L192.68,154.61L192.70,154.70L192.74,154.79L192.78,154.88L192.83,154.97L192.89,155.05L192.95,155.12L193.03,155.18L193.11,155.24L193.19,155.29L193.28,155.34L193.37,155.37L193.47,155.39L193.56,155.41L193.66,155.41L193.76,155.41L193.86,155.39L193.95,155.37L194.04,155.34L194.13,155.29L194.22,155.24L194.30,155.18L194.37,155.12L194.43,155.05L194.49,154.97L194.54,154.88L194.58,154.79L194.62,154.70L194.64,154.61L194.66,154.51z"/></g><g><text xml:space="preserve" fill="#000000" stroke-width="0" x="108.83" y="167.60" font-size="3.54" opacity="1.00" font-family="Verdana">7/16X6 UNC HEX BOLT ONLY GRADE 8 Z/P</text></g></g><g/><g><g/><g><image x="267.134003" y="50.813660" height="17.189310" width="19.431398" xlink:href="UNI-U1700-ALT-UNIDAN_files/b182edca5eac0b2c_image_2.jpg" mask="url(#mask2)"/></g></g><g><g/><g><image x="267.134003" y="29.147215" height="17.590467" width="18.953098" xlink:href="UNI-U1700-ALT-UNIDAN_files/b182edca5eac0b2c_image_3.jpg" mask="url(#mask3)"/></g></g><g><g/><g><path style="fill:#ffffff" d="M108.66,3.33L191.01,3.33L191.01,13.49L108.66,13.49z"/><text xml:space="preserve" fill="#000000" stroke-width="0" x="109.93" y="10.31" font-size="5.78" opacity="1.00" font-family="Verdana" font-weight="bold">FITTING INSTRUCTIONS</text></g></g><g><g/><g><path style="fill:#ffffff" d="M67.88,14.30L146.41,14.30L146.41,22.20L67.88,22.20z"/><text xml:space="preserve" fill="#000000" stroke-width="0" x="68.87" y="19.73" font-size="4.50" opacity="1.00" font-family="Verdana" font-weight="bold">STEP 6 - MOUNT ALTERNATOR</text></g></g><g><g/><g><image x="151.190826" y="184.838699" height="17.560188" width="18.806389" xlink:href="UNI-U1700-ALT-UNIDAN_files/b182edca5eac0b2c_image_4.jpg" mask="url(#mask4)"/></g></g><g><g/><g><image x="117.603325" y="184.838699" height="17.851601" width="19.118490" xlink:href="UNI-U1700-ALT-UNIDAN_files/b182edca5eac0b2c_image_5.jpg" mask="url(#mask5)"/></g></g><g id="paperID" visibility="hidden" opacity="0.00" transform="scale(0.000100)"><path style="stroke:#000000;stroke-width:0.500;fill:#e6e6e6;fill-rule:evenodd" d="M-2000.00,-2000.00L2297.00,-2000.00L2297.00,2210.00L-2000.00,2210.00zM0.00,0.00L297.00,0.00L297.00,210.00L0.00,210.00z"/><path style="fill:#000000;fill-opacity:0.118" d="M3.00,210.00L297.00,210.00L297.00,3.00L300.00,3.00L300.00,213.00L3.00,213.00z"/></g><g id="hotspot.0" ident="" onmouseover="ShowHotSpot(evt,&apos;0&apos;)" onmouseout="HideHotSpot(evt,&apos;0&apos;)" onmousemove="ShowToolTip(evt,&apos;0&apos;,&quot;HOME BUTTON&quot;)" opacity="0"><a xlink:href="UNI-U1700-ALT-UNIDAN (HOME).SVG"><path style="fill:#00ff00;fill-rule:evenodd" d="M285.97,46.84L267.26,46.84L267.26,29.59L285.97,29.59z"/></a></g><g id="hotspot.1" ident="" onmouseover="ShowHotSpot(evt,&apos;1&apos;)" onmouseout="HideHotSpot(evt,&apos;1&apos;)" onmousemove="ShowToolTip(evt,&apos;1&apos;,&quot;BOM&quot;)" opacity="0"><a xlink:href="UNI-U1700-ALT-UNIDAN (BOM).SVG"><path style="fill:#00ff00;fill-rule:evenodd" d="M286.34,67.95L267.26,67.95L267.26,51.06L286.34,51.06z"/></a></g><g id="hotspot.2" ident="" onmouseover="ShowHotSpot(evt,&apos;2&apos;)" onmouseout="HideHotSpot(evt,&apos;2&apos;)" onmousemove="ShowToolTip(evt,&apos;2&apos;,&quot;BUTTON - PREVIOUS&quot;)" opacity="0"><a xlink:href="UNI-U1700-ALT-UNIDAN (FITTING - STEP 5).SVG"><path style="fill:#00ff00;fill-rule:evenodd" d="M136.75,202.62L117.67,202.62L117.67,185.00L136.75,185.00z"/></a></g><g id="hotspot.3" ident="" onmouseover="ShowHotSpot(evt,&apos;3&apos;)" onmouseout="HideHotSpot(evt,&apos;3&apos;)" onmousemove="ShowToolTip(evt,&apos;3&apos;,&quot;NEXT&quot;)" opacity="0"><a xlink:href="UNI-U1700-ALT-UNIDAN (FITTING - STEP 7).SVG"><path style="fill:#00ff00;fill-rule:evenodd" d="M169.87,202.62L151.16,202.62L151.16,185.00L169.87,185.00z"/></a></g><g id="hotspot.4" ident="" onmouseover="ShowHotSpot(evt,&apos;4&apos;)" onmouseout="HideHotSpot(evt,&apos;4&apos;)" onmousemove="ShowToolTip(evt,&apos;4&apos;,&quot;Fillet26&quot;)" opacity="0"><path style="fill:#00ff00;fill-rule:evenodd" d="M113.42,117.71L115.30,118.00L115.64,118.39L118.50,128.63L119.65,130.03L140.36,138.82L141.46,138.95L141.45,136.75L142.08,133.70L143.31,131.66L144.25,130.74L145.68,130.79L147.64,129.78L148.05,129.72L149.81,130.44L151.67,130.77L154.53,132.27L155.66,134.42L155.65,146.19L152.63,147.56L151.28,147.56L99.60,126.06L97.79,124.59L97.76,118.14L98.78,116.89L99.23,116.92L99.60,119.14L100.68,119.88L103.61,120.60L106.40,120.60L108.60,120.25L110.55,118.92L110.88,116.57zM154.28,133.62L154.94,135.15L154.83,138.09L153.12,141.11L151.55,142.09L149.80,142.10L148.71,141.01L148.72,137.07L149.67,135.11L151.51,133.31L153.86,133.31z"/></g><g id="hotspot.5" ident="" onmouseover="ShowHotSpot(evt,&apos;5&apos;)" onmouseout="HideHotSpot(evt,&apos;5&apos;)" onmousemove="ShowToolTip(evt,&apos;5&apos;,&quot;7166G8HBOZUNC&quot;)" opacity="0"><path style="fill:#00ff00;fill-rule:evenodd" d="M209.51,159.21L210.84,159.14L211.36,158.81L215.03,160.22L215.31,162.06L215.00,164.04L213.40,166.08L211.32,166.11L208.68,165.11L208.46,163.88L207.34,163.18L166.20,146.09L165.44,145.39L165.47,143.63L166.53,142.15L168.41,142.05z"/></g><g id="hotspot.6" ident="" onmouseover="ShowHotSpot(evt,&apos;6&apos;)" onmouseout="HideHotSpot(evt,&apos;6&apos;)" onmousemove="ShowToolTip(evt,&apos;6&apos;,&quot;FLAT WASHER (ZP)&quot;)" opacity="0"><path style="fill:#00ff00;fill-rule:evenodd" d="M87.94,106.06L88.70,107.48L88.69,110.17L87.96,111.99L86.36,114.02L84.93,114.81L82.83,114.44L82.16,114.02L81.39,112.61L81.38,109.77L82.70,107.09L84.91,105.29L86.52,105.29zM86.30,108.04L86.53,109.42L85.78,111.26L84.57,112.28L83.95,112.26L83.93,109.41L85.30,107.81z"/></g><g id="hotspot.7" ident="" onmouseover="ShowHotSpot(evt,&apos;7&apos;)" onmouseout="HideHotSpot(evt,&apos;7&apos;)" onmousemove="ShowToolTip(evt,&apos;7&apos;,&quot;Boss-Extrude1&quot;)" opacity="0"><path style="fill:#00ff00;fill-rule:evenodd" d="M164.05,137.32L164.04,140.74L162.79,143.50L160.65,145.00L158.54,145.01L157.50,144.23L156.72,142.45L156.74,141.11L157.09,139.26L158.80,136.60L159.89,135.87L162.60,135.86zM161.87,138.77L161.86,140.39L160.63,142.44L159.29,142.46L159.27,139.98L160.74,138.12L161.46,138.06z"/></g><g id="hotspot.8" ident="" onmouseover="ShowHotSpot(evt,&apos;8&apos;)" onmouseout="HideHotSpot(evt,&apos;8&apos;)" onmousemove="ShowToolTip(evt,&apos;8&apos;,&quot;Boss-Extrude1&quot;)" opacity="0"><path style="fill:#00ff00;fill-rule:evenodd" d="M101.40,118.44L102.50,118.80L105.29,119.16L107.88,118.80L110.17,117.44L110.53,116.57L110.55,118.92L108.60,120.25L106.40,120.60L103.61,120.60L100.68,119.88L99.61,119.14L99.61,116.67L100.01,116.56z"/></g><g id="hotspot.9" ident="" onmouseover="ShowHotSpot(evt,&apos;9&apos;)" onmouseout="HideHotSpot(evt,&apos;9&apos;)" onmousemove="ShowToolTip(evt,&apos;9&apos;,&quot;Cut-Revolve2&quot;)" opacity="0"><path style="fill:#00ff00;fill-rule:evenodd" d="M107.27,111.48L109.10,112.20L110.17,114.76L110.20,117.48L107.88,118.80L105.29,119.16L102.50,118.80L101.40,118.44L100.32,116.97L100.32,113.05L101.45,111.27L102.38,110.75L105.81,110.39z"/></g><g id="hotspot.10" ident="" onmouseover="ShowHotSpot(evt,&apos;10&apos;)" onmouseout="HideHotSpot(evt,&apos;10&apos;)" onmousemove="ShowToolTip(evt,&apos;10&apos;,&quot;Revolve1&quot;)" opacity="0"><path style="fill:#00ff00;fill-rule:evenodd" d="M173.84,85.67L176.79,87.09L178.22,87.48L181.18,88.89L183.32,90.75L185.52,95.10L185.86,96.94L185.86,104.33L184.77,109.07L182.59,114.17L178.58,119.99L174.22,123.62L170.12,125.35L165.46,125.35L157.52,122.01L156.41,121.30L154.56,118.78L153.45,116.25L152.74,112.95L152.75,107.61L153.74,102.79L154.92,99.23L157.88,93.82L161.33,89.63L165.36,86.74L169.00,85.28L172.77,85.28zM177.89,103.82L178.59,105.67L178.23,108.71L177.50,110.17L175.22,112.25L173.11,112.24L168.78,110.39L168.01,108.97L168.02,106.51L168.76,104.33L170.82,102.03L171.53,101.65L173.15,101.65z"/></g><g id="hotspot.11" ident="" onmouseover="ShowHotSpot(evt,&apos;11&apos;)" onmouseout="HideHotSpot(evt,&apos;11&apos;)" onmousemove="ShowToolTip(evt,&apos;11&apos;,&quot;Fillet1&quot;)" opacity="0"><path style="fill:#00ff00;fill-rule:evenodd" d="M111.66,59.77L111.64,64.69L109.28,67.11L108.71,67.14L108.69,59.55L111.30,59.41z"/></g><g id="hotspot.12" ident="" onmouseover="ShowHotSpot(evt,&apos;12&apos;)" onmouseout="HideHotSpot(evt,&apos;12&apos;)" onmousemove="ShowToolTip(evt,&apos;12&apos;,&quot;Boss-Extrude7&quot;)" opacity="0"><path style="fill:#00ff00;fill-rule:evenodd" d="M123.27,55.12L126.91,55.07L142.17,60.93L146.19,61.27L153.10,63.83L173.49,71.47L176.45,73.60L177.89,75.44L185.86,83.47L188.80,86.72L188.80,90.89L185.85,96.71L184.77,93.30L182.63,89.99L179.31,87.84L176.79,87.09L173.84,85.67L172.77,85.28L169.00,85.28L165.36,86.74L161.33,89.63L157.88,93.82L154.92,99.23L153.74,102.79L152.75,107.61L152.74,112.95L153.45,116.25L154.56,118.78L156.41,121.30L157.52,122.01L165.46,125.35L170.12,125.35L174.21,123.83L174.13,124.17L169.16,128.40L165.73,130.42L161.11,132.00L156.78,132.28L155.49,132.98L154.97,132.99L154.54,132.27L151.67,130.77L149.81,130.44L148.05,129.72L147.64,129.78L145.68,130.79L144.25,130.74L143.31,131.66L142.08,133.70L141.45,136.75L141.46,138.95L140.36,138.82L119.65,130.03L118.50,128.63L114.88,115.88L114.14,114.43L107.27,111.48L104.00,108.56L101.78,104.95L100.31,100.60L99.97,98.39L99.97,87.84L97.78,86.74L97.75,85.40L99.26,84.95L95.59,83.48L95.59,81.74L96.69,81.61L99.63,82.84L100.24,81.27L101.65,81.31L104.95,73.65L106.57,71.20L106.55,70.76L104.68,70.00L104.67,68.65L105.29,67.77L107.62,68.59L108.20,68.56L112.21,63.81L117.32,59.82L121.83,57.73L121.87,56.90L120.71,56.18L119.60,55.84L118.84,55.10L119.11,53.96L119.49,53.57zM177.89,103.82L178.59,105.67L178.23,108.71L177.50,110.17L175.22,112.25L173.11,112.24L168.78,110.39L168.01,108.97L168.02,106.51L168.76,104.33L170.82,102.03L171.53,101.65L173.15,101.65z"/></g><g id="hotspot.13" ident="" onmouseover="ShowHotSpot(evt,&apos;13&apos;)" onmouseout="HideHotSpot(evt,&apos;13&apos;)" onmousemove="ShowToolTip(evt,&apos;13&apos;,&quot;7_16 UNC NYLOC NUT&quot;)" opacity="0"><path style="fill:#00ff00;fill-rule:evenodd" d="M76.32,101.66L77.06,102.75L77.43,105.41L75.95,108.34L74.76,109.34L72.66,109.32L70.47,108.60L69.05,107.11L68.63,106.05L68.65,104.70L69.28,102.77L70.87,101.08L74.14,100.93z"/></g><g id="ToolTip" visibility="hidden" opacity="0" transform="translate(0,0)"><rect id="ToolTipShadow" opacity="0.20" fill="black" stroke="none" x="0" y="0" width="30" height="8"/><rect id="ToolTipBG" fill="#ffffe1" stroke="black" x="0" y="0" width="30" height="8"/><text xml:space="preserve" id="ToolTipText" fill="black" x="0" y="0" width="30" height="8">tooltip</text></g></g></svg>