<?xml version="1.0" encoding="UTF-8" standalone="yes"?><svg xmlns="http://www.w3.org/2000/svg" xmlns:xlink="http://www.w3.org/1999/xlink" width="297.000mm" height="210.000mm" viewBox="0.000000 0.000000 297.000000 210.000000" stroke-linejoin="round" stroke-linecap="round" fill="none" fill-rule="evenodd"><desc>Composer Export</desc><script type="text/ecmascript"><![CDATA[
if(typeof(top) != "undefined")
{
	top.ShowPaper = ShowPaper;
}
function ShowHotSpot(evt,hotspotid)
{
	var svgDocument = evt.target.ownerDocument;
	var strId = "hotspot."+hotspotid;
	var hotspot = svgDocument.getElementById(strId);
	if(hotspot)
		hotspot.setAttribute("opacity",".5");
}
function HideHotSpot(evt,hotspotid)
{
	var svgDocument = evt.target.ownerDocument;
	var strId = "hotspot."+hotspotid;
	var hotspot = svgDocument.getElementById(strId);
	if(hotspot)
		hotspot.setAttribute("opacity","0");

	var toolTip = svgDocument.getElementById('ToolTip');
	if(toolTip)
		toolTip.setAttribute("visibility","hidden");
}
function ShowToolTip(evt,hotspotid,strTooltip)
{
	if(strTooltip=="")
	return;

	// change text
	var svgDocument = evt.target.ownerDocument;
	var tiptext = svgDocument.getElementById('ToolTipText');
	if( !tiptext )
	return;
	tiptext.firstChild.nodeValue = " " + strTooltip + "  " ;

	// show tooltip before, else some refresh issue

	var toolTip = svgDocument.getElementById('ToolTip');
	if(!toolTip)
	return;

	toolTip.setAttribute("visibility","visible");
	toolTip.setAttribute("opacity",".95");

	// move tooltip
	// get viewbox

	var root = svgDocument.documentElement;
	var vbox = (root.getAttribute("viewBox")).split(' ');
	var x0 = parseFloat(vbox[0]);
	var y0 = parseFloat(vbox[1]);
	var vboxW = parseFloat(vbox[2]);
	var vboxH = parseFloat(vbox[3]);

	// get default width of svg

	var strW = root.getAttribute("width");
	var svgW = parseFloat(strW);
	if(strW.indexOf('mm') != -1)
	svgW *= 3.779;

	var strH = root.getAttribute("height");
	var svgH = parseFloat(strH);
	if(strH.indexOf('mm') != -1)
	svgH *= 3.779;  	// 96 dpi  -> 96/25.4 = 3.779

	// update the viewbox / width / height if svg is embedded in html with zoom fit all
	var realx0 = x0;
	var realy0 = y0;
	var realvboxW = vboxW;
	var realvboxH = vboxH;
	var realsvgW = svgW;
	var realsvgH = svgH;

	if ((typeof(top) == "undefined") || (typeof(top.svgctl1) != "undefined")) // embedded in html
	{
		// get window size in pxl

		svgW = window.innerWidth;
		svgH = window.innerHeight;

		// calculate real viewbox

		realsvgW = svgW;
		realsvgH = svgH;
		if((svgW / svgH) > (vboxW / vboxH))
		{
			realvboxW = (vboxH * svgW) / svgH;
			realvboxH = vboxH;
			realx0 = x0 - (realvboxW - vboxW)/2 ;
		}
		else
		{
			realvboxH = (vboxW * svgH) / svgW;
			realvboxW = vboxW;
			realy0 = y0 - (realvboxH - vboxH)/2 ;
		}
	}

	// get user zoom/pan

	var newScale = root.currentScale;
	var translation = root.currentTranslate;

	// transform pxl to user unit

	var xPos = (((evt.clientX+10- translation.x)/newScale) * realvboxW)/realsvgW  + realx0 ;
	var yPos = (((evt.clientY+5- translation.y)/newScale) * realvboxH)/ realsvgH  + realy0 ;
	var scaleForWidth = ( (1 / newScale) * realvboxH) / realsvgH;

	// move tooltip

	toolTip.setAttribute("transform", "translate(" + xPos + "," + yPos + ")" );

	// resize tooltip

	var fontsize = 12;
	tiptext.setAttribute("font-size",fontsize*scaleForWidth);
	tiptext.setAttribute("y", fontsize*scaleForWidth);
	var tipBG = svgDocument.getElementById('ToolTipBG');
	var outline = tiptext.getBBox();
	if(tipBG)
	{
		tipBG.setAttribute("stroke-width", 1*scaleForWidth);
		tipBG.setAttribute("width", Number(outline.width) );
		tipBG.setAttribute("height", Number(outline.height) + fontsize*.5*scaleForWidth );
	}
	var ToolTipShadow = svgDocument.getElementById('ToolTipShadow');
	if(ToolTipShadow)
	{
		ToolTipShadow.setAttribute("width", Number(outline.width) );
		ToolTipShadow.setAttribute("height", Number(outline.height) + fontsize*.5*scaleForWidth );
		ToolTipShadow.setAttribute("x", 3*scaleForWidth);
		ToolTipShadow.setAttribute("y", 3*scaleForWidth);
	}
}
function ShowPaper()
{
  var svgDocument = getDocument();
  var paper = svgDocument.getElementById("paperID");
  if(paper)
  {
    paper.setAttribute("transform","scale(1)");
    paper.setAttribute("opacity","1");
    paper.setAttribute("visibility","visible");
  }
  var svg = svgDocument.getRootElement();
  if(svg)
  {
    svg.setAttribute("width","307.000mm");
    svg.setAttribute("height","220.000mm");
    svg.setAttribute("viewBox","-5.000000 -5.000000 307.000000 220.000000");
  }
}
]]></script><defs><mask id="mask1" x="0" y="0" height="100%" width="100%"><image x="0.798389" y="0.967741" height="40.937347" width="55.346039" xlink:href="UNI-U1700-ALT-UNIDAN_files/970c9001aebd98bc_mask_1.jpg"/></mask><mask id="mask2" x="0" y="0" height="100%" width="100%"><image x="267.134094" y="30.548536" height="17.189310" width="19.431398" xlink:href="UNI-U1700-ALT-UNIDAN_files/970c9001aebd98bc_mask_2.jpg"/></mask><mask id="mask3" x="0" y="0" height="100%" width="100%"><image x="267.134094" y="95.548378" height="18.032640" width="19.856949" xlink:href="UNI-U1700-ALT-UNIDAN_files/970c9001aebd98bc_mask_3.jpg"/></mask><mask id="mask4" x="0" y="0" height="100%" width="100%"><image x="267.134064" y="73.757004" height="18.556049" width="18.961637" xlink:href="UNI-U1700-ALT-UNIDAN_files/970c9001aebd98bc_mask_4.jpg"/></mask><mask id="mask5" x="0" y="0" height="100%" width="100%"><image x="267.134064" y="116.110916" height="17.790728" width="18.818369" xlink:href="UNI-U1700-ALT-UNIDAN_files/970c9001aebd98bc_mask_5.jpg"/></mask><mask id="mask6" x="0" y="0" height="100%" width="100%"><image x="267.134094" y="51.041832" height="19.134148" width="19.134157" xlink:href="UNI-U1700-ALT-UNIDAN_files/970c9001aebd98bc_mask_6.jpg"/></mask><mask id="mask7" x="0" y="0" height="100%" width="100%"><image x="267.134064" y="136.347778" height="18.831429" width="18.560469" xlink:href="UNI-U1700-ALT-UNIDAN_files/970c9001aebd98bc_mask_7.jpg"/></mask><mask id="mask8" x="0" y="0" height="100%" width="100%"><image x="254.500580" y="184.210983" height="10.583520" width="10.583499" xlink:href="UNI-U1700-ALT-UNIDAN_files/970c9001aebd98bc_mask_8.jpg"/></mask></defs><g><path style="fill:#ffffff" d="M296.95,209.90L0.09,209.90L0.09,0.09L296.95,0.09z"/><path style="fill:#c0c0c0" d="M170.45,48.52L170.47,49.05L168.82,49.76L168.64,52.95L167.41,52.76L167.20,52.60L167.40,48.35L168.10,48.12L167.89,49.26L168.92,49.27L168.93,48.26L168.10,48.12L169.52,47.95z"/><path style="fill:#c0c0c0" d="M119.87,54.23L120.51,55.35L118.62,56.70L109.00,62.33L108.98,63.93L112.77,63.96L119.14,63.83L119.65,63.65L127.65,63.52L126.48,62.27L124.41,61.36L126.93,60.52L127.52,60.21L130.04,60.21L131.55,61.39L132.52,63.04L131.82,63.32L130.97,62.01L129.01,62.93L129.86,65.53L130.03,66.19L130.68,67.31L129.02,68.25L129.41,69.51L130.00,72.17L129.88,73.88L129.72,74.09L126.04,74.29L120.24,74.42L121.68,73.52L121.64,70.06L121.28,70.05L119.85,71.09L119.57,73.50L118.78,74.74L114.69,74.60L114.51,74.78L109.97,74.59L109.08,72.19L99.10,72.26L98.94,72.09L100.41,70.80L100.72,70.21L101.00,67.98L101.33,70.85L101.92,69.59L101.61,67.38L101.32,66.83L100.03,67.42L99.82,68.11L98.61,69.00L98.34,71.41L97.53,72.34L95.93,72.18L94.12,70.10L93.81,69.51L93.83,66.01L95.04,65.13L95.32,63.02L97.31,61.71L102.13,61.45L114.96,53.92L115.97,53.92L116.55,54.27L117.67,54.27L118.25,53.92L119.26,53.92z"/><path style="fill:#c0c0c0" d="M125.54,88.64L127.33,89.54L131.22,92.24L133.34,94.30L135.73,97.30L137.19,99.42L139.05,102.91L137.99,103.56L139.89,108.69L140.79,113.77L140.79,116.56L140.20,119.86L138.28,123.26L137.23,124.07L135.40,124.93L134.23,125.55L131.73,127.24L129.01,127.85L126.24,127.78L123.45,126.63L121.35,125.41L121.04,134.81L120.56,135.01L117.46,133.22L117.18,131.40L115.39,128.40L114.17,128.12L112.37,126.04L111.76,124.24L111.76,123.14L113.16,118.85L113.87,117.94L111.78,114.67L109.68,110.19L108.47,106.01L108.18,104.50L108.18,98.31L108.35,97.23L109.85,93.99L112.24,91.90L114.08,91.05L115.25,90.42L117.76,88.74L119.45,88.04L123.45,88.04z"/><path style="fill:#c0c0c0" d="M179.09,125.13L179.99,126.32L180.03,128.04L179.56,128.70L177.29,130.03L173.61,130.53L173.37,131.23L171.50,131.10L171.32,132.84L170.92,132.72L169.49,130.54L168.89,128.74L168.93,126.15L170.31,124.84L171.63,124.07L171.66,118.47L173.72,117.25L173.88,128.84L175.71,128.75L176.88,128.12L177.30,127.65L177.45,124.43z"/><path style="fill:#c0c0c0" d="M152.28,130.37L152.96,129.63L154.07,128.88L154.90,128.64L155.04,156.96L156.57,156.86L158.17,156.08L158.29,152.27L159.97,153.22L161.15,154.74L161.19,156.16L160.26,156.97L158.45,158.15L154.42,158.65L154.42,159.33L157.26,159.53L157.33,161.46L153.35,161.34L152.16,161.03L150.99,159.51L150.05,157.16L150.04,154.23L150.86,153.25L152.46,152.46z"/><path style="fill:#e4e9ed" d="M168.64,52.95L169.48,53.38L170.49,53.50L173.70,55.17L174.49,55.17L175.83,54.54L177.32,55.74L178.08,55.77L181.38,53.91L182.08,53.89L182.54,54.43L178.97,56.67L179.04,57.22L179.48,57.38L180.04,57.83L179.79,58.38L179.28,58.41L164.31,66.83L164.40,67.38L164.74,67.73L165.49,67.71L179.71,59.51L183.00,62.89L187.15,68.31L190.62,74.46L190.46,74.62L173.88,84.18L173.97,85.06L174.89,86.85L177.29,94.02L178.48,100.91L178.48,105.19L177.89,109.39L176.98,112.07L176.19,113.37L177.58,108.18L177.88,105.79L177.88,101.21L176.68,94.34L175.49,90.44L173.40,85.01L173.14,84.75L157.13,93.98L164.42,107.79L167.75,113.48L167.73,114.15L163.75,116.46L164.42,118.56L164.43,120.46L164.01,121.53L155.65,127.53L154.95,128.32L154.42,128.40L154.07,128.88L152.96,129.63L152.28,130.37L150.70,131.26L147.58,132.33L141.89,132.62L136.00,132.63L131.52,131.11L130.72,130.78L127.73,129.00L127.16,128.66L126.24,127.78L129.01,127.85L131.73,127.24L134.23,125.55L135.40,124.93L137.23,124.07L138.28,123.26L139.32,122.57L141.00,120.06L141.69,117.76L141.99,113.47L141.09,108.09L139.31,103.29L139.05,102.91L137.19,99.42L135.73,97.30L133.34,94.30L131.22,92.24L127.33,89.54L125.54,88.64L123.45,88.04L119.45,88.04L117.76,88.74L115.25,90.42L114.08,91.05L112.24,91.90L109.85,93.99L108.35,97.23L108.18,95.82L108.18,89.94L108.76,86.63L110.48,82.66L112.97,79.47L114.51,74.78L114.69,74.60L118.78,74.74L120.24,74.42L126.04,74.29L129.72,74.09L129.88,73.88L131.55,72.92L131.52,69.49L130.68,67.31L130.03,66.19L129.86,65.53L130.32,65.59L131.82,66.85L132.40,66.92L133.15,65.49L142.79,60.23L144.57,59.62L149.05,59.01L153.26,56.61L154.16,56.67L160.14,53.35L161.92,52.74L167.20,52.60L167.41,52.76z"/><path style="fill:#cdd1d5" d="M191.35,76.08L193.44,81.77L194.63,87.45L194.93,92.63L194.39,97.22L180.79,105.11L180.19,107.82L180.77,107.83L195.71,98.84L196.45,98.67L199.15,97.22L199.17,98.04L195.42,100.30L194.07,102.89L192.32,103.85L191.98,104.12L178.99,111.98L177.33,113.98L176.86,114.64L173.72,117.25L171.66,118.47L158.23,126.59L156.38,127.66L154.95,128.32L155.65,127.53L164.01,121.53L164.43,120.46L164.42,118.56L163.75,116.46L167.73,114.15L167.75,113.48L164.42,107.79L157.13,93.98L173.14,84.75L173.40,85.01L175.49,90.44L176.68,94.34L177.88,101.21L177.88,105.79L177.58,108.18L176.19,113.37L175.78,113.61L175.80,114.20L176.18,113.67L176.19,113.37L176.98,112.07L177.89,109.39L178.48,105.19L178.48,100.91L177.29,94.02L174.89,86.85L173.97,85.06L173.88,84.18L190.46,74.62L190.62,74.46z"/><path style="fill:#acacac" d="M168.92,49.27L167.89,49.26L168.10,48.12L168.93,48.26z"/><path style="fill:#acacac" d="M168.64,52.95L168.82,49.76L170.47,49.05L170.49,53.50L169.48,53.38z"/><path style="fill:#acacac" d="M120.78,55.71L120.77,57.05L119.55,57.93L119.27,59.44L118.84,60.21L113.77,63.21L112.77,63.96L108.98,63.93L109.00,62.33L118.62,56.70L120.51,55.35z"/><path style="fill:#acacac" d="M131.82,63.32L132.52,63.04L132.70,63.22L133.15,65.49L132.40,66.92L131.82,66.85L130.32,65.59L129.86,65.53L129.01,62.93L130.97,62.01z"/><path style="fill:#acacac" d="M101.61,67.38L101.92,69.59L101.33,70.85L101.00,67.98L100.72,70.21L100.41,70.80L98.94,72.09L97.53,72.34L98.34,71.41L98.61,69.00L99.82,68.11L100.03,67.42L101.32,66.83z"/><path style="fill:#acacac" d="M131.52,69.49L131.55,72.92L129.88,73.88L130.00,72.17L129.41,69.51L129.02,68.25L130.68,67.31z"/><path style="fill:#acacac" d="M123.17,68.57L123.30,70.89L123.15,72.90L122.48,73.79L122.16,73.73L122.25,70.69L121.86,69.23L122.90,68.19z"/><path style="fill:#acacac" d="M113.36,69.32L111.80,70.21L111.45,69.86L111.44,68.06L111.68,67.71L113.06,67.67z"/><path style="fill:#acacac" d="M121.68,73.52L120.24,74.42L118.78,74.74L119.57,73.50L119.85,71.09L121.28,70.05L121.64,70.06z"/><path style="fill:#acacac" d="M139.31,103.29L141.09,108.09L141.99,113.47L141.69,117.76L141.00,120.06L139.32,122.57L138.28,123.26L140.20,119.86L140.79,116.56L140.79,113.77L139.89,108.69L137.99,103.56L139.05,102.91z"/><path style="fill:#acacac" d="M192.92,104.18L192.82,104.34L191.98,104.12L192.32,103.85z"/><path style="fill:#acacac" d="M133.54,105.94L134.18,105.98L135.41,108.69L136.90,114.67L136.90,119.85L136.31,122.25L135.11,124.37L135.07,123.75L136.01,121.65L136.30,120.15L136.30,114.97L134.81,108.99z"/><path style="fill:#acacac" d="M119.45,102.70L118.55,103.60L117.84,106.11L116.41,107.07L116.54,104.58L117.47,102.81L118.54,102.09L120.76,102.09z"/><path style="fill:#acacac" d="M119.27,123.87L120.03,125.02L120.03,125.95L119.86,126.75L118.94,127.94L118.93,127.35L119.26,125.75L118.82,123.65z"/><path style="fill:#acacac" d="M123.45,126.63L126.24,127.78L127.16,128.66L127.26,129.13L127.73,129.00L130.72,130.78L127.23,132.02L122.13,134.99L120.56,135.01L121.04,134.81L121.35,125.41z"/><path style="fill:#acacac" d="M118.39,127.06L117.07,127.85L116.14,127.83L116.58,127.05L116.77,124.85L118.39,123.95z"/><path style="fill:#acacac" d="M177.45,124.43L177.30,127.65L176.88,128.12L175.71,128.75L173.88,128.84L173.72,117.25L176.86,114.64L177.33,113.98z"/><path style="fill:#acacac" d="M173.37,131.23L173.61,130.53L177.29,130.03L179.56,128.70L180.03,128.04L180.01,128.84L179.66,129.41L179.40,131.24L178.52,132.15L176.61,133.23L172.18,133.24L171.32,132.84L171.50,131.10z"/><path style="fill:#acacac" d="M158.29,152.27L158.17,156.08L156.57,156.86L155.04,156.96L154.90,128.64L154.95,128.32L156.38,127.66L158.23,126.59z"/><path style="fill:#acacac" d="M154.42,159.33L154.42,158.65L158.45,158.15L160.26,156.97L161.19,156.16L161.16,156.95L160.86,157.27L160.55,159.36L159.97,159.97L157.33,161.46L157.26,159.53z"/><path style="fill:#c0c0c0" d="M194.04,103.09L192.92,104.18L192.32,103.85L194.07,102.89z"/><path style="fill:#c0c0c0" d="M127.73,129.00L127.26,129.13L127.16,128.66z"/><path style="fill:#e4e9ed" d="M126.48,62.27L127.65,63.52L119.65,63.65L123.33,61.40L124.41,61.36z"/><path style="fill:#e4e9ed" d="M126.48,67.66L127.64,69.48L127.64,70.81L123.30,70.89L123.17,68.57L122.90,68.19L122.44,67.39L126.15,67.39z"/><path style="fill:#e4e9ed" d="M198.89,96.65L199.15,97.22L196.45,98.67L195.71,98.84L180.77,107.83L180.19,107.82L180.79,105.11L194.39,97.22L194.95,97.93L195.44,97.96L198.13,96.39z"/><path style="fill:#e4e9ed" d="M122.84,104.80L124.37,105.97L125.71,107.98L125.58,108.18L122.13,110.20L122.54,112.28L122.35,114.81L121.27,115.59L119.84,115.58L118.38,114.65L116.60,112.54L115.94,111.10L115.97,107.61L116.41,107.07L117.84,106.11L121.26,104.47z"/><path style="fill:#e4e9ed" d="M176.18,113.67L175.80,114.20L175.78,113.61L176.19,113.37z"/><path style="fill:#cdd1d5" d="M178.97,56.67L182.54,54.43L182.70,54.56L182.67,55.53L179.48,57.38L179.04,57.22z"/><path style="fill:#cdd1d5" d="M164.31,66.83L179.28,58.41L179.79,58.38L179.71,59.51L165.49,67.71L164.74,67.73L164.40,67.38z"/><path style="fill:#cdd1d5" d="M135.40,81.17L135.75,82.74L134.83,82.33L133.00,80.84L132.99,80.39L134.56,79.66z"/><path style="fill:#cdd1d5" d="M141.39,84.76L142.02,89.34L141.41,88.93L139.92,87.12L136.85,83.87L136.89,83.37L139.80,81.72L140.47,81.75z"/><path style="fill:#cdd1d5" d="M147.35,91.61L146.76,95.95L146.20,95.85L143.78,91.90L143.77,91.16L147.10,89.25z"/><path style="fill:#cdd1d5" d="M155.18,97.13L153.97,98.03L153.28,96.71L154.17,96.09L154.83,96.11z"/><path style="fill:#cdd1d5" d="M148.89,100.72L150.26,99.71L151.79,98.76L152.17,98.80L152.19,99.49L151.17,101.81L149.93,103.30L150.35,105.11L151.78,110.30L152.32,110.19L153.89,109.25L154.28,109.38L152.07,110.79L152.45,116.77L152.68,117.78L153.22,117.67L155.76,116.18L156.08,116.75L155.97,117.35L152.94,119.21L152.43,118.89L151.86,122.24L151.24,124.03L151.25,124.96L153.57,123.59L153.94,123.64L154.27,124.39L151.13,126.34L150.38,126.36L148.75,128.44L149.79,128.43L149.79,129.10L146.95,130.82L146.15,130.82L146.09,130.53L146.79,130.03L148.57,127.63L150.07,124.35L150.66,121.64L150.96,116.47L150.06,109.88L148.27,103.90L146.73,100.60L146.66,100.03L148.02,99.40z"/><path style="fill:#cdd1d5" d="M126.43,109.88L126.44,111.78L126.03,112.87L123.44,114.47L122.35,114.81L122.54,112.28L122.13,110.20L125.58,108.18L125.71,107.98L125.84,108.10z"/><path style="fill:#cdd1d5" d="M161.11,115.58L161.48,116.17L161.44,116.55L159.35,117.78L159.02,117.10L159.04,115.66L159.53,115.24L160.55,115.24z"/><path style="fill:#cdd1d5" d="M154.90,128.64L154.07,128.88L154.42,128.40L154.95,128.32z"/><path style="fill:#ffffff" d="M113.06,67.67L114.45,67.67L114.18,70.21L113.36,69.32z"/><path style="fill:#ffffff" d="M120.03,125.95L120.03,125.02L120.17,125.15z"/><g><g/><g><image x="15.159579" y="176.532700" height="30.794668" width="269.299408" xlink:href="UNI-U1700-ALT-UNIDAN_files/970c9001aebd98bc_image_0.jpg"/></g></g><g><g/><g><image x="0.798389" y="0.967741" height="40.937347" width="55.346039" xlink:href="UNI-U1700-ALT-UNIDAN_files/970c9001aebd98bc_image_1.jpg" mask="url(#mask1)"/></g></g><g id="Actor_.0"><g style="stroke:#000000;stroke-width:0.353"><path d="M191.98,104.30L191.91,104.10"/><path d="M192.30,103.86L192.31,103.91L192.46,104.01L192.68,104.01L192.93,103.91L193.20,103.71L193.45,103.44L193.66,103.13L193.72,103.00"/></g><g style="stroke:#000000;stroke-width:0.353"><path d="M191.80,104.16L191.98,104.30L192.20,104.44L192.51,104.44L192.88,104.29L193.27,104.01L193.63,103.62L193.93,103.17L194.12,102.75"/></g></g><g id="Actor_.1"><g style="stroke:#000000;stroke-width:0.353"><path d="M161.22,155.01L161.10,155.96L160.52,156.84L159.54,157.60L158.22,158.17L156.68,158.50L155.15,158.57L155.04,158.57L153.44,158.37L152.00,157.92L150.83,157.24L150.05,156.41L149.70,155.48"/><path d="M152.59,154.64L152.39,155.03L152.43,155.61L152.50,155.72"/><path d="M158.42,155.74L158.55,155.17L158.34,154.61"/></g><g style="stroke:#000000;stroke-width:0.353"><path d="M158.34,152.40L158.92,152.58L160.08,153.25L160.87,154.08L161.22,155.01L161.22,155.92L161.10,156.86L160.52,157.75L159.54,158.51L158.47,158.97L158.22,159.08L156.68,159.41L155.04,159.48L153.44,159.28L152.00,158.82L150.83,158.15L150.05,157.32L149.70,156.39L149.70,155.48L149.81,154.54L150.39,153.65L151.37,152.89L152.59,152.37"/><path d="M152.50,155.72L152.80,156.16L153.46,156.61L154.33,156.91L155.33,157.03L156.34,156.96L157.25,156.70L157.64,156.51L157.97,156.28L158.42,155.74"/></g></g><g id="Actor_.2"><g style="stroke:#000000;stroke-width:0.353"><path d="M97.16,65.03L96.42,64.93L95.88,65.15"/><path d="M99.68,67.48L99.64,67.38L98.95,66.35L98.11,65.53"/><path d="M100.11,69.68L100.27,69.77L100.11,70.56"/><path d="M100.75,69.32L100.27,69.60L100.11,69.51"/><path d="M100.27,69.60L100.11,68.64"/><path d="M100.27,69.77L100.90,69.41"/></g><g style="stroke:#000000;stroke-width:0.353"><path d="M95.84,65.15L96.38,64.84L97.05,64.56L97.87,64.68L98.75,65.17L99.58,65.98L100.26,67.01L100.60,67.84L100.72,68.14L100.90,69.24L100.75,69.32L100.90,69.41L100.72,70.30L100.26,70.90L100.11,70.99"/></g></g><g id="Actor_.3"><g style="stroke:#000000;stroke-width:0.353"><path d="M180.17,126.89L180.05,127.84L179.48,128.73L178.49,129.49L177.18,130.06L175.64,130.39L174.00,130.45L172.39,130.25L171.59,130.00L170.95,129.80L169.79,129.13L169.00,128.29L168.65,127.37"/><path d="M171.53,126.54L171.34,126.91L171.38,127.50L171.45,127.60"/><path d="M177.38,127.63L177.50,127.06L177.29,126.48"/></g><g style="stroke:#000000;stroke-width:0.353"><path d="M171.53,124.25L170.33,124.77L169.34,125.53L168.77,126.42L168.65,127.37L168.65,128.28L169.00,129.20L169.79,130.04L170.95,130.71L172.39,131.16L174.00,131.36L175.64,131.30L177.18,130.96L177.31,130.91L178.49,130.40L179.48,129.64L180.05,128.75L180.17,127.80L180.17,126.89L179.82,125.96L179.03,125.13L177.87,124.46L177.29,124.28"/><path d="M171.45,127.60L171.75,128.04L172.41,128.49L173.29,128.79L174.28,128.91L175.29,128.84L176.21,128.58L176.60,128.39L176.93,128.17L177.38,127.63"/></g></g><g id="Actor_.4"><g style="stroke:#000000;stroke-width:0.353"><path d="M128.22,63.93L128.00,63.59L126.99,62.52L125.90,61.79L124.84,61.47L124.54,61.51"/></g><g style="stroke:#000000;stroke-width:0.353"><path d="M130.03,65.44L129.62,64.43L128.79,63.13L127.78,62.06L126.69,61.34L125.62,61.02L124.69,61.14L124.22,61.41"/></g></g><g id="Actor_.5"><g style="stroke:#000000;stroke-width:0.353"><path d="M170.40,48.85L170.24,49.14L169.93,49.39L169.49,49.58L168.97,49.68L168.42,49.69L167.92,49.60L167.51,49.42L167.23,49.18L167.12,48.90"/><path d="M167.90,49.23L167.71,49.06L167.63,48.87L167.68,48.66L167.84,48.48L167.96,48.39L168.11,48.32L168.44,48.22L168.81,48.18L169.18,48.21L169.50,48.30L169.74,48.45L169.87,48.63L169.89,48.84L169.78,49.03L169.57,49.21L169.26,49.33L168.90,49.41L168.53,49.41L168.18,49.35L167.90,49.23"/></g><g style="stroke:#000000;stroke-width:0.353"><path d="M170.65,53.74L170.40,48.85L170.38,48.56L170.18,48.29L169.83,48.08L169.37,47.95L168.83,47.90L168.30,47.96L167.81,48.11L167.60,48.21L167.42,48.33L167.19,48.60L167.12,48.90L167.31,52.78"/></g></g><g id="Actor_.6"><g style="stroke:#000000;stroke-width:0.353"><path d="M100.32,71.47L100.91,70.93L101.22,70.07L101.26,69.53L101.22,68.96L100.91,67.73L100.32,66.51L99.52,65.44L98.59,64.63L97.63,64.17L96.75,64.11L96.04,64.45"/></g><g style="stroke:#000000;stroke-width:0.353"><path d="M99.53,71.61L100.32,71.47L100.96,71.10L101.55,70.56L101.86,69.70L101.90,69.16L101.86,68.59L101.55,67.36L100.96,66.14L100.16,65.07L99.23,64.26L98.27,63.80L97.39,63.74L96.69,64.08L96.04,64.45L95.59,65.17"/></g></g><g id="Actor_.7"><g style="stroke:#000000;stroke-width:0.353"><path d="M116.92,65.68L117.89,65.67L118.97,66.10L120.06,66.92L121.03,68.05L121.81,69.40L121.90,69.67L122.30,70.81L122.47,72.16L122.30,73.31L121.81,74.15"/><path d="M121.03,74.59L121.26,74.46"/></g><g style="stroke:#000000;stroke-width:0.353"><path d="M116.92,65.68L117.47,65.36L116.14,66.13L115.65,66.97L115.62,67.11"/><path d="M116.93,65.67L116.36,66.00"/><path d="M117.47,65.36L117.70,65.23L118.68,65.21L119.76,65.64L120.84,66.46L121.82,67.60L122.59,68.94L123.09,70.35L123.26,71.70L123.09,72.85L122.59,73.69L121.26,74.46"/><path d="M121.03,74.59L120.06,74.60L119.92,74.55"/><path d="M122.08,73.99L122.59,73.69L121.50,74.32"/></g></g><g id="Actor_.8"><g style="stroke:#000000;stroke-width:0.353"><path d="M128.83,63.19L128.81,63.10L130.94,61.88L130.27,61.26L129.59,60.81L128.80,60.42L128.30,60.23"/><path d="M128.81,63.10L128.74,63.08"/><path d="M133.05,64.90L132.93,64.07L132.64,63.20L132.21,62.36L131.67,61.59L131.04,60.94L130.38,60.46"/><path d="M131.47,66.61L132.54,66.00L132.30,64.77L131.99,63.79L131.57,62.88L130.94,61.88"/><path d="M131.97,67.02L132.30,66.50L132.54,66.00"/></g><g style="stroke:#000000;stroke-width:0.353"><path d="M125.89,61.10L127.74,60.03L128.30,60.23"/><path d="M128.30,60.23L128.93,60.06L129.04,60.07L129.67,60.15L130.34,60.44L130.41,60.47L131.07,60.95L131.69,61.59L132.22,62.35L132.65,63.19L132.93,64.04L133.05,64.87L133.05,64.94L133.01,65.70L132.80,66.32L132.76,66.41L132.39,66.87L132.31,66.94L132.06,67.09"/></g></g><g id="Actor_.9"><g style="stroke:#000000;stroke-width:0.353"><path d="M112.58,80.19L113.38,79.47L115.61,78.12L115.64,77.63L116.02,77.89L115.61,78.12"/><path d="M113.38,79.47L115.34,78.36L117.47,77.72L119.92,77.48L122.46,77.73L125.12,78.42L127.85,79.56L130.61,81.11L133.34,83.07L136.01,85.38L138.58,88.03L141.00,90.95L143.22,94.12L145.22,97.46L146.96,100.93L148.41,104.44L149.56,108.03L150.37,111.54L150.84,114.95L150.96,118.19L150.72,121.23L150.14,124.00L149.21,126.47L147.97,128.58L146.41,130.31L144.58,131.64L142.76,132.42"/><path d="M115.97,111.11L116.76,112.88L117.68,114.10L118.74,115.03L119.83,115.60L120.79,115.73L121.70,115.43L122.30,114.72L122.58,113.66L122.53,112.36L122.13,110.95L121.45,109.58L120.53,108.36L119.47,107.42L118.38,106.85L117.35,106.72L116.50,107.02L115.91,107.74L115.62,108.79L115.68,110.09L115.97,111.11"/><path d="M115.64,77.63L119.24,75.56L120.87,76.69L118.99,76.85L116.80,77.52L116.02,77.89"/><path d="M120.44,104.75L116.50,107.02"/><path d="M123.70,61.44L119.62,63.80"/><path d="M119.14,63.84L120.10,63.76L120.37,63.84"/><path d="M125.64,113.16L121.70,115.43"/><path d="M120.87,76.69L121.70,76.65L121.88,76.29L122.23,76.67L123.92,76.88L126.58,77.58L128.90,78.52L132.06,80.27L134.80,82.22L136.13,83.33L135.66,81.93L134.38,79.03L132.85,76.22L129.20,78.33L129.48,78.80"/><path d="M121.70,76.65L122.23,76.67"/><path d="M121.88,76.29L125.20,74.36"/><path d="M123.10,70.45L123.29,69.64L123.18,68.91L122.88,68.16L122.25,67.26"/><path d="M125.20,67.18L127.42,69.00"/><path d="M128.90,78.52L127.53,76.55L125.67,74.35"/><path d="M125.37,61.80L126.34,62.42L127.98,63.76"/><path d="M128.93,78.50L129.20,78.33"/><path d="M131.64,72.44L136.46,76.38L139.04,78.28L141.55,80.46L143.98,82.91L146.26,85.56L147.76,84.76L145.44,82.07L143.01,79.62L140.49,77.43L137.92,75.54"/><path d="M131.30,66.47L142.11,75.31L139.64,76.81"/><path d="M136.16,83.36L136.31,83.48L136.74,83.52L140.38,81.41L139.63,81.41L136.19,83.38"/><path d="M140.38,81.41L141.25,84.33L141.82,87.19L142.05,89.62L140.04,87.19L136.35,83.51"/><path d="M136.74,83.52L136.91,84.02"/><path d="M140.09,61.66L142.29,60.89L144.70,60.56L147.27,60.68L149.96,61.24L152.67,62.22L155.56,63.67L158.38,65.50L161.16,67.71L164.01,70.44L166.42,73.10L168.82,76.20L171.02,79.52L172.99,83.00L174.69,86.59L175.44,88.40L176.11,90.23L177.21,93.87L177.98,97.45L178.41,100.93L178.50,104.24L178.24,107.34L177.64,110.18L176.70,112.72L175.44,114.91L173.87,116.73L172.04,118.15"/><path d="M139.66,61.93L141.71,61.21L144.07,60.89L146.63,61.00L149.37,61.56L152.15,62.57L154.97,64.00L157.80,65.83L160.58,68.03L162.86,70.19L161.49,68.89"/><path d="M142.05,89.62L142.91,90.72L146.35,88.73L147.22,89.12L147.32,91.79L147.10,94.27L146.59,96.46L144.68,93.27L143.61,91.69L143.57,91.22L143.14,91.03L143.61,91.69"/><path d="M142.91,90.72L143.14,91.03"/><path d="M143.57,91.22L147.22,89.12"/><path d="M145.81,130.93L146.19,131.18L146.22,130.69L144.58,131.64"/><path d="M146.22,130.69L147.87,129.47L148.26,129.04L149.89,128.10L149.84,129.07L146.19,131.18"/><path d="M146.02,130.81L146.04,130.79"/><path d="M148.45,100.16L148.88,100.52L148.78,100.90L146.59,96.46"/><path d="M146.30,85.60L148.47,88.50L150.47,91.56L152.28,94.75L153.87,98.04L163.51,116.08L164.12,117.50L164.43,118.89L164.44,120.19L164.12,121.23L163.51,121.95L153.87,128.86L152.15,130.41L150.17,131.56"/><path d="M148.26,129.04L149.39,127.78L149.89,128.10"/><path d="M148.22,99.68L151.67,97.69L152.52,98.42L148.88,100.52"/><path d="M155.33,97.20L153.74,93.91L151.93,90.72L149.93,87.66L147.76,84.76"/><path d="M148.40,59.33L149.61,59.39L152.30,59.95L155.07,60.95L157.89,62.38L159.58,63.43L173.99,55.44L173.86,55.32"/><path d="M149.42,127.75L150.46,126.05L150.59,126.60L150.22,126.51"/><path d="M148.78,100.90L149.84,103.53L150.87,102.32L151.82,100.55L152.52,98.42"/><path d="M149.52,59.38L153.89,56.87"/><path d="M150.46,126.05L150.83,125.21L153.99,123.38L151.71,122.62L150.83,125.21"/><path d="M150.59,126.60L154.23,124.50L153.99,123.38"/><path d="M151.50,109.18L154.93,107.20L155.66,108.18L154.28,109.46L151.85,110.86L151.80,110.53L152.02,110.29L151.65,109.80L151.02,107.19L149.84,103.53"/><path d="M151.63,130.72L151.61,130.73"/><path d="M151.71,122.62L152.30,119.43L152.61,119.35L152.35,118.79L152.30,119.43"/><path d="M151.80,110.53L151.65,109.80"/><path d="M151.02,59.68L163.43,52.51"/><path d="M152.61,119.35L156.26,117.24L155.74,116.13L153.93,116.41L152.38,116.34L152.35,118.79"/><path d="M152.38,118.06L155.74,116.13"/><path d="M152.38,116.34L152.30,114.10L151.85,110.86"/><path d="M152.02,110.29L155.66,108.18"/><path d="M154.29,128.96L155.33,128.02"/><path d="M154.84,128.46L156.86,127.29"/><path d="M156.84,127.30L167.59,119.59L168.19,118.89L168.52,117.85L168.52,116.55L168.21,115.20L167.59,113.72L156.85,93.62L154.31,95.09"/><path d="M159.49,118.24L159.12,117.51L158.91,116.76L158.89,116.07L159.06,115.56L159.42,115.18L159.90,115.07L160.40,115.20L161.00,115.56L161.59,116.16L161.91,116.67L162.35,117.78L162.43,118.28L162.35,118.96L162.10,119.40L161.67,119.64L161.14,119.63L160.56,119.36L159.99,118.89L159.49,118.24"/><path d="M176.78,94.87L177.08,96.28L176.06,92.06L174.81,88.46L173.27,84.88L171.44,81.39L169.37,78.03L167.08,74.87L164.60,71.95L162.86,70.19"/><path d="M163.52,70.86L165.84,73.43L168.24,76.53L170.45,79.85L172.41,83.33L174.12,86.92L175.53,90.56L176.45,93.61"/><path d="M168.52,117.19L164.44,119.55"/><path d="M179.61,59.51L165.12,67.87L164.09,66.94L180.04,57.98"/><path d="M165.08,67.90L166.17,68.94L168.73,71.78L171.13,74.88L173.32,78.19L175.29,81.67L176.99,85.25L178.40,88.89L179.50,92.52L180.27,96.09L180.70,99.56L180.79,102.87L180.53,105.96L180.09,108.19L195.83,98.67L195.26,100.37"/><path d="M168.52,117.53L168.64,117.14L168.63,115.94L168.30,114.62L167.71,113.33L166.60,111.88"/><path d="M171.72,118.29L173.30,117.08L174.86,115.26L176.12,113.06L177.06,110.53L177.67,107.69L177.93,104.59L177.84,101.27L177.41,97.79L177.08,96.28"/><path d="M174.19,55.33L174.02,55.42"/><path d="M177.44,86.42L192.11,77.95"/><path d="M179.37,57.39L177.65,56.02"/><path d="M180.59,105.21L194.28,97.31"/><path d="M195.83,98.67L195.15,98.07"/></g><g style="stroke:#000000;stroke-width:0.353"><path d="M114.65,74.64L113.34,78.45L112.58,80.19L111.69,81.00L110.28,82.93L109.19,85.22L108.44,87.85L108.03,90.76L107.97,93.90L108.32,97.57"/><path d="M128.12,63.87L127.02,62.71L125.98,62.00L124.18,61.40L123.22,61.49L119.10,63.87"/><path d="M174.19,55.33L175.63,54.53L177.65,56.02L181.54,53.77L181.97,53.79L182.60,54.44L182.78,55.07L182.64,55.51L179.37,57.39L180.04,57.98L179.61,59.51L182.16,62.02L184.57,64.82L186.81,67.86L188.84,71.11L190.59,74.44L192.11,77.95L193.31,81.44L194.19,84.90L194.73,88.27L194.93,91.50L194.78,94.44L194.28,97.31L195.15,98.07L198.27,96.34L198.74,96.55L199.14,97.07L199.31,97.68L199.17,98.12L195.26,100.37L194.30,102.65L178.53,112.22L177.73,113.51L176.21,115.29L174.34,116.74L154.29,128.96L153.60,129.57L150.17,131.56L147.98,132.29L145.59,132.60L142.76,132.42L140.21,132.96L137.74,132.95L135.13,132.48L132.43,131.56L129.69,130.21L126.93,128.46L125.61,127.41"/><path d="M128.73,64.37L131.30,66.47"/><path d="M148.40,59.33L147.05,59.27L144.65,59.60L142.46,60.37L133.02,65.53"/><path d="M148.40,59.33L153.56,56.50L153.89,56.87L159.42,53.67L161.33,52.90L163.43,52.51L165.68,52.51L168.04,52.90L170.49,53.67L172.99,54.81L173.86,55.32"/><path d="M173.86,55.32L174.19,55.33"/></g></g><g id="Actor_.10"><g style="stroke:#000000;stroke-width:0.353"><path d="M100.11,69.19L100.11,68.02L98.56,68.92L98.39,69.90L98.34,70.67L98.26,69.90L98.02,69.07L97.62,68.25L96.61,66.80L96.12,65.88L95.31,66.04L94.69,66.12L94.20,66.26L93.80,66.63L93.55,67.17L93.47,67.85L93.55,68.62L93.79,69.45L94.19,70.27L94.69,71.00L95.27,71.61L95.90,72.08L96.54,72.35L97.12,72.40L97.62,72.25L98.02,71.89L98.26,71.34L98.34,70.67L98.39,71.39L98.56,72.17"/><path d="M93.68,66.10L94.18,66.14L94.69,66.12L95.27,66.17L95.91,66.44L96.54,66.91L97.73,68.19L98.56,68.92"/><path d="M96.12,65.88L97.68,64.99"/><path d="M98.15,65.58L100.11,68.02"/><path d="M120.83,56.55L120.75,55.96L120.52,55.34L120.17,54.76L119.88,54.44L119.73,54.29L119.25,53.96"/></g><g style="stroke:#000000;stroke-width:0.353"><path d="M100.11,69.19L100.11,71.27L98.56,72.17L97.73,72.33L97.12,72.40L96.61,72.43L96.12,72.39L95.31,71.67L94.69,71.00L94.17,70.27L93.68,69.35L93.51,68.57L93.47,67.85L93.52,67.06L93.68,66.10L95.24,65.20L97.68,64.99L98.15,65.58"/><path d="M117.19,54.59L118.38,53.90L118.79,53.83L119.25,53.96L119.89,54.37L120.27,54.78L120.57,55.27L120.76,55.80L120.83,56.30L120.83,56.55L120.75,57.05L120.52,57.41L119.26,58.14"/></g></g><g id="Actor_.11"><g style="stroke:#000000;stroke-width:0.353"><path d="M116.91,54.36L117.54,54.87L118.12,55.53L118.62,56.30L119.00,57.12L119.23,57.95L119.31,58.75"/></g><g style="stroke:#000000;stroke-width:0.353"><path d="M101.79,61.60L114.97,53.99L115.57,53.89L116.24,54.02L116.92,54.37L117.55,54.88L118.13,55.53L118.63,56.29L119.00,57.11L119.24,57.94L119.31,58.76L119.23,59.45L118.96,60.06L118.54,60.48L112.35,64.05"/></g></g><g id="Actor_.12"><g style="stroke:#000000;stroke-width:0.353"><path d="M152.12,161.00L152.12,158.86"/><path d="M152.59,155.73L152.56,155.80"/><path d="M152.58,155.83L152.59,155.77L152.59,154.17"/><path d="M157.19,161.54L157.19,159.30"/><path d="M158.34,155.77L158.36,155.83"/><path d="M158.34,155.85L158.34,153.89"/></g><g style="stroke:#000000;stroke-width:0.353"><path d="M160.53,157.74L160.53,159.27L159.63,160.14L158.86,160.73L158.10,161.17L157.20,161.53L155.84,161.65L154.65,161.60L153.49,161.40L152.12,161.00L151.65,160.50L151.25,159.93L150.85,159.21L150.38,158.20L150.38,157.67"/><path d="M152.59,154.17L152.58,130.16"/><path d="M158.34,153.89L158.34,126.49"/></g></g><g id="Actor_.13"><g style="stroke:#000000;stroke-width:0.353"><path d="M119.47,127.57L119.96,126.75L120.13,125.62L119.98,124.50"/></g><g style="stroke:#000000;stroke-width:0.353"><path d="M119.52,127.54L119.11,127.78"/><path d="M119.52,127.54L119.12,127.77"/><path d="M119.52,127.54L119.12,127.77"/></g></g><g id="Actor_.14"><g style="stroke:#000000;stroke-width:0.353"><path d="M116.77,128.05L116.60,127.26L116.55,126.55L116.47,125.78L116.23,124.95L115.83,124.13L115.33,123.40L115.94,124.07L116.77,124.79L116.60,125.77L116.55,126.55L116.47,127.22L116.23,127.76L115.83,128.13L115.33,128.28L114.75,128.22L114.11,127.95L113.48,127.49L112.89,126.87L112.39,126.14L112.00,125.33L111.76,124.50L111.67,123.73L111.76,123.04L112.01,122.50L112.40,122.14L112.89,121.99L112.39,122.01L111.89,121.98"/><path d="M112.89,121.99L113.50,121.92L114.33,121.76L114.82,122.68L115.33,123.40L114.75,122.79L114.11,122.32L113.48,122.05L112.89,121.99"/><path d="M114.33,121.76L115.88,120.86"/><path d="M116.77,124.79L118.32,123.90L116.23,121.30"/><path d="M118.32,123.90L118.32,125.32"/></g><g style="stroke:#000000;stroke-width:0.353"><path d="M118.32,125.32L118.32,127.15L116.77,128.05L115.94,128.20L115.33,128.28L114.82,128.30L114.33,128.26L113.50,127.54L112.89,126.87L112.38,126.15L111.89,125.23L111.72,124.45L111.67,123.73L111.72,122.94L111.89,121.98L113.44,121.08L115.88,120.86L116.23,121.30"/></g></g><g id="Actor_.15"><g style="stroke:#000000;stroke-width:0.353"><path d="M112.07,91.95L113.77,91.26L115.68,91.01L117.76,91.22L119.94,91.87L122.17,92.96L124.39,94.44L125.23,95.16L126.59,96.32L128.66,98.51L130.57,100.97L132.27,103.63L133.73,106.44L134.90,109.33L135.76,112.21L136.28,115.03L136.46,117.72L136.28,120.19L135.75,122.41L134.90,124.31L133.72,125.83L132.27,126.96"/><path d="M114.74,90.87L116.27,90.67L118.34,90.88L120.52,91.54L122.76,92.62L124.99,94.12L127.17,95.98L129.24,98.17L131.15,100.63L132.86,103.30L134.31,106.11L135.48,108.99L136.34,111.88L136.86,114.70L137.04,117.38L136.86,119.86L136.34,122.07L135.48,123.97L134.55,125.18"/><path d="M117.97,106.17L117.97,105.32L118.27,104.11L118.84,103.18L119.66,102.59L120.67,102.37L121.69,102.51L120.79,102.12L119.46,101.92L118.30,102.18L117.36,102.85L116.71,103.91L116.37,105.30L116.37,106.92L116.41,107.13"/><path d="M116.44,89.43L118.15,88.73L120.06,88.48L122.13,88.69L124.31,89.35L126.55,90.44L128.78,91.93L130.96,93.80L133.03,95.98L134.94,98.44L136.65,101.11L138.10,103.92L139.28,106.80L140.13,109.69L140.65,112.51L140.83,115.19L140.65,117.67L140.13,119.88L139.27,121.78L138.10,123.31L136.64,124.44"/><path d="M121.30,115.58L122.16,116.20L123.56,116.81L124.88,116.99L126.03,116.74L126.97,116.06L127.62,115.00L127.96,113.62L127.96,113.19L127.81,113.80L127.24,114.73L126.42,115.32L125.41,115.54L124.26,115.38L123.04,114.84L122.90,114.74"/><path d="M121.69,102.51L122.17,102.72L123.57,103.72L124.88,105.06L126.04,106.65L126.97,108.41L127.62,110.22L127.96,111.99L127.96,113.19"/></g><g style="stroke:#000000;stroke-width:0.353"><path d="M134.55,125.18L134.31,125.50L132.85,126.63L132.27,126.96L130.56,127.66L128.65,127.91L126.58,127.70L124.39,127.04L122.16,125.95L119.92,124.46L117.74,122.60L115.67,120.41L113.76,117.95L112.06,115.28L110.60,112.47L109.43,109.59L108.57,106.70L108.05,103.88L107.88,101.20L108.05,98.72L108.58,96.51L109.44,94.61L110.61,93.08L112.07,91.95L112.65,91.62L114.35,90.92L114.74,90.87"/><path d="M134.55,125.18L134.93,125.13L136.62,124.44L137.81,123.76L139.26,122.64L140.43,121.11L140.74,120.43L141.29,119.21L141.82,117.00L142.00,114.52L141.82,111.83L141.30,109.01L140.44,106.13L139.27,103.24L137.82,100.43L136.12,97.78L134.20,95.31L132.13,93.12L129.95,91.26L127.71,89.76L125.48,88.67L123.30,88.02L121.22,87.81L119.31,88.06L117.61,88.76L116.44,89.43L114.98,90.56L114.74,90.87"/></g></g><g id="Actor_.16"><g style="stroke:#000000;stroke-width:0.353"><path d="M112.60,120.60L112.64,120.16L112.73,119.83L112.86,119.39L113.02,119.12L113.23,118.77L113.44,118.56L113.73,118.32L113.96,118.20"/><path d="M117.31,132.75L117.31,132.03"/><path d="M117.72,133.46L120.78,135.23"/><path d="M120.01,124.51L120.15,125.64L119.98,126.77L119.49,127.60L118.94,127.91"/><path d="M119.17,127.78L119.49,127.60"/><path d="M121.19,134.99L121.19,126.13"/><path d="M121.68,135.17L127.23,131.96"/><path d="M130.88,130.80L127.16,132.01"/><path d="M127.23,131.52L127.08,131.46L127.03,131.63"/><path d="M127.08,131.46L127.10,128.89L127.10,129.44"/><path d="M127.63,128.90L127.10,129.07"/><path d="M127.10,129.21L127.10,128.89L127.10,129.32"/><path d="M127.10,128.89L127.10,128.56L127.10,128.94"/><path d="M127.10,129.47L127.10,129.27"/><path d="M127.10,128.89L127.10,128.56L127.10,128.89"/></g><g style="stroke:#000000;stroke-width:0.353"><path d="M113.82,118.03L113.33,118.48L112.87,119.29L112.64,120.08L112.59,120.62"/><path d="M130.90,130.81L127.12,132.04L121.53,135.26L121.34,135.33L120.99,135.32L120.85,135.26L117.66,133.42L117.55,133.34L117.45,133.23L117.38,133.10L117.33,132.96L117.31,132.83L117.31,132.03L117.29,131.78L117.21,131.52L117.09,131.25L115.44,128.27"/></g></g><g id="Actor_.17"><g style="stroke:#000000;stroke-width:0.353"><path d="M171.24,130.80L171.24,132.97"/><path d="M171.53,127.64L171.51,127.69"/><path d="M171.53,127.71L171.53,126.02"/><path d="M176.36,133.37L176.36,131.14"/><path d="M177.32,127.71L177.29,127.64"/><path d="M177.29,125.71L177.29,127.74"/></g><g style="stroke:#000000;stroke-width:0.353"><path d="M169.30,129.52L169.30,130.21L169.83,131.21L170.27,131.91L170.72,132.47L171.24,132.97L172.63,133.33L173.80,133.50L174.99,133.52L176.36,133.37L177.22,132.99L177.94,132.52L178.66,131.91L179.52,131.02L179.52,129.57"/><path d="M171.53,118.44L171.53,126.02"/><path d="M177.29,114.03L177.29,125.71"/></g></g><g id="Actor_.18"><g style="stroke:#000000;stroke-width:0.353"><path d="M121.65,71.44L121.65,69.92L119.80,70.99L119.62,72.08L119.56,72.94L119.47,73.69L119.20,74.30L118.76,74.71L118.20,74.88L117.55,74.81L116.84,74.51L116.13,73.99L115.48,73.31L114.92,72.49L114.48,71.58L114.21,70.65L114.12,69.80L114.21,69.03L114.49,68.43L114.92,68.03L115.48,67.86L114.91,67.89L114.36,67.84"/><path d="M119.80,74.61L119.62,73.74L119.56,72.94L119.47,72.08L119.20,71.16L118.76,70.25L118.20,69.43L117.55,68.75L116.84,68.23L116.13,67.92L115.48,67.86L116.16,67.77L117.08,67.60L117.63,68.63L118.20,69.43L118.88,70.18L119.80,70.99"/><path d="M117.08,67.60L118.93,66.53"/><path d="M119.36,67.06L121.65,69.92"/></g><g style="stroke:#000000;stroke-width:0.353"><path d="M121.65,71.44L121.65,73.55L119.80,74.61L118.88,74.79L118.20,74.88L117.63,74.90L117.08,74.86L116.16,74.05L115.48,73.31L114.91,72.50L114.36,71.47L114.17,70.60L114.12,69.80L114.17,68.92L114.36,67.84L116.21,66.78L118.93,66.53L119.36,67.06"/></g></g><g id="Actor_.19"><g style="stroke:#000000;stroke-width:0.353"><path d="M115.23,119.84L114.40,119.59L113.46,119.71"/><path d="M118.01,128.48L118.72,127.93L119.14,127.00L119.22,125.79L118.97,124.41L118.49,123.23"/></g><g style="stroke:#000000;stroke-width:0.353"><path d="M114.73,119.19L114.25,119.25L113.46,119.71L112.75,120.26L112.33,121.19L112.29,121.74"/><path d="M119.84,124.38L120.01,125.33L119.93,126.55L119.51,127.47L118.80,128.02L118.01,128.48L117.08,128.60L116.01,128.28L115.90,128.21"/></g></g><g id="Actor_.20"><g style="stroke:#000000;stroke-width:0.353"><path d="M95.50,62.81L95.85,62.72L105.96,62.45L106.23,62.47L106.39,62.53L106.45,62.64L106.41,64.72L106.54,64.96L106.90,65.11L107.50,65.14L125.68,64.66L126.10,64.74L126.53,64.97L126.96,65.35L127.93,66.58L128.76,67.95L129.40,69.41L131.15,68.40"/><path d="M106.31,62.50L106.45,62.87"/><path d="M106.72,65.03L110.16,74.63"/><path d="M109.05,72.06L106.41,64.72"/><path d="M109.60,64.12L108.97,64.12L108.81,64.05L108.75,63.94L108.79,61.86"/><path d="M113.05,67.50L112.25,67.52L111.79,67.65L111.47,67.99L111.30,68.51L111.31,69.16L111.49,69.88L111.82,70.59L112.28,71.23L112.81,71.74L113.37,72.05L113.91,72.15L114.71,72.13"/><path d="M127.82,70.82L127.66,71.34L127.33,71.69L126.88,71.81L123.23,71.91"/><path d="M126.32,64.85L128.07,63.84"/><path d="M129.61,74.04L131.36,73.03"/><path d="M129.48,74.17L129.74,73.91L129.89,73.52L129.97,72.26L129.81,70.87L129.40,69.41"/></g><g style="stroke:#000000;stroke-width:0.353"><path d="M109.60,64.12L108.79,61.86L108.67,61.62L108.30,61.48L107.71,61.44L97.60,61.71L97.25,61.80L95.50,62.81L95.24,63.07L95.10,63.46L95.01,64.72L95.08,65.29"/><path d="M98.65,72.12L98.89,72.24L99.30,72.32L109.05,72.06"/><path d="M109.05,72.06L109.86,74.32L109.98,74.56L110.35,74.70L110.94,74.74L116.77,74.59"/><path d="M109.60,64.12L127.43,63.65L127.85,63.73L128.28,63.96L128.71,64.34L129.68,65.57L130.51,66.94L131.15,68.40L131.56,69.86L131.72,71.25L131.64,72.51L131.49,72.90L131.23,73.16L129.48,74.17L129.13,74.26L121.25,74.47"/><path d="M115.04,67.45L113.05,67.50L113.06,68.15L113.24,68.87L113.57,69.58L114.03,70.22L114.15,70.34"/><path d="M121.54,67.28L125.22,67.18L125.75,67.28L126.31,67.60L126.85,68.10L127.30,68.74L127.64,69.45L127.82,70.17L127.82,70.82L123.16,70.95"/></g></g><g/><g><g/><g><path style="fill:#000000" d="M237.70,186.24L238.75,186.24L238.75,184.43L238.75,184.43L238.70,184.42L238.65,184.42L238.59,184.41L238.51,184.40L238.43,184.40L238.34,184.39L238.24,184.38L238.14,184.38L238.02,184.37L237.90,184.36L237.78,184.36L237.65,184.35L237.51,184.35L237.37,184.35L237.23,184.35L237.23,184.35L236.94,184.36L236.66,184.40L236.39,184.46L236.14,184.55L235.91,184.66L235.69,184.79L235.49,184.95L235.32,185.13L235.16,185.34L235.02,185.56L234.91,185.81L234.82,186.08L234.75,186.38L234.71,186.69L234.70,187.03L234.70,188.62L233.05,188.62L233.05,190.65L234.70,190.65L234.70,195.75L236.73,195.75L236.73,190.65L238.32,190.65L238.57,188.62L236.73,188.62L236.73,187.23L236.73,187.23L236.73,187.11L236.74,187.00L236.75,186.90L236.77,186.80L236.80,186.71L236.84,186.63L236.88,186.55L236.94,186.48L237.01,186.42L237.09,186.37L237.18,186.32L237.29,186.29L237.41,186.26L237.55,186.25L237.70,186.24z"/></g></g><g><g/><g><path style="fill:#ffffff" d="M242.36,185.42L251.36,185.42L251.36,194.42L242.36,194.42z"/><path style="fill:#000000;fill-rule:evenodd" d="M251.11,188.16L251.11,188.16L251.11,188.07L251.10,187.98L251.09,187.90L251.08,187.82L251.07,187.75L251.06,187.68L251.05,187.60L251.04,187.54L251.02,187.47L251.01,187.41L250.99,187.35L250.97,187.29L250.95,187.23L250.93,187.18L250.91,187.12L250.91,187.12L250.89,187.06L250.87,187.01L250.84,186.95L250.81,186.90L250.79,186.84L250.76,186.79L250.72,186.74L250.69,186.69L250.66,186.64L250.62,186.59L250.58,186.54L250.54,186.50L250.50,186.45L250.46,186.41L250.42,186.36L250.42,186.36L250.38,186.32L250.33,186.28L250.28,186.24L250.24,186.20L250.19,186.16L250.14,186.13L250.09,186.09L250.04,186.06L249.99,186.03L249.94,186.00L249.88,185.97L249.83,185.94L249.77,185.92L249.72,185.89L249.66,185.87L249.66,185.87L249.61,185.85L249.55,185.83L249.49,185.81L249.43,185.79L249.37,185.78L249.31,185.76L249.24,185.75L249.18,185.73L249.11,185.72L249.03,185.71L248.96,185.70L248.88,185.69L248.80,185.68L248.71,185.68L248.62,185.67L248.62,185.67L248.54,185.67L248.45,185.66L248.38,185.66L248.30,185.66L248.22,185.65L248.14,185.65L248.05,185.65L247.96,185.65L247.85,185.65L247.73,185.65L247.60,185.65L247.45,185.65L247.27,185.64L247.08,185.64L246.86,185.64L246.86,185.64L246.64,185.64L246.45,185.64L246.27,185.65L246.12,185.65L245.99,185.65L245.87,185.65L245.76,185.65L245.67,185.65L245.58,185.65L245.50,185.65L245.42,185.66L245.34,185.66L245.27,185.66L245.19,185.67L245.10,185.67L245.10,185.67L245.01,185.67L244.92,185.68L244.84,185.69L244.76,185.70L244.69,185.71L244.61,185.72L244.54,185.73L244.48,185.74L244.41,185.76L244.35,185.77L244.29,185.79L244.23,185.81L244.17,185.83L244.12,185.85L244.06,185.87L244.06,185.87L244.00,185.89L243.95,185.91L243.89,185.94L243.84,185.97L243.78,186.00L243.73,186.03L243.68,186.06L243.63,186.09L243.58,186.13L243.53,186.16L243.48,186.20L243.44,186.24L243.39,186.28L243.35,186.32L243.30,186.36L243.30,186.36L243.26,186.41L243.22,186.45L243.18,186.50L243.14,186.54L243.10,186.59L243.07,186.64L243.03,186.69L243.00,186.74L242.97,186.79L242.94,186.84L242.91,186.90L242.88,186.95L242.86,187.01L242.83,187.06L242.81,187.12L242.81,187.12L242.79,187.17L242.77,187.23L242.75,187.29L242.73,187.35L242.72,187.41L242.70,187.47L242.68,187.54L242.67,187.60L242.66,187.67L242.65,187.75L242.64,187.82L242.63,187.90L242.62,187.98L242.62,188.07L242.61,188.16L242.61,188.16L242.61,188.24L242.60,188.33L242.60,188.40L242.60,188.48L242.59,188.56L242.59,188.64L242.59,188.73L242.59,188.82L242.59,188.93L242.59,189.05L242.58,189.18L242.58,189.34L242.58,189.51L242.58,189.70L242.58,189.92L242.58,189.92L242.58,190.14L242.58,190.33L242.58,190.51L242.58,190.66L242.59,190.79L242.59,190.91L242.59,191.02L242.59,191.11L242.59,191.20L242.59,191.28L242.60,191.36L242.60,191.44L242.60,191.51L242.60,191.60L242.61,191.68L242.61,191.68L242.61,191.77L242.62,191.86L242.63,191.94L242.64,192.02L242.65,192.09L242.66,192.17L242.67,192.24L242.68,192.30L242.70,192.37L242.71,192.43L242.73,192.49L242.75,192.55L242.77,192.61L242.79,192.67L242.81,192.72L242.81,192.72L242.83,192.78L242.85,192.83L242.88,192.89L242.91,192.94L242.94,193.00L242.97,193.05L243.00,193.10L243.03,193.15L243.07,193.20L243.10,193.25L243.14,193.30L243.18,193.35L243.22,193.39L243.26,193.44L243.30,193.48L243.30,193.48L243.35,193.52L243.39,193.56L243.44,193.60L243.48,193.64L243.53,193.68L243.58,193.72L243.63,193.75L243.68,193.78L243.73,193.82L243.78,193.85L243.84,193.87L243.89,193.90L243.95,193.93L244.00,193.95L244.06,193.97L244.06,193.97L244.11,193.99L244.17,194.01L244.23,194.03L244.29,194.05L244.35,194.07L244.41,194.08L244.48,194.10L244.54,194.11L244.61,194.12L244.69,194.13L244.76,194.14L244.84,194.15L244.92,194.16L245.01,194.17L245.10,194.17L245.10,194.17L245.18,194.17L245.27,194.18L245.34,194.18L245.42,194.18L245.50,194.19L245.58,194.19L245.67,194.19L245.76,194.19L245.87,194.19L245.99,194.19L246.12,194.19L246.27,194.20L246.45,194.20L246.64,194.20L246.86,194.20L246.86,194.20L247.08,194.20L247.27,194.20L247.44,194.20L247.60,194.19L247.73,194.19L247.85,194.19L247.96,194.19L248.05,194.19L248.14,194.19L248.22,194.19L248.30,194.18L248.37,194.18L248.45,194.18L248.53,194.17L248.62,194.17L248.62,194.17L248.71,194.17L248.80,194.16L248.88,194.15L248.96,194.14L249.03,194.13L249.10,194.12L249.17,194.11L249.24,194.10L249.31,194.08L249.37,194.07L249.43,194.05L249.49,194.03L249.55,194.01L249.60,193.99L249.66,193.97L249.66,193.97L249.77,193.92L249.88,193.87L249.99,193.81L250.09,193.75L250.19,193.68L250.28,193.60L250.37,193.52L250.46,193.44L250.54,193.35L250.61,193.25L250.68,193.15L250.75,193.05L250.81,192.94L250.86,192.83L250.91,192.72L250.91,192.72L250.93,192.67L250.95,192.61L250.97,192.55L250.99,192.49L251.00,192.43L251.02,192.37L251.03,192.30L251.05,192.24L251.06,192.17L251.07,192.09L251.08,192.02L251.09,191.94L251.10,191.86L251.10,191.77L251.11,191.68L251.11,191.68L251.11,191.60L251.12,191.51L251.12,191.44L251.12,191.36L251.12,191.28L251.13,191.20L251.13,191.11L251.13,191.02L251.13,190.91L251.13,190.79L251.13,190.66L251.13,190.51L251.13,190.33L251.13,190.14L251.13,189.92L251.13,189.92L251.13,189.70L251.13,189.51L251.13,189.34L251.13,189.18L251.13,189.05L251.13,188.93L251.13,188.82L251.13,188.73L251.13,188.64L251.13,188.56L251.12,188.48L251.12,188.41L251.12,188.33L251.12,188.25L251.11,188.16zM250.34,191.65L250.34,191.65L250.34,191.73L250.33,191.81L250.32,191.88L250.32,191.95L250.31,192.01L250.30,192.07L250.29,192.12L250.28,192.17L250.27,192.22L250.25,192.26L250.24,192.31L250.23,192.34L250.22,192.38L250.21,192.41L250.19,192.44L250.19,192.44L250.16,192.52L250.13,192.59L250.09,192.66L250.05,192.72L250.00,192.79L249.95,192.85L249.90,192.91L249.85,192.96L249.79,193.01L249.73,193.06L249.66,193.11L249.60,193.15L249.53,193.19L249.46,193.22L249.38,193.26L249.38,193.26L249.35,193.27L249.32,193.28L249.28,193.29L249.24,193.30L249.20,193.32L249.16,193.33L249.11,193.34L249.06,193.35L249.00,193.36L248.95,193.37L248.88,193.38L248.82,193.39L248.75,193.39L248.67,193.40L248.59,193.40L248.59,193.40L248.50,193.41L248.42,193.41L248.35,193.41L248.27,193.42L248.19,193.42L248.11,193.42L248.03,193.42L247.94,193.42L247.83,193.42L247.72,193.43L247.59,193.43L247.44,193.43L247.27,193.43L247.08,193.43L246.86,193.43L246.86,193.43L246.65,193.43L246.46,193.43L246.29,193.43L246.14,193.43L246.01,193.43L245.89,193.42L245.79,193.42L245.69,193.42L245.61,193.42L245.53,193.42L245.45,193.42L245.38,193.41L245.30,193.41L245.22,193.41L245.13,193.40L245.13,193.40L245.05,193.40L244.98,193.39L244.91,193.39L244.84,193.38L244.78,193.37L244.72,193.36L244.66,193.35L244.61,193.34L244.56,193.33L244.52,193.32L244.48,193.30L244.44,193.29L244.41,193.28L244.37,193.27L244.34,193.26L244.34,193.26L244.30,193.24L244.27,193.23L244.23,193.21L244.20,193.19L244.16,193.17L244.13,193.15L244.09,193.13L244.06,193.11L244.03,193.09L244.00,193.07L243.97,193.04L243.94,193.02L243.91,192.99L243.88,192.96L243.85,192.94L243.85,192.94L243.82,192.91L243.79,192.88L243.77,192.85L243.74,192.82L243.72,192.79L243.70,192.76L243.67,192.72L243.65,192.69L243.63,192.66L243.61,192.62L243.59,192.59L243.58,192.55L243.56,192.52L243.55,192.48L243.53,192.45L243.53,192.45L243.52,192.41L243.51,192.38L243.49,192.34L243.48,192.31L243.47,192.27L243.46,192.22L243.45,192.17L243.44,192.12L243.43,192.07L243.42,192.01L243.41,191.95L243.40,191.88L243.39,191.81L243.39,191.73L243.38,191.65L243.38,191.65L243.38,191.57L243.38,191.49L243.37,191.41L243.37,191.33L243.37,191.26L243.37,191.18L243.36,191.09L243.36,191.00L243.36,190.90L243.36,190.78L243.36,190.65L243.36,190.50L243.36,190.33L243.36,190.14L243.36,189.92L243.36,189.92L243.36,189.71L243.36,189.52L243.36,189.35L243.36,189.20L243.36,189.07L243.36,188.95L243.36,188.85L243.36,188.76L243.37,188.67L243.37,188.59L243.37,188.51L243.37,188.44L243.38,188.36L243.38,188.28L243.38,188.20L243.38,188.20L243.39,188.12L243.39,188.04L243.40,187.97L243.41,187.90L243.42,187.84L243.43,187.78L243.44,187.73L243.45,187.67L243.46,187.63L243.47,187.58L243.48,187.54L243.49,187.50L243.51,187.47L243.52,187.43L243.53,187.40L243.53,187.40L243.55,187.37L243.56,187.33L243.58,187.29L243.59,187.26L243.61,187.22L243.63,187.19L243.65,187.16L243.67,187.12L243.70,187.09L243.72,187.06L243.74,187.03L243.77,187.00L243.80,186.97L243.82,186.94L243.85,186.91L243.85,186.91L243.88,186.88L243.91,186.86L243.94,186.83L243.97,186.81L244.00,186.78L244.03,186.76L244.06,186.74L244.10,186.71L244.13,186.69L244.16,186.67L244.20,186.66L244.23,186.64L244.27,186.62L244.31,186.61L244.34,186.59L244.34,186.59L244.37,186.58L244.41,186.57L244.44,186.56L244.48,186.55L244.52,186.53L244.57,186.52L244.61,186.51L244.67,186.50L244.72,186.49L244.78,186.48L244.84,186.47L244.91,186.46L244.98,186.46L245.06,186.45L245.14,186.45L245.14,186.45L245.22,186.44L245.30,186.44L245.38,186.44L245.45,186.43L245.53,186.43L245.61,186.43L245.70,186.43L245.79,186.43L245.89,186.42L246.01,186.42L246.14,186.42L246.29,186.42L246.46,186.42L246.65,186.42L246.86,186.42L246.86,186.42L247.08,186.42L247.27,186.42L247.44,186.42L247.59,186.42L247.72,186.42L247.84,186.42L247.94,186.43L248.03,186.43L248.12,186.43L248.20,186.43L248.27,186.43L248.35,186.44L248.42,186.44L248.50,186.44L248.59,186.45L248.59,186.45L248.67,186.45L248.75,186.46L248.82,186.46L248.89,186.47L248.95,186.48L249.01,186.49L249.06,186.50L249.11,186.51L249.16,186.52L249.20,186.53L249.25,186.55L249.28,186.56L249.32,186.57L249.35,186.58L249.38,186.59L249.38,186.59L249.42,186.61L249.46,186.62L249.49,186.64L249.53,186.66L249.56,186.67L249.60,186.69L249.63,186.71L249.66,186.74L249.70,186.76L249.73,186.78L249.76,186.81L249.79,186.83L249.82,186.86L249.85,186.88L249.88,186.91L249.88,186.91L249.90,186.94L249.93,186.97L249.96,187.00L249.98,187.03L250.01,187.06L250.03,187.09L250.05,187.12L250.07,187.16L250.09,187.19L250.11,187.22L250.13,187.26L250.15,187.29L250.17,187.33L250.18,187.37L250.19,187.40L250.19,187.40L250.21,187.43L250.22,187.47L250.23,187.50L250.24,187.54L250.25,187.58L250.27,187.63L250.28,187.68L250.29,187.73L250.30,187.78L250.31,187.84L250.32,187.90L250.32,187.97L250.33,188.04L250.34,188.12L250.34,188.20L250.34,188.20L250.35,188.28L250.35,188.36L250.35,188.44L250.35,188.52L250.36,188.59L250.36,188.67L250.36,188.76L250.36,188.85L250.36,188.95L250.36,189.07L250.37,189.20L250.37,189.35L250.37,189.52L250.37,189.71L250.37,189.92L250.37,189.92L250.37,190.14L250.37,190.33L250.37,190.50L250.37,190.65L250.36,190.78L250.36,190.89L250.36,191.00L250.36,191.09L250.36,191.18L250.36,191.26L250.35,191.33L250.35,191.41L250.35,191.48L250.35,191.56L250.34,191.65z"/><path style="fill:#000000;fill-rule:evenodd" d="M246.86,187.72L246.86,187.72L246.62,187.74L246.39,187.77L246.17,187.84L245.95,187.92L245.75,188.02L245.56,188.15L245.39,188.29L245.23,188.45L245.09,188.62L244.96,188.81L244.86,189.01L244.78,189.23L244.71,189.45L244.68,189.68L244.66,189.92L244.66,189.92L244.68,190.16L244.71,190.39L244.78,190.62L244.86,190.83L244.96,191.03L245.09,191.22L245.23,191.39L245.39,191.55L245.56,191.69L245.75,191.82L245.95,191.92L246.17,192.01L246.39,192.07L246.62,192.10L246.86,192.12L246.86,192.12L247.10,192.10L247.33,192.07L247.55,192.01L247.77,191.92L247.97,191.82L248.16,191.69L248.33,191.55L248.49,191.39L248.63,191.22L248.76,191.03L248.86,190.83L248.94,190.62L249.01,190.39L249.04,190.16L249.06,189.92L249.06,189.92L249.04,189.68L249.01,189.45L248.94,189.23L248.86,189.01L248.76,188.81L248.63,188.62L248.49,188.45L248.33,188.29L248.16,188.15L247.97,188.02L247.77,187.92L247.55,187.84L247.33,187.77L247.10,187.74L246.86,187.72zM246.86,191.35L246.86,191.35L246.70,191.34L246.55,191.31L246.41,191.27L246.27,191.22L246.14,191.15L246.02,191.07L245.91,190.98L245.80,190.88L245.71,190.76L245.63,190.64L245.56,190.51L245.51,190.37L245.47,190.23L245.44,190.08L245.44,189.92L245.44,189.92L245.44,189.77L245.47,189.62L245.51,189.47L245.56,189.33L245.63,189.20L245.71,189.08L245.80,188.97L245.91,188.86L246.02,188.77L246.14,188.69L246.27,188.62L246.41,188.57L246.55,188.53L246.70,188.50L246.86,188.50L246.86,188.50L247.02,188.50L247.17,188.53L247.31,188.57L247.45,188.62L247.58,188.69L247.70,188.77L247.81,188.86L247.92,188.97L248.01,189.08L248.09,189.20L248.16,189.33L248.21,189.47L248.25,189.62L248.28,189.77L248.29,189.92L248.29,189.92L248.28,190.08L248.25,190.23L248.21,190.37L248.16,190.51L248.09,190.64L248.01,190.76L247.92,190.88L247.81,190.98L247.70,191.07L247.58,191.15L247.45,191.22L247.31,191.27L247.17,191.31L247.02,191.34L246.86,191.35z"/><path style="fill:#000000;fill-rule:evenodd" d="M249.66,187.64L249.66,187.64L249.65,187.69L249.64,187.75L249.63,187.80L249.61,187.85L249.59,187.90L249.56,187.94L249.52,187.98L249.49,188.02L249.45,188.05L249.40,188.08L249.36,188.10L249.31,188.12L249.25,188.14L249.20,188.15L249.14,188.15L249.14,188.15L249.09,188.15L249.03,188.14L248.98,188.12L248.93,188.10L248.89,188.08L248.84,188.05L248.80,188.02L248.76,187.98L248.73,187.94L248.70,187.90L248.68,187.85L248.66,187.80L248.64,187.75L248.63,187.69L248.63,187.64L248.63,187.64L248.63,187.58L248.64,187.53L248.66,187.48L248.68,187.43L248.70,187.38L248.73,187.33L248.76,187.29L248.80,187.26L248.84,187.22L248.89,187.19L248.93,187.17L248.98,187.15L249.03,187.14L249.09,187.13L249.14,187.12L249.14,187.12L249.20,187.13L249.25,187.14L249.31,187.15L249.36,187.17L249.40,187.19L249.45,187.22L249.49,187.26L249.52,187.29L249.56,187.33L249.59,187.38L249.61,187.43L249.63,187.48L249.64,187.53L249.65,187.58L249.66,187.64z"/></g></g><g><g/><g><path style="fill:#ffffff" d="M268.95,184.86L277.95,184.86L277.95,193.86L268.95,193.86z"/><path style="fill:#000000" d="M277.72,193.64L277.72,193.64L277.72,193.64L277.72,190.50L277.72,190.50L277.72,190.20L277.70,189.91L277.67,189.63L277.63,189.37L277.57,189.12L277.49,188.89L277.39,188.67L277.27,188.48L277.12,188.30L276.94,188.15L276.74,188.02L276.51,187.92L276.24,187.85L275.94,187.80L275.60,187.79L275.60,187.79L275.43,187.79L275.27,187.81L275.11,187.84L274.97,187.88L274.83,187.93L274.70,187.98L274.58,188.05L274.47,188.12L274.36,188.19L274.27,188.27L274.18,188.36L274.10,188.44L274.03,188.53L273.97,188.62L273.92,188.71L273.89,188.71L273.89,187.93L272.19,187.93L272.19,193.64L273.96,193.64L273.96,190.81L273.96,190.81L273.97,190.66L273.97,190.52L273.99,190.38L274.01,190.24L274.04,190.10L274.07,189.98L274.12,189.86L274.18,189.75L274.26,189.65L274.34,189.56L274.44,189.49L274.56,189.43L274.70,189.39L274.85,189.36L275.03,189.35L275.03,189.35L275.20,189.36L275.35,189.39L275.47,189.44L275.58,189.51L275.67,189.59L275.74,189.69L275.80,189.80L275.85,189.92L275.89,190.04L275.91,190.17L275.93,190.31L275.94,190.45L275.95,190.59L275.95,190.73L275.95,190.86L275.95,193.64z"/><path style="fill:#000000" d="M269.31,187.93L271.08,187.93L271.08,193.64L269.31,193.64z"/><path style="fill:#000000" d="M270.20,185.09L270.20,185.09L270.09,185.10L269.98,185.11L269.87,185.14L269.77,185.18L269.68,185.23L269.59,185.29L269.51,185.35L269.43,185.43L269.37,185.51L269.31,185.60L269.26,185.69L269.22,185.79L269.19,185.90L269.18,186.00L269.17,186.12L269.17,186.12L269.18,186.23L269.19,186.34L269.22,186.44L269.26,186.54L269.31,186.64L269.37,186.73L269.43,186.81L269.51,186.88L269.59,186.95L269.68,187.01L269.77,187.06L269.87,187.10L269.98,187.13L270.09,187.15L270.20,187.15L270.20,187.15L270.31,187.15L270.42,187.13L270.52,187.10L270.62,187.06L270.71,187.01L270.80,186.95L270.88,186.88L270.96,186.81L271.03,186.73L271.08,186.64L271.13,186.54L271.17,186.44L271.20,186.34L271.22,186.23L271.22,186.12L271.22,186.12L271.22,186.00L271.20,185.90L271.17,185.79L271.13,185.69L271.08,185.60L271.03,185.51L270.96,185.43L270.88,185.35L270.80,185.29L270.71,185.23L270.62,185.18L270.52,185.14L270.42,185.11L270.31,185.10L270.20,185.09z"/></g></g><g><g/><g><path style="fill:#ffffff" d="M232.66,199.70L262.06,199.70L262.06,204.22L232.66,204.22z"/><text xml:space="preserve" fill="#000000" stroke-width="0" x="233.23" y="202.81" font-size="2.57" opacity="1.00" font-family="Verdana">Terms and Conditions</text></g></g><g><g/><g><path style="fill:#ffffff" d="M136.31,189.72L162.66,189.72L162.66,195.93L136.31,195.93z"/><text xml:space="preserve" fill="#000000" stroke-width="0" x="137.09" y="193.99" font-size="3.25" opacity="1.00" font-family="Verdana">07 5629 0550</text></g></g><g><g/><g><path style="fill:#ffffff" d="M136.02,180.91L204.59,180.91L204.59,187.11L136.02,187.11z"/><text xml:space="preserve" fill="#000000" stroke-width="0" x="136.80" y="185.17" font-size="3.53" opacity="1.00" font-family="Verdana">22 Computer Road, Yatala, QLD 4207</text></g></g><g><g/><g><path style="fill:#ffffff" d="M136.31,199.11L174.17,199.11L174.17,205.32L136.31,205.32z"/><text xml:space="preserve" fill="#000000" stroke-width="0" x="137.08" y="203.38" font-size="3.50" opacity="1.00" font-family="Verdana">info@unidan.com.au</text></g></g><g><g/><g><path style="fill:#ffffff" d="M61.99,181.19L124.15,181.19L124.15,191.28L61.99,191.28z"/><text xml:space="preserve" fill="#000000" stroke-width="0" x="62.76" y="185.46" font-size="3.50" opacity="1.00" font-family="Verdana">Universal solutions for off-road </text><text xml:space="preserve" fill="#000000" stroke-width="0" x="62.76" y="189.34" font-size="3.52" opacity="1.00" font-family="Verdana">transport and expedition vehicles.</text></g></g><g><g/><g><image x="267.134094" y="30.548536" height="17.189310" width="19.431398" xlink:href="UNI-U1700-ALT-UNIDAN_files/970c9001aebd98bc_image_2.jpg" mask="url(#mask2)"/></g></g><g><g/><g><image x="267.134094" y="95.548378" height="18.032640" width="19.856949" xlink:href="UNI-U1700-ALT-UNIDAN_files/970c9001aebd98bc_image_3.jpg" mask="url(#mask3)"/></g></g><g><g/><g><image x="267.134064" y="73.757004" height="18.556049" width="18.961637" xlink:href="UNI-U1700-ALT-UNIDAN_files/970c9001aebd98bc_image_4.jpg" mask="url(#mask4)"/></g></g><g><g/><g><path style="fill:#ffffff" d="M92.36,6.28L202.18,6.28L202.18,19.83L92.36,19.83z"/><text xml:space="preserve" fill="#000000" stroke-width="0" x="94.06" y="15.60" font-size="7.70" opacity="1.00" font-family="Verdana" font-weight="bold">U1700 ALTERNATOR KIT</text></g></g><g><g/><g><image x="267.134064" y="116.110916" height="17.790728" width="18.818369" xlink:href="UNI-U1700-ALT-UNIDAN_files/970c9001aebd98bc_image_5.jpg" mask="url(#mask5)"/></g></g><g><g/><g><image x="267.134094" y="51.041832" height="19.134148" width="19.134157" xlink:href="UNI-U1700-ALT-UNIDAN_files/970c9001aebd98bc_image_6.jpg" mask="url(#mask6)"/></g></g><g><g/><g><image x="267.134064" y="136.347778" height="18.831429" width="18.560469" xlink:href="UNI-U1700-ALT-UNIDAN_files/970c9001aebd98bc_image_7.jpg" mask="url(#mask7)"/></g></g><g><g/><g><image x="254.500580" y="184.210983" height="10.583520" width="10.583499" xlink:href="UNI-U1700-ALT-UNIDAN_files/970c9001aebd98bc_image_8.jpg" mask="url(#mask8)"/></g></g><g id="paperID" visibility="hidden" opacity="0.00" transform="scale(0.000100)"><path style="stroke:#000000;stroke-width:0.500;fill:#e6e6e6;fill-rule:evenodd" d="M-2000.00,-2000.00L2297.00,-2000.00L2297.00,2210.00L-2000.00,2210.00zM0.00,0.00L297.00,0.00L297.00,210.00L0.00,210.00z"/><path style="fill:#000000;fill-opacity:0.118" d="M3.00,210.00L297.00,210.00L297.00,3.00L300.00,3.00L300.00,213.00L3.00,213.00z"/></g><g id="hotspot.0" ident="" onmouseover="ShowHotSpot(evt,&apos;0&apos;)" onmouseout="HideHotSpot(evt,&apos;0&apos;)" onmousemove="ShowToolTip(evt,&apos;0&apos;,&quot;TERMS AND CONDITIONS&quot;)" opacity="0"><a xlink:href="https://www.unidan.com.au/terms"><path style="fill:#00ff00;fill-rule:evenodd" d="M261.95,204.44L232.68,204.44L232.68,199.93L261.95,199.93z"/></a></g><g id="hotspot.1" ident="" onmouseover="ShowHotSpot(evt,&apos;1&apos;)" onmouseout="HideHotSpot(evt,&apos;1&apos;)" onmousemove="ShowToolTip(evt,&apos;1&apos;,&quot;PHONE NUMBER&quot;)" opacity="0"><a xlink:href="https://www.unidan.com.au/terms"><path style="fill:#00ff00;fill-rule:evenodd" d="M162.59,196.07L136.60,196.07L136.60,190.10L162.59,190.10z"/></a></g><g id="hotspot.2" ident="" onmouseover="ShowHotSpot(evt,&apos;2&apos;)" onmouseout="HideHotSpot(evt,&apos;2&apos;)" onmousemove="ShowToolTip(evt,&apos;2&apos;,&quot;ADDRESS&quot;)" opacity="0"><a xlink:href="https://www.unidan.com.au/terms"><path style="fill:#00ff00;fill-rule:evenodd" d="M204.44,187.34L136.23,187.34L136.23,181.37L204.44,181.37z"/></a></g><g id="hotspot.3" ident="" onmouseover="ShowHotSpot(evt,&apos;3&apos;)" onmouseout="HideHotSpot(evt,&apos;3&apos;)" onmousemove="ShowToolTip(evt,&apos;3&apos;,&quot;ICON - LINKEDIN&quot;)" opacity="0"><a xlink:href="https://www.linkedin.com/company/unidan-engineering"><path style="fill:#00ff00;fill-rule:evenodd" d="M271.09,185.71L271.04,186.95L270.58,187.27L269.58,187.24L269.57,185.48L270.69,185.32zM276.87,188.28L277.60,189.37L277.61,193.89L275.99,193.89L275.81,190.07L275.43,189.69L274.30,189.84L273.97,193.89L272.35,193.89L272.36,188.28L274.56,188.34L275.80,187.96zM271.05,193.89L269.44,193.89L269.44,188.28L271.05,188.28z"/></a></g><g id="hotspot.4" ident="" onmouseover="ShowHotSpot(evt,&apos;4&apos;)" onmouseout="HideHotSpot(evt,&apos;4&apos;)" onmousemove="ShowToolTip(evt,&apos;4&apos;,&quot;ICON - FACEBOOK&quot;)" opacity="0"><a xlink:href="https://www.facebook.com/UnidanEngineering"><path style="fill:#00ff00;fill-rule:evenodd" d="M238.65,186.24L237.42,186.46L236.82,186.95L236.69,188.80L238.29,189.00L238.29,190.62L236.69,190.82L236.48,195.71L234.87,195.71L234.66,190.82L233.05,190.62L233.05,189.00L234.66,188.80L234.97,185.84L236.07,184.75L238.65,184.64z"/></a></g><g id="hotspot.5" ident="" onmouseover="ShowHotSpot(evt,&apos;5&apos;)" onmouseout="HideHotSpot(evt,&apos;5&apos;)" onmousemove="ShowToolTip(evt,&apos;5&apos;,&quot;ICON - INSTAGRAM&quot;)" opacity="0"><a xlink:href="https://www.instagram.com/unidanengineering"><path style="fill:#00ff00;fill-rule:evenodd" d="M251.04,187.55L250.93,193.06L249.83,194.15L244.08,194.14L243.01,193.39L242.65,191.21L242.65,189.14L243.02,186.97L243.96,186.09L249.95,186.09zM250.31,187.91L250.32,192.45L249.48,193.43L244.10,193.39L243.74,193.03L243.74,187.32L244.32,186.82L249.60,186.80zM249.60,188.05L248.67,188.05L248.67,187.56L249.60,187.56zM248.86,189.00L248.86,190.99L248.03,191.97L245.56,191.94L244.80,190.87L244.84,189.15L246.53,187.89L247.38,187.89zM248.15,189.36L248.14,190.62L247.74,191.32L245.92,191.20L245.40,189.74L246.52,188.62L247.01,188.62z"/></a></g><g id="hotspot.6" ident="" onmouseover="ShowHotSpot(evt,&apos;6&apos;)" onmouseout="HideHotSpot(evt,&apos;6&apos;)" onmousemove="ShowToolTip(evt,&apos;6&apos;,&quot;PACKING&quot;)" opacity="0"><a xlink:href="UNI-U1700-ALT-UNIDAN (PACKING).SVG"><path style="fill:#00ff00;fill-rule:evenodd" d="M285.97,133.83L267.26,133.83L267.26,116.58L285.97,116.58z"/></a></g><g id="hotspot.7" ident="" onmouseover="ShowHotSpot(evt,&apos;7&apos;)" onmouseout="HideHotSpot(evt,&apos;7&apos;)" onmousemove="ShowToolTip(evt,&apos;7&apos;,&quot;BOM&quot;)" opacity="0"><a xlink:href="UNI-U1700-ALT-UNIDAN (BOM).SVG"><path style="fill:#00ff00;fill-rule:evenodd" d="M286.34,47.94L267.26,47.94L267.26,30.68L286.34,30.68z"/></a></g><g id="hotspot.8" ident="" onmouseover="ShowHotSpot(evt,&apos;8&apos;)" onmouseout="HideHotSpot(evt,&apos;8&apos;)" onmousemove="ShowToolTip(evt,&apos;8&apos;,&quot;ASSEMBLY INSTRUCTIONS&quot;)" opacity="0"><a xlink:href="UNI-U1700-ALT-UNIDAN (ASSEMBLY - STEP 1).SVG"><path style="fill:#00ff00;fill-rule:evenodd" d="M285.97,92.34L267.26,92.34L267.26,73.99L285.97,73.99z"/></a></g><g id="hotspot.9" ident="" onmouseover="ShowHotSpot(evt,&apos;9&apos;)" onmouseout="HideHotSpot(evt,&apos;9&apos;)" onmousemove="ShowToolTip(evt,&apos;9&apos;,&quot;EDRAWING&quot;)" opacity="0"><a xlink:href="UNI-U1700-ALT (EDRAWING).EASM"><path style="fill:#00ff00;fill-rule:evenodd" d="M285.61,155.31L267.26,155.31L267.26,136.60L285.61,136.60z"/></a></g><g id="hotspot.10" ident="" onmouseover="ShowHotSpot(evt,&apos;10&apos;)" onmouseout="HideHotSpot(evt,&apos;10&apos;)" onmousemove="ShowToolTip(evt,&apos;10&apos;,&quot;FITTING INSTRUCTIONS&quot;)" opacity="0"><a xlink:href="UNI-U1700-ALT-UNIDAN (FITTING - STEP 1).SVG"><path style="fill:#00ff00;fill-rule:evenodd" d="M286.70,113.82L267.26,113.82L267.26,95.83L286.70,95.83z"/></a></g><g id="hotspot.11" ident="" onmouseover="ShowHotSpot(evt,&apos;11&apos;)" onmouseout="HideHotSpot(evt,&apos;11&apos;)" onmousemove="ShowToolTip(evt,&apos;11&apos;,&quot;ICON - YOUTUBE&quot;)" opacity="0"><a xlink:href="https://www.youtube.com/channel/UClEC0Rk7V63jrj9OM2qsb6Q"><path style="fill:#00ff00;fill-rule:evenodd" d="M264.86,194.98L254.52,194.98L254.52,184.64L264.86,184.64z"/></a></g><g id="hotspot.12" ident="" onmouseover="ShowHotSpot(evt,&apos;12&apos;)" onmouseout="HideHotSpot(evt,&apos;12&apos;)" onmousemove="ShowToolTip(evt,&apos;12&apos;,&quot;Fillet26&quot;)" opacity="0"><path style="fill:#00ff00;fill-rule:evenodd" d="M114.55,119.11L113.86,119.68L112.95,120.01L113.31,118.72L113.82,118.39zM121.07,125.32L125.44,127.52L130.58,130.96L127.15,132.25L122.07,135.17L120.33,135.17L117.44,133.34L116.71,130.79L115.51,128.57L118.07,128.64L119.91,127.19L120.35,124.93z"/></g><g id="hotspot.13" ident="" onmouseover="ShowHotSpot(evt,&apos;13&apos;)" onmouseout="HideHotSpot(evt,&apos;13&apos;)" onmousemove="ShowToolTip(evt,&apos;13&apos;,&quot;Cut-Revolve1&quot;)" opacity="0"><path style="fill:#00ff00;fill-rule:evenodd" d="M118.19,123.85L118.20,127.30L116.61,128.26L114.18,128.22L112.38,126.39L111.95,125.72L111.98,122.17L113.30,121.30L116.01,121.30z"/></g><g id="hotspot.14" ident="" onmouseover="ShowHotSpot(evt,&apos;14&apos;)" onmouseout="HideHotSpot(evt,&apos;14&apos;)" onmousemove="ShowToolTip(evt,&apos;14&apos;,&quot;Cut-Revolve1&quot;)" opacity="0"><path style="fill:#00ff00;fill-rule:evenodd" d="M119.62,54.34L120.73,55.79L120.75,57.42L119.87,58.04L119.27,58.02L118.17,55.82L117.33,54.71L118.94,53.99zM99.99,68.17L99.97,71.58L98.78,72.21L96.32,72.60L94.54,71.07L93.76,69.66L93.78,66.12L95.84,65.27L97.83,65.24z"/></g><g id="hotspot.15" ident="" onmouseover="ShowHotSpot(evt,&apos;15&apos;)" onmouseout="HideHotSpot(evt,&apos;15&apos;)" onmousemove="ShowToolTip(evt,&apos;15&apos;,&quot;Boss-Extrude1&quot;)" opacity="0"><path style="fill:#00ff00;fill-rule:evenodd" d="M100.75,65.95L101.80,68.54L101.81,70.14L101.45,70.87L100.31,71.59L100.34,70.92L100.71,70.50L100.72,68.17L99.28,65.97L97.80,64.88L95.82,64.91L96.92,64.16L98.53,64.16z"/></g><g id="hotspot.16" ident="" onmouseover="ShowHotSpot(evt,&apos;16&apos;)" onmouseout="HideHotSpot(evt,&apos;16&apos;)" onmousemove="ShowToolTip(evt,&apos;16&apos;,&quot;Boss-Extrude1&quot;)" opacity="0"><path style="fill:#00ff00;fill-rule:evenodd" d="M97.94,65.12L96.55,64.90L97.78,64.90zM99.27,65.97L100.72,68.17L100.71,70.56L100.36,70.91L99.99,68.17L98.15,65.63L97.94,65.12L98.54,65.25z"/></g><g id="hotspot.17" ident="" onmouseover="ShowHotSpot(evt,&apos;17&apos;)" onmouseout="HideHotSpot(evt,&apos;17&apos;)" onmousemove="ShowToolTip(evt,&apos;17&apos;,&quot;Cut-Revolve1&quot;)" opacity="0"><path style="fill:#00ff00;fill-rule:evenodd" d="M121.46,69.99L121.48,73.80L119.89,74.75L116.72,74.73L114.89,72.56L114.51,71.84L114.53,67.94L115.85,67.08L118.90,66.69zM123.29,69.26L123.29,70.49L121.72,67.39L122.14,67.39z"/></g><g id="hotspot.18" ident="" onmouseover="ShowHotSpot(evt,&apos;18&apos;)" onmouseout="HideHotSpot(evt,&apos;18&apos;)" onmousemove="ShowToolTip(evt,&apos;18&apos;,&quot;Boss-Extrude1&quot;)" opacity="0"><path style="fill:#00ff00;fill-rule:evenodd" d="M127.33,61.94L129.08,63.82L129.87,65.37L127.62,63.47L126.91,62.72L124.55,61.60L124.91,61.23L125.80,61.24zM119.99,65.99L122.22,68.50L123.28,71.48L122.90,73.40L121.71,74.41L120.60,74.41L121.49,73.80L121.46,69.99L118.90,66.69L115.82,66.72L117.30,65.62L119.28,65.62zM116.03,120.95L112.58,121.46L112.64,120.70L114.06,119.46L114.86,119.49zM118.20,123.12L120.02,125.32L120.02,126.55L119.63,127.27L118.07,128.64L116.67,128.59L116.59,128.24L118.20,127.30L118.19,123.85L117.42,123.10L117.43,122.40z"/></g><g id="hotspot.19" ident="" onmouseover="ShowHotSpot(evt,&apos;19&apos;)" onmouseout="HideHotSpot(evt,&apos;19&apos;)" onmousemove="ShowToolTip(evt,&apos;19&apos;,&quot;Cut-Revolve2&quot;)" opacity="0"><path style="fill:#00ff00;fill-rule:evenodd" d="M131.28,61.26L132.36,62.73L133.11,65.38L132.22,67.12L131.67,67.11L129.49,64.50L127.33,61.94L126.01,61.24L127.13,60.52L130.19,60.53z"/></g><g id="hotspot.20" ident="" onmouseover="ShowHotSpot(evt,&apos;20&apos;)" onmouseout="HideHotSpot(evt,&apos;20&apos;)" onmousemove="ShowToolTip(evt,&apos;20&apos;,&quot;Cut-Revolve1&quot;)" opacity="0"><path style="fill:#00ff00;fill-rule:evenodd" d="M152.75,130.18L158.23,126.78L158.09,156.27L156.65,157.02L154.18,157.02L152.74,156.27zM151.64,158.84L154.56,159.54L156.63,159.54L158.47,159.20L160.41,158.08L160.41,159.69L158.57,161.11L156.64,161.73L154.56,161.72L152.72,161.39L151.32,160.24L150.40,158.10z"/></g><g id="hotspot.21" ident="" onmouseover="ShowHotSpot(evt,&apos;21&apos;)" onmouseout="HideHotSpot(evt,&apos;21&apos;)" onmousemove="ShowToolTip(evt,&apos;21&apos;,&quot;Cut-Revolve1&quot;)" opacity="0"><path style="fill:#00ff00;fill-rule:evenodd" d="M171.68,118.54L174.79,116.56L176.77,114.84L177.15,114.40L177.02,128.24L175.58,128.99L173.47,128.99L171.67,128.24zM171.65,131.18L177.03,131.17L179.35,130.06L179.35,131.29L177.04,133.36L172.01,133.36L170.60,132.59L169.44,130.78L169.47,130.04z"/></g><g id="hotspot.22" ident="" onmouseover="ShowHotSpot(evt,&apos;22&apos;)" onmouseout="HideHotSpot(evt,&apos;22&apos;)" onmousemove="ShowToolTip(evt,&apos;22&apos;,&quot;Fillet1&quot;)" opacity="0"><path style="fill:#00ff00;fill-rule:evenodd" d="M118.16,55.82L119.27,57.99L119.28,59.59L118.92,60.32L112.24,64.20L109.68,64.30L108.38,61.60L102.02,61.65L114.75,54.34L116.37,54.33z"/></g><g id="hotspot.23" ident="" onmouseover="ShowHotSpot(evt,&apos;23&apos;)" onmouseout="HideHotSpot(evt,&apos;23&apos;)" onmousemove="ShowToolTip(evt,&apos;23&apos;,&quot;Boss-Extrude1&quot;)" opacity="0"><path style="fill:#00ff00;fill-rule:evenodd" d="M178.95,125.33L180.06,126.76L180.07,129.11L178.99,130.22L177.03,131.17L171.65,131.18L169.13,129.69L168.74,128.63L168.74,126.89L169.71,125.31L171.34,124.61L171.67,128.24L173.47,128.99L175.58,128.99L177.02,128.24L177.39,124.56L177.83,124.54zM160.03,153.35L161.14,154.79L161.14,157.14L160.61,157.70L158.47,159.20L156.63,159.54L154.56,159.54L151.64,158.83L150.23,157.69L149.81,157.02L149.82,154.91L150.90,153.45L152.42,152.63L152.74,156.27L154.18,157.02L156.65,157.02L158.09,156.27L158.57,152.59z"/></g><g id="hotspot.24" ident="" onmouseover="ShowHotSpot(evt,&apos;24&apos;)" onmouseout="HideHotSpot(evt,&apos;24&apos;)" onmousemove="ShowToolTip(evt,&apos;24&apos;,&quot;Cut-Extrude2&quot;)" opacity="0"><path style="fill:#00ff00;fill-rule:evenodd" d="M109.68,64.30L127.65,63.80L128.37,64.17L130.54,67.10L131.63,70.37L131.66,72.70L131.25,73.38L129.35,74.39L121.68,74.40L122.90,73.40L123.30,72.29L123.16,71.05L127.66,70.86L127.66,69.63L125.83,67.43L121.09,67.09L119.28,65.62L117.30,65.62L116.59,65.99L115.50,67.45L113.30,67.80L113.46,69.63L114.89,72.56L116.37,74.35L116.27,74.73L110.16,74.74L109.42,73.30L109.09,72.23L98.74,72.21L101.44,70.87L101.81,70.14L101.80,68.54L100.75,65.95L98.53,64.16L96.66,64.27L95.54,65.43L95.15,65.45L95.24,63.21L97.28,61.98L108.38,61.60z"/></g><g id="hotspot.25" ident="" onmouseover="ShowHotSpot(evt,&apos;25&apos;)" onmouseout="HideHotSpot(evt,&apos;25&apos;)" onmousemove="ShowToolTip(evt,&apos;25&apos;,&quot;Revolve1&quot;)" opacity="0"><path style="fill:#00ff00;fill-rule:evenodd" d="M126.54,89.29L130.91,92.21L133.85,95.09L137.50,100.17L140.37,106.04L141.82,111.87L141.82,117.44L140.38,121.45L138.22,123.66L134.80,125.33L132.25,127.15L130.07,127.89L126.89,127.89L123.63,126.78L119.29,124.21L115.28,120.20L111.25,114.04L109.05,108.61L108.34,105.31L107.84,100.97L108.69,96.31L110.18,93.81L112.34,91.96L115.29,90.54L118.42,88.57L119.50,88.20L123.26,88.21zM124.39,106.37L125.81,108.22L126.57,111.60L126.05,112.95L122.03,115.48L119.23,115.53L117.10,113.65L115.96,111.16L115.98,107.61L120.58,104.93L122.56,104.93z"/></g><g id="hotspot.26" ident="" onmouseover="ShowHotSpot(evt,&apos;26&apos;)" onmouseout="HideHotSpot(evt,&apos;26&apos;)" onmousemove="ShowToolTip(evt,&apos;26&apos;,&quot;Fillet1&quot;)" opacity="0"><path style="fill:#00ff00;fill-rule:evenodd" d="M170.21,48.53L170.58,53.78L167.55,53.01L167.30,51.81L167.31,48.65L168.27,48.14L169.51,48.13z"/></g><g id="hotspot.27" ident="" onmouseover="ShowHotSpot(evt,&apos;27&apos;)" onmouseout="HideHotSpot(evt,&apos;27&apos;)" onmousemove="ShowToolTip(evt,&apos;27&apos;,&quot;Fillet1&quot;)" opacity="0"><path style="fill:#00ff00;fill-rule:evenodd" d="M193.44,104.20L191.92,104.24L193.57,103.52z"/></g><g id="hotspot.28" ident="" onmouseover="ShowHotSpot(evt,&apos;28&apos;)" onmouseout="HideHotSpot(evt,&apos;28&apos;)" onmousemove="ShowToolTip(evt,&apos;28&apos;,&quot;Boss-Extrude7&quot;)" opacity="0"><path style="fill:#00ff00;fill-rule:evenodd" d="M168.76,53.26L173.11,55.10L174.86,55.09L175.71,54.72L177.16,55.80L178.44,55.80L181.39,53.95L181.86,53.94L182.64,54.72L182.65,55.58L179.66,57.40L180.05,60.17L181.17,61.24L184.07,64.52L186.97,68.18L190.24,74.01L192.77,80.20L194.24,85.29L194.98,91.50L194.49,97.79L194.93,98.10L196.05,97.79L198.13,96.53L198.62,96.52L198.99,96.90L199.34,98.12L195.23,100.60L194.21,102.85L178.83,112.23L176.76,114.89L174.79,116.56L153.87,129.49L149.72,131.89L146.80,132.61L142.95,132.64L140.98,132.97L137.10,132.97L134.89,132.63L129.81,130.43L126.49,128.24L126.07,127.83L130.07,127.89L132.25,127.15L134.80,125.33L138.22,123.66L140.38,121.45L141.82,117.44L141.82,111.87L140.37,106.04L137.50,100.17L133.85,95.09L130.91,92.21L126.54,89.29L123.26,88.21L119.50,88.20L118.42,88.57L115.29,90.54L112.34,91.96L110.00,93.98L108.32,97.43L108.34,89.05L109.31,85.29L110.92,82.17L112.72,79.96L114.52,75.21L116.69,74.72L119.87,74.74L129.35,74.39L131.25,73.38L131.66,72.70L131.63,70.37L130.54,67.10L129.73,65.57L130.14,65.59L131.67,67.11L132.22,67.12L133.69,65.27L142.44,60.54L144.61,59.80L148.02,59.46L148.63,59.50L153.34,56.89L155.29,56.29L159.91,53.63L162.08,52.89L167.30,52.90zM126.18,62.36L127.67,63.45L126.05,63.82L119.49,63.84L123.14,61.61L124.35,61.62zM127.66,69.63L127.66,70.86L123.13,70.75L123.29,69.27L122.42,67.42L125.83,67.43zM124.39,106.37L125.81,108.22L126.57,111.60L126.05,112.95L122.03,115.48L119.23,115.53L117.10,113.65L115.96,111.16L115.98,107.61L120.58,104.93L122.56,104.93z"/></g><g id="ToolTip" visibility="hidden" opacity="0" transform="translate(0,0)"><rect id="ToolTipShadow" opacity="0.20" fill="black" stroke="none" x="0" y="0" width="30" height="8"/><rect id="ToolTipBG" fill="#ffffe1" stroke="black" x="0" y="0" width="30" height="8"/><text xml:space="preserve" id="ToolTipText" fill="black" x="0" y="0" width="30" height="8">tooltip</text></g></g></svg>