<?xml version="1.0" encoding="UTF-8" standalone="yes"?><svg xmlns="http://www.w3.org/2000/svg" xmlns:xlink="http://www.w3.org/1999/xlink" width="297.000mm" height="210.000mm" viewBox="0.000000 0.000000 297.000000 210.000000" stroke-linejoin="round" stroke-linecap="round" fill="none" fill-rule="evenodd"><desc>Composer Export</desc><script type="text/ecmascript"><![CDATA[
if(typeof(top) != "undefined")
{
	top.ShowPaper = ShowPaper;
}
function ShowHotSpot(evt,hotspotid)
{
	var svgDocument = evt.target.ownerDocument;
	var strId = "hotspot."+hotspotid;
	var hotspot = svgDocument.getElementById(strId);
	if(hotspot)
		hotspot.setAttribute("opacity",".5");
}
function HideHotSpot(evt,hotspotid)
{
	var svgDocument = evt.target.ownerDocument;
	var strId = "hotspot."+hotspotid;
	var hotspot = svgDocument.getElementById(strId);
	if(hotspot)
		hotspot.setAttribute("opacity","0");

	var toolTip = svgDocument.getElementById('ToolTip');
	if(toolTip)
		toolTip.setAttribute("visibility","hidden");
}
function ShowToolTip(evt,hotspotid,strTooltip)
{
	if(strTooltip=="")
	return;

	// change text
	var svgDocument = evt.target.ownerDocument;
	var tiptext = svgDocument.getElementById('ToolTipText');
	if( !tiptext )
	return;
	tiptext.firstChild.nodeValue = " " + strTooltip + "  " ;

	// show tooltip before, else some refresh issue

	var toolTip = svgDocument.getElementById('ToolTip');
	if(!toolTip)
	return;

	toolTip.setAttribute("visibility","visible");
	toolTip.setAttribute("opacity",".95");

	// move tooltip
	// get viewbox

	var root = svgDocument.documentElement;
	var vbox = (root.getAttribute("viewBox")).split(' ');
	var x0 = parseFloat(vbox[0]);
	var y0 = parseFloat(vbox[1]);
	var vboxW = parseFloat(vbox[2]);
	var vboxH = parseFloat(vbox[3]);

	// get default width of svg

	var strW = root.getAttribute("width");
	var svgW = parseFloat(strW);
	if(strW.indexOf('mm') != -1)
	svgW *= 3.779;

	var strH = root.getAttribute("height");
	var svgH = parseFloat(strH);
	if(strH.indexOf('mm') != -1)
	svgH *= 3.779;  	// 96 dpi  -> 96/25.4 = 3.779

	// update the viewbox / width / height if svg is embedded in html with zoom fit all
	var realx0 = x0;
	var realy0 = y0;
	var realvboxW = vboxW;
	var realvboxH = vboxH;
	var realsvgW = svgW;
	var realsvgH = svgH;

	if ((typeof(top) == "undefined") || (typeof(top.svgctl1) != "undefined")) // embedded in html
	{
		// get window size in pxl

		svgW = window.innerWidth;
		svgH = window.innerHeight;

		// calculate real viewbox

		realsvgW = svgW;
		realsvgH = svgH;
		if((svgW / svgH) > (vboxW / vboxH))
		{
			realvboxW = (vboxH * svgW) / svgH;
			realvboxH = vboxH;
			realx0 = x0 - (realvboxW - vboxW)/2 ;
		}
		else
		{
			realvboxH = (vboxW * svgH) / svgW;
			realvboxW = vboxW;
			realy0 = y0 - (realvboxH - vboxH)/2 ;
		}
	}

	// get user zoom/pan

	var newScale = root.currentScale;
	var translation = root.currentTranslate;

	// transform pxl to user unit

	var xPos = (((evt.clientX+10- translation.x)/newScale) * realvboxW)/realsvgW  + realx0 ;
	var yPos = (((evt.clientY+5- translation.y)/newScale) * realvboxH)/ realsvgH  + realy0 ;
	var scaleForWidth = ( (1 / newScale) * realvboxH) / realsvgH;

	// move tooltip

	toolTip.setAttribute("transform", "translate(" + xPos + "," + yPos + ")" );

	// resize tooltip

	var fontsize = 12;
	tiptext.setAttribute("font-size",fontsize*scaleForWidth);
	tiptext.setAttribute("y", fontsize*scaleForWidth);
	var tipBG = svgDocument.getElementById('ToolTipBG');
	var outline = tiptext.getBBox();
	if(tipBG)
	{
		tipBG.setAttribute("stroke-width", 1*scaleForWidth);
		tipBG.setAttribute("width", Number(outline.width) );
		tipBG.setAttribute("height", Number(outline.height) + fontsize*.5*scaleForWidth );
	}
	var ToolTipShadow = svgDocument.getElementById('ToolTipShadow');
	if(ToolTipShadow)
	{
		ToolTipShadow.setAttribute("width", Number(outline.width) );
		ToolTipShadow.setAttribute("height", Number(outline.height) + fontsize*.5*scaleForWidth );
		ToolTipShadow.setAttribute("x", 3*scaleForWidth);
		ToolTipShadow.setAttribute("y", 3*scaleForWidth);
	}
}
function ShowPaper()
{
  var svgDocument = getDocument();
  var paper = svgDocument.getElementById("paperID");
  if(paper)
  {
    paper.setAttribute("transform","scale(1)");
    paper.setAttribute("opacity","1");
    paper.setAttribute("visibility","visible");
  }
  var svg = svgDocument.getRootElement();
  if(svg)
  {
    svg.setAttribute("width","307.000mm");
    svg.setAttribute("height","220.000mm");
    svg.setAttribute("viewBox","-5.000000 -5.000000 307.000000 220.000000");
  }
}
]]></script><defs><mask id="mask0" x="0" y="0" height="100%" width="100%"><image x="239.460968" y="168.790283" height="40.937347" width="55.346039" xlink:href="UNI-U1700-ALT-UNIDAN_files/88fc88129644d73b_mask_0.jpg"/></mask><mask id="mask1" x="0" y="0" height="100%" width="100%"><image x="-25.743708" y="-23.242882" height="89.395683" width="87.698730" xlink:href="UNI-U1700-ALT-UNIDAN_files/88fc88129644d73b_mask_1.jpg"/></mask><mask id="mask2" x="0" y="0" height="100%" width="100%"><image x="267.134003" y="50.813660" height="17.189310" width="19.431398" xlink:href="UNI-U1700-ALT-UNIDAN_files/88fc88129644d73b_mask_2.jpg"/></mask><mask id="mask3" x="0" y="0" height="100%" width="100%"><image x="267.134003" y="29.147215" height="17.590467" width="18.953098" xlink:href="UNI-U1700-ALT-UNIDAN_files/88fc88129644d73b_mask_3.jpg"/></mask><mask id="mask4" x="0" y="0" height="100%" width="100%"><image x="117.603363" y="184.838699" height="17.851601" width="19.118490" xlink:href="UNI-U1700-ALT-UNIDAN_files/88fc88129644d73b_mask_4.jpg"/></mask></defs><g><path style="fill:#ffffff" d="M296.95,209.90L0.09,209.90L0.09,0.09L296.95,0.09z"/><path style="fill:#c0c0c0" d="M119.26,122.14L122.54,123.67L124.95,123.63L128.04,125.26L126.92,125.43L125.56,126.16L123.94,128.43L123.47,130.94L123.13,131.53L122.55,131.46L120.36,130.49L120.42,130.77L123.12,133.23L126.15,134.74L126.71,134.73L126.68,133.89L127.53,133.21L133.51,130.80L134.23,130.72L138.73,135.03L139.27,135.12L140.99,133.21L141.57,132.90L143.80,132.90L146.86,134.55L145.76,134.70L143.93,135.86L142.57,138.38L142.19,140.72L141.39,140.72L139.21,139.76L139.27,140.04L142.01,142.46L145.58,144.30L145.69,145.03L144.66,144.90L112.10,128.70L111.48,128.12L111.48,123.45L113.26,122.23L114.67,121.85L118.06,121.85z"/><path style="fill:#acacac" d="M132.72,127.83L133.93,128.71L134.23,130.72L133.51,130.80L127.53,133.21L126.68,133.89L126.71,134.73L126.15,134.74L123.12,133.23L120.42,130.77L120.36,130.49L122.55,131.46L123.13,131.53L123.47,130.94L123.94,128.43L125.56,126.16L126.92,125.43L128.04,125.26z"/><path style="fill:#acacac" d="M148.29,136.19L148.31,144.12L146.69,144.90L145.69,145.03L145.58,144.30L142.01,142.46L139.27,140.04L139.21,139.76L141.39,140.72L142.19,140.72L142.57,138.38L143.93,135.86L145.76,134.70L146.86,134.55L147.10,134.69z"/><path style="fill:#c0c0c0" d="M169.40,108.99L170.32,104.21L171.93,100.44L174.32,97.15L176.69,95.02L178.48,93.83L181.07,92.83L184.29,92.95L181.08,93.43L178.39,94.63L176.08,96.51L173.42,99.53L171.29,103.68L170.40,107.29L170.40,112.29L170.73,113.49L170.50,114.35L169.79,112.59z"/><path style="fill:#c0c0c0" d="M99.52,112.57L100.14,113.09L98.50,113.16L97.91,113.47L96.52,115.40L96.63,117.79L95.34,117.05L94.70,116.19L94.71,114.15L95.34,112.99L96.12,112.27L97.14,112.01z"/><path style="fill:#c0c0c0" d="M183.86,155.67L185.36,155.63L186.38,156.08L184.74,157.82L184.28,160.25L183.48,159.93L183.29,158.92L178.18,156.25L156.63,145.79L156.01,145.21L156.02,144.07L157.14,142.75L157.54,142.75z"/><path style="fill:#cdd1d5" d="M159.07,70.90L162.63,72.49L171.03,80.54L172.52,82.35L172.52,84.57L171.90,86.05L170.08,89.02L168.91,94.42L166.82,99.81L163.73,104.50L161.76,106.72L158.77,109.41L155.35,111.38L152.67,112.29L149.05,112.56L141.61,117.38L139.58,117.38L124.63,109.87L124.45,109.53L124.92,109.57L138.74,116.24L137.79,112.59L135.99,106.92L135.89,105.74L136.33,105.74L135.41,102.11L135.01,97.92L135.61,92.83L140.09,75.48L141.25,73.65L142.77,72.77L156.67,70.72z"/><path style="fill:#e5e5e5" d="M128.84,127.21L128.84,129.44L128.43,130.23L126.93,132.01L124.94,132.02L124.32,131.14L124.32,129.11L125.10,127.50L126.62,126.32L127.95,126.32z"/><path style="fill:#e5e5e5" d="M147.69,136.49L147.69,138.71L147.28,139.50L145.77,141.29L143.78,141.29L143.16,140.42L143.17,138.38L143.95,136.77L145.46,135.59L146.79,135.59z"/><path style="fill:#acacac" d="M186.96,94.18L184.25,94.51L183.37,94.83L182.55,94.93L183.21,95.02L183.37,94.83L184.25,94.51L187.28,94.46L189.85,95.52L191.08,96.68L191.94,98.22L192.84,100.61L192.84,105.79L191.95,109.39L190.65,111.97L188.85,114.67L187.18,116.59L184.63,118.52L181.69,119.77L178.16,119.77L172.52,117.04L170.72,114.94L170.50,114.35L170.73,113.49L170.40,112.29L170.40,107.29L171.29,103.68L173.42,99.53L176.08,96.51L178.39,94.63L181.08,93.43L184.29,92.95L185.08,93.13z"/><path style="fill:#acacac" d="M100.27,113.32L100.33,115.88L99.11,117.65L96.63,117.79L96.52,115.40L97.91,113.47L98.50,113.16L100.14,113.09z"/><path style="fill:#acacac" d="M107.61,116.74L107.60,118.97L106.99,120.15L105.68,121.53L103.36,121.59L102.83,120.87L103.09,118.34L104.17,116.74L105.07,115.85L106.21,115.68L106.72,115.86z"/><path style="fill:#acacac" d="M114.46,123.46L115.26,123.02L116.26,123.02L116.25,124.67L115.35,124.57L114.41,123.96z"/><path style="fill:#acacac" d="M153.67,139.18L154.27,140.08L154.27,142.30L153.66,143.49L152.08,144.90L150.34,144.90L149.47,144.28L149.32,143.90L150.05,140.78L151.16,139.49L152.58,138.72z"/><path style="fill:#acacac" d="M187.75,156.55L187.77,159.05L187.15,159.93L186.17,160.77L184.28,160.25L184.74,157.82L186.38,156.08z"/><path style="fill:#c0c0c0" d="M187.28,94.46L184.25,94.51L186.96,94.18z"/><path style="fill:#c0c0c0" d="M183.21,95.02L182.55,94.93L183.37,94.83z"/><path style="fill:#c0c0c0" d="M181.13,96.09L180.37,96.32L180.80,95.77L181.16,95.79z"/><path style="fill:#c0c0c0" d="M179.54,97.33L178.97,97.33L179.87,96.41L180.37,96.32z"/><path style="fill:#c0c0c0" d="M178.50,98.01L177.98,98.40L178.13,97.89z"/><path style="fill:#c0c0c0" d="M184.20,105.67L184.18,106.69L183.58,108.19L182.59,109.01L181.18,108.98L180.86,108.41L180.86,106.67L181.79,105.21L182.70,104.80z"/><path style="fill:#c0c0c0" d="M186.87,107.60L185.87,109.59L184.50,111.21L182.59,112.29L181.35,112.37L181.35,111.70L183.60,110.61L184.97,108.99L185.67,107.59L186.17,104.76L186.85,104.76z"/><path style="fill:#c0c0c0" d="M177.95,98.69L176.42,100.74L175.05,102.96L173.91,105.71L173.10,109.38L172.90,113.07L172.73,112.94L172.80,108.78L173.32,106.31L174.00,104.30L175.81,100.73L177.78,98.52L177.98,98.40z"/><path style="fill:#c0c0c0" d="M173.19,114.59L172.90,113.07L173.07,113.20z"/><path style="fill:#c0c0c0" d="M99.52,114.68L99.54,115.67L98.80,116.46L97.71,116.49L97.72,115.07L98.51,114.34z"/><path style="fill:#c0c0c0" d="M173.42,115.36L173.19,114.59L173.38,114.73z"/><path style="fill:#c0c0c0" d="M102.48,118.34L103.71,116.27L104.78,115.55L106.21,115.68L105.07,115.85L104.17,116.74L103.09,118.34L102.83,120.87L102.48,120.39z"/><path style="fill:#c0c0c0" d="M106.41,119.28L105.37,120.37L104.67,120.35L105.79,119.25L106.21,117.61L106.37,117.68z"/><path style="fill:#c0c0c0" d="M153.07,142.61L152.35,143.38L151.05,143.37L152.15,142.87L152.94,140.89L153.06,140.98z"/><path style="fill:#c0c0c0" d="M149.15,141.67L149.93,140.06L151.16,138.90L152.45,138.58L152.58,138.72L151.16,139.49L150.05,140.78L149.32,143.90L149.16,143.73z"/><path style="fill:#e4e9ed" d="M128.82,59.35L130.92,59.31L140.78,63.83L144.99,64.41L159.07,70.90L156.67,70.72L142.77,72.77L141.25,73.65L140.09,75.48L135.61,92.83L135.01,97.92L135.41,102.11L136.33,105.74L135.89,105.74L135.99,106.92L137.79,112.59L138.74,116.24L124.92,109.57L124.45,109.53L120.81,98.70L120.67,97.56L121.66,97.73L121.10,96.07L113.86,92.52L113.37,92.49L112.66,91.05L112.35,90.16L112.07,88.34L112.12,81.45L111.13,80.59L111.19,79.09L109.06,77.86L109.06,77.39L109.58,76.94L109.98,76.94L111.18,77.61L111.95,77.59L112.30,76.96L113.29,77.05L115.36,72.28L116.91,69.88L116.87,69.53L116.27,69.19L116.26,67.77L116.86,67.67L117.46,68.04L118.24,68.01L121.85,64.42L125.14,62.32L127.65,61.20L127.68,60.52L126.13,59.62L126.12,58.51L127.03,58.40z"/><path style="fill:#e4e9ed" d="M157.83,73.40L159.86,73.40L160.57,73.09L162.67,74.27L157.45,74.29L154.24,75.27L150.35,77.67L147.40,80.39L145.01,83.39L142.89,86.95L140.77,92.01L139.89,96.52L139.89,102.10L140.17,103.92L140.84,106.06L140.11,105.97L140.79,107.18L141.10,108.20L140.50,108.13L138.90,107.19L139.57,104.47L139.27,103.62L136.89,102.39L136.86,101.91L138.71,98.63L138.70,97.32L136.49,96.20L136.58,95.65L139.60,92.64L139.94,91.02L138.39,90.16L137.74,89.54L137.73,89.23L141.70,86.96L142.63,85.14L142.60,84.48L140.98,83.64L141.07,82.75L144.67,82.15L146.83,79.46L146.79,79.09L145.16,78.25L145.16,77.57L145.86,77.54L148.18,78.21L151.85,75.48L150.24,74.66L150.25,73.98L150.96,73.94L152.49,74.88L153.25,74.92L156.02,73.66L156.95,73.71L155.31,72.85L155.32,72.49L156.04,72.45z"/><path style="fill:#e4e9ed" d="M143.48,75.19L143.41,76.70L142.51,77.61L141.38,77.60L141.40,75.59L142.19,74.85L142.89,74.84z"/><path style="fill:#e4e9ed" d="M171.00,83.26L170.94,85.08L170.12,85.79L169.80,84.76L169.81,83.03L170.41,82.92z"/><path style="fill:#e4e9ed" d="M162.07,93.42L161.02,93.72L159.79,94.88L159.02,96.80L159.08,98.59L152.78,95.50L152.43,94.95L152.44,93.51L153.67,91.15L154.73,90.42L156.36,90.43z"/><path style="fill:#e4e9ed" d="M144.11,110.78L143.49,110.82L142.87,110.45L142.87,109.87z"/><path style="fill:#e4e9ed" d="M142.59,113.18L142.51,114.69L141.61,115.60L140.49,115.59L140.50,113.58L141.29,112.84L141.99,112.83z"/><path style="fill:#cdd1d5" d="M140.29,65.21L140.42,65.03L141.41,65.01z"/><path style="fill:#cdd1d5" d="M138.01,66.23L137.10,66.23L138.29,65.60L139.08,65.50z"/><path style="fill:#cdd1d5" d="M136.34,66.91L135.51,67.31L135.93,66.75z"/><path style="fill:#cdd1d5" d="M134.36,68.30L133.80,68.31L135.00,67.40L135.51,67.31z"/><path style="fill:#cdd1d5" d="M131.98,70.41L131.40,70.41L132.95,68.86L133.30,68.86z"/><path style="fill:#cdd1d5" d="M130.66,71.65L128.93,73.29L129.28,72.44L130.66,71.31z"/><path style="fill:#cdd1d5" d="M121.10,96.07L121.66,97.73L120.67,97.56L120.81,98.70L117.19,96.99L114.79,94.91L113.54,93.14L113.37,92.49L113.86,92.52z"/><path style="fill:#cdd1d5" d="M128.90,73.56L127.52,75.48L124.33,81.86L123.13,86.04L122.54,90.24L122.65,95.72L122.24,93.73L122.24,89.34L122.83,85.44L124.63,80.06L127.50,74.85L128.73,73.39L128.93,73.29z"/><path style="fill:#cdd1d5" d="M122.94,97.24L122.65,95.72L122.82,95.85z"/><path style="fill:#cdd1d5" d="M123.17,98.01L122.94,97.24L123.13,97.38z"/><path style="fill:#ffffff" d="M106.21,117.61L105.79,119.25L104.67,120.35L104.18,120.16L104.30,118.06L105.66,117.05z"/><path style="fill:#ffffff" d="M127.37,128.39L127.35,129.74L126.94,130.22L125.73,130.34L125.83,128.53L126.33,128.10L127.05,128.07z"/><path style="fill:#ffffff" d="M146.25,137.65L146.51,138.39L145.78,139.49L144.58,139.61L144.66,138.08L145.17,137.36L145.88,137.37z"/><path style="fill:#ffffff" d="M152.94,140.89L152.15,142.87L151.05,143.37L150.85,143.21L150.94,141.37L151.85,140.45L152.47,140.34z"/><g><g/><g><image x="239.460968" y="168.790283" height="40.937347" width="55.346039" xlink:href="UNI-U1700-ALT-UNIDAN_files/88fc88129644d73b_image_0.jpg" mask="url(#mask0)"/></g></g><g><g/><g><image x="-25.743708" y="-23.242882" height="89.395683" width="87.698730" xlink:href="UNI-U1700-ALT-UNIDAN_files/88fc88129644d73b_image_1.jpg" mask="url(#mask1)"/></g></g><g id="Actor_.0"><g style="stroke:#000000;stroke-width:0.353"><path d="M111.89,77.94L111.24,80.43"/><path d="M111.39,79.23L111.50,79.29"/><path d="M112.14,81.39L121.10,85.91L120.67,89.09L120.61,91.52L120.79,93.83L121.22,96.01L121.69,97.42L113.76,93.52"/><path d="M113.24,77.06L122.31,81.52L122.20,81.84L112.22,76.87"/><path d="M117.08,69.61L118.09,68.26"/><path d="M119.17,66.97L128.20,71.41L127.42,72.30L125.87,74.42L124.49,76.70L123.29,79.09L122.31,81.52"/><path d="M120.99,98.92L120.51,97.35L123.28,98.71L122.67,96.76L122.24,94.58L122.06,92.26L122.12,89.84L122.43,87.33L122.97,84.81L123.75,82.28L124.74,79.80L125.94,77.41L127.33,75.13L128.88,73.01L130.58,71.06L132.39,69.34L134.28,67.85L136.24,66.63L138.23,65.69L140.22,65.05L142.17,64.71L144.07,64.68L144.58,64.76L145.88,64.97L147.58,65.56"/><path d="M121.89,98.03L121.69,97.42"/><path d="M135.68,88.72L134.94,91.22L134.53,93.21L134.14,96.18L134.09,98.58L134.28,100.87L134.69,103.03L135.18,104.54L123.68,98.91L123.03,96.94L122.61,94.76L122.42,92.44L122.48,90.02L122.79,87.52L123.33,84.99L124.11,82.46L125.11,79.98L126.31,77.59L127.70,75.31L129.25,73.18L130.94,71.24L132.75,69.51L134.65,68.03L136.61,66.81L138.57,65.88L140.59,65.22L142.55,64.88L144.45,64.85L146.23,65.13L147.76,65.66"/><path d="M123.68,98.91L123.32,98.73"/><path d="M128.20,71.41L129.11,70.37L130.92,68.64L132.81,67.16L134.76,65.94L136.04,65.34L127.68,61.24"/><path d="M127.73,60.40L127.77,59.86L129.09,59.53"/><path d="M127.77,59.84L137.96,64.57L136.75,65.00L136.04,65.34"/><path d="M137.06,75.54L137.56,73.95L138.10,73.05L138.77,72.31L139.30,71.94L138.55,72.43L137.91,73.12L137.42,73.97L137.12,74.90L137.06,75.54L133.65,89.38L135.25,90.17"/><path d="M158.90,70.72L159.83,71.18L158.19,70.83L156.48,70.74L154.71,70.91L152.90,71.33L142.90,72.81L142.12,73.06L141.36,73.58L140.69,74.32L140.15,75.22L139.80,76.21L136.60,89.17L135.87,91.67L135.35,94.17L135.07,96.64L135.02,99.03L135.20,101.33L135.61,103.44L136.26,105.48L137.12,107.28L138.19,108.85L139.44,110.19L140.86,111.26L142.34,112.01L139.94,110.81L138.51,109.73L137.26,108.40L136.20,106.82L135.68,105.81L135.19,104.56"/><path d="M139.76,117.41L139.23,116.93L138.88,116.23L135.68,105.81"/><path d="M139.15,103.13L138.93,101.96L138.72,99.71L138.74,98.69L137.65,100.41L136.68,102.33L139.24,103.57L139.15,103.13L138.99,103.47"/><path d="M136.26,96.08L136.63,96.53L138.76,97.58L138.80,96.93L138.58,97.22L136.26,96.08L137.61,94.51L139.06,93.13L139.52,92.78L139.05,94.92L138.80,96.93"/><path d="M137.83,89.84L137.85,89.92L140.02,91.01L140.09,90.77L140.00,90.44L137.69,89.31L137.83,89.84"/><path d="M137.69,89.31L139.25,88.27L140.84,87.48L141.51,87.26L140.26,90.25L140.00,90.44"/><path d="M139.59,104.64L140.07,105.98L141.27,108.10L141.22,108.40L138.89,107.31L139.37,105.28L139.59,104.64L139.25,103.57"/><path d="M138.74,98.69L138.76,97.58"/><path d="M138.58,97.22L138.76,97.44"/><path d="M138.43,72.68L141.03,73.95"/><path d="M152.86,75.05L152.66,74.90L152.46,75.24L154.66,74.32L155.61,74.07L155.11,72.81L155.66,72.26L157.97,73.40L157.70,73.68L158.49,73.64L159.87,73.74L159.86,73.44L160.81,73.91L162.48,74.42L164.49,75.44L162.92,74.68L161.22,74.23L159.41,74.09L157.53,74.27L155.60,74.77L153.66,75.57L151.74,76.66L149.86,78.02L148.07,79.64L146.39,81.48L144.84,83.52L143.46,85.72L142.27,88.04L141.28,90.45L140.51,92.91L139.98,95.38L139.69,97.81L139.65,100.17L139.86,102.42L140.31,104.52L141.00,106.43L141.91,108.13L143.04,109.59L144.36,110.78L145.86,111.69L144.93,111.23L144.95,111.54L142.63,110.41L142.60,109.57L142.12,109.14L141.27,108.10"/><path d="M139.52,92.78L140.02,91.01"/><path d="M140.09,90.77L140.26,90.25"/><path d="M139.30,71.94L139.53,71.79L140.31,71.53L151.44,69.89L152.98,70.64L151.97,70.87"/><path d="M140.63,115.67L140.96,115.78L141.36,115.73L141.77,115.51L142.15,115.15L142.44,114.69L142.63,114.17L142.69,113.65L142.52,113.00L142.09,112.64L141.54,112.66L141.29,112.74L140.90,113.04L140.59,113.42L140.31,113.96L140.19,114.48L140.20,114.97L140.35,115.38L140.63,115.67"/><path d="M141.21,108.44L141.51,108.41"/><path d="M143.10,83.97L140.79,82.83L140.75,83.59L142.90,84.65L143.37,83.88L143.10,83.97L143.08,84.35"/><path d="M140.79,82.83L142.34,82.46L143.91,82.35L144.41,82.41L143.37,83.88"/><path d="M141.13,76.99L141.27,77.39L141.53,77.67L141.89,77.80L142.29,77.74L142.70,77.53L143.07,77.16L143.37,76.70L143.55,76.18L143.61,75.66L143.54,75.24L143.32,74.86L143.01,74.66L142.63,74.62L142.22,74.76L141.85,75.03L141.48,75.47L141.24,75.97L141.12,76.49L141.13,76.99"/><path d="M141.51,87.26L142.90,84.65"/><path d="M148.80,112.51L147.85,112.70L145.96,112.78L144.15,112.57L142.34,112.01"/><path d="M144.92,111.23L143.46,110.34L142.60,109.57"/><path d="M144.41,82.41L145.46,81.03L147.37,78.96L147.48,78.61L147.74,78.61L147.37,78.96"/><path d="M145.24,111.39L144.95,111.54"/><path d="M147.50,78.57L145.18,77.43L144.94,78.21L147.07,79.26"/><path d="M147.74,78.61L147.98,78.40L146.60,77.76L145.18,77.43"/><path d="M145.86,111.69L147.50,112.29L149.07,112.56"/><path d="M147.98,78.40L148.94,77.57L150.81,76.20L151.30,75.92L150.94,75.41L149.92,74.47L150.35,73.76L152.66,74.90"/><path d="M149.92,74.47L152.02,75.50L152.45,75.25"/><path d="M152.35,94.33L152.38,94.93L152.66,95.69L153.14,96.22L159.71,99.45L159.23,98.92L158.95,98.16L158.91,97.25L159.11,96.27L159.53,95.32L160.13,94.50L160.85,93.88L161.62,93.52L162.36,93.46L163.01,93.71L156.44,90.49L155.80,90.24L155.05,90.29L154.28,90.65L153.56,91.27L152.96,92.09L152.54,93.04L152.34,94.02L152.35,94.33"/><path d="M151.31,75.91L152.02,75.50"/><path d="M158.73,70.69L157.27,70.38L155.56,70.29L153.78,70.45L152.98,70.64"/><path d="M155.61,74.07L157.03,73.76L155.11,72.81"/><path d="M157.97,73.40L158.09,73.65"/><path d="M157.03,73.76L157.70,73.68"/><path d="M159.71,99.45L160.36,99.70L161.10,99.65L161.87,99.29L162.59,98.67L163.19,97.84L163.61,96.90L163.81,95.92L163.77,95.00L163.50,94.24L163.01,93.71"/><path d="M159.87,73.74L160.81,73.91"/><path d="M159.86,73.44L160.47,73.12L162.79,74.25L162.48,74.42"/><path d="M159.83,71.18L161.36,71.77"/><path d="M162.81,74.57L162.79,74.25"/><path d="M164.49,75.44L165.87,76.46L167.13,77.81L168.15,79.40L168.96,81.21L169.52,83.19L169.95,82.92L170.22,82.85L170.60,82.88L170.91,83.09L171.12,83.44L171.20,83.89L171.14,84.41L170.96,84.93L170.66,85.39L170.29,85.75L169.88,85.97L169.95,87.71L169.82,89.54"/><path d="M169.88,85.97L169.86,85.40L169.52,83.19"/></g><g style="stroke:#000000;stroke-width:0.353"><path d="M111.24,80.43L111.06,80.27L110.99,79.90L111.14,79.49L111.39,79.23L109.17,78.14L109.00,77.86L109.03,77.49L109.15,77.24L109.45,76.94L109.77,76.90L111.89,77.94L112.22,76.87L113.20,77.05L114.10,74.85L115.14,72.70L116.34,70.66L117.07,69.63L116.15,69.15L116.02,69.01L115.94,68.57L116.12,68.06L116.49,67.71L116.88,67.66L118.09,68.26L119.17,66.97L120.76,65.38L122.41,64.01L124.15,62.83L125.91,61.91L127.68,61.24L127.73,60.40L126.10,59.60L125.99,59.48L125.93,59.11L125.98,58.90L126.22,58.52L126.55,58.34L126.71,58.36L129.07,59.52L130.88,59.26L141.12,63.99L142.58,64.00L144.39,64.28L146.08,64.87L158.73,70.69L160.43,71.32L161.36,71.77L162.77,72.62L164.04,73.69L165.16,74.99L171.95,81.47L172.38,82.09L172.61,82.90L172.61,83.84L172.38,84.84L171.96,85.80L169.82,89.54L169.37,92.56L168.72,95.03L167.84,97.47L166.74,99.84L165.45,102.11L163.99,104.23L162.37,106.17L160.63,107.91L158.79,109.40L156.91,110.62L154.95,111.58L153.01,112.23L151.10,112.56L149.07,112.56L141.98,117.16L141.22,117.51L140.44,117.61L139.76,117.41L124.96,110.13L124.42,109.66L124.07,108.95L120.99,98.92"/><path d="M120.99,98.92L117.49,97.20L116.06,96.25L114.81,95.01L113.76,93.52L112.91,91.79L112.29,89.86L111.91,87.76L111.77,85.52L111.88,83.18L112.14,81.39L111.14,80.88L111.24,80.43"/></g></g><g id="Actor_.1"><g style="stroke:#000000;stroke-width:0.353"><path d="M95.61,112.64L95.21,113.10L94.88,113.64L94.64,114.23L94.51,114.83"/><path d="M94.90,115.27L94.91,114.70L95.25,113.97L95.60,113.39L96.03,112.84L96.61,112.24L97.96,112.90L97.62,113.63L97.27,114.21L97.69,113.71L98.18,113.31L98.69,113.07L99.19,113.00L99.64,113.09L100.03,113.35L100.31,113.76L100.47,114.27L100.50,114.86L100.39,115.51L100.16,116.16L99.83,116.75L99.41,117.25L98.92,117.65L98.40,117.89L97.91,117.96L97.68,117.91L97.46,117.87L97.07,117.61L96.79,117.20L96.63,116.69L96.70,117.25L96.69,117.86"/><path d="M94.91,114.70L96.26,115.36L96.50,116.10L96.63,116.69L96.60,116.10L96.70,115.45L96.93,114.80L97.27,114.21L96.84,114.76L96.26,115.36"/><path d="M96.61,112.24L97.07,112.19L97.52,112.18L97.82,112.19"/><path d="M98.63,116.65L98.38,116.75L98.07,116.75L97.80,116.60L97.62,116.34L97.54,115.98L97.57,115.57L97.70,115.15L97.93,114.76L98.22,114.45L98.55,114.26L98.88,114.19L99.17,114.27L99.40,114.48L99.53,114.79L99.56,115.18L99.48,115.60L99.29,116.01L99.03,116.36L98.71,116.62L98.63,116.65"/><path d="M100.09,112.94L99.65,112.99L99.19,113.00L98.66,112.97L97.96,112.90"/></g><g style="stroke:#000000;stroke-width:0.353"><path d="M95.19,116.73L95.34,117.20L96.69,117.86L97.39,117.93L97.91,117.96L98.36,117.95L98.82,117.90L99.40,117.30L99.83,116.75L100.18,116.17L100.52,115.44L100.53,114.82L100.47,114.27L100.33,113.68L100.09,112.94L98.74,112.28L98.04,112.21L97.82,112.19L97.59,112.08L97.09,111.98L96.56,112.06L96.08,112.28L95.60,112.65L95.20,113.11L94.87,113.64L94.64,114.22L94.52,114.82L94.50,115.43L94.55,115.65"/></g></g><g id="Actor_.2"><g style="stroke:#000000;stroke-width:0.353"><path d="M102.93,120.53L103.00,120.83L103.40,121.47L103.99,121.84"/><path d="M106.56,115.73L105.85,115.66L105.08,115.90L104.33,116.41L103.67,117.16L103.17,118.07L102.91,118.94"/><path d="M104.25,120.21L104.27,120.25L104.61,120.45L105.03,120.47L105.47,120.30L105.89,119.97L106.24,119.52L106.49,118.98L106.60,118.42L106.58,117.90L106.51,117.68L106.41,117.48L106.12,117.20L105.77,117.10"/></g><g style="stroke:#000000;stroke-width:0.353"><path d="M102.34,119.43L102.38,118.80L102.67,117.82L103.17,116.92L103.83,116.17L104.58,115.65L105.35,115.42L106.06,115.49L106.56,115.73L107.15,116.10L107.55,116.74L107.73,117.57L107.67,118.52L107.38,119.50L106.88,120.41L106.22,121.16L105.47,121.67L104.70,121.91L103.99,121.84L103.49,121.59L102.90,121.22L102.64,120.81"/><path d="M104.25,120.21L104.04,119.89L103.94,119.42L103.99,118.87L104.17,118.32L104.47,117.81L104.87,117.41L105.30,117.16L105.73,117.09L105.77,117.10"/><path d="M105.77,117.10L105.91,117.23L106.01,117.43L106.08,117.66L106.10,118.18L105.99,118.73L105.74,119.27L105.39,119.73L104.97,120.06L104.53,120.22L104.25,120.21"/></g></g><g id="Actor_.3"><g style="stroke:#000000;stroke-width:0.353"><path d="M143.99,141.43L143.46,141.00L143.11,140.33L143.00,139.47L143.11,138.52L143.46,137.58L143.99,136.72L144.66,136.04L145.41,135.60L146.16,135.44L146.83,135.59"/><path d="M144.56,139.52L144.44,139.30L144.38,138.92L144.44,138.49L144.60,138.07L144.85,137.70L145.16,137.41L145.50,137.24L145.82,137.21L146.11,137.32L146.31,137.56L146.42,137.90L146.44,138.10L146.42,138.31L146.31,138.74L146.11,139.15L145.82,139.48L145.50,139.71L145.16,139.81L144.85,139.77L144.60,139.60L144.56,139.52"/></g><g style="stroke:#000000;stroke-width:0.353"><path d="M146.76,135.55L146.83,135.59L147.36,136.02L147.71,136.69L147.83,137.55L147.71,138.50L147.36,139.44L146.83,140.30L146.16,140.98L145.41,141.42L144.66,141.58L143.99,141.43L143.91,141.39"/></g></g><g id="Actor_.4"><g style="stroke:#000000;stroke-width:0.353"><path d="M127.95,126.31L127.28,126.16L126.53,126.32L125.79,126.76L125.65,126.90L125.12,127.44L124.58,128.30L124.24,129.25L124.12,130.20L124.24,131.05L124.40,131.38L124.58,131.72L125.12,132.16"/><path d="M125.52,129.51L125.51,129.64L125.56,130.02L125.72,130.32L125.97,130.50L126.28,130.54L126.62,130.44L126.95,130.20L127.23,129.87L127.44,129.46L127.55,129.03L127.56,128.82L127.55,128.63L127.44,128.28L127.23,128.04L126.95,127.93L126.62,127.96L126.28,128.13L125.97,128.42L125.72,128.80L125.56,129.22L125.52,129.51"/></g><g style="stroke:#000000;stroke-width:0.353"><path d="M127.88,126.27L127.95,126.31L128.49,126.74L128.83,127.42L128.95,128.27L128.83,129.22L128.49,130.17L127.95,131.03L127.94,131.04L127.28,131.71L126.53,132.15L125.79,132.30L125.12,132.16L125.03,132.12"/></g></g><g id="Actor_.5"><g style="stroke:#000000;stroke-width:0.353"><path d="M155.92,144.45L156.04,143.97L156.27,143.52L156.59,143.15"/><path d="M184.60,156.06L183.32,157.47L183.32,158.85"/><path d="M183.32,157.47L184.30,157.96L184.41,158.65L184.44,159.22L184.41,159.76L184.30,160.35"/><path d="M184.47,159.47L184.50,159.73L184.67,160.17L184.95,160.49L185.30,160.68L185.71,160.72L186.16,160.61L186.61,160.36L187.02,159.99L187.37,159.52L187.65,158.98L187.82,158.40L187.88,157.85L187.82,157.34L187.65,156.91L187.37,156.58L187.02,156.40L186.02,156.07L185.66,156.64L184.95,157.54L184.67,158.09L184.50,158.66L184.44,159.22L184.47,159.47"/><path d="M187.74,156.59L187.02,156.40L186.61,156.35L186.16,156.46L185.71,156.71L184.88,157.50L184.30,157.96"/><path d="M186.02,156.07L185.04,155.59"/></g><g style="stroke:#000000;stroke-width:0.353"><path d="M180.62,157.52L183.32,158.85L183.32,159.87L184.30,160.35L185.30,160.68L186.02,160.86L186.59,160.41L187.02,159.99L187.38,159.54L187.74,158.98L187.85,158.39L187.88,157.85L187.85,157.29L187.74,156.59L186.75,156.10L185.04,155.59L184.60,156.06L157.67,142.83L157.33,142.78L156.95,142.89L156.59,143.15L156.21,143.57L156.04,143.91L155.94,144.28L155.92,144.90L156.04,145.29L156.27,145.55L179.41,156.93"/></g></g><g id="Actor_.6"><g style="stroke:#000000;stroke-width:0.353"><path d="M186.13,93.65L184.78,93.19L183.32,93.05L181.81,93.21L180.21,93.69L178.63,94.47L177.10,95.52L175.64,96.83L174.29,98.37L173.18,99.95L172.06,101.94L171.23,103.90L170.63,105.90L170.27,107.81L170.13,109.85L170.26,111.70L170.62,113.41L171.23,114.93L172.05,116.23L173.08,117.27L174.28,118.03"/><path d="M187.34,94.43L187.19,94.38L185.73,94.23L184.19,94.39L182.61,94.87L181.04,95.65L179.50,96.70L178.04,98.02L176.69,99.55L175.49,101.26L174.47,103.12L173.64,105.08L173.03,107.08L172.66,109.08L172.54,111.03L172.66,112.88L173.03,114.59L173.63,116.11L174.46,117.41L175.47,118.44"/><path d="M177.06,119.40L175.86,118.64L174.84,117.60L174.00,116.30L173.40,114.77L173.03,113.07L172.91,111.21L173.03,109.26L173.40,107.26L174.01,105.26L174.83,103.32L175.86,101.45L177.06,99.73L178.41,98.20L179.87,96.89L181.41,95.83L182.98,95.05L184.56,94.58L186.10,94.41L187.56,94.56L188.90,95.02"/><path d="M179.32,110.86L179.13,110.50L178.90,109.43L178.90,109.07L179.06,109.81L179.46,110.58L180.04,111.13L180.75,111.44L181.56,111.49L182.42,111.28L183.28,110.81L184.09,110.11L184.81,109.23L185.38,108.22L185.79,107.14L185.99,106.04L186.00,105.56L186.00,104.99L185.79,104.06L185.39,103.29L184.92,102.85L184.81,102.74L184.10,102.43L183.29,102.38L182.43,102.59L181.84,102.91L182.00,102.78L182.98,102.24L183.97,101.99L184.89,102.05L185.71,102.41L186.37,103.04L186.83,103.92L187.06,104.98L187.06,106.18L186.83,107.44L186.36,108.68L185.71,109.84L184.89,110.84L183.96,111.64L182.98,112.17L181.99,112.42L181.07,112.36L180.25,112.01L179.59,111.38L179.32,110.86"/><path d="M178.90,109.07L178.90,108.23L179.13,106.98L179.59,105.75L180.25,104.58L181.07,103.57L181.84,102.91"/><path d="M181.56,109.09L181.34,109.04L180.95,108.68L180.72,108.13L180.67,107.46L180.82,106.72L181.13,106.01L181.59,105.40L182.14,104.96L182.71,104.73L183.26,104.74L183.72,104.98L184.03,105.44L184.18,106.06L184.13,106.78L183.90,107.51L183.50,108.18L182.99,108.71L182.42,109.06L181.85,109.17L181.56,109.09"/></g><g style="stroke:#000000;stroke-width:0.353"><path d="M187.34,94.43L186.13,93.65L185.39,93.29L184.04,92.83L182.58,92.68L181.04,92.85L179.47,93.33L177.89,94.10L176.36,95.16L174.90,96.47L173.55,98.00L172.35,99.72L171.32,101.58L170.49,103.53L169.89,105.53L169.52,107.54L169.39,109.49L169.52,111.34L169.88,113.05L170.49,114.57L171.31,115.87L172.34,116.91L173.54,117.67L174.28,118.03L175.47,118.44"/><path d="M180.70,119.91L179.86,120.00L178.40,119.86L177.06,119.40L176.69,119.21L175.47,118.44"/><path d="M181.95,119.67L182.98,119.36L184.55,118.59L186.09,117.53L187.55,116.22L188.90,114.69L190.10,112.97L191.12,111.11L191.95,109.15L192.56,107.15L192.93,105.15L193.05,103.20L192.93,101.35L192.56,99.64L191.96,98.12L191.13,96.82L190.10,95.78L188.90,95.02L188.53,94.84L187.34,94.43"/></g></g><g id="Actor_.7"><g style="stroke:#000000;stroke-width:0.353"><path d="M119.74,128.89L112.69,125.43L112.00,124.99L111.78,124.78L111.52,124.42L111.42,124.04L111.46,123.66L111.53,123.53L111.66,123.29L112.00,122.93"/><path d="M145.35,145.15L112.69,129.10L112.17,128.79"/><path d="M114.42,124.02L114.37,123.73L114.54,123.45L114.91,123.20L115.43,123.03L116.06,122.94L116.72,122.94L117.34,123.04L117.86,123.22L118.21,123.46L118.37,123.75L118.30,124.04L118.03,124.31L117.58,124.52L117.01,124.65L116.34,124.70L115.69,124.65L115.12,124.51L114.67,124.29L114.42,124.02"/><path d="M119.77,127.92L119.92,127.20L120.18,126.47L120.52,125.78L121.04,125.05L120.52,125.78L120.18,126.46L119.93,127.16L119.77,127.93L119.71,128.65L119.77,129.32L119.93,129.92L120.25,130.54L120.61,130.96L122.39,132.54L122.66,132.80L122.72,132.91"/><path d="M122.63,123.75L122.00,124.12L121.45,124.58L121.04,125.05L121.44,124.60"/><path d="M122.70,133.05L126.81,135.06"/><path d="M122.64,132.78L122.70,132.87"/><path d="M125.99,134.15L124.21,132.57L123.86,132.17L123.60,131.66L123.52,131.42L123.44,131.07L123.38,130.41L123.49,129.40L123.68,128.68L123.98,127.97L124.35,127.31L124.81,126.72L125.10,126.41L125.63,125.95L126.19,125.61L126.76,125.40L127.32,125.32L127.84,125.37L128.32,125.55L133.98,128.74"/><path d="M124.40,131.42L124.22,131.06L124.10,130.20L124.22,129.25L124.57,128.29L125.11,127.43L125.78,126.74L126.53,126.30L127.29,126.15L127.96,126.29L128.50,126.73L128.85,127.41L128.97,128.27L128.85,129.22L128.50,130.17L127.96,131.04L127.29,131.72L126.58,132.14L125.78,132.32L125.11,132.18L124.57,131.74L124.40,131.42"/><path d="M126.71,134.07L126.71,134.57"/><path d="M127.21,134.06L139.14,139.92"/><path d="M134.02,130.81L127.00,133.61"/><path d="M134.35,130.95L134.33,130.92L134.39,131.02"/><path d="M134.09,128.97L134.09,130.24"/><path d="M134.50,131.21L139.15,135.35"/><path d="M138.56,137.18L138.59,137.01L138.50,137.91L138.56,138.58L138.73,139.19L139.02,139.78L139.39,140.20L141.77,142.31L141.87,142.49"/><path d="M138.91,135.88L138.71,136.44L138.59,137.01L138.72,136.42L138.97,135.71L139.15,135.35"/><path d="M138.97,135.71L139.32,135.02L139.75,134.38L140.25,133.82"/><path d="M145.19,144.10L141.91,142.48"/><path d="M141.82,142.38L141.83,142.39"/><path d="M147.20,134.83L146.76,134.66L146.45,134.61L146.24,134.59L145.70,134.66L145.10,134.87L144.54,135.20L144.22,135.45L143.51,136.20L143.25,136.56L142.87,137.22L142.57,137.93L142.31,138.96L142.26,139.67L142.31,140.33L142.47,140.93L142.61,141.23L142.73,141.45L143.08,141.85L145.50,144.00L145.60,144.26L145.61,144.93"/><path d="M143.53,137.43L143.98,136.71L144.66,136.02L145.41,135.58L146.16,135.42L146.82,135.56L147.38,136.00L147.72,136.68L147.84,137.54L147.72,138.50L147.38,139.45L146.84,140.31L146.16,141.00L145.46,141.41L144.66,141.60L143.98,141.45L143.46,141.03L143.10,140.34L142.98,139.48L143.10,138.52L143.41,137.68"/><path d="M145.90,145.16L148.05,144.30"/><path d="M148.34,143.84L148.34,137.31"/></g><g style="stroke:#000000;stroke-width:0.353"><path d="M122.63,123.75L120.00,122.46L119.37,122.20L118.66,122.00L117.88,121.85L117.02,121.76L116.20,121.74L115.38,121.79L114.53,121.90L113.78,122.07L113.09,122.30L112.51,122.58L111.94,122.98L111.60,123.33L111.33,123.84L111.25,124.39L111.25,127.36L111.39,127.91L111.72,128.41L112.22,128.83L112.73,129.13L145.39,145.19L145.63,145.24L145.85,145.20L148.01,144.34L148.24,144.15L148.32,143.97L148.34,143.80L148.34,137.28L148.29,136.61L148.15,136.01L147.90,135.49L147.51,134.95L147.01,134.56L143.73,132.94L143.15,132.73L142.61,132.67L141.96,132.77L141.38,132.99L140.80,133.34L140.26,133.81L139.74,134.39L139.32,135.02L139.15,135.34"/><path d="M122.63,123.75L123.14,123.56L123.83,123.45L124.37,123.51L124.99,123.73L128.14,125.28L133.80,128.46L133.98,128.62L134.08,128.82L134.11,130.39L134.25,130.78L134.45,131.13L139.15,135.34"/><path d="M143.53,137.43L143.41,137.68"/></g></g><g id="Actor_.8"><g style="stroke:#000000;stroke-width:0.353"><path d="M150.65,145.03L150.07,144.66L149.66,144.03L149.48,143.19L149.54,142.24L149.84,141.26L150.34,140.36L151.00,139.61L151.75,139.09L152.52,138.86L153.23,138.93"/><path d="M150.91,143.40L150.94,143.45L151.28,143.64L151.70,143.66L152.14,143.50L152.55,143.17L152.91,142.71L153.15,142.17L153.27,141.62L153.24,141.10L153.18,140.87L153.08,140.67L152.78,140.39L152.43,140.29"/></g><g style="stroke:#000000;stroke-width:0.353"><path d="M149.00,142.62L148.98,142.95L149.16,143.78L149.57,144.41L150.15,144.78L150.65,145.03L151.37,145.10L152.14,144.87L152.89,144.35L153.54,143.60L154.05,142.69L154.34,141.72L154.40,140.76L154.22,139.93L153.82,139.30L153.23,138.93L152.73,138.68L152.02,138.61L151.25,138.84L150.50,139.36L149.84,140.11L149.34,141.02L149.04,142.00L149.00,142.62"/><path d="M152.43,140.29L152.58,140.43L152.68,140.62L152.74,140.85L152.77,141.37L152.65,141.93L152.41,142.46L152.05,142.92L151.64,143.25L151.20,143.42L150.91,143.40"/><path d="M152.43,140.29L152.40,140.28L151.97,140.36L151.53,140.61L151.14,141.01L150.84,141.51L150.65,142.06L150.61,142.61L150.71,143.09L150.91,143.40"/></g></g><g><g><path style="stroke:#1e1e1e;stroke-width:0.250;stroke-dasharray:2.9 2.9" d="M129.63,130.88L97.44,114.93"/></g></g><g><g><path style="stroke:#1e1e1e;stroke-width:0.250;stroke-dasharray:2.9 2.9" d="M129.49,107.91L129.49,130.27"/></g></g><g><g><path style="stroke:#1e1e1e;stroke-width:0.250;stroke-dasharray:2.9 2.9" d="M135.43,133.20L167.74,149.49"/></g></g><g><g><path style="stroke:#1e1e1e;stroke-width:0.250;stroke-dasharray:2.9 2.9" d="M157.66,94.76L181.22,106.34"/></g></g><g><g><path style="stroke:#000000;stroke-width:0.500" d="M58.96,122.35L89.07,122.35L95.54,115.47"/></g><g><path style="fill:#000000" d="M96.54,115.47L96.54,115.37L96.53,115.27L96.50,115.18L96.47,115.09L96.43,115.00L96.38,114.91L96.32,114.83L96.25,114.76L96.18,114.70L96.10,114.64L96.02,114.59L95.93,114.54L95.83,114.51L95.74,114.49L95.64,114.47L95.54,114.47L95.45,114.47L95.35,114.49L95.25,114.51L95.16,114.54L95.07,114.59L94.99,114.64L94.91,114.70L94.84,114.76L94.77,114.83L94.71,114.91L94.66,115.00L94.62,115.09L94.59,115.18L94.56,115.27L94.55,115.37L94.54,115.47L94.55,115.57L94.56,115.66L94.59,115.76L94.62,115.85L94.66,115.94L94.71,116.02L94.77,116.10L94.84,116.18L94.91,116.24L94.99,116.30L95.07,116.35L95.16,116.39L95.25,116.43L95.35,116.45L95.45,116.46L95.54,116.47L95.64,116.46L95.74,116.45L95.83,116.43L95.93,116.39L96.02,116.35L96.10,116.30L96.18,116.24L96.25,116.18L96.32,116.10L96.38,116.02L96.43,115.94L96.47,115.85L96.50,115.76L96.53,115.66L96.54,115.57z"/></g><g><text xml:space="preserve" fill="#000000" stroke-width="0" x="58.96" y="121.38" font-size="3.51" opacity="1.00" font-family="Verdana">7/16 NYLOC NUT</text></g></g><g><g><path style="stroke:#000000;stroke-width:0.500" d="M22.20,129.63L92.52,129.63L103.30,119.35"/></g><g><path style="fill:#000000" d="M104.30,119.35L104.29,119.25L104.28,119.15L104.26,119.06L104.22,118.96L104.18,118.87L104.13,118.79L104.07,118.71L104.01,118.64L103.93,118.57L103.85,118.51L103.77,118.46L103.68,118.42L103.59,118.39L103.49,118.36L103.40,118.35L103.30,118.35L103.20,118.35L103.10,118.36L103.01,118.39L102.92,118.42L102.83,118.46L102.74,118.51L102.66,118.57L102.59,118.64L102.53,118.71L102.47,118.79L102.42,118.87L102.37,118.96L102.34,119.06L102.32,119.15L102.30,119.25L102.30,119.35L102.30,119.44L102.32,119.54L102.34,119.64L102.37,119.73L102.42,119.82L102.47,119.90L102.53,119.98L102.59,120.05L102.66,120.12L102.74,120.18L102.83,120.23L102.92,120.27L103.01,120.30L103.10,120.33L103.20,120.34L103.30,120.35L103.40,120.34L103.49,120.33L103.59,120.30L103.68,120.27L103.77,120.23L103.85,120.18L103.93,120.12L104.01,120.05L104.07,119.98L104.13,119.90L104.18,119.82L104.22,119.73L104.26,119.64L104.28,119.54L104.29,119.44z"/></g><g><text xml:space="preserve" fill="#000000" stroke-width="0" x="22.20" y="128.66" font-size="3.53" opacity="1.00" font-family="Verdana">M12 GRADE 8 HARDENED WASHER Z/P</text></g></g><g><g><path style="stroke:#000000;stroke-width:0.500" d="M92.45,165.66L169.05,165.66L181.90,155.78"/></g><g><path style="fill:#000000" d="M182.90,155.78L182.89,155.68L182.88,155.58L182.86,155.49L182.82,155.40L182.78,155.31L182.73,155.22L182.67,155.15L182.61,155.07L182.53,155.01L182.45,154.95L182.37,154.90L182.28,154.86L182.19,154.82L182.09,154.80L182.00,154.78L181.90,154.78L181.80,154.78L181.70,154.80L181.61,154.82L181.52,154.86L181.43,154.90L181.34,154.95L181.26,155.01L181.19,155.07L181.13,155.15L181.07,155.22L181.02,155.31L180.97,155.40L180.94,155.49L180.92,155.58L180.90,155.68L180.90,155.78L180.90,155.88L180.92,155.98L180.94,156.07L180.97,156.16L181.02,156.25L181.07,156.34L181.13,156.41L181.19,156.49L181.26,156.55L181.34,156.61L181.43,156.66L181.52,156.70L181.61,156.74L181.70,156.76L181.80,156.78L181.90,156.78L182.00,156.78L182.09,156.76L182.19,156.74L182.28,156.70L182.37,156.66L182.45,156.61L182.53,156.55L182.61,156.49L182.67,156.41L182.73,156.34L182.78,156.25L182.82,156.16L182.86,156.07L182.88,155.98L182.89,155.88z"/></g><g><text xml:space="preserve" fill="#000000" stroke-width="0" x="92.45" y="164.69" font-size="3.54" opacity="1.00" font-family="Verdana">7/16X6 UNC HEX BOLT ONLY GRADE 8 Z/P</text></g></g><g><g><path style="stroke:#000000;stroke-width:0.500" d="M239.33,134.72L189.63,134.72L180.25,117.85"/></g><g><path style="fill:#000000" d="M181.25,117.85L181.24,117.76L181.23,117.66L181.20,117.56L181.17,117.47L181.13,117.38L181.08,117.30L181.02,117.22L180.95,117.15L180.88,117.08L180.80,117.02L180.72,116.97L180.63,116.93L180.54,116.90L180.44,116.87L180.35,116.86L180.25,116.85L180.15,116.86L180.05,116.87L179.96,116.90L179.86,116.93L179.78,116.97L179.69,117.02L179.61,117.08L179.54,117.15L179.47,117.22L179.42,117.30L179.37,117.38L179.32,117.47L179.29,117.56L179.27,117.66L179.25,117.76L179.25,117.85L179.25,117.95L179.27,118.05L179.29,118.14L179.32,118.24L179.37,118.33L179.42,118.41L179.47,118.49L179.54,118.56L179.61,118.63L179.69,118.69L179.78,118.74L179.86,118.78L179.96,118.81L180.05,118.84L180.15,118.85L180.25,118.85L180.35,118.85L180.44,118.83L180.54,118.81L180.63,118.78L180.72,118.74L180.80,118.69L180.88,118.63L180.95,118.56L181.02,118.49L181.08,118.41L181.13,118.33L181.17,118.24L181.20,118.14L181.23,118.05L181.24,117.95z"/></g><g><text xml:space="preserve" fill="#000000" stroke-width="0" x="189.63" y="133.75" font-size="3.53" opacity="1.00" font-family="Verdana">98MM ALTERNATOR PULLEY</text></g></g><g/><g><g/><g><image x="267.134003" y="50.813660" height="17.189310" width="19.431398" xlink:href="UNI-U1700-ALT-UNIDAN_files/88fc88129644d73b_image_2.jpg" mask="url(#mask2)"/></g></g><g><g/><g><image x="267.134003" y="29.147215" height="17.590467" width="18.953098" xlink:href="UNI-U1700-ALT-UNIDAN_files/88fc88129644d73b_image_3.jpg" mask="url(#mask3)"/></g></g><g><g/><g><path style="fill:#ffffff" d="M104.98,3.29L194.76,3.29L194.76,13.45L104.98,13.45z"/><text xml:space="preserve" fill="#000000" stroke-width="0" x="106.25" y="10.27" font-size="5.81" opacity="1.00" font-family="Verdana" font-weight="bold">ASSEMBLY INSTRUCTIONS</text></g></g><g><g/><g><path style="fill:#ffffff" d="M68.07,14.30L191.42,14.30L191.42,22.20L68.07,22.20z"/><text xml:space="preserve" fill="#000000" stroke-width="0" x="69.06" y="19.73" font-size="4.50" opacity="1.00" font-family="Verdana" font-weight="bold">STEP 2 - MOUNT ALTERNATOR TO THE BRACKET</text></g></g><g><g/><g><image x="117.603363" y="184.838699" height="17.851601" width="19.118490" xlink:href="UNI-U1700-ALT-UNIDAN_files/88fc88129644d73b_image_4.jpg" mask="url(#mask4)"/></g></g><g id="paperID" visibility="hidden" opacity="0.00" transform="scale(0.000100)"><path style="stroke:#000000;stroke-width:0.500;fill:#e6e6e6;fill-rule:evenodd" d="M-2000.00,-2000.00L2297.00,-2000.00L2297.00,2210.00L-2000.00,2210.00zM0.00,0.00L297.00,0.00L297.00,210.00L0.00,210.00z"/><path style="fill:#000000;fill-opacity:0.118" d="M3.00,210.00L297.00,210.00L297.00,3.00L300.00,3.00L300.00,213.00L3.00,213.00z"/></g><g id="hotspot.0" ident="" onmouseover="ShowHotSpot(evt,&apos;0&apos;)" onmouseout="HideHotSpot(evt,&apos;0&apos;)" onmousemove="ShowToolTip(evt,&apos;0&apos;,&quot;HOME BUTTON&quot;)" opacity="0"><a xlink:href="UNI-U1700-ALT-UNIDAN (HOME).SVG"><path style="fill:#00ff00;fill-rule:evenodd" d="M285.97,46.84L267.26,46.84L267.26,29.59L285.97,29.59z"/></a></g><g id="hotspot.1" ident="" onmouseover="ShowHotSpot(evt,&apos;1&apos;)" onmouseout="HideHotSpot(evt,&apos;1&apos;)" onmousemove="ShowToolTip(evt,&apos;1&apos;,&quot;BOM&quot;)" opacity="0"><a xlink:href="UNI-U1700-ALT-UNIDAN (BOM).SVG"><path style="fill:#00ff00;fill-rule:evenodd" d="M286.34,67.95L267.26,67.95L267.26,51.06L286.34,51.06z"/></a></g><g id="hotspot.2" ident="" onmouseover="ShowHotSpot(evt,&apos;2&apos;)" onmouseout="HideHotSpot(evt,&apos;2&apos;)" onmousemove="ShowToolTip(evt,&apos;2&apos;,&quot;BUTTON - PREVIOUS&quot;)" opacity="0"><a xlink:href="UNI-U1700-ALT-UNIDAN (ASSEMBLY - STEP 1).SVG"><path style="fill:#00ff00;fill-rule:evenodd" d="M136.75,202.62L117.67,202.62L117.67,185.00L136.75,185.00z"/></a></g><g id="hotspot.3" ident="" onmouseover="ShowHotSpot(evt,&apos;3&apos;)" onmouseout="HideHotSpot(evt,&apos;3&apos;)" onmousemove="ShowToolTip(evt,&apos;3&apos;,&quot;Fillet26&quot;)" opacity="0"><path style="fill:#00ff00;fill-rule:evenodd" d="M119.63,122.41L121.79,123.53L125.81,124.24L133.82,128.60L134.15,130.82L134.58,131.49L138.59,135.18L139.24,135.29L140.98,133.33L142.07,132.96L143.29,132.94L145.47,134.06L147.71,135.46L148.37,137.34L148.26,144.26L146.83,145.00L144.72,145.00L112.00,128.95L111.62,128.61L111.58,123.59L113.07,122.53L114.40,122.05L118.17,122.05zM128.34,126.81L128.75,127.48L128.74,129.83L128.02,131.29L126.76,132.22L125.04,132.28L124.32,131.56L124.34,129.07L125.84,126.93L126.78,126.38L127.64,126.37zM147.67,136.59L147.67,138.93L146.93,140.38L145.74,141.37L143.64,141.34L143.28,140.98L143.26,138.17L144.40,136.39L145.33,135.87L146.94,135.86z"/></g><g id="hotspot.4" ident="" onmouseover="ShowHotSpot(evt,&apos;4&apos;)" onmouseout="HideHotSpot(evt,&apos;4&apos;)" onmousemove="ShowToolTip(evt,&apos;4&apos;,&quot;Cut-Revolve2&quot;)" opacity="0"><path style="fill:#00ff00;fill-rule:evenodd" d="M98.89,112.58L100.36,113.66L100.35,116.00L98.75,118.04L97.04,118.07L95.94,117.72L94.89,116.57L94.85,113.77L95.84,112.58L96.58,112.18z"/></g><g id="hotspot.5" ident="" onmouseover="ShowHotSpot(evt,&apos;5&apos;)" onmouseout="HideHotSpot(evt,&apos;5&apos;)" onmousemove="ShowToolTip(evt,&apos;5&apos;,&quot;Cut-Revolve1&quot;)" opacity="0"><path style="fill:#00ff00;fill-rule:evenodd" d="M184.05,155.95L185.49,155.88L187.72,156.96L187.71,159.32L186.47,160.63L184.75,160.65L183.68,160.27L182.98,158.79L156.40,145.69L156.00,145.33L155.97,144.37L156.99,143.12L157.84,143.12z"/></g><g id="hotspot.6" ident="" onmouseover="ShowHotSpot(evt,&apos;6&apos;)" onmouseout="HideHotSpot(evt,&apos;6&apos;)" onmousemove="ShowToolTip(evt,&apos;6&apos;,&quot;Boss-Extrude1&quot;)" opacity="0"><path style="fill:#00ff00;fill-rule:evenodd" d="M107.63,116.93L107.62,118.90L106.53,121.09L105.70,121.72L103.24,121.69L102.49,120.63L102.50,118.51L103.27,117.10L104.56,115.84L106.55,115.84zM153.82,139.54L154.23,140.22L154.22,142.58L153.83,143.28L152.25,144.96L150.17,145.01L149.48,144.60L149.07,143.54L149.07,142.18L150.18,139.98L151.90,138.76L152.38,138.76zM105.82,119.29L104.95,120.30L104.22,120.38L104.35,118.18L105.33,117.25L105.78,117.28zM152.80,140.95L152.78,141.83L151.50,143.54L150.93,143.57L150.94,141.47L151.90,140.57L152.40,140.54z"/></g><g id="hotspot.7" ident="" onmouseover="ShowHotSpot(evt,&apos;7&apos;)" onmouseout="HideHotSpot(evt,&apos;7&apos;)" onmousemove="ShowToolTip(evt,&apos;7&apos;,&quot;Revolve1&quot;)" opacity="0"><path style="fill:#00ff00;fill-rule:evenodd" d="M184.76,93.32L189.87,95.85L191.74,97.98L192.79,100.57L192.78,106.15L192.43,107.98L190.60,112.35L187.70,116.36L183.93,119.15L181.75,119.88L177.83,119.89L172.75,117.33L171.34,116.20L169.83,112.98L169.35,109.34L170.19,104.68L171.92,100.58L174.43,97.27L177.12,94.86L179.92,93.29L181.38,92.94L183.69,92.93z"/></g><g id="hotspot.8" ident="" onmouseover="ShowHotSpot(evt,&apos;8&apos;)" onmouseout="HideHotSpot(evt,&apos;8&apos;)" onmousemove="ShowToolTip(evt,&apos;8&apos;,&quot;Boss-Extrude7&quot;)" opacity="0"><path style="fill:#00ff00;fill-rule:evenodd" d="M128.70,59.47L130.91,59.41L140.35,63.84L144.75,64.54L154.57,68.91L160.39,71.46L162.93,72.92L169.16,79.07L171.68,81.28L172.42,82.36L172.42,85.06L170.21,89.04L169.11,93.77L167.91,97.30L165.12,102.88L161.69,107.10L157.47,110.52L153.11,112.34L148.61,112.94L146.03,114.73L140.98,117.73L140.01,117.73L125.11,110.38L123.96,108.98L121.08,99.48L119.63,98.39L115.65,96.18L113.79,93.67L112.32,90.05L111.98,88.21L112.03,81.63L111.15,80.91L111.25,79.41L108.92,77.98L109.33,77.28L110.15,77.23L110.88,77.68L111.93,77.75L113.47,76.71L115.66,71.98L116.77,70.10L116.26,69.37L116.35,67.90L116.73,67.80L117.44,68.22L118.39,68.21L120.38,65.78L125.32,62.36L127.66,61.36L127.66,60.57L126.16,59.79L126.16,58.82L126.90,58.68z"/></g><g id="hotspot.9" ident="" onmouseover="ShowHotSpot(evt,&apos;9&apos;)" onmouseout="HideHotSpot(evt,&apos;9&apos;)" onmousemove="ShowToolTip(evt,&apos;9&apos;,&quot;Boss-Extrude1&quot;)" opacity="0"><path style="fill:#00ff00;fill-rule:evenodd" d="M128.34,126.81L128.75,127.48L128.74,129.83L128.02,131.29L126.76,132.22L125.04,132.28L124.32,131.56L124.34,129.07L125.84,126.93L126.78,126.38L127.64,126.37zM147.67,136.59L147.67,138.93L146.93,140.38L145.74,141.37L143.64,141.34L143.28,140.98L143.26,138.17L144.40,136.39L145.33,135.87L146.94,135.86z"/></g><g id="ToolTip" visibility="hidden" opacity="0" transform="translate(0,0)"><rect id="ToolTipShadow" opacity="0.20" fill="black" stroke="none" x="0" y="0" width="30" height="8"/><rect id="ToolTipBG" fill="#ffffe1" stroke="black" x="0" y="0" width="30" height="8"/><text xml:space="preserve" id="ToolTipText" fill="black" x="0" y="0" width="30" height="8">tooltip</text></g></g></svg>